<svg width="52" height="53" viewBox="0 0 52 53" fill="none" xmlns="http://www.w3.org/2000/svg">
<circle cx="26" cy="26.1484" r="26" fill="#01BD95"/>
<path d="M37.6944 30.0718C37.6944 31.4387 37.1818 32.6347 36.1567 33.6598C35.1885 34.628 33.9925 35.1121 32.5687 35.1121C31.2588 35.1121 30.0913 34.5995 29.0661 33.5744C28.041 32.5493 27.4145 31.3817 27.1867 30.0718C26.7881 27.3381 27.2721 24.5759 28.639 21.7853C30.0059 18.9946 31.9992 16.8304 34.619 15.2927C35.3024 14.8941 35.815 14.9225 36.1567 15.3782C36.5554 15.7768 36.5269 16.147 36.0713 16.4887C35.0461 17.2861 34.1064 18.3112 33.2521 19.5642C32.4548 20.8171 31.9137 22.1555 31.629 23.5793C31.4012 24.7183 31.629 25.2879 32.3124 25.2879C34.021 25.2879 35.3309 25.7719 36.2421 26.7401C37.2103 27.6514 37.6944 28.7619 37.6944 30.0718ZM23.4279 30.0718C23.4279 31.4387 22.9153 32.6347 21.8902 33.6598C20.922 34.628 19.726 35.1121 18.3022 35.1121C16.9923 35.1121 15.8248 34.5995 14.7996 33.5744C13.7745 32.5493 13.148 31.3817 12.9202 30.0718C12.5215 27.3381 13.0056 24.5759 14.3725 21.7853C15.7393 18.9946 17.7326 16.8304 20.3525 15.2927C21.0359 14.8941 21.5769 14.9225 21.9756 15.3782C22.3743 15.7768 22.3173 16.147 21.8047 16.4887C20.7796 17.2861 19.8399 18.3112 18.9856 19.5642C18.1883 20.8171 17.6472 22.1555 17.3625 23.5793C17.1347 24.7183 17.3625 25.2879 18.0459 25.2879C19.7545 25.2879 21.0644 25.7719 21.9756 26.7401C22.9438 27.6514 23.4279 28.7619 23.4279 30.0718Z" fill="white"/>
</svg>