<svg width="88" height="88" viewBox="0 0 88 88" fill="none" xmlns="http://www.w3.org/2000/svg">
<circle cx="44.0548" cy="43.714" r="43.2979" fill="#313A44"/>
<path d="M43.9672 47.6334C49.7306 47.6334 54.4027 43.0781 54.4027 37.4588C54.4027 31.8395 49.7306 27.2842 43.9672 27.2842C38.2039 27.2842 33.5317 31.8395 33.5317 37.4588C33.5317 43.0781 38.2039 47.6334 43.9672 47.6334Z" stroke="url(#paint0_linear)" stroke-width="3.52198" stroke-miterlimit="10" stroke-linecap="round" stroke-linejoin="round"/>
<path d="M36.7928 60.4166C42.412 60.4166 46.9674 55.8613 46.9674 50.242C46.9674 44.6227 42.412 40.0674 36.7928 40.0674C31.1735 40.0674 26.6182 44.6227 26.6182 50.242C26.6182 55.8613 31.1735 60.4166 36.7928 60.4166Z" stroke="url(#paint1_linear)" stroke-width="3.52198" stroke-miterlimit="10" stroke-linecap="round" stroke-linejoin="round"/>
<path d="M51.1414 60.4166C56.7607 60.4166 61.316 55.8613 61.316 50.242C61.316 44.6227 56.7607 40.0674 51.1414 40.0674C45.5221 40.0674 40.9668 44.6227 40.9668 50.242C40.9668 55.8613 45.5221 60.4166 51.1414 60.4166Z" stroke="white" stroke-width="3.26109" stroke-miterlimit="10" stroke-linecap="round" stroke-linejoin="round"/>
<path d="M51.1411 52.8506C52.5819 52.8506 53.75 51.6825 53.75 50.2417C53.75 48.8008 52.5819 47.6328 51.1411 47.6328C49.7003 47.6328 48.5322 48.8008 48.5322 50.2417C48.5322 51.6825 49.7003 52.8506 51.1411 52.8506Z" fill="white"/>
<defs>
<linearGradient id="paint0_linear" x1="31.8218" y1="37.4474" x2="56.2147" y2="37.4474" gradientUnits="userSpaceOnUse">
<stop stop-color="#00DEAC"/>
<stop offset="1" stop-color="#01B38B"/>
</linearGradient>
<linearGradient id="paint1_linear" x1="36.7506" y1="62.2946" x2="36.7506" y2="38.3157" gradientUnits="userSpaceOnUse">
<stop stop-color="#00DEAC"/>
<stop offset="1" stop-color="white"/>
</linearGradient>
</defs>
</svg>