<svg xmlns="http://www.w3.org/2000/svg" viewBox="0 0 64 64" fill="none"><path d="M27.84 28.414a3.515 3.515 0 10-3.515-3.515 3.525 3.525 0 003.515 3.515zM32.552 24.873a3.515 3.515 0 103.515-3.515 3.525 3.525 0 00-3.515 3.515zM40.197 28.476a3.515 3.515 0 103.515 3.514 3.525 3.525 0 00-3.515-3.514zM39.615 39.117a3.515 3.515 0 00-7.03 0v0a3.515 3.515 0 007.03 0v0zM31.387 39.148a3.515 3.515 0 10-3.515 3.515 3.525 3.525 0 003.515-3.515zM23.727 28.509a3.515 3.515 0 000 7.03h0a3.515 3.515 0 000-7.03h0z" stroke="currentColor"></path><circle cx="19.779" cy="39.098" r="2.079" stroke="currentColor"></circle><circle cx="31.859" cy="46.112" r="2.079" stroke="currentColor"></circle><circle cx="44.21" cy="39.032" r="2.079" stroke="currentColor"></circle><circle cx="44.179" cy="24.929" r="2.079" stroke="currentColor"></circle><circle cx="31.935" cy="17.87" r="2.079" stroke="currentColor"></circle><circle cx="19.762" cy="24.958" r="2.079" stroke="currentColor"></circle><circle cx="13.678" cy="32.041" r="1.765" stroke="currentColor"></circle><circle cx="22.83" cy="47.871" r="1.765" stroke="currentColor"></circle><circle cx="41.165" cy="47.834" r="1.765" stroke="currentColor"></circle><circle cx="50.25" cy="31.95" r="1.765" stroke="currentColor"></circle><circle cx="41.09" cy="16.169" r="1.765" stroke="currentColor"></circle><circle cx="22.792" cy="16.173" r="1.765" stroke="currentColor"></circle><circle cx="12.443" cy="20.773" r="1.455" stroke="currentColor"></circle><circle cx="12.491" cy="43.319" r="1.455" stroke="currentColor"></circle><circle cx="31.859" cy="54.543" r="1.455" stroke="currentColor"></circle><circle cx="51.49" cy="43.233" r="1.455" stroke="currentColor"></circle><circle cx="51.464" cy="20.701" r="1.455" stroke="currentColor"></circle><circle cx="31.925" cy="9.461" r="1.455" stroke="currentColor"></circle><circle cx="19.572" cy="53.53" r="1.156" stroke="currentColor"></circle><circle cx="44.433" cy="53.431" r="1.156" stroke="currentColor"></circle><circle cx="56.805" cy="31.942" r="1.156" stroke="currentColor"></circle><circle cx="44.362" cy="10.483" r="1.156" stroke="currentColor"></circle><circle cx="19.516" cy="10.542" r="1.156" stroke="currentColor"></circle><circle cx="7.146" cy="32.06" r="1.156" stroke="currentColor"></circle></svg>