<svg xmlns="http://www.w3.org/2000/svg" xmlns:xlink="http://www.w3.org/1999/xlink" id="Layer_1" x="0px" y="0px" width="199px" height="73.333px" viewBox="0 0 199 73.333" xml:space="preserve"> <path fill="#FFFFFF" d="M60.383,28.832c-0.034-6.103,3.936-12.306,12.373-12.306c3.168,0,6.17,1.2,8.571,3.568l-2.936,2.835 c-1.534-1.501-3.602-2.201-5.636-2.201c-5.638,0-8.071,4.203-8.037,8.104c0.033,3.869,2.267,7.904,8.037,7.904 c2.034,0,4.335-0.834,5.87-2.368l3.001,3.035c-2.401,2.367-5.503,3.469-8.871,3.469C64.085,40.872,60.416,34.901,60.383,28.832"/> <path fill="#FFFFFF" d="M104.558,40.087h-5.235l-6.804-7.804h-4.235v7.804H83.88V16.708c3.702,0,7.404,0.034,11.106,0.034 c5.503,0.033,8.404,3.702,8.404,7.737c0,3.202-1.468,6.438-5.903,7.337l7.07,7.972V40.087z M88.283,20.844v7.471h6.703 c2.802,0,4.002-1.867,4.002-3.735s-1.234-3.735-4.002-3.735H88.283z"/> <polygon fill="#FFFFFF" points="116.2,26.38 122.402,16.742 127.705,16.742 127.705,16.941 118.4,30.448 118.4,40.087 113.998,40.087 113.998,30.448 105.027,16.941 105.027,16.742 110.263,16.742 "/> <path fill="#FFFFFF" d="M140.647,33.217h-6.603v6.87h-4.402V16.742c3.667,0,7.337-0.034,11.005-0.034 C152.054,16.708,152.088,33.217,140.647,33.217 M134.045,29.181h6.603c5.637,0,5.604-8.271,0-8.271h-6.603V29.181z"/> <polygon fill="#FFFFFF" points="158.227,20.743 150.823,20.743 150.823,16.742 170.032,16.742 170.032,20.743 162.629,20.743 162.629,40.087 158.227,40.087 "/> <path fill="#FFFFFF" d="M195.647,28.547c-0.066,6.037-3.769,12.074-11.973,12.074s-12.006-5.902-12.006-12.04 c0-6.137,3.936-12.306,12.006-12.306C191.712,16.275,195.715,22.444,195.647,28.547 M176.004,28.647 c0.101,3.835,2.168,7.938,7.671,7.938s7.57-4.136,7.638-7.971c0.066-3.935-2.135-8.338-7.638-8.338S175.903,24.713,176.004,28.647"/> <polygon fill="#FFFFFF" points="98.105,47.505 94.486,53.04 94.244,53.04 90.598,47.505 90.598,55.903 89.87,55.903 89.87,46.452 90.734,46.452 94.353,51.96 97.931,46.452 98.821,46.452 98.821,55.903 98.105,55.903 "/> <path fill="#FFFFFF" d="M108.42,55.903l-1.038-2.322h-5.645l-1.026,2.322h-0.782l4.239-9.451h0.796l4.239,9.451H108.42z M107.098,52.905l-2.539-5.752l-2.538,5.752H107.098z"/> <rect x="110.284" y="46.452" fill="#FFFFFF" width="0.716" height="9.451"/> <polygon fill="#FFFFFF" points="113.403,46.452 119.762,54.269 119.762,46.452 120.479,46.452 120.479,55.903 120.194,55.903 113.82,48.099 113.82,55.903 113.092,55.903 113.092,46.452 "/> <polygon fill="#FFFFFF" points="123.313,50.948 128.755,50.948 128.755,51.637 123.313,51.637 123.313,55.916 122.583,55.916 122.583,46.452 128.942,46.452 128.942,47.181 123.313,47.181 "/> <path fill="#FFFFFF" d="M138.098,55.903h-0.96l-3.266-3.578h-2.58v3.578h-0.729v-9.451h4.158c2.053,0,3.092,1.472,3.105,2.942 c0.014,1.54-1,2.891-3.065,2.891L138.098,55.903z M131.292,51.637h3.349c1.647,0,2.377-0.933,2.39-2.255 c0.015-1.107-0.742-2.256-2.309-2.256h-3.43V51.637z"/> <path fill="#FFFFFF" d="M146.833,55.903l-1.039-2.322h-5.645l-1.025,2.322h-0.784l4.24-9.451h0.796l4.239,9.451H146.833z M145.51,52.905l-2.538-5.752l-2.539,5.752H145.51z"/> <polygon fill="#FFFFFF" points="156.933,47.505 153.313,53.04 153.069,53.04 149.425,47.505 149.425,55.903 148.694,55.903 148.694,46.452 149.56,46.452 153.178,51.96 156.756,46.452 157.646,46.452 157.646,55.903 156.933,55.903 "/> <polygon fill="#FFFFFF" points="160.443,50.813 165.979,50.813 165.979,51.475 160.443,51.475 160.443,55.201 166.41,55.201 166.41,55.903 159.728,55.903 159.728,46.452 166.248,46.452 166.248,47.141 160.443,47.141 "/> <polyline fill="#FFFFFF" points="59.897,50.672 86.098,50.672 86.098,51.61 59.897,51.61 "/> <rect x="168.716" y="50.672" fill="#FFFFFF" width="26.2" height="0.938"/> <path fill="#FFFFFF" d="M47.624,48.752v0.577h-8v-0.577c2.198,0,2.091-1.621,1.73-2.919l-5.802-17.405l-4.686,14.775l0.829,2.522 c1.226,3.1,2.522,3.026,2.522,3.026v0.577h-8.324v-0.577c2.486,0,2.739-1.368,2.486-2.594c-0.035-0.217-0.107-0.396-0.181-0.612 l-5.585-16.794l-4.973,15.641c-1.334,4.757,3.026,4.324,3.026,4.324v0.612H13.57v-0.577c1.441,0,2.414-1.729,2.848-2.99 l7.458-23.424l6.596,19.712l6.378-19.964l7.819,23.46C45.967,48.825,47.624,48.752,47.624,48.752"/> <path fill="#FFFFFF" d="M24.511,2.377V9.59v4.337c1.256-0.322,2.554-0.537,3.88-0.648V9.041V2.377"/> <path fill="#FFFFFF" d="M32.024,2.377v6.637v4.234c1.323,0.089,2.62,0.284,3.879,0.581V9.507V2.377"/> <path fill="#FFFFFF" d="M28.391,70.824v-6.103v-4.237c-1.326-0.112-2.624-0.327-3.88-0.648v4.337v6.651"/> <path fill="#FFFFFF" d="M6.695,36.882c0-10.173,6.447-18.864,15.467-22.215v-4.462C10.771,13.724,2.469,24.349,2.469,36.882 c0,12.531,8.303,23.156,19.693,26.677v-4.462C13.143,55.745,6.695,47.054,6.695,36.882"/> <path fill="#FFFFFF" d="M38.251,59.226v4.435c9.82-2.887,17.55-11.04,19.557-21.484l-4.151-0.798 C52.037,49.814,46.016,56.49,38.251,59.226"/> <path fill="#FFFFFF" d="M53.773,33.04l4.171-0.679c-1.771-10.873-9.577-19.345-19.693-22.279v4.433 C46.255,17.301,52.341,24.247,53.773,33.04"/> <polyline display="none" fill="#282A66" points="32.024,60.513 32.024,64.747 32.024,70.824 "/> <path fill="#FFFFFF" d="M33.964,70.824v-6.103v-4.237c-1.326-0.112-2.624-0.327-3.88-0.648v4.337v6.651"/> </svg>