<svg width="62" height="52" viewBox="0 0 62 52" fill="none" xmlns="http://www.w3.org/2000/svg">
<path d="M18.6086 1.79688C12.8572 3.67632 9.06841 9.26758 9.97565 14.5737C4.38361 15.7676 1.06855 19.7676 2.03327 28.0073" stroke="#B0C4D4" stroke-width="3.3" stroke-miterlimit="10" stroke-linecap="round" stroke-linejoin="round"></path>
<path d="M50.2438 12.9531C45.0918 8.83545 39.044 11.0931 37.0629 12.0543C35.27 6.87729 27.8132 4.20432 22.8747 6.08377C17.9362 7.96321 15.3864 13.684 17.1792 18.8606C12.8532 19.004 8.43601 22.7576 8.5007 27.2942C8.56578 31.8311 12.0891 35.4751 16.4175 35.4824H45.7726C50.5922 35.4824 56.4998 31.3865 56.4998 26.3337C56.4998 22.0976 55.8742 17.4531 50.2438 12.9531Z" fill="#2F3945" stroke="#01C89E" stroke-width="3.3" stroke-miterlimit="10" stroke-linecap="round" stroke-linejoin="round"></path>
<rect x="30.5" y="41.4824" width="30" height="6" rx="2" fill="#2B3541" stroke="#B0C4D4" stroke-width="3"></rect>
<rect x="30.5" y="29.4824" width="30" height="6" rx="2" fill="#2B3541" stroke="#B0C4D4" stroke-width="3"></rect>
</svg>