<svg width="102" height="48" viewBox="0 0 102 48" fill="none" xmlns="http://www.w3.org/2000/svg">
<path d="M32 46.4824H1.40625V41.2637L16.5625 24.7324C18.75 22.2949 20.3021 20.2637 21.2188 18.6387C22.1562 16.9928 22.625 15.347 22.625 13.7012C22.625 11.5345 22.0104 9.78451 20.7812 8.45117C19.5729 7.11784 17.9375 6.45117 15.875 6.45117C13.4167 6.45117 11.5104 7.20117 10.1562 8.70117C8.80208 10.2012 8.125 12.2533 8.125 14.8574H0.53125C0.53125 12.0866 1.15625 9.59701 2.40625 7.38867C3.67708 5.15951 5.47917 3.43034 7.8125 2.20117C10.1667 0.972005 12.875 0.357422 15.9375 0.357422C20.3542 0.357422 23.8333 1.47201 26.375 3.70117C28.9375 5.90951 30.2188 8.97201 30.2188 12.8887C30.2188 15.1595 29.5729 17.5449 28.2812 20.0449C27.0104 22.5241 24.9167 25.347 22 28.5137L10.875 40.4199H32V46.4824ZM39.8125 23.9199L42.2812 0.982422H66.7188V7.54492H48.5938L47.3438 18.4199C49.4479 17.2116 51.8229 16.6074 54.4688 16.6074C58.8021 16.6074 62.1667 17.9928 64.5625 20.7637C66.9792 23.5345 68.1875 27.2637 68.1875 31.9512C68.1875 36.5762 66.8542 40.2637 64.1875 43.0137C61.5208 45.7428 57.8646 47.1074 53.2188 47.1074C49.0521 47.1074 45.5938 45.9303 42.8438 43.5762C40.1146 41.2012 38.6354 38.0762 38.4062 34.2012H45.75C46.0417 36.4095 46.8333 38.1074 48.125 39.2949C49.4167 40.4616 51.1042 41.0449 53.1875 41.0449C55.5208 41.0449 57.3333 40.2116 58.625 38.5449C59.9375 36.8783 60.5938 34.6074 60.5938 31.7324C60.5938 28.9616 59.875 26.7741 58.4375 25.1699C57 23.5449 55.0208 22.7324 52.5 22.7324C51.125 22.7324 49.9583 22.9199 49 23.2949C48.0417 23.6491 47 24.3574 45.875 25.4199L39.8125 23.9199ZM86.7812 23.7949L93.2188 12.6699H101.656L91.3125 29.3262L102 46.4824H93.625L86.875 34.9199L80.1562 46.4824H71.7188L82.4062 29.3262L72.0938 12.6699H80.4688L86.7812 23.7949Z" fill="#FEB44B"></path>
</svg>