<svg width="99" height="48" viewBox="0 0 99 48" fill="none" xmlns="http://www.w3.org/2000/svg">
<path d="M18.9688 46.4824H11.4062V9.95117L0.25 13.7637V7.35742L18 0.826172H18.9688V46.4824ZM64.4375 27.3262C64.4375 33.8678 63.2083 38.8053 60.75 42.1387C58.3125 45.4512 54.5938 47.1074 49.5938 47.1074C44.6771 47.1074 40.9688 45.4928 38.4688 42.2637C35.9896 39.0137 34.7188 34.2116 34.6562 27.8574V19.9824C34.6562 13.4408 35.875 8.53451 38.3125 5.26367C40.7708 1.99284 44.5104 0.357422 49.5312 0.357422C54.5104 0.357422 58.2188 1.95117 60.6562 5.13867C63.1146 8.32617 64.375 13.097 64.4375 19.4512V27.3262ZM56.8438 18.8262C56.8438 14.5553 56.2604 11.4303 55.0938 9.45117C53.9271 7.45117 52.0729 6.45117 49.5312 6.45117C47.0521 6.45117 45.2292 7.39909 44.0625 9.29492C42.8958 11.1699 42.2812 14.1074 42.2188 18.1074V28.4199C42.2188 32.6699 42.8125 35.8366 44 37.9199C45.1875 40.0033 47.0521 41.0449 49.5938 41.0449C52.0312 41.0449 53.8333 40.0866 55 38.1699C56.1667 36.2324 56.7812 33.2116 56.8438 29.1074V18.8262ZM83.7812 23.7949L90.2188 12.6699H98.6562L88.3125 29.3262L99 46.4824H90.625L83.875 34.9199L77.1562 46.4824H68.7188L79.4062 29.3262L69.0938 12.6699H77.4688L83.7812 23.7949Z" fill="url(#paint2)"></path>
<defs>
<linearGradient id="paint2" x1="125.663" y1="9.86095" x2="-5.06904" y2="10.408" gradientUnits="userSpaceOnUse">
<stop offset="0.244792" stop-color="#16F1C2"></stop>
<stop offset="1" stop-color="#00B68F"></stop>
</linearGradient>
</defs>
</svg>