<svg width="102" height="48" viewBox="0 0 102 48" fill="none" xmlns="http://www.w3.org/2000/svg">
<path d="M32 46.5117H1.40625V41.293L16.5625 24.7617C18.75 22.3242 20.3021 20.293 21.2188 18.668C22.1562 17.0221 22.625 15.3763 22.625 13.7305C22.625 11.5638 22.0104 9.8138 20.7812 8.48047C19.5729 7.14714 17.9375 6.48047 15.875 6.48047C13.4167 6.48047 11.5104 7.23047 10.1562 8.73047C8.80208 10.2305 8.125 12.2826 8.125 14.8867H0.53125C0.53125 12.1159 1.15625 9.6263 2.40625 7.41797C3.67708 5.1888 5.47917 3.45964 7.8125 2.23047C10.1667 1.0013 12.875 0.386719 15.9375 0.386719C20.3542 0.386719 23.8333 1.5013 26.375 3.73047C28.9375 5.9388 30.2188 9.0013 30.2188 12.918C30.2188 15.1888 29.5729 17.5742 28.2812 20.0742C27.0104 22.5534 24.9167 25.3763 22 28.543L10.875 40.4492H32V46.5117ZM67.4375 27.3555C67.4375 33.8971 66.2083 38.8346 63.75 42.168C61.3125 45.4805 57.5938 47.1367 52.5938 47.1367C47.6771 47.1367 43.9688 45.5221 41.4688 42.293C38.9896 39.043 37.7188 34.2409 37.6562 27.8867V20.0117C37.6562 13.4701 38.875 8.5638 41.3125 5.29297C43.7708 2.02214 47.5104 0.386719 52.5312 0.386719C57.5104 0.386719 61.2188 1.98047 63.6562 5.16797C66.1146 8.35547 67.375 13.1263 67.4375 19.4805V27.3555ZM59.8438 18.8555C59.8438 14.5846 59.2604 11.4596 58.0938 9.48047C56.9271 7.48047 55.0729 6.48047 52.5312 6.48047C50.0521 6.48047 48.2292 7.42839 47.0625 9.32422C45.8958 11.1992 45.2812 14.1367 45.2188 18.1367V28.4492C45.2188 32.6992 45.8125 35.8659 47 37.9492C48.1875 40.0326 50.0521 41.0742 52.5938 41.0742C55.0312 41.0742 56.8333 40.1159 58 38.1992C59.1667 36.2617 59.7812 33.2409 59.8438 29.1367V18.8555ZM86.7812 23.8242L93.2188 12.6992H101.656L91.3125 29.3555L102 46.5117H93.625L86.875 34.9492L80.1562 46.5117H71.7188L82.4062 29.3555L72.0938 12.6992H80.4688L86.7812 23.8242Z" fill="url(#paint1)"></path>
<defs>
<linearGradient id="paint1" x1="0.0791691" y1="25.0117" x2="125.2" y2="25.0117" gradientUnits="userSpaceOnUse">
<stop stop-color="#0272D9"></stop>
<stop offset="0.953125" stop-color="#42A3FD"></stop>
</linearGradient>
</defs>
</svg>