<svg width="70" height="70" viewBox="0 0 70 70" fill="none" xmlns="http://www.w3.org/2000/svg">
<g clip-path="url(#clip0)">
<path d="M63.6365 0H6.36369C2.85558 0 0 2.85394 0 6.36369V63.6365C0 67.1461 2.85558 70.0002 6.36369 70.0002H63.6365C67.1446 70.0002 70.0002 67.1462 70.0002 63.6365V6.36369C70 2.85394 67.1446 0 63.6365 0ZM66.8182 63.6365C66.8182 65.3904 65.3919 66.8182 63.6365 66.8182H6.36369C4.60807 66.8182 3.18192 65.3904 3.18192 63.6365V15.9092H66.8182V63.6365ZM66.8182 12.7272H3.18177V6.36369C3.18177 4.60971 4.60807 3.18192 6.36354 3.18192H63.6363C65.3919 3.18192 66.8181 4.60971 66.8181 6.36369V12.7272H66.8182Z" fill="#cd7866"/>
<path d="M7.95473 9.5452C8.83339 9.5452 9.54569 8.83291 9.54569 7.95424C9.54569 7.07558 8.83339 6.36328 7.95473 6.36328C7.07607 6.36328 6.36377 7.07558 6.36377 7.95424C6.36377 8.83291 7.07607 9.5452 7.95473 9.5452Z" fill="#cd7866"/>
<path d="M14.3185 9.5452C15.1972 9.5452 15.9095 8.83291 15.9095 7.95424C15.9095 7.07558 15.1972 6.36328 14.3185 6.36328C13.4398 6.36328 12.7275 7.07558 12.7275 7.95424C12.7275 8.83291 13.4398 9.5452 14.3185 9.5452Z" fill="#cd7866"/>
<path d="M20.6818 9.5452C21.5604 9.5452 22.2727 8.83291 22.2727 7.95424C22.2727 7.07558 21.5604 6.36328 20.6818 6.36328C19.8031 6.36328 19.0908 7.07558 19.0908 7.95424C19.0908 8.83291 19.8031 9.5452 20.6818 9.5452Z" fill="#cd7866"/>
<path d="M46.1364 35.0003H58.8636C59.743 35.0003 60.4546 34.2887 60.4546 33.4093C60.4546 32.5299 59.743 31.8184 58.8636 31.8184H46.1364C45.257 31.8184 44.5454 32.5299 44.5454 33.4093C44.5456 34.2887 45.257 35.0003 46.1364 35.0003Z" fill="#cd7866"/>
<path d="M39.7731 44.5452H58.864C59.7434 44.5452 60.455 43.8336 60.455 42.9542C60.455 42.0749 59.7434 41.3633 58.864 41.3633H39.7731C38.8937 41.3633 38.1821 42.0749 38.1821 42.9542C38.1821 43.8336 38.8937 44.5452 39.7731 44.5452Z" fill="#cd7866"/>
<path d="M39.7731 54.0911H58.864C59.7434 54.0911 60.455 53.3795 60.455 52.5001C60.455 51.6208 59.7434 50.9092 58.864 50.9092H39.7731C38.8937 50.9092 38.1821 51.6208 38.1821 52.5001C38.1821 53.3795 38.8937 54.0911 39.7731 54.0911Z" fill="#cd7866"/>
<path d="M11.1362 58.8635C11.1362 59.5068 11.5246 60.0877 12.118 60.3332C12.7083 60.5802 13.3952 60.4451 13.8519 59.9882L19.0907 54.7494L24.3295 59.9882C24.634 60.2928 25.0411 60.4543 25.4544 60.4543C25.6594 60.4543 25.8676 60.4155 26.0633 60.333C26.6568 60.0875 27.0452 59.5065 27.0452 58.8633V41.178C29.0072 39.1694 30.2269 36.4315 30.2269 33.4089C30.2269 27.2689 25.2305 22.2725 19.0905 22.2725C12.9506 22.2725 7.9541 27.2689 7.9541 33.4089C7.9541 36.4315 9.17383 39.1693 11.1359 41.178V58.8635H11.1362ZM23.8634 55.0229L20.2155 51.3751C19.594 50.7536 18.5873 50.7536 17.9659 51.3751L14.3179 55.0229V43.4282C15.7702 44.1234 17.3762 44.5453 19.0907 44.5453C20.8051 44.5453 22.4111 44.1235 23.8634 43.4282V55.0229ZM19.0907 25.4544C23.4782 25.4544 27.0452 29.023 27.0452 33.4089C27.0452 37.7947 23.4782 41.3634 19.0907 41.3634C14.7032 41.3634 11.1362 37.7947 11.1362 33.4089C11.1362 29.023 14.7032 25.4544 19.0907 25.4544Z" fill="#cd7866"/>
</g>
<defs>
<clipPath id="clip0">
<rect width="70" height="70" fill="white"/>
</clipPath>
</defs>
</svg>
