<svg width="236" height="99" viewBox="0 0 236 99" fill="none" xmlns="http://www.w3.org/2000/svg">
<path d="M8.81648 98.9454C8.42596 99.3359 7.79279 99.3359 7.40227 98.9454L1.0383 92.5814C0.647781 92.1909 0.647781 91.5577 1.0383 91.1672C1.42883 90.7767 2.062 90.7767 2.45251 91.1672L8.10938 96.8241L13.7662 91.1672C14.1568 90.7767 14.7899 90.7767 15.1805 91.1672C15.571 91.5577 15.571 92.1909 15.1805 92.5814L8.81648 98.9454ZM235.109 0.238281V26.987H233.109V0.238281H235.109ZM232.109 29.987H10.1094V27.987H232.109V29.987ZM9.10938 30.987V98.2383H7.10938V30.987H9.10938ZM10.1094 29.987C9.5571 29.987 9.10938 30.4347 9.10938 30.987H7.10938C7.10938 29.3301 8.45251 27.987 10.1094 27.987V29.987ZM235.109 26.987C235.109 28.6438 233.766 29.987 232.109 29.987V27.987C232.662 27.987 233.109 27.5393 233.109 26.987H235.109Z" fill="#9DAFBD" fill-opacity="0.5"/>
</svg>