<svg width="41" height="41" viewBox="0 0 41 41" fill="none" xmlns="http://www.w3.org/2000/svg">
<path fill-rule="evenodd" clip-rule="evenodd" d="M32.3889 6.82969C32.5839 6.82969 32.7755 6.88103 32.9444 6.97855C33.1004 7.08126 33.228 7.22164 33.3154 7.38672C33.4028 7.55179 33.4472 7.73623 33.4444 7.92299V24.5119C33.4438 24.7171 33.3864 24.9181 33.2785 25.0926C33.1707 25.2672 33.0166 25.4084 32.8333 25.5008C30.3797 26.5594 27.7272 27.0785 25.0556 27.023C22.7279 26.8865 20.4557 26.2578 18.3889 25.1786C16.9422 24.4018 15.3563 23.9184 13.7222 23.7563C12.1621 23.7517 10.6248 24.1205 9.23828 24.8302V34.166C9.23828 34.4147 9.13292 34.6531 8.94539 34.8289C8.75785 35.0047 8.5035 35.1035 8.23828 35.1035C7.97306 35.1035 7.71871 35.0047 7.53117 34.8289C7.34364 34.6531 7.23828 34.4147 7.23828 34.166V6.04102C7.23828 5.79238 7.34364 5.55392 7.53117 5.3781C7.71871 5.20229 7.97306 5.10352 8.23828 5.10352C8.5035 5.10352 8.75785 5.20229 8.94539 5.3781C9.07557 5.50015 9.16616 5.65239 9.20939 5.81726C10.6435 5.26076 12.1715 4.98336 13.7111 5.00077C15.6539 5.15094 17.545 5.69936 19.2667 6.61188C21.0498 7.55642 23.0097 8.12019 25.0222 8.26744C27.3581 8.32326 29.6794 7.88401 31.8333 6.97855C32.0022 6.88103 32.1938 6.82969 32.3889 6.82969ZM9.23828 8.25241V22.4035C10.6612 21.8402 12.1791 21.5524 13.7111 21.5563C15.6539 21.7065 17.545 22.2549 19.2667 23.1674C21.0498 24.112 23.0097 24.6757 25.0222 24.823C27.1336 24.8458 29.2324 24.496 31.2222 23.7897V9.53411C29.224 10.1454 27.1452 10.4525 25.0556 10.4452C22.7279 10.3087 20.4557 9.68003 18.3889 8.60077C16.9422 7.82399 15.3563 7.34066 13.7222 7.17855C12.1621 7.17394 10.6248 7.54273 9.23828 8.25241Z" fill="#383838"/>
<path fill-rule="evenodd" clip-rule="evenodd" d="M32.3889 6.82969C32.5839 6.82969 32.7755 6.88103 32.9444 6.97855C33.1004 7.08126 33.228 7.22164 33.3154 7.38672C33.4028 7.55179 33.4472 7.73623 33.4444 7.92299V24.5119C33.4438 24.7171 33.3864 24.9181 33.2785 25.0926C33.1707 25.2672 33.0166 25.4084 32.8333 25.5008C30.3797 26.5594 27.7272 27.0785 25.0556 27.023C22.7279 26.8865 20.4557 26.2578 18.3889 25.1786C16.9422 24.4018 15.3563 23.9184 13.7222 23.7563C12.1621 23.7517 10.6248 24.1205 9.23828 24.8302V34.166C9.23828 34.4147 9.13292 34.6531 8.94539 34.8289C8.75785 35.0047 8.5035 35.1035 8.23828 35.1035C7.97306 35.1035 7.71871 35.0047 7.53117 34.8289C7.34364 34.6531 7.23828 34.4147 7.23828 34.166V6.04102C7.23828 5.79238 7.34364 5.55392 7.53117 5.3781C7.71871 5.20229 7.97306 5.10352 8.23828 5.10352C8.5035 5.10352 8.75785 5.20229 8.94539 5.3781C9.07557 5.50015 9.16616 5.65239 9.20939 5.81726C10.6435 5.26076 12.1715 4.98336 13.7111 5.00077C15.6539 5.15094 17.545 5.69936 19.2667 6.61188C21.0498 7.55642 23.0097 8.12019 25.0222 8.26744C27.3581 8.32326 29.6794 7.88401 31.8333 6.97855C32.0022 6.88103 32.1938 6.82969 32.3889 6.82969ZM9.23828 8.25241V22.4035C10.6612 21.8402 12.1791 21.5524 13.7111 21.5563C15.6539 21.7065 17.545 22.2549 19.2667 23.1674C21.0498 24.112 23.0097 24.6757 25.0222 24.823C27.1336 24.8458 29.2324 24.496 31.2222 23.7897V9.53411C29.224 10.1454 27.1452 10.4525 25.0556 10.4452C22.7279 10.3087 20.4557 9.68003 18.3889 8.60077C16.9422 7.82399 15.3563 7.34066 13.7222 7.17855C12.1621 7.17394 10.6248 7.54273 9.23828 8.25241Z" fill="url(#paint0_linear)"/>
<path d="M32.9444 6.97855L33.2194 6.56093L33.2071 6.55287L33.1944 6.54554L32.9444 6.97855ZM33.4444 7.92299L32.9444 7.91561V7.92299H33.4444ZM33.4444 24.5119L33.9444 24.5134V24.5119H33.4444ZM33.2785 25.0926L32.8532 24.8298L33.2785 25.0926ZM32.8333 25.5008L33.0314 25.9599L33.0451 25.954L33.0583 25.9473L32.8333 25.5008ZM25.0556 27.023L25.0263 27.5221L25.0357 27.5227L25.0452 27.5229L25.0556 27.023ZM18.3889 25.1786L18.1523 25.6191L18.1575 25.6218L18.3889 25.1786ZM13.7222 23.7563L13.7716 23.2588L13.7477 23.2564L13.7237 23.2563L13.7222 23.7563ZM9.23828 24.8302L9.01046 24.3851L8.73828 24.5244V24.8302H9.23828ZM8.94539 34.8289L9.28736 35.1937L9.28736 35.1937L8.94539 34.8289ZM7.53117 34.8289L7.1892 35.1937L7.18921 35.1937L7.53117 34.8289ZM7.53117 5.3781L7.1892 5.01333L7.1892 5.01333L7.53117 5.3781ZM8.94539 5.3781L9.28736 5.01333V5.01333L8.94539 5.3781ZM9.20939 5.81726L8.72573 5.94407L8.86785 6.48612L9.39027 6.2834L9.20939 5.81726ZM13.7111 5.00077L13.7496 4.50226L13.7332 4.50099L13.7168 4.5008L13.7111 5.00077ZM19.2667 6.61188L19.0325 7.05367L19.0326 7.05372L19.2667 6.61188ZM25.0222 8.26744L24.9857 8.76611L24.998 8.767L25.0103 8.7673L25.0222 8.26744ZM31.8333 6.97855L32.0271 7.43948L32.0561 7.42729L32.0833 7.41156L31.8333 6.97855ZM9.23828 8.25241L9.01046 7.80733L8.73828 7.94664V8.25241H9.23828ZM9.23828 22.4035H8.73828V23.1392L9.42233 22.8684L9.23828 22.4035ZM13.7111 21.5563L13.7496 21.0578L13.7311 21.0564L13.7124 21.0563L13.7111 21.5563ZM19.2667 23.1674L19.0325 23.6092L19.0326 23.6093L19.2667 23.1674ZM25.0222 24.823L24.9857 25.3217L25.0013 25.3228L25.0168 25.323L25.0222 24.823ZM31.2222 23.7897L31.3895 24.2609L31.7222 24.1427V23.7897H31.2222ZM31.2222 9.53411H31.7222V8.85829L31.076 9.05597L31.2222 9.53411ZM25.0556 10.4452L25.0263 10.9444L25.04 10.9452L25.0538 10.9452L25.0556 10.4452ZM18.3889 8.60077L18.1523 9.04132L18.1575 9.04398L18.3889 8.60077ZM13.7222 7.17855L13.7716 6.68099L13.7477 6.67862L13.7237 6.67855L13.7222 7.17855ZM33.1944 6.54554C32.9495 6.40413 32.6717 6.32969 32.3889 6.32969V7.32969C32.4962 7.32969 32.6015 7.35793 32.6944 7.41156L33.1944 6.54554ZM33.7573 7.15277C33.6306 6.91341 33.4456 6.70986 33.2194 6.56093L32.6695 7.39617C32.7553 7.45266 32.8255 7.52987 32.8735 7.62066L33.7573 7.15277ZM33.9444 7.93038C33.9484 7.65958 33.8841 7.39213 33.7573 7.15277L32.8735 7.62066C32.9216 7.71145 32.946 7.81289 32.9445 7.91561L33.9444 7.93038ZM33.9444 24.5119V7.92299H32.9444V24.5119H33.9444ZM33.7039 25.3555C33.8603 25.1024 33.9435 24.8109 33.9444 24.5134L32.9444 24.5104C32.9441 24.6232 32.9125 24.7338 32.8532 24.8298L33.7039 25.3555ZM33.0583 25.9473C33.324 25.8134 33.5475 25.6086 33.7039 25.3555L32.8532 24.8298C32.7939 24.9258 32.7091 25.0035 32.6083 25.0543L33.0583 25.9473ZM25.0452 27.5229C27.7885 27.5799 30.512 27.0468 33.0314 25.9599L32.6353 25.0417C30.2474 26.0719 27.666 26.5771 25.0659 26.5231L25.0452 27.5229ZM18.1575 25.6218C20.2869 26.7337 22.6281 27.3815 25.0263 27.5221L25.0848 26.5239C22.8278 26.3915 20.6245 25.7819 18.6203 24.7353L18.1575 25.6218ZM13.6729 24.2539C15.2414 24.4095 16.7637 24.8734 18.1524 25.6191L18.6254 24.738C17.1207 23.9301 15.4712 23.4274 13.7716 23.2588L13.6729 24.2539ZM9.4661 25.2753C10.7817 24.6019 12.2404 24.252 13.7207 24.2563L13.7237 23.2563C12.0838 23.2515 10.4679 23.6391 9.01046 24.3851L9.4661 25.2753ZM8.73828 24.8302V34.166H9.73828V24.8302H8.73828ZM8.73828 34.166C8.73828 34.2713 8.69398 34.3793 8.60342 34.4642L9.28736 35.1937C9.57186 34.927 9.73828 34.5581 9.73828 34.166H8.73828ZM8.60342 34.4642C8.51176 34.5501 8.38093 34.6035 8.23828 34.6035V35.6035C8.62607 35.6035 9.00394 35.4594 9.28736 35.1937L8.60342 34.4642ZM8.23828 34.6035C8.09563 34.6035 7.9648 34.5501 7.87314 34.4642L7.18921 35.1937C7.47262 35.4594 7.8505 35.6035 8.23828 35.6035V34.6035ZM7.87315 34.4642C7.78258 34.3793 7.73828 34.2713 7.73828 34.166H6.73828C6.73828 34.5581 6.9047 34.927 7.1892 35.1937L7.87315 34.4642ZM7.73828 34.166V6.04102H6.73828V34.166H7.73828ZM7.73828 6.04102C7.73828 5.93578 7.78258 5.82778 7.87315 5.74287L7.1892 5.01333C6.9047 5.28006 6.73828 5.64897 6.73828 6.04102H7.73828ZM7.87315 5.74287C7.9648 5.65694 8.09563 5.60352 8.23828 5.60352V4.60352C7.8505 4.60352 7.47262 4.74763 7.1892 5.01333L7.87315 5.74287ZM8.23828 5.60352C8.38093 5.60352 8.51176 5.65694 8.60342 5.74287L9.28736 5.01333C9.00395 4.74763 8.62607 4.60352 8.23828 4.60352V5.60352ZM8.60342 5.74287C8.66647 5.80199 8.70692 5.87232 8.72573 5.94407L9.69304 5.69046C9.62539 5.43245 9.48467 5.19832 9.28736 5.01333L8.60342 5.74287ZM13.7168 4.5008C12.1134 4.48267 10.5221 4.77156 9.0285 5.35113L9.39027 6.2834C10.765 5.74995 12.2297 5.48405 13.7055 5.50074L13.7168 4.5008ZM19.5008 6.1701C17.7185 5.22544 15.7608 4.65772 13.7496 4.50226L13.6726 5.49928C15.5469 5.64417 17.3714 6.17327 19.0325 7.05367L19.5008 6.1701ZM25.0587 7.76877C23.1153 7.62658 21.2226 7.08216 19.5007 6.17004L19.0326 7.05372C20.877 8.03069 22.9042 8.6138 24.9857 8.76611L25.0587 7.76877ZM31.6396 6.51762C29.5506 7.39573 27.2995 7.82172 25.0342 7.76758L25.0103 8.7673C27.4167 8.82481 29.8081 8.37228 32.0271 7.43948L31.6396 6.51762ZM32.3889 6.32969C32.1061 6.32969 31.8283 6.40413 31.5833 6.54554L32.0833 7.41156C32.1762 7.35793 32.2816 7.32969 32.3889 7.32969V6.32969ZM8.73828 8.25241V22.4035H9.73828V8.25241H8.73828ZM13.7124 21.0563C12.117 21.0522 10.5362 21.3519 9.05424 21.9386L9.42233 22.8684C10.7863 22.3284 12.2413 22.0525 13.7098 22.0563L13.7124 21.0563ZM19.5008 22.7257C17.7185 21.781 15.7608 21.2133 13.7496 21.0578L13.6726 22.0548C15.5469 22.1997 17.3714 22.7288 19.0325 23.6092L19.5008 22.7257ZM25.0587 24.3243C23.1153 24.1821 21.2226 23.6377 19.5007 22.7256L19.0326 23.6093C20.877 24.5862 22.9042 25.1694 24.9857 25.3217L25.0587 24.3243ZM31.055 23.3185C29.1205 24.0051 27.0802 24.3452 25.0276 24.323L25.0168 25.323C27.187 25.3464 29.3442 24.9868 31.3895 24.2609L31.055 23.3185ZM30.7222 9.53411V23.7897H31.7222V9.53411H30.7222ZM25.0538 10.9452C27.1936 10.9527 29.3223 10.6382 31.3685 10.0122L31.076 9.05597C29.1257 9.65256 27.0968 9.95233 25.0573 9.94522L25.0538 10.9452ZM18.1575 9.04398C20.2869 10.156 22.6281 10.8037 25.0263 10.9444L25.0848 9.94607C22.8278 9.81367 20.6245 9.20409 18.6203 8.15756L18.1575 9.04398ZM13.6729 7.67611C15.2414 7.83172 16.7637 8.29566 18.1524 9.04129L18.6254 8.16026C17.1207 7.35232 15.4712 6.8496 13.7716 6.68099L13.6729 7.67611ZM9.4661 8.69749C10.7817 8.0241 12.2404 7.67417 13.7207 7.67855L13.7237 6.67855C12.0838 6.67371 10.4679 7.06135 9.01046 7.80733L9.4661 8.69749Z" fill="url(#paint1_linear)"/>
<defs>
<linearGradient id="paint0_linear" x1="8.27888" y1="16.5606" x2="32.7008" y2="16.5606" gradientUnits="userSpaceOnUse">
<stop stop-color="#00DFAD"/>
<stop offset="1" stop-color="#01B48C"/>
</linearGradient>
<linearGradient id="paint1_linear" x1="6.96841" y1="20.2047" x2="32.686" y2="20.2047" gradientUnits="userSpaceOnUse">
<stop stop-color="#00DFAD"/>
<stop offset="1" stop-color="#01B48C"/>
</linearGradient>
</defs>
</svg>
