<svg xmlns="http://www.w3.org/2000/svg" width="771" height="513" viewBox="0 0 771 513" fill="none"><g clip-path="url(#clip0)"><path d="M347.552 287.213L351.63 306.942L448.486 275.507L347.552 287.213ZM351.316 307.897L351.108 307.841L350.911 307.566L346.645 286.934L346.714 286.607L347.003 286.438L452.539 274.201C452.764 274.167 452.948 274.316 452.994 274.523C453.038 274.734 452.918 274.943 452.714 275.009L351.446 307.878L351.316 307.897Z" fill="#E66F32"></path><path d="M453.391 274.488L627.202 344.32L541.387 201.915L453.391 274.488ZM628.195 345.583L628.043 345.553L452.433 275L452.176 274.676L452.323 274.293L541.229 200.967L541.562 200.876L541.848 201.071L628.553 344.952L628.516 345.438L628.195 345.583Z" fill="#E66F32"></path><path d="M542.09 201.474L627.646 343.446L613.975 169.306L542.09 201.474ZM628.195 345.583L627.843 345.383L541.137 201.502L541.097 201.163L541.323 200.908L614.174 168.307L614.554 168.328L614.756 168.652L628.611 345.135C628.627 345.328 628.509 345.505 628.324 345.563L628.195 345.583Z" fill="#E66F32"></path><path d="M614.792 169.097L628.42 342.7L674.465 168.592L614.792 169.097ZM628.195 345.583L628.162 345.581C627.958 345.563 627.799 345.402 627.784 345.201L613.928 168.719L614.037 168.404L614.34 168.269L675.004 167.755L675.335 167.915L675.407 168.276L628.601 345.273C628.551 345.459 628.385 345.585 628.195 345.583Z" fill="#E66F32"></path><path d="M674.341 111.846L615.388 168.26L674.587 167.759L674.341 111.846ZM614.34 169.1C614.172 169.1 614.021 168.998 613.958 168.842L614.057 168.386L674.465 110.576L674.915 110.494C675.067 110.56 675.167 110.709 675.167 110.875L675.421 168.168C675.423 168.399 675.239 168.585 675.011 168.586L614.347 169.1H614.34Z" fill="#E66F32"></path><path d="M353.79 308.824L399.852 343.543L426.908 335.452L353.79 308.824ZM399.768 344.417L399.519 344.334L351.069 307.814C350.904 307.69 350.854 307.465 350.953 307.283C351.051 307.102 351.269 307.02 351.462 307.091L428.373 335.1C428.541 335.16 428.652 335.325 428.647 335.502C428.642 335.681 428.521 335.839 428.351 335.888L399.889 344.399L399.768 344.417Z" fill="#E66F32"></path><path d="M352.595 307.504L427.994 334.962L451.871 275.283L352.595 307.504ZM428.229 335.906L428.087 335.882L351.177 307.873C351.01 307.812 350.899 307.651 350.902 307.476C350.906 307.297 351.021 307.141 351.189 307.086L452.459 274.218L452.89 274.328L452.973 274.768L428.617 335.646C428.551 335.807 428.394 335.908 428.229 335.906Z" fill="#E66F32"></path><path d="M400.168 344.316L393.193 470.822L427.646 336.099L400.168 344.316ZM392.541 475.452L392.481 475.447C392.271 475.415 392.116 475.226 392.129 475.013L399.356 343.977C399.363 343.804 399.483 343.653 399.651 343.601L428.112 335.092L428.518 335.19L428.635 335.592L392.945 475.139C392.899 475.325 392.729 475.452 392.541 475.452Z" fill="#E66F32"></path><path d="M428.833 335.104L625.751 344.633L452.817 275.154L428.833 335.104ZM628.195 345.583H628.177L428.21 335.906L427.882 335.715L427.845 335.336L452.201 274.458L452.422 274.231L452.741 274.227L628.353 344.782C628.54 344.857 628.647 345.059 628.604 345.257C628.562 345.448 628.39 345.585 628.195 345.583Z" fill="#E66F32"></path><path d="M432.626 116.769L452.902 273.814L540.829 201.296L432.626 116.769ZM452.585 275.028L452.433 275L452.176 274.667L431.673 115.872C431.65 115.706 431.732 115.543 431.879 115.46L432.341 115.492L541.748 200.96L541.91 201.282L541.759 201.608L452.853 274.933L452.585 275.028Z" fill="#E66F32"></path><path d="M432.883 115.917L540.971 200.353L527.042 73.6415L432.883 115.917ZM541.49 201.702L541.238 201.613L431.827 116.147L431.672 115.77L431.912 115.44L527.222 72.6492L527.598 72.6669L527.807 72.9823L541.908 201.241C541.924 201.408 541.84 201.569 541.695 201.651L541.49 201.702Z" fill="#E66F32"></path><path d="M527.945 74.2546L541.842 200.674L613.648 168.54L527.945 74.2546ZM541.49 201.702L541.286 201.649L541.081 201.333L526.98 73.0744C526.958 72.8937 527.058 72.7236 527.222 72.6492C527.383 72.5765 527.578 72.6155 527.699 72.7484L614.65 168.406L614.749 168.771L614.514 169.065L541.662 201.666L541.49 201.702Z" fill="#E66F32"></path><path d="M528.634 73.7763L614.365 168.09L673.923 111.095L528.634 73.7763ZM614.34 169.1H614.328L614.036 168.966L527.084 73.3085L527.036 72.8141C527.132 72.6581 527.314 72.5784 527.495 72.6262L674.857 110.473L675.154 110.773L675.039 111.177L614.631 168.985L614.34 169.1Z" fill="#E66F32"></path><path d="M428.486 336.171L393.108 474.508L578.566 439.907L428.486 336.171ZM392.542 475.452L392.24 475.319L392.14 474.933L427.829 335.388L428.086 335.101L428.466 335.148L579.858 439.79C579.997 439.884 580.062 440.055 580.028 440.219C579.993 440.384 579.864 440.51 579.697 440.54L392.619 475.445L392.542 475.452Z" fill="#E66F32"></path><path d="M429.665 335.977L579.469 439.521L627.535 345.551L429.665 335.977ZM579.619 440.547L579.387 440.475L427.994 335.833C427.841 335.727 427.778 335.532 427.838 335.357C427.896 335.181 428.075 335.073 428.25 335.075L628.218 344.752L628.558 344.959L628.567 345.357L579.991 440.322L579.724 440.536L579.619 440.547Z" fill="#E66F32"></path><path d="M628.34 345.803L580.581 439.17L681.862 387.006L628.34 345.803ZM579.619 440.547L579.327 440.426C579.201 440.299 579.171 440.104 579.251 439.943L627.829 344.979L628.107 344.762L628.452 344.838L682.887 386.745L683.049 387.112L682.825 387.445L579.812 440.503L579.619 440.547Z" fill="#E66F32"></path><path d="M682.682 387.518L583.797 438.451L720.401 397.602L682.682 387.518ZM579.619 440.547C579.456 440.547 579.302 440.448 579.237 440.287C579.157 440.088 579.242 439.862 579.432 439.762L682.443 386.704L682.742 386.674L722.033 397.179C722.214 397.227 722.34 397.388 722.343 397.574C722.345 397.76 722.225 397.925 722.046 397.978L579.742 440.531L579.619 440.547Z" fill="#E66F32"></path><path d="M83.5842 424.291L107.381 466.667L154.623 410.164L83.5842 424.291ZM107.312 467.812L107.274 467.81L106.95 467.599L82.5801 424.197L82.5642 423.819L82.8599 423.585L155.618 409.119C155.788 409.085 155.967 409.161 156.056 409.314L156.017 409.794L107.632 467.664L107.312 467.812Z" fill="#E66F32"></path><path d="M313.19 175.395L313.09 175.38C312.866 175.324 312.734 175.097 312.79 174.874L335.646 86.7847C335.703 86.5632 335.928 86.4267 336.153 86.487C336.374 86.5437 336.509 86.7705 336.45 86.9938L313.594 175.083C313.546 175.27 313.376 175.395 313.19 175.395Z" fill="#E66F32"></path><path d="M336.342 87.412L313.824 174.2L430.96 115.915L336.342 87.412ZM313.19 175.395L312.93 175.301L312.79 174.874L335.646 86.7847L335.845 86.5277L336.167 86.4923L432.203 115.422C432.366 115.47 432.484 115.615 432.497 115.786C432.513 115.954 432.421 116.117 432.268 116.191L313.378 175.35L313.19 175.395Z" fill="#E66F32"></path><path d="M313.945 176.027L347.348 286.398L451.468 274.325L313.945 176.027ZM347.049 287.266C346.87 287.266 346.707 287.149 346.654 286.972L312.796 175.099C312.744 174.929 312.806 174.744 312.951 174.642L313.435 174.64L452.828 274.275C452.968 274.374 453.031 274.55 452.989 274.716C452.946 274.885 452.805 275.005 452.635 275.027L347.1 287.264L347.049 287.266Z" fill="#E66F32"></path><path d="M313.998 175.042L452.052 273.721L431.748 116.452L313.998 175.042ZM452.585 275.028L452.344 274.952L312.951 175.317L312.778 174.946L313.008 174.606L431.898 115.447L432.279 115.453L432.495 115.766L453 274.561C453.021 274.724 452.941 274.885 452.799 274.97L452.585 275.028Z" fill="#E66F32"></path><path d="M346.81 287.726L277.958 362.096L350.858 307.307L346.81 287.726ZM274.514 365.623L274.207 365.486C274.062 365.325 274.064 365.08 274.211 364.925L346.748 286.568L347.164 286.451L347.46 286.768L351.726 307.398L351.568 307.814L274.765 365.539L274.514 365.623Z" fill="#E66F32"></path><path d="M351.318 308.002L276.132 364.51L398.75 343.752L351.318 308.002ZM274.514 365.623C274.349 365.621 274.198 365.525 274.133 365.371C274.057 365.194 274.112 364.99 274.264 364.873L351.069 307.15H351.568L400.021 343.669C400.152 343.768 400.213 343.938 400.172 344.1C400.135 344.261 400.002 344.383 399.839 344.41L274.584 365.615L274.514 365.623Z" fill="#E66F32"></path><path d="M275.413 365.476L392.178 474.127L399.327 344.499L275.413 365.476ZM392.542 475.452L392.262 475.341L274.232 365.511L274.117 365.087L274.445 364.797L399.701 343.591L400.046 343.69L400.184 344.024L392.958 475.059C392.949 475.22 392.85 475.36 392.699 475.422L392.542 475.452Z" fill="#E66F32"></path><path d="M155.894 409.941L108.698 466.389L249.18 409.613L155.894 409.941ZM107.312 467.812L106.977 467.64L106.995 467.129L155.381 409.259L155.698 409.112L251.337 408.775H251.341C251.537 408.777 251.709 408.916 251.746 409.112C251.783 409.307 251.679 409.501 251.495 409.576L107.467 467.783L107.312 467.812Z" fill="#E66F32"></path><path d="M273.639 365.977L158.027 409.103L251.087 408.777L273.639 365.977ZM155.698 409.943C155.498 409.941 155.326 409.798 155.291 409.601C155.255 409.402 155.365 409.207 155.554 409.136L274.368 364.817C274.531 364.758 274.714 364.802 274.827 364.931L274.882 365.399L251.705 409.384L251.339 409.606L155.7 409.943H155.698Z" fill="#E66F32"></path><path d="M251.909 408.998L390.333 473.546L274.629 365.881L251.909 408.998ZM392.541 475.452L392.368 475.414L251.163 409.567L250.944 409.323L250.97 408.997L274.147 365.013L274.445 364.797L274.799 364.902L392.827 474.731C392.977 474.871 393.004 475.098 392.889 475.268L392.541 475.452Z" fill="#E66F32"></path><path d="M336.047 87.3057L335.703 87.1214C335.574 86.93 335.627 86.6713 335.818 86.5437L431.781 22.3221C431.971 22.1945 432.229 22.2459 432.357 22.4373C432.486 22.6269 432.433 22.8856 432.244 23.0132L336.279 87.2348L336.047 87.3057Z" fill="#E66F32"></path><path d="M337.012 86.7456L431.668 115.259L431.597 23.4455L337.012 86.7456ZM432.082 116.236L431.966 116.218L335.928 87.2878C335.774 87.24 335.661 87.1107 335.638 86.9512L335.818 86.5436L431.781 22.3221L432.206 22.3008L432.428 22.6676L432.499 115.819L432.332 116.152L432.082 116.236Z" fill="#E66F32"></path><path d="M432.428 23.3587L432.498 115.178L526.443 72.9983L432.428 23.3587ZM432.082 116.236L431.857 116.168L431.67 115.819L431.597 22.6676L431.797 22.3114L432.206 22.3008L527.587 72.6616L527.808 73.0426L527.562 73.4076L432.254 116.198L432.082 116.236Z" fill="#E66F32"></path><path d="M541.522 195.78C538.481 195.764 536.004 198.216 535.988 201.259C535.972 204.302 538.424 206.781 541.465 206.795C544.504 206.811 546.983 204.357 546.999 201.316C547.013 198.273 544.562 195.794 541.522 195.78Z" fill="#E66F32"></path><path d="M541.531 194.116C537.578 194.095 534.346 197.295 534.325 201.25C534.307 205.205 537.504 208.439 541.456 208.459C545.409 208.478 548.639 205.278 548.66 201.323C548.681 197.369 545.481 194.135 541.531 194.116ZM541.522 195.78C544.562 195.794 547.013 198.273 546.999 201.316C546.983 204.356 544.504 206.811 541.465 206.795C538.424 206.781 535.972 204.301 535.988 201.259C536.004 198.216 538.481 195.764 541.522 195.78Z" fill="#211D1D"></path><path d="M616.701 168.696C616.708 167.394 615.656 166.332 614.356 166.325C613.053 166.32 611.992 167.371 611.987 168.673C611.98 169.976 613.03 171.037 614.331 171.044C615.631 171.049 616.694 170 616.701 168.696Z" fill="#E66F32"></path><path d="M614.365 164.663C612.148 164.651 610.334 166.446 610.322 168.664C610.311 170.883 612.105 172.696 614.322 172.706C616.539 172.719 618.351 170.924 618.362 168.705C618.372 166.488 616.58 164.674 614.365 164.663ZM614.356 166.325C615.656 166.333 616.708 167.394 616.701 168.696C616.693 170.001 615.631 171.05 614.331 171.044C613.03 171.037 611.98 169.976 611.987 168.673C611.992 167.371 613.053 166.32 614.356 166.325Z" fill="#211D1D"></path><path d="M674.724 116.305C677.72 116.319 680.16 113.902 680.176 110.906C680.19 107.905 677.775 105.465 674.78 105.45C671.782 105.434 669.342 107.851 669.328 110.849C669.312 113.847 671.728 116.289 674.724 116.305Z" fill="#E66F32"></path><path d="M674.788 103.785C670.881 103.766 667.687 106.931 667.665 110.84C667.646 114.751 670.808 117.947 674.717 117.969C678.623 117.986 681.818 114.823 681.837 110.912C681.859 107.003 678.696 103.807 674.788 103.785ZM674.78 105.449C677.775 105.465 680.19 107.905 680.176 110.905C680.16 113.902 677.72 116.319 674.724 116.305C671.728 116.289 669.312 113.847 669.328 110.849C669.342 107.85 671.782 105.433 674.78 105.449Z" fill="#211D1D"></path><path d="M428.256 330.586C425.55 330.572 423.343 332.757 423.331 335.465C423.317 338.174 425.498 340.38 428.206 340.394C430.912 340.408 433.118 338.224 433.133 335.515C433.147 332.807 430.962 330.601 428.256 330.586Z" fill="#E66F32"></path><path d="M428.265 328.922C424.647 328.905 421.686 331.836 421.668 335.458C421.649 339.078 424.579 342.039 428.197 342.057C431.817 342.076 434.776 339.145 434.794 335.523C434.813 331.903 431.884 328.942 428.265 328.922ZM428.256 330.586C430.961 330.601 433.147 332.807 433.133 335.515C433.118 338.224 430.912 340.409 428.206 340.395C425.498 340.38 423.317 338.174 423.331 335.465C423.343 332.757 425.55 330.572 428.256 330.586Z" fill="#211D1D"></path><path d="M579.637 437.074C577.95 437.067 576.575 438.428 576.567 440.116C576.558 441.804 577.918 443.181 579.607 443.189C581.295 443.198 582.669 441.836 582.678 440.147C582.686 438.46 581.325 437.083 579.637 437.074Z" fill="#E66F32"></path><path d="M579.646 435.41C577.045 435.398 574.918 437.505 574.904 440.108C574.893 442.711 576.997 444.839 579.598 444.853C582.198 444.866 584.326 442.759 584.339 440.156C584.353 437.553 582.247 435.425 579.646 435.41ZM579.637 437.074C581.325 437.083 582.687 438.46 582.678 440.147C582.669 441.836 581.295 443.198 579.607 443.189C577.918 443.181 576.56 441.804 576.567 440.116C576.575 438.428 577.95 437.067 579.637 437.074Z" fill="#211D1D"></path><path d="M682.664 381.156C679.397 381.141 676.735 383.775 676.718 387.044C676.702 390.314 679.337 392.977 682.604 392.993C685.869 393.011 688.531 390.374 688.549 387.104C688.565 383.835 685.931 381.174 682.664 381.156Z" fill="#E66F32"></path><path d="M682.673 379.492C678.494 379.471 675.078 382.856 675.057 387.036C675.035 391.218 678.416 394.636 682.595 394.657C686.772 394.679 690.19 391.294 690.211 387.114C690.231 382.933 686.85 379.515 682.673 379.492ZM682.664 381.157C685.931 381.174 688.565 383.835 688.549 387.105C688.531 390.374 685.869 393.011 682.604 392.993C679.337 392.977 676.702 390.314 676.718 387.044C676.735 383.775 679.397 381.141 682.664 381.157Z" fill="#211D1D"></path><path d="M82.9626 420.056C80.7898 420.045 79.019 421.8 79.0084 423.974C78.996 426.148 80.7491 427.92 82.9219 427.93C85.0947 427.941 86.8655 426.187 86.8762 424.015C86.8868 421.84 85.1355 420.068 82.9626 420.056Z" fill="#E66F32"></path><path d="M82.9698 418.393C79.885 418.377 77.3615 420.876 77.3456 423.965C77.3297 427.053 79.8283 429.577 82.9131 429.594C85.9996 429.61 88.5231 427.11 88.539 424.021C88.555 420.934 86.0563 418.409 82.9698 418.393ZM82.9627 420.056C85.1355 420.068 86.8868 421.84 86.8762 424.014C86.8656 426.187 85.0948 427.941 82.9219 427.93C80.7491 427.92 78.996 426.148 79.0084 423.974C79.019 421.799 80.7899 420.045 82.9627 420.056Z" fill="#211D1D"></path><path d="M313.205 172.602C311.892 172.595 310.825 173.654 310.818 174.966C310.81 176.279 311.869 177.349 313.18 177.356C314.492 177.361 315.562 176.304 315.569 174.991C315.576 173.677 314.517 172.609 313.205 172.602Z" fill="#E66F32"></path><path d="M313.214 170.938C310.988 170.927 309.167 172.731 309.157 174.959C309.144 177.186 310.947 179.008 313.173 179.019C315.399 179.029 317.219 177.227 317.232 175C317.242 172.772 315.439 170.95 313.214 170.938ZM313.205 172.602C314.517 172.609 315.576 173.678 315.569 174.991C315.562 176.304 314.492 177.362 313.18 177.356C311.869 177.349 310.81 176.279 310.818 174.966C310.825 173.655 311.892 172.595 313.205 172.602Z" fill="#211D1D"></path><path d="M452.615 269.195C449.624 269.179 447.188 271.592 447.172 274.585C447.157 277.578 449.569 280.017 452.558 280.031C455.549 280.047 457.986 277.633 458.002 274.64C458.018 271.647 455.604 269.209 452.615 269.195Z" fill="#E66F32"></path><path d="M452.624 267.531C448.721 267.511 445.53 270.673 445.511 274.576C445.489 278.482 448.649 281.675 452.551 281.694C456.453 281.714 459.644 278.553 459.663 274.649C459.684 270.743 456.525 267.55 452.624 267.531ZM452.615 269.195C455.604 269.209 458.018 271.647 458.002 274.64C457.986 277.633 455.55 280.047 452.559 280.031C449.569 280.016 447.158 277.578 447.172 274.585C447.188 271.592 449.624 269.179 452.615 269.195Z" fill="#211D1D"></path><path d="M347.038 289.553C348.529 289.562 349.746 288.357 349.753 286.865C349.76 285.373 348.557 284.156 347.065 284.149C345.572 284.14 344.357 285.345 344.35 286.837C344.343 288.331 345.545 289.546 347.038 289.553Z" fill="#E66F32"></path><path d="M347.074 282.485C344.669 282.473 342.7 284.422 342.689 286.828C342.677 289.236 344.623 291.205 347.029 291.217C349.434 291.23 351.402 289.281 351.414 286.874C351.426 284.466 349.48 282.497 347.074 282.485ZM347.065 284.149C348.558 284.156 349.762 285.373 349.753 286.865C349.746 288.357 348.529 289.562 347.038 289.554C345.545 289.546 344.343 288.331 344.35 286.837C344.357 285.345 345.572 284.14 347.065 284.149Z" fill="#211D1D"></path><path d="M351.332 304.426C349.647 304.417 348.274 305.778 348.265 307.467C348.256 309.154 349.616 310.529 351.302 310.538C352.988 310.547 354.362 309.186 354.371 307.497C354.38 305.81 353.02 304.435 351.332 304.426Z" fill="#E66F32"></path><path d="M351.341 302.764C348.744 302.75 346.615 304.857 346.603 307.458C346.59 310.059 348.694 312.187 351.294 312.2C353.895 312.214 356.02 310.109 356.034 307.506C356.048 304.904 353.943 302.776 351.341 302.764ZM351.332 304.426C353.02 304.435 354.38 305.81 354.371 307.497C354.362 309.186 352.988 310.547 351.302 310.538C349.617 310.529 348.257 309.154 348.265 307.467C348.274 305.778 349.647 304.419 351.332 304.426Z" fill="#211D1D"></path><path d="M399.782 341.608C398.463 341.601 397.386 342.668 397.379 343.989C397.372 345.31 398.438 346.386 399.758 346.393C401.077 346.4 402.154 345.334 402.161 344.013C402.166 342.693 401.102 341.616 399.782 341.608Z" fill="#E66F32"></path><path d="M399.791 339.946C397.557 339.936 395.729 341.745 395.718 343.979C395.706 346.215 397.514 348.044 399.749 348.055C401.984 348.068 403.809 346.256 403.822 344.022C403.834 341.785 402.024 339.957 399.791 339.946ZM399.782 341.608C401.102 341.616 402.166 342.693 402.161 344.013C402.154 345.333 401.077 346.4 399.758 346.392C398.438 346.386 397.372 345.308 397.379 343.989C397.387 342.668 398.463 341.601 399.782 341.608Z" fill="#211D1D"></path><path d="M628.22 341.009C625.925 340.997 624.053 342.851 624.043 345.145C624.032 347.442 625.881 349.313 628.176 349.325C630.471 349.338 632.342 347.484 632.353 345.188C632.365 342.893 630.515 341.02 628.22 341.009Z" fill="#E66F32"></path><path d="M628.229 339.345C625.02 339.329 622.397 341.927 622.38 345.138C622.364 348.347 624.96 350.971 628.167 350.988C631.375 351.005 633.998 348.406 634.014 345.196C634.032 341.987 631.436 339.361 628.229 339.345ZM628.22 341.009C630.515 341.02 632.365 342.893 632.353 345.188C632.342 347.484 630.471 349.338 628.176 349.325C625.881 349.313 624.032 347.442 624.042 345.145C624.053 342.85 625.925 340.997 628.22 341.009Z" fill="#211D1D"></path><path d="M675.03 163.391C672.392 163.377 670.242 165.507 670.229 168.145C670.217 170.785 672.344 172.937 674.982 172.951C677.619 172.963 679.769 170.835 679.783 168.195C679.797 165.554 677.669 163.405 675.03 163.391Z" fill="#E66F32"></path><path d="M675.039 161.727C671.489 161.709 668.586 164.585 668.567 168.138C668.549 171.691 671.423 174.595 674.974 174.613C678.524 174.631 681.426 171.757 681.444 168.204C681.462 164.651 678.59 161.745 675.039 161.727ZM675.03 163.391C677.669 163.405 679.797 165.555 679.783 168.195C679.769 170.835 677.619 172.963 674.982 172.951C672.344 172.937 670.217 170.786 670.23 168.145C670.242 165.507 672.392 163.377 675.03 163.391Z" fill="#211D1D"></path><path d="M107.34 462.214C104.478 462.199 102.148 464.507 102.134 467.37C102.118 470.232 104.427 472.564 107.287 472.58C110.147 472.594 112.479 470.285 112.493 467.424C112.507 464.56 110.2 462.228 107.34 462.214Z" fill="#E66F32"></path><path d="M107.349 460.55C103.575 460.531 100.49 463.587 100.471 467.361C100.453 471.138 103.506 474.223 107.278 474.244C111.05 474.262 114.136 471.207 114.154 467.431C114.174 463.656 111.121 460.569 107.349 460.55ZM107.34 462.214C110.2 462.228 112.507 464.56 112.493 467.424C112.479 470.285 110.147 472.594 107.287 472.58C104.427 472.565 102.118 470.232 102.134 467.37C102.148 464.507 104.478 462.2 107.34 462.214Z" fill="#211D1D"></path><path d="M158.682 409.542C158.691 407.894 157.362 406.551 155.716 406.542C154.067 406.533 152.726 407.864 152.718 409.512C152.709 411.16 154.037 412.503 155.685 412.512C157.332 412.519 158.673 411.19 158.682 409.542Z" fill="#E66F32"></path><path d="M155.723 404.878C153.162 404.866 151.069 406.941 151.055 409.503C151.041 412.066 153.114 414.162 155.677 414.174C158.237 414.187 160.332 412.114 160.345 409.551C160.357 406.987 158.285 404.893 155.723 404.878ZM155.716 406.542C157.362 406.551 158.691 407.894 158.682 409.542C158.673 411.19 157.332 412.519 155.685 412.512C154.037 412.503 152.709 411.16 152.718 409.512C152.725 407.864 154.067 406.533 155.716 406.542Z" fill="#211D1D"></path><path d="M251.362 404.286C248.656 404.274 246.451 406.457 246.437 409.165C246.423 411.874 248.606 414.08 251.312 414.095C254.02 414.109 256.224 411.924 256.239 409.216C256.253 406.507 254.069 404.301 251.362 404.286Z" fill="#E66F32"></path><path d="M251.371 402.624C247.753 402.605 244.794 405.536 244.776 409.158C244.757 412.778 247.686 415.739 251.305 415.759C254.923 415.776 257.882 412.845 257.9 409.225C257.917 405.603 254.99 402.642 251.371 402.624ZM251.362 404.286C254.069 404.301 256.253 406.507 256.239 409.216C256.225 411.924 254.02 414.109 251.312 414.095C248.606 414.08 246.423 411.874 246.437 409.165C246.451 406.457 248.656 404.274 251.362 404.286Z" fill="#211D1D"></path><path d="M392.566 470.758C390.206 470.746 388.283 472.653 388.27 475.015C388.258 477.377 390.162 479.302 392.522 479.314C394.883 479.326 396.806 477.419 396.818 475.057C396.831 472.695 394.927 470.771 392.566 470.758Z" fill="#E66F32"></path><path d="M392.573 469.095C389.301 469.079 386.623 471.73 386.606 475.006C386.591 478.281 389.241 480.96 392.513 480.976C395.787 480.993 398.465 478.343 398.479 475.066C398.497 471.79 395.848 469.113 392.573 469.095ZM392.566 470.759C394.927 470.771 396.83 472.695 396.818 475.057C396.806 477.42 394.883 479.326 392.522 479.314C390.161 479.302 388.258 477.377 388.27 475.015C388.281 472.651 390.206 470.746 392.566 470.759Z" fill="#211D1D"></path><path d="M274.531 362.066C272.798 362.057 271.386 363.457 271.377 365.19C271.369 366.925 272.766 368.337 274.499 368.346C276.231 368.355 277.643 366.957 277.652 365.222C277.66 363.489 276.263 362.075 274.531 362.066Z" fill="#E66F32"></path><path d="M274.538 360.404C271.893 360.39 269.729 362.535 269.715 365.181C269.701 367.831 271.843 369.996 274.491 370.009C277.136 370.023 279.3 367.878 279.314 365.231C279.329 362.582 277.186 360.417 274.538 360.404ZM274.531 362.067C276.263 362.075 277.66 363.489 277.652 365.222C277.645 366.957 276.231 368.355 274.5 368.346C272.766 368.337 271.369 366.925 271.378 365.191C271.386 363.457 272.798 362.058 274.531 362.067Z" fill="#211D1D"></path><path d="M336.068 83.1344C333.994 83.1237 332.307 84.7965 332.294 86.8698C332.285 88.9448 333.955 90.6354 336.029 90.6442C338.103 90.6566 339.792 88.9838 339.803 86.9088C339.813 84.8355 338.14 83.145 336.068 83.1344Z" fill="#E66F32"></path><path d="M336.077 81.4704C333.089 81.4544 330.649 83.875 330.633 86.8626C330.617 89.8502 333.034 92.2921 336.02 92.308C339.006 92.324 341.448 89.9052 341.464 86.9176C341.479 83.9299 339.062 81.4863 336.077 81.4704ZM336.068 83.1343C338.14 83.1449 339.813 84.8354 339.802 86.9087C339.792 88.9837 338.103 90.6565 336.029 90.6441C333.955 90.6353 332.285 88.9447 332.294 86.8697C332.305 84.7964 333.994 83.1236 336.068 83.1343Z" fill="#211D1D"></path><path d="M432.098 113.03C430.559 113.023 429.304 114.265 429.297 115.807C429.288 117.347 430.529 118.601 432.068 118.61C433.609 118.617 434.863 117.375 434.871 115.835C434.879 114.293 433.637 113.039 432.098 113.03Z" fill="#E66F32"></path><path d="M432.107 111.368C429.653 111.356 427.647 113.342 427.632 115.798C427.62 118.252 429.609 120.26 432.059 120.272C434.514 120.285 436.522 118.298 436.534 115.842C436.547 113.388 434.56 111.38 432.107 111.368ZM432.098 113.03C433.637 113.039 434.879 114.294 434.872 115.835C434.863 117.375 433.609 118.617 432.068 118.61C430.529 118.601 429.288 117.347 429.297 115.807C429.304 114.265 430.56 113.023 432.098 113.03Z" fill="#211D1D"></path><path d="M431.981 28.673C435.295 28.6907 437.997 26.0149 438.013 22.6995C438.029 19.3823 435.358 16.68 432.043 16.6622C428.728 16.6463 426.028 19.3203 426.01 22.6375C425.994 25.9547 428.666 28.6553 431.981 28.673Z" fill="#E66F32"></path><path d="M432.051 15C427.827 14.9787 424.372 18.4005 424.349 22.6285C424.328 26.8583 427.747 30.3138 431.973 30.3368C436.198 30.3581 439.653 26.9345 439.676 22.7065C439.697 18.4784 436.276 15.0212 432.051 15ZM432.043 16.6621C435.357 16.6799 438.029 19.3822 438.013 22.6994C437.997 26.0148 435.295 28.6906 431.981 28.6729C428.666 28.6552 425.994 25.9546 426.01 22.6374C426.028 19.3202 428.728 16.6462 432.043 16.6621Z" fill="#211D1D"></path><path d="M527.406 69.9628C525.715 69.9558 524.338 71.3202 524.329 73.0125C524.32 74.7048 525.683 76.0852 527.376 76.0922C529.067 76.1011 530.445 74.7367 530.454 73.0444C530.463 71.3521 529.098 69.9717 527.406 69.9628Z" fill="#E66F32"></path><path d="M527.415 68.3007C524.81 68.2866 522.68 70.3971 522.666 73.0037C522.653 75.6103 524.763 77.7439 527.367 77.7563C529.972 77.7705 532.103 75.66 532.117 73.0533C532.129 70.4467 530.022 68.3131 527.415 68.3007ZM527.406 69.9629C529.099 69.9718 530.463 71.3522 530.454 73.0445C530.445 74.7367 529.067 76.1012 527.376 76.0923C525.683 76.0852 524.32 74.7049 524.329 73.0126C524.338 71.3203 525.715 69.9558 527.406 69.9629Z" fill="#211D1D"></path><path d="M721.947 393.617C719.761 393.606 717.978 395.371 717.968 397.559C717.957 399.748 719.721 401.531 721.908 401.543C724.093 401.554 725.876 399.789 725.887 397.6C725.899 395.412 724.135 393.629 721.947 393.617Z" fill="#E66F32"></path><path d="M721.956 391.955C718.857 391.939 716.322 394.45 716.307 397.551C716.289 400.654 718.798 403.19 721.899 403.206C724.998 403.222 727.534 400.71 727.55 397.608C727.566 394.507 725.056 391.971 721.956 391.955ZM721.947 393.617C724.135 393.629 725.899 395.412 725.887 397.6C725.876 399.789 724.093 401.554 721.908 401.543C719.721 401.531 717.957 399.748 717.968 397.56C717.978 395.371 719.761 393.606 721.947 393.617Z" fill="#211D1D"></path></g><defs><clipPath id="clip0"><rect width="771" height="513" fill="white"></rect></clipPath></defs></svg>