<svg xmlns="http://www.w3.org/2000/svg" width="32" height="32" viewBox="0 0 32 32" fill="none"><path d="M6 0H4V2H6V0Z" fill="#E66F32"></path><path d="M10 0H8V2H10V0Z" fill="#E66F32"></path><path d="M32 0H12V2H30V22H2V0H0V24H11.72L10.22 30H7V32H25V30H21.78L20.28 24H32V0ZM12.28 30L13.78 24H18.22L19.72 30H12.28Z" fill="#E66F32"></path><path d="M10 11V18H12V20H14V18H16V20H18V18H18.5C20.4303 18.0026 21.9971 16.44 21.9998 14.5098C22.0011 13.5646 21.6195 12.6591 20.942 12C22.3255 10.6539 22.3558 8.44125 21.0098 7.05781C20.3506 6.38031 19.4452 5.99869 18.5 6H18V4H16V6H14V4H12V6H10V11ZM12 8H18.5C19.3284 8 20 8.67156 20 9.5C20 10.3284 19.3284 11 18.5 11H12V8ZM12 13H18.5C19.3284 13 20 13.6716 20 14.5C20 15.3284 19.3284 16 18.5 16H12V13Z" fill="#E66F32"></path></svg>