<svg xmlns="http://www.w3.org/2000/svg" width="32" height="32" viewBox="0 0 32 32" fill="none"><path d="M11 15V21H13V23H15V21H17V23H19V20.816C20.5512 20.2794 21.3736 18.5868 20.837 17.0357C20.7042 16.6519 20.4942 16.2995 20.22 16.0001C21.3286 14.7896 21.246 12.9097 20.0356 11.8011C19.7362 11.5268 19.3837 11.3168 19 11.1841V9H17V11H15V9H13V11H11V15ZM13 13H18C18.5523 13 19 13.4477 19 14C19 14.5523 18.5523 15 18 15H13V13ZM13 17H18C18.5523 17 19 17.4477 19 18C19 18.5523 18.5523 19 18 19H13V17Z" fill="#E66F32"></path><path d="M22 5H11V7H22V5Z" fill="#E66F32"></path><path d="M19 5H17V7H19V5Z" fill="#E66F32"></path><path d="M29 5H21V7H26V25H6V7H11V5H3C1.34312 5 0 6.34312 0 8V24C0 25.6569 1.34312 27 3 27H29C30.6569 27 32 25.6569 32 24V8C32 6.34312 30.6569 5 29 5ZM4 25H3C2.44769 25 2 24.5523 2 24V8C2 7.44769 2.44769 7 3 7H4V25ZM30 24C30 24.5523 29.5523 25 29 25H28V7H29C29.5523 7 30 7.44769 30 8V24Z" fill="#E66F32"></path></svg>