<svg xmlns="http://www.w3.org/2000/svg" width="32" height="32" viewBox="0 0 32 32" fill="none"><path d="M8.99937 14.0012H6.99951V16.0011H8.99937V14.0012Z" fill="#E66F32"></path><path d="M24.5193 26.1426L23.9984 26.4266V30.0004H19.9986V27.7665L18.8917 27.8865C17.6346 28.0425 16.3631 28.0425 15.106 27.8865L13.999 27.7665V30.0004H9.99932V26.4296L9.48135 26.1446C7.51124 25.1215 5.90078 23.5208 4.86567 21.5569L4.58969 21.001H1.99986V17.0012H4.03172L4.21371 16.2303C4.88079 13.7785 6.46406 11.6766 8.63641 10.3587L7.54248 8.68481C5.18283 10.1498 3.39646 12.3792 2.48083 15.0014H0V23.0008H3.36977C4.49319 24.9056 6.08746 26.4895 7.99945 27.6005V32.0002H15.9989V29.9694C16.6649 30.0104 17.3328 30.0104 17.9988 29.9694V32.0002H25.9982V27.6005C28.8437 26.0328 30.9203 23.3651 31.7418 20.222L29.798 19.7701C29.0178 22.5447 27.1002 24.8597 24.5193 26.1426Z" fill="#E66F32"></path><path d="M29.6359 8.46548L31.5558 7.90351C31.3487 7.19937 31.0716 6.51767 30.7288 5.86865L28.96 6.80159C29.2403 7.33224 29.4668 7.88964 29.6359 8.46548Z" fill="#E66F32"></path><path d="M27.9672 5.30197L29.514 4.03505C29.0491 3.46828 28.5296 2.9485 27.9632 2.48315L26.6982 4.03405C27.1619 4.4139 27.5869 4.83856 27.9672 5.30197Z" fill="#E66F32"></path><path d="M15.8617 20.7278C17.4449 21.5638 19.2083 22.0008 20.9987 22.0007C27.0703 21.993 31.9903 17.073 31.998 11.0014C31.998 10.6855 31.984 10.3745 31.958 10.0665L29.9661 10.2325C29.9861 10.4875 29.9971 10.7465 29.9981 11.0044C29.9953 15.9719 25.9661 19.9965 20.9986 19.9937C16.0311 19.9909 12.0065 15.9617 12.0093 10.9942C12.0121 6.02672 16.0414 2.00212 21.0089 2.00493C22.4689 2.00574 23.9068 2.36203 25.1984 3.04299L26.1344 1.27511C20.7626 -1.56157 14.1084 0.493411 11.2717 5.86511C8.43501 11.2368 10.49 17.8911 15.8617 20.7278Z" fill="#E66F32"></path><path d="M16.8108 11.0013L20.9985 17.5168L25.1862 11.0013L20.9985 4.48572L16.8108 11.0013ZM20.9985 13.8181L19.1866 11.0013L20.9985 8.18447L22.8104 11.0013L20.9985 13.8181Z" fill="#E66F32"></path></svg>