<svg xmlns="http://www.w3.org/2000/svg" width="32" height="32" viewBox="0 0 32 32" fill="none"><path d="M23 0H9C7.34312 0 6 1.34312 6 3V29C6 30.6569 7.34312 32 9 32H23C24.6569 32 26 30.6569 26 29V3C26 1.34312 24.6569 0 23 0ZM24 29C24 29.5523 23.5523 30 23 30H9C8.44769 30 8 29.5523 8 29V28H14V26H8V6H24V29ZM24 4H8V3C8 2.44769 8.44769 2 9 2H23C23.5523 2 24 2.44769 24 3V4Z" fill="#D05405"></path><path d="M22 26H13V28H22V26Z" fill="#D05405"></path><path d="M24 26H22V28H24V26Z" fill="#D05405"></path><path d="M13 23H15V21H17V23H19V20.22C20.2249 19.1374 20.3403 17.2668 19.2577 16.0419C19.2453 16.0278 19.2327 16.0139 19.22 16C20.3257 14.7959 20.2459 12.9234 19.0419 11.8177C19.0281 11.805 19.0141 11.7924 19 11.7799V9H17V11H15V9H13V11H12V21H13V23ZM14 13H17C17.5523 13 18 13.4477 18 14C18 14.5523 17.5523 15 17 15H14V13ZM14 17H17C17.5523 17 18 17.4477 18 18C18 18.5523 17.5523 19 17 19H14V17Z" fill="#D05405"></path></svg>