<svg xmlns="http://www.w3.org/2000/svg" width="32" height="32" viewBox="0 0 32 32" fill="none"><path d="M28 0H18V4H14V0H0V10H6V13H8V10H14V6H18V10H24V13H26V10H32V0H28ZM8 8H2V2H8V8ZM12 8H10V2H12V8ZM26 8H20V2H26V8ZM30 8H28V2H30V8Z" fill="#E66F32"></path><path d="M26 22V19H24V22H18V26H14V22H8V19H6V22H0V32H14V28H18V32H32V22H27H26ZM8 30H2V24H8V30ZM12 30H10V24H12V30ZM26 30H20V24H26V30ZM28 24H30V30H28V24Z" fill="#E66F32"></path><path d="M8 13H6V20H8V13Z" fill="#E66F32"></path><path d="M26 12H24V20H26V12Z" fill="#E66F32"></path></svg>