<svg xmlns="http://www.w3.org/2000/svg" width="32" height="32" viewBox="0 0 32 32" fill="none"><path d="M7.04187 20.8177C7.02806 20.805 7.01406 20.7924 7 20.7799V18H5V20H3V18H1V20H0V30H1V32H3V30H5V32H7V29.22C8.22494 28.1374 8.34031 26.2668 7.25769 25.0419C7.24525 25.0278 7.23269 25.0139 7.22 25C8.32569 23.7959 8.24594 21.9234 7.04187 20.8177ZM5 28H2V26H5C5.55231 26 6 26.4477 6 27C6 27.5523 5.55231 28 5 28ZM5 24H2V22H5C5.55231 22 6 22.4477 6 23C6 23.5523 5.55231 24 5 24Z" fill="#E66F32"></path><path d="M15 0H4V2H15V0Z" fill="#E66F32"></path><path d="M12 0H10V2H12V0Z" fill="#E66F32"></path><path d="M2 2H4V0H0V16H2V2Z" fill="#E66F32"></path><path d="M32 0H14V2H30V22H10V24H11.72L10.22 30H9V32H25V30H21.78L20.28 24H32V0ZM12.28 30L13.78 24H18.22L19.72 30H12.28Z" fill="#E66F32"></path><path d="M6.13003 11.014C6.5889 12.7748 8.18028 14.0027 9.9999 14C11.8183 13.9932 13.4033 12.7607 13.8579 11H17.9999V14H19.9999V11H23.9999V16H25.9999V9.00003H13.8579C13.3018 6.86603 11.121 5.58697 8.98697 6.14309C6.85297 6.69922 5.5739 8.88003 6.13003 11.014ZM9.9999 8.00003C11.1045 8.00003 11.9999 8.89547 11.9999 10C11.9999 11.1046 11.1045 12 9.9999 12C8.89534 12 7.9999 11.1046 7.9999 10C7.9999 8.89547 8.89534 8.00003 9.9999 8.00003Z" fill="#E66F32"></path></svg>