<svg xmlns="http://www.w3.org/2000/svg" viewBox="0 0 65.35 65.35"><defs><style>.cls-1{fill:none;}.cls-2{fill:#6be3e4;}</style></defs><g id="Layer_2" data-name="Layer 2"><g id="Layer_1-2" data-name="Layer 1"><rect class="cls-1" width="65.35" height="65.35" rx="10.76"/><path d="M35.53,23.29a2.33,2.33,0,0,1,.51,0h.08a4.75,4.75,0,0,1,4.16,4.71,4.69,4.69,0,0,1-1.61,3.56l-1.29,1.13,1.29,1.13a4.69,4.69,0,0,1,1.61,3.56,4.74,4.74,0,0,1-4.16,4.71H36a2.33,2.33,0,0,1-.51,0H28.44V23.29h7.09m0-1.5H26.94v21.9h8.59a4.1,4.1,0,0,0,.78-.06,6.25,6.25,0,0,0,3.35-10.89,6.25,6.25,0,0,0-3.35-10.89,4.1,4.1,0,0,0-.78-.06Z"/><rect x="23.78" y="21.79" width="3.26" height="1.5"/><rect x="23.79" y="42.19" width="3.26" height="1.5"/><rect x="35.56" y="18.66" width="1.5" height="3.81"/><rect x="29.29" y="18.66" width="1.5" height="3.81"/><rect x="35.56" y="43.01" width="1.5" height="3.81"/><rect x="29.29" y="43.01" width="1.5" height="3.81"/><rect x="27.04" y="31.99" width="12.62" height="1.5"/><path class="cls-2" d="M32.78,59.05A26.3,26.3,0,0,1,6.71,29.21l.1-.78.77.14a1.5,1.5,0,0,0,.64-2.92l-.73-.22.24-.73A26.3,26.3,0,0,1,48.37,11.55l.67.5-.57.61a2.87,2.87,0,0,0,2.11,4.84,2.83,2.83,0,0,0,2-.8l.6-.58.51.66A26.28,26.28,0,0,1,49,53.41l-.62.49L48,53.25a1.47,1.47,0,0,0-1.22-.64,1.52,1.52,0,0,0-1.51,1.51,1.44,1.44,0,0,0,.22.78l.42.67-.71.38A26.24,26.24,0,0,1,32.78,59.05Zm-24.67-29A26.68,26.68,0,0,0,8,32.74a24.8,24.8,0,0,0,35.87,22.2,3.18,3.18,0,0,1-.11-.82,3,3,0,0,1,4.92-2.32A24.79,24.79,0,0,0,53,18.31a4.39,4.39,0,0,1-6.11-6A24.81,24.81,0,0,0,9.36,24.53a3,3,0,0,1-1.25,5.54Z"/><path d="M7.78,30.09a2.56,2.56,0,0,1-.47,0,3,3,0,0,1,.47-6,2.9,2.9,0,0,1,.91.14,3,3,0,0,1-.91,5.87Zm0-4.51a1.51,1.51,0,0,0-1.5,1.51,1.49,1.49,0,0,0,1.28,1.48l.22,0a1.51,1.51,0,0,0,1.51-1.5,1.49,1.49,0,0,0-1.07-1.44A1.27,1.27,0,0,0,7.78,25.58Z"/><path d="M46.74,57.12a3,3,0,0,1-2.57-1.44,2.94,2.94,0,0,1-.44-1.56,3,3,0,0,1,5.47-1.73,3.05,3.05,0,0,1,.54,1.73A3,3,0,0,1,46.74,57.12Zm0-4.51a1.52,1.52,0,0,0-1.51,1.51,1.44,1.44,0,0,0,.22.78,1.51,1.51,0,0,0,2.79-.78,1.5,1.5,0,0,0-1.5-1.51Z"/><path d="M50.58,19a4.39,4.39,0,0,1-4.39-4.38,4.39,4.39,0,0,1,8.77,0,4.44,4.44,0,0,1-1.34,3.16A4.32,4.32,0,0,1,50.58,19Zm0-7.26a2.84,2.84,0,0,0-2.11.92,2.87,2.87,0,0,0,2.11,4.84,2.83,2.83,0,0,0,2-.8,2.89,2.89,0,0,0-2-5Z"/></g></g></svg>