<svg xmlns="http://www.w3.org/2000/svg" viewBox="0 0 65.35 65.35"><defs><style>.cls-1{fill:none;}.cls-2{fill:#6be3e4;}</style></defs><g id="Layer_2" data-name="Layer 2"><g id="Layer_1-2" data-name="Layer 1"><rect class="cls-1" width="65.35" height="65.35" rx="10.76"/><path class="cls-2" d="M31.21,55.69,11,44v-22h.75a2.49,2.49,0,0,0,2.49-2.5,2.35,2.35,0,0,0-.36-1.26l-.12-.19v-.65l.37-.23L32.68,6.55,52.79,18.16l-.47.67a1.29,1.29,0,0,0-.23.73,1.31,1.31,0,0,0,1.32,1.27h.05l.86-.13V44L34.15,55.68,33.77,55a1.26,1.26,0,0,0-2.19,0Zm1.47-2.79a2.75,2.75,0,0,1,1.92.79L52.82,43.17V22.28a2.76,2.76,0,0,1-2.09-3.58l-18-10.42-17.15,9.9a4,4,0,0,1,.25,1.38,4,4,0,0,1-3.24,3.93V43.17l18.2,10.51A2.8,2.8,0,0,1,32.68,52.9Z"/><path d="M11.79,23.56a4,4,0,1,1,3.4-6.06l.11.18a3.89,3.89,0,0,1,.48,1.88A4,4,0,0,1,11.79,23.56Zm0-6.5a2.5,2.5,0,1,0,2.5,2.5,2.35,2.35,0,0,0-.36-1.26l-.12-.2A2.48,2.48,0,0,0,11.78,17.06Z"/><path d="M53.36,22.33A2.77,2.77,0,0,1,51.09,18l.27-.32a2.77,2.77,0,1,1,2.29,4.66A1.28,1.28,0,0,1,53.36,22.33ZM52.24,19a1.2,1.2,0,0,0-.15.59,1.28,1.28,0,0,0,1.32,1.27h.05a1.3,1.3,0,0,0,1.17-1.27,1.26,1.26,0,0,0-1.27-1.26,1.23,1.23,0,0,0-1,.52Z"/><path d="M32.68,58.43a2.77,2.77,0,0,1-2.77-2.76,2.7,2.7,0,0,1,.38-1.4,2.73,2.73,0,0,1,2.39-1.37,2.78,2.78,0,0,1,2.39,1.38,2.86,2.86,0,0,1,.37,1.39A2.77,2.77,0,0,1,32.68,58.43Zm0-4a1.26,1.26,0,0,0-1.1.63,1.27,1.27,0,1,0,2.36.64,1.33,1.33,0,0,0-.17-.64A1.28,1.28,0,0,0,32.68,54.4Z"/><path d="M32.68,47,19.31,39.26V23.82l13.37-7.71L46,23.82V39.26ZM20.81,38.39l11.87,6.86,11.86-6.86V24.69L32.68,17.84,20.81,24.69Z"/><polygon points="32.68 32.41 19.68 24.91 20.43 23.61 32.68 30.68 44.92 23.61 45.67 24.91 32.68 32.41"/><rect x="31.93" y="39.1" width="1.5" height="7.01"/><rect x="31.93" y="34.62" width="1.5" height="1.77"/></g></g></svg>