<svg xmlns="http://www.w3.org/2000/svg" viewBox="0 0 40 40"><defs><style>.cls-1{fill:none;}.cls-2{fill:#6be3e4;}</style></defs><g id="Layer_2" data-name="Layer 2"><g id="Layer_1-2" data-name="Layer 1"><rect class="cls-1" width="40" height="40"/><path d="M29.64,39.52h0A29.19,29.19,0,0,1,.48,10.36a8.5,8.5,0,0,1,13.25-7l.27.18,2.08,11.82-6,3.15A21.34,21.34,0,0,0,21.55,30l3.15-6L36.52,26l.17.26a8.49,8.49,0,0,1-7,13.25ZM9,3.35a7,7,0,0,0-7,7A27.69,27.69,0,0,0,29.64,38h0a7,7,0,0,0,6-10.65l-10.1-1.78-3.26,6.24-.62-.23A22.78,22.78,0,0,1,8.41,18.37l-.23-.62,6.24-3.26L12.63,4.39A7,7,0,0,0,9,3.35Z"/><path class="cls-2" d="M29.94,17.11h-1.5a5.56,5.56,0,0,0-5.55-5.55v-1.5A7.05,7.05,0,0,1,29.94,17.11Z"/><path class="cls-2" d="M34.71,17.11h-1.5A10.33,10.33,0,0,0,22.89,6.79V5.29A11.83,11.83,0,0,1,34.71,17.11Z"/><path class="cls-2" d="M39.52,17.11H38A15.14,15.14,0,0,0,22.89,2V.48A16.65,16.65,0,0,1,39.52,17.11Z"/></g></g></svg>