<svg xmlns="http://www.w3.org/2000/svg" viewBox="0 0 40 40"><defs><style>.cls-1{fill:none;}.cls-2{fill:#6be3e4;}</style></defs><g id="Layer_2" data-name="Layer 2"><g id="Layer_1-2" data-name="Layer 1"><rect class="cls-1" width="40" height="40"/><path class="cls-2" d="M38,40l-6.61-2.19a14.44,14.44,0,0,1-21.25-9.68l-.23-1.15,1.14.27a10.26,10.26,0,0,0,1.24.23l.12,0c.28.08.55.16.82.21a12.59,12.59,0,0,0,2.92.34,12.92,12.92,0,0,0,12.9-12.91,12.17,12.17,0,0,0-.21-2.31L28.6,11.4l1.3.54a14.39,14.39,0,0,1,8.81,13.29,14.18,14.18,0,0,1-1.43,6.26ZM11.92,28.89A12.94,12.94,0,0,0,31,36.3l.29-.17,5.09,1.68-.58-6.61.1-.19a12.93,12.93,0,0,0-5.32-17.09c0,.38,0,.77,0,1.17A14.42,14.42,0,0,1,16.18,29.5a14.7,14.7,0,0,1-3.24-.37c-.28-.06-.57-.14-.85-.22Z"/><path d="M2.41,29.82l.79-8.46A14.4,14.4,0,0,1,16.18.68,14.45,14.45,0,0,1,30.3,12.23a1.88,1.88,0,0,1,0,.28h0a13.37,13.37,0,0,1,.24,2.58A14.42,14.42,0,0,1,16.18,29.5a14.7,14.7,0,0,1-3.24-.37c-.29-.06-.59-.15-.89-.23a14.76,14.76,0,0,1-3-1.27ZM9.24,26l.29.18a13.44,13.44,0,0,0,2.92,1.28,8,8,0,0,0,.81.21,12.59,12.59,0,0,0,2.92.34,12.92,12.92,0,0,0,12.9-12.91,12.17,12.17,0,0,0-.21-2.31V12.7a.7.7,0,0,0,0-.14A12.91,12.91,0,0,0,3.26,15.09a12.78,12.78,0,0,0,1.37,5.79l.1.19-.61,6.61Zm13.39-8.11a2.79,2.79,0,1,1,2.78-2.79A2.79,2.79,0,0,1,22.63,17.88Zm0-4.07a1.27,1.27,0,0,0-1.29,1.28,1.29,1.29,0,1,0,1.29-1.28Zm-6.74,4.07a2.79,2.79,0,1,1,2.79-2.83A2.78,2.78,0,0,1,15.89,17.88Zm0-4.07a1.29,1.29,0,0,0,0,2.57,1.3,1.3,0,0,0,1.31-1.29A1.28,1.28,0,0,0,15.89,13.81ZM9.15,17.88a2.79,2.79,0,1,1,2.79-2.79A2.79,2.79,0,0,1,9.15,17.88Zm0-4.07a1.29,1.29,0,1,0,1.29,1.28A1.28,1.28,0,0,0,9.15,13.81Z"/></g></g></svg>