<svg fill="none" height="759" width="884" xmlns="http://www.w3.org/2000/svg" xmlns:xlink="http://www.w3.org/1999/xlink"><filter id="a" color-interpolation-filters="sRGB" filterUnits="userSpaceOnUse" height="206" width="186" x="47.5" y="25.5"><feFlood flood-opacity="0" result="BackgroundImageFix"/><feColorMatrix in="SourceAlpha" values="0 0 0 0 0 0 0 0 0 0 0 0 0 0 0 0 0 0 127 0"/><feOffset dy="2.767"/><feGaussianBlur stdDeviation="1.107"/><feColorMatrix values="0 0 0 0 0 0 0 0 0 0 0 0 0 0 0 0 0 0 0.07 0"/><feBlend in2="BackgroundImageFix" result="effect1_dropShadow"/><feColorMatrix in="SourceAlpha" values="0 0 0 0 0 0 0 0 0 0 0 0 0 0 0 0 0 0 127 0"/><feOffset dy="6.65"/><feGaussianBlur stdDeviation="2.66"/><feColorMatrix values="0 0 0 0 0 0 0 0 0 0 0 0 0 0 0 0 0 0 0.04317 0"/><feBlend in2="effect1_dropShadow" result="effect2_dropShadow"/><feColorMatrix in="SourceAlpha" values="0 0 0 0 0 0 0 0 0 0 0 0 0 0 0 0 0 0 127 0"/><feOffset dy="12.522"/><feGaussianBlur stdDeviation="5.009"/><feColorMatrix values="0 0 0 0 0 0 0 0 0 0 0 0 0 0 0 0 0 0 0.0339075 0"/><feBlend in2="effect2_dropShadow" result="effect3_dropShadow"/><feColorMatrix in="SourceAlpha" values="0 0 0 0 0 0 0 0 0 0 0 0 0 0 0 0 0 0 127 0"/><feOffset dy="22.336"/><feGaussianBlur stdDeviation="8.935"/><feColorMatrix values="0 0 0 0 0 0 0 0 0 0 0 0 0 0 0 0 0 0 0.0282784 0"/><feBlend in2="effect3_dropShadow" result="effect4_dropShadow"/><feColorMatrix in="SourceAlpha" values="0 0 0 0 0 0 0 0 0 0 0 0 0 0 0 0 0 0 127 0"/><feOffset dy="41.778"/><feGaussianBlur stdDeviation="16.711"/><feColorMatrix values="0 0 0 0 0 0 0 0 0 0 0 0 0 0 0 0 0 0 0.0235573 0"/><feBlend in2="effect4_dropShadow" result="effect5_dropShadow"/><feColorMatrix in="SourceAlpha" values="0 0 0 0 0 0 0 0 0 0 0 0 0 0 0 0 0 0 127 0"/><feOffset dy="100"/><feGaussianBlur stdDeviation="40"/><feColorMatrix values="0 0 0 0 0 0 0 0 0 0 0 0 0 0 0 0 0 0 0.0174624 0"/><feBlend in2="effect5_dropShadow" result="effect6_dropShadow"/><feBlend in="SourceGraphic" in2="effect6_dropShadow" result="shape"/></filter><filter id="b" color-interpolation-filters="sRGB" filterUnits="userSpaceOnUse" height="206" width="212" x="122.5" y="429.5"><feFlood flood-opacity="0" result="BackgroundImageFix"/><feColorMatrix in="SourceAlpha" values="0 0 0 0 0 0 0 0 0 0 0 0 0 0 0 0 0 0 127 0"/><feOffset dy="2.767"/><feGaussianBlur stdDeviation="1.107"/><feColorMatrix values="0 0 0 0 0 0 0 0 0 0 0 0 0 0 0 0 0 0 0.07 0"/><feBlend in2="BackgroundImageFix" result="effect1_dropShadow"/><feColorMatrix in="SourceAlpha" values="0 0 0 0 0 0 0 0 0 0 0 0 0 0 0 0 0 0 127 0"/><feOffset dy="6.65"/><feGaussianBlur stdDeviation="2.66"/><feColorMatrix values="0 0 0 0 0 0 0 0 0 0 0 0 0 0 0 0 0 0 0.04317 0"/><feBlend in2="effect1_dropShadow" result="effect2_dropShadow"/><feColorMatrix in="SourceAlpha" values="0 0 0 0 0 0 0 0 0 0 0 0 0 0 0 0 0 0 127 0"/><feOffset dy="12.522"/><feGaussianBlur stdDeviation="5.009"/><feColorMatrix values="0 0 0 0 0 0 0 0 0 0 0 0 0 0 0 0 0 0 0.0339075 0"/><feBlend in2="effect2_dropShadow" result="effect3_dropShadow"/><feColorMatrix in="SourceAlpha" values="0 0 0 0 0 0 0 0 0 0 0 0 0 0 0 0 0 0 127 0"/><feOffset dy="22.336"/><feGaussianBlur stdDeviation="8.935"/><feColorMatrix values="0 0 0 0 0 0 0 0 0 0 0 0 0 0 0 0 0 0 0.0282784 0"/><feBlend in2="effect3_dropShadow" result="effect4_dropShadow"/><feColorMatrix in="SourceAlpha" values="0 0 0 0 0 0 0 0 0 0 0 0 0 0 0 0 0 0 127 0"/><feOffset dy="41.778"/><feGaussianBlur stdDeviation="16.711"/><feColorMatrix values="0 0 0 0 0 0 0 0 0 0 0 0 0 0 0 0 0 0 0.0235573 0"/><feBlend in2="effect4_dropShadow" result="effect5_dropShadow"/><feColorMatrix in="SourceAlpha" values="0 0 0 0 0 0 0 0 0 0 0 0 0 0 0 0 0 0 127 0"/><feOffset dy="100"/><feGaussianBlur stdDeviation="40"/><feColorMatrix values="0 0 0 0 0 0 0 0 0 0 0 0 0 0 0 0 0 0 0.0174624 0"/><feBlend in2="effect5_dropShadow" result="effect6_dropShadow"/><feBlend in="SourceGraphic" in2="effect6_dropShadow" result="shape"/></filter><filter id="c" color-interpolation-filters="sRGB" filterUnits="userSpaceOnUse" height="206" width="186" x="-27.5" y="201.5"><feFlood flood-opacity="0" result="BackgroundImageFix"/><feColorMatrix in="SourceAlpha" values="0 0 0 0 0 0 0 0 0 0 0 0 0 0 0 0 0 0 127 0"/><feOffset dy="2.767"/><feGaussianBlur stdDeviation="1.107"/><feColorMatrix values="0 0 0 0 0 0 0 0 0 0 0 0 0 0 0 0 0 0 0.07 0"/><feBlend in2="BackgroundImageFix" result="effect1_dropShadow"/><feColorMatrix in="SourceAlpha" values="0 0 0 0 0 0 0 0 0 0 0 0 0 0 0 0 0 0 127 0"/><feOffset dy="6.65"/><feGaussianBlur stdDeviation="2.66"/><feColorMatrix values="0 0 0 0 0 0 0 0 0 0 0 0 0 0 0 0 0 0 0.04317 0"/><feBlend in2="effect1_dropShadow" result="effect2_dropShadow"/><feColorMatrix in="SourceAlpha" values="0 0 0 0 0 0 0 0 0 0 0 0 0 0 0 0 0 0 127 0"/><feOffset dy="12.522"/><feGaussianBlur stdDeviation="5.009"/><feColorMatrix values="0 0 0 0 0 0 0 0 0 0 0 0 0 0 0 0 0 0 0.0339075 0"/><feBlend in2="effect2_dropShadow" result="effect3_dropShadow"/><feColorMatrix in="SourceAlpha" values="0 0 0 0 0 0 0 0 0 0 0 0 0 0 0 0 0 0 127 0"/><feOffset dy="22.336"/><feGaussianBlur stdDeviation="8.935"/><feColorMatrix values="0 0 0 0 0 0 0 0 0 0 0 0 0 0 0 0 0 0 0.0282784 0"/><feBlend in2="effect3_dropShadow" result="effect4_dropShadow"/><feColorMatrix in="SourceAlpha" values="0 0 0 0 0 0 0 0 0 0 0 0 0 0 0 0 0 0 127 0"/><feOffset dy="41.778"/><feGaussianBlur stdDeviation="16.711"/><feColorMatrix values="0 0 0 0 0 0 0 0 0 0 0 0 0 0 0 0 0 0 0.0235573 0"/><feBlend in2="effect4_dropShadow" result="effect5_dropShadow"/><feColorMatrix in="SourceAlpha" values="0 0 0 0 0 0 0 0 0 0 0 0 0 0 0 0 0 0 127 0"/><feOffset dy="100"/><feGaussianBlur stdDeviation="40"/><feColorMatrix values="0 0 0 0 0 0 0 0 0 0 0 0 0 0 0 0 0 0 0.0174624 0"/><feBlend in2="effect5_dropShadow" result="effect6_dropShadow"/><feBlend in="SourceGraphic" in2="effect6_dropShadow" result="shape"/></filter><path d="m2 202h25v25h-25zm0 25h25v25h-25zm51-25h25v25h-25zm25 0h25v25h-25zm25 0h25v25h-25zm-25-51h50v25h-50zm-25-50h50v25h-50zm0-100h25v25h-25zm150 201h25v25h-25zm-49 0h25v25h-25zm-101 25h25v25h-25zm25 0h25v25h-25zm25 0h25v25h-25zm51 0h25v25h-25zm-101 51h25v25h-25zm126 0h25v25h-25zm-101 0h25v25h-25zm126 0h25v25h-25zm-101 0h25v25h-25zm126 0h25v25h-25zm-101 0h25v25h-25zm126 0h25v25h-25zm25 0h25v25h-25zm-226 25h25v25h-25zm126 0h25v25h-25zm-101 0h25v25h-25zm126 0h25v25h-25zm-101 0h25v25h-25zm126 0h25v25h-25zm-101 0h25v25h-25zm126 0h25v25h-25zm25 0h25v25h-25zm-50 51h25v25h-25zm50 0h25v25h-25zm50 0h25v25h-25zm50 0h25v25h-25zm-175 0h25v25h-25zm50 0h25v25h-25zm50 0h25v25h-25zm50 0h25v25h-25zm-175 0h25v25h-25zm-25 0h25v25h-25zm-51 0h25v25h-25zm126 25h25v25h-25zm50 0h25v25h-25zm50 0h25v25h-25zm50 0h25v25h-25zm-175 0h25v25h-25zm50 0h25v25h-25zm50 0h25v25h-25zm50 0h25v25h-25zm0-101h25v25h-25zm50 0h25v25h-25zm50 0h25v25h-25zm-125 0h25v25h-25zm50 0h25v25h-25zm50 0h25v25h-25zm-75 25h25v25h-25zm50 0h25v25h-25zm50 0h25v25h-25zm-125 0h25v25h-25zm50 0h25v25h-25zm50 0h25v25h-25zm75-25h25v25h-25zm-25 0h25v25h-25zm25 25h25v25h-25zm-25 0h25v25h-25zm-300 76h25v25h-25zm-25 0h25v25h-25zm125 51h25v25h-25zm50 0h25v25h-25zm-75 0h25v25h-25zm50 0h25v25h-25zm-75 0h25v25h-25zm-25 0h25v25h-25zm75 25h25v25h-25zm50 0h25v25h-25zm-75 0h25v25h-25zm50 0h25v25h-25zm-75 0h25v25h-25zm-25 0h25v25h-25zm250-25h25v25h-25zm50 0h25v25h-25zm-75 0h25v25h-25zm50 0h25v25h-25zm-75 0h25v25h-25zm-25 0h25v25h-25zm75 25h25v25h-25zm50 0h25v25h-25zm-75 0h25v25h-25zm50 0h25v25h-25zm-75 0h25v25h-25zm-25 0h25v25h-25zm225-25h25v25h-25zm50 0h25v25h-25zm-75 0h25v25h-25zm50 0h25v25h-25zm-75 0h25v25h-25zm-25 0h25v25h-25zm75 25h25v25h-25zm50 0h25v25h-25zm-75 0h25v25h-25zm50 0h25v25h-25zm-75 0h25v25h-25zm-25 0h25v25h-25zm-426-76h25v25h-25zm228 203h25v25h-25zm-25 0h25v25h-25zm50 0h25v25h-25zm-75 0h25v25h-25zm-25 0h25v25h-25zm-51 0h25v25h-25zm126 25h25v25h-25zm-25 0h25v25h-25zm50 0h25v25h-25zm76 48h25v25h-25zm72-73h25v25h-25zm0 25h25v25h-25zm-223 0h25v25h-25zm-25 0h25v25h-25zm24 50h25v25h-25zm-25 0h25v25h-25zm-25 0h25v25h-25zm-25 0h25v25h-25zm75 25h25v25h-25zm-25 0h25v25h-25zm-25 0h25v25h-25zm-25 0h25v25h-25zm0-75h25v25h-25zm-50 50h25v25h-25zm0 25h25v25h-25zm-51 51h25v25h-25zm50-303h25v25h-25zm0 25h25v25h-25zm125 50h25v25h-25zm50 0h25v25h-25zm-75 0h25v25h-25zm50 0h25v25h-25zm-75 0h25v25h-25zm-25 0h25v25h-25zm75 25h25v25h-25zm50 0h25v25h-25zm-75 0h25v25h-25zm50 0h25v25h-25zm50-25h25v25h-25zm50 0h25v25h-25zm-25 0h25v25h-25zm-25 25h25v25h-25zm50 0h25v25h-25zm-25 0h25v25h-25zm75-25h25v25h-25zm-25 0h25v25h-25zm25 25h25v25h-25zm-25 0h25v25h-25zm50-25h25v25h-25zm50 0h25v25h-25zm-25 0h25v25h-25zm-25 25h25v25h-25zm50 0h25v25h-25zm-25 0h25v25h-25zm75-25h25v25h-25zm-25 0h25v25h-25zm25 25h25v25h-25zm-25 0h25v25h-25zm50-25h25v25h-25zm50 0h25v25h-25zm-25 0h25v25h-25zm-25 25h25v25h-25zm50 0h25v25h-25zm-25 0h25v25h-25zm50-25h25v25h-25zm0 25h25v25h-25zm25-25h25v25h-25zm50 0h25v25h-25zm-25 0h25v25h-25zm-25 25h25v25h-25zm50 0h25v25h-25zm-25 0h25v25h-25zm54-151h25v25h-25zm25-25h25v25h-25zm50 0h25v25h-25zm-25 0h25v25h-25zm-25 25h25v25h-25zm50 0h25v25h-25zm-25 0h25v25h-25zm-604 151h25v25h-25zm-25 0h25v25h-25zm-50-25h25v25h-25zm0 25h25v25h-25z" opacity=".1" stroke="#000"/><g filter="url(#a)"><path d="m128 26h25v25h-25z" fill="#fff"/><path d="m128 26h25v25h-25z" stroke="#e2e2e2"/></g><g filter="url(#b)"><path d="m203 430h51v25h-51z" fill="#fff"/><path d="m203 430h51v25h-51z" stroke="#e2e2e2"/></g><g filter="url(#c)"><path d="m53 202h25v25h-25z" fill="#fff"/><path d="m53 202h25v25h-25z" stroke="#e2e2e2"/></g></svg>