<svg xmlns="http://www.w3.org/2000/svg" viewBox="0 0 65.35 65.35"><defs><style>.cls-1{fill:none;}.cls-2{fill:#6be3e4;}</style></defs><g id="Layer_2" data-name="Layer 2"><g id="Layer_1-2" data-name="Layer 1"><rect class="cls-1" width="65.35" height="65.35" rx="10.76"/><path class="cls-2" d="M34.74,57.35l-.38-.65a1.25,1.25,0,0,0-1.09-.64,1.27,1.27,0,0,0-1.1.64l-.37.65L12.93,46.46l.48-.68a1.16,1.16,0,0,0,.23-.71,1.27,1.27,0,0,0-1.26-1.27h-.75V23.73h.75a2.51,2.51,0,0,0,2.49-2.51,2.33,2.33,0,0,0-.36-1.28l-.42-.66L31.79,9.07l.38.64a1.25,1.25,0,0,0,1.1.63,1.22,1.22,0,0,0,1.08-.62l.37-.67L53.38,19.82l-.46.67a1.27,1.27,0,0,0,1.08,2h.07l.84-.11V42.57h-.75a2.5,2.5,0,0,0-2.5,2.5,2.54,2.54,0,0,0,.4,1.36l.43.66ZM15,45.92l16.34,9.43a2.86,2.86,0,0,1,3.85,0l15.25-8.81a4,4,0,0,1-.28-1.47,4,4,0,0,1,3.25-3.93V23.94a2.77,2.77,0,0,1-2.22-2.72,2.8,2.8,0,0,1,.13-.86L35.2,11.06a2.87,2.87,0,0,1-3.86,0L16.13,19.84a4,4,0,0,1,.24,1.38,4,4,0,0,1-3.24,3.94V42.4a2.77,2.77,0,0,1,2,2.67A2.7,2.7,0,0,1,15,45.92Z"/><path d="M12.38,25.23a4,4,0,1,1,3.41-6.08,3.87,3.87,0,0,1,.58,2.07A4,4,0,0,1,12.38,25.23Zm0-6.5a2.5,2.5,0,1,0,2.49,2.49,2.33,2.33,0,0,0-.36-1.28A2.5,2.5,0,0,0,12.38,18.73Z"/><path d="M54.16,49.07a4,4,0,1,1,4-4A4,4,0,0,1,54.16,49.07Zm0-6.5a2.5,2.5,0,0,0-2.5,2.5,2.5,2.5,0,0,0,2.5,2.5,2.5,2.5,0,0,0,0-5Z"/><path d="M54,24a2.77,2.77,0,0,1-2.76-2.77,2.81,2.81,0,0,1,.49-1.58l.28-.33a2.74,2.74,0,0,1,2-.85,2.77,2.77,0,0,1,.3,5.52Zm-1.1-3.38a1.21,1.21,0,0,0-.16.61A1.29,1.29,0,0,0,54,22.49h.07a1.29,1.29,0,0,0,1.15-1.27A1.27,1.27,0,0,0,54,20a1.24,1.24,0,0,0-1,.53Z"/><path d="M33.27,60.09a2.77,2.77,0,0,1-2.77-2.76,2.69,2.69,0,0,1,.38-1.39,2.75,2.75,0,0,1,4.78,0A2.71,2.71,0,0,1,36,57.33,2.77,2.77,0,0,1,33.27,60.09Zm0-4a1.27,1.27,0,0,0-1.1.64,1.24,1.24,0,0,0-.17.63,1.27,1.27,0,0,0,2.53,0,1.34,1.34,0,0,0-.16-.63A1.28,1.28,0,0,0,33.27,56.06Z"/><path d="M12.38,47.83a2.77,2.77,0,1,1,2.76-2.76,2.71,2.71,0,0,1-.51,1.59A2.75,2.75,0,0,1,12.38,47.83Zm0-4a1.27,1.27,0,1,0,0,2.53,1.26,1.26,0,0,0,1-.54,1.21,1.21,0,0,0,.23-.72A1.27,1.27,0,0,0,12.38,43.8Z"/><path d="M33.27,11.84a2.75,2.75,0,0,1-2.39-1.37,2.7,2.7,0,0,1-.38-1.39,2.77,2.77,0,1,1,5.53,0,2.67,2.67,0,0,1-.38,1.4A2.72,2.72,0,0,1,33.27,11.84Zm0-4A1.27,1.27,0,0,0,32,9.08a1.3,1.3,0,0,0,.17.64,1.26,1.26,0,0,0,1.1.62,1.22,1.22,0,0,0,1.08-.62,1.13,1.13,0,0,0,.18-.64A1.26,1.26,0,0,0,33.27,7.81Z"/><path class="cls-2" d="M32.09,43.62H32l-3.2,0a1.15,1.15,0,0,1-1-.63,1.23,1.23,0,0,1,.09-1.28L39.06,25.62a1.35,1.35,0,0,1,1.22-.56l3,0a1.51,1.51,0,0,1,1.21.63,1.24,1.24,0,0,1,.18,1.13l-.1.18-11,15.89A1.68,1.68,0,0,1,32.09,43.62Zm-2.63-1.51H32c.28,0,.29,0,.35-.08L43,26.59l-2.74,0h-.05Zm-.63,0ZM40.27,26.5Z"/><path d="M42.23,43.62H38.35a1.34,1.34,0,0,1-1.24-.89L29.53,26.92a1.39,1.39,0,0,1,.13-1.31,1.3,1.3,0,0,1,1.07-.55H34.1a1.31,1.31,0,0,1,1.24.9l8.25,16.87H43.2a.87.87,0,0,1-.15.36A1,1,0,0,1,42.23,43.62Zm-3.74-1.47h0Zm0,0h3.1L34,26.56H31Zm-6,1.5H28.83a1.31,1.31,0,0,1-1.24-.91L20.26,26.92a1.41,1.41,0,0,1,.16-1.32,1.29,1.29,0,0,1,1-.54h3.15a1.35,1.35,0,0,1,1.24.84l8,16.93h-.37a1.25,1.25,0,0,1-.15.36A1,1,0,0,1,32.51,43.62ZM21.74,26.56,29,42.12h2.9L24.51,26.56Zm23.76,4.5H42.3a1.57,1.57,0,0,1-1.4-.84L39.09,27a1.36,1.36,0,0,1,0-1.36,1.19,1.19,0,0,1,1-.54h3.15a1.59,1.59,0,0,1,1.39.81l1.86,3.35a1.33,1.33,0,0,1,0,1.33A1.16,1.16,0,0,1,45.5,31.06Zm-3.26-1.52.07,0H45l-1.66-3H40.59Z"/></g></g></svg>