<svg xmlns="http://www.w3.org/2000/svg" viewBox="0 0 65.35 65.35"><defs><style>.cls-1{fill:none;}.cls-2{fill:#6be3e4;}</style></defs><g id="Layer_2" data-name="Layer 2"><g id="Layer_1-2" data-name="Layer 1"><rect class="cls-1" width="65.35" height="65.35" rx="10.76"/><path d="M32.68,53.17a1.73,1.73,0,0,1-1.25-.52l-4-4a1.75,1.75,0,0,1-.52-1.25V30.14A11.95,11.95,0,1,1,38.47,30l0,3.19a1.74,1.74,0,0,1-.52,1.23l-.77.78.8.8a1.76,1.76,0,0,1-.17,2.63l-.6.47.88,1.06a1.75,1.75,0,0,1,0,2.24l-.88,1.05.61.49a1.71,1.71,0,0,1,.67,1.37v2A1.78,1.78,0,0,1,38,48.62l-4,4A1.71,1.71,0,0,1,32.68,53.17Zm0-43.7A10.35,10.35,0,0,0,28,29l.41.2V47.37a.27.27,0,0,0,.08.19l4,4a.27.27,0,0,0,.37,0l4-4a.32.32,0,0,0,.07-.19v-2a.26.26,0,0,0-.1-.2l-1.81-1.43,1.85-2.24a.26.26,0,0,0,0-.33l-1.85-2.23,1.81-1.44a.23.23,0,0,0,.1-.19.21.21,0,0,0-.08-.19L35,35.24l1.83-1.84a.23.23,0,0,0,.08-.18l0-4.1.41-.2A10.23,10.23,0,0,0,43,19.82,10.36,10.36,0,0,0,32.68,9.47Zm0,10.09a3.78,3.78,0,1,1,3.77-3.78h0A3.78,3.78,0,0,1,32.68,19.56Zm0-6.06A2.28,2.28,0,1,0,35,15.78,2.28,2.28,0,0,0,32.68,13.5Z"/><polygon class="cls-2" points="54.29 33.43 43.43 33.43 43.43 31.93 52.79 31.93 52.79 29.4 54.29 29.4 54.29 33.43"/><path d="M53.54,30.15a2.92,2.92,0,1,1,2.92-2.92A2.92,2.92,0,0,1,53.54,30.15Zm0-4.33A1.42,1.42,0,1,0,55,27.23,1.42,1.42,0,0,0,53.54,25.82Z"/><polygon class="cls-2" points="50.67 51.08 49.17 51.08 49.17 48.55 43.65 48.55 43.65 47.05 50.67 47.05 50.67 51.08"/><path d="M49.92,56.16a2.92,2.92,0,1,1,2.92-2.91A2.91,2.91,0,0,1,49.92,56.16Zm0-4.33a1.42,1.42,0,1,0,1.42,1.42A1.43,1.43,0,0,0,49.92,51.83Z"/><rect class="cls-2" x="43.43" y="39.33" width="10.11" height="1.5"/><path d="M57,44.33a4.25,4.25,0,1,1,4.25-4.25A4.25,4.25,0,0,1,57,44.33Zm0-7a2.75,2.75,0,1,0,2.75,2.74A2.74,2.74,0,0,0,57,37.34Z"/><polygon class="cls-2" points="21.25 33.43 10.39 33.43 10.39 29.4 11.89 29.4 11.89 31.93 21.25 31.93 21.25 33.43"/><path d="M11.14,30.15a2.92,2.92,0,1,1,2.92-2.92A2.92,2.92,0,0,1,11.14,30.15Zm0-4.33a1.42,1.42,0,0,0,0,2.83,1.42,1.42,0,1,0,0-2.83Z"/><polygon class="cls-2" points="15.51 51.08 14.01 51.08 14.01 47.05 21.03 47.05 21.03 48.55 15.51 48.55 15.51 51.08"/><path d="M14.76,56.16a2.92,2.92,0,1,1,2.92-2.91A2.91,2.91,0,0,1,14.76,56.16Zm0-4.33a1.42,1.42,0,1,0,1.42,1.42A1.42,1.42,0,0,0,14.76,51.83Z"/><rect class="cls-2" x="11.14" y="39.33" width="10.11" height="1.5"/><path d="M7.65,44.33a4.25,4.25,0,1,1,4.24-4.25A4.25,4.25,0,0,1,7.65,44.33Zm0-7a2.75,2.75,0,1,0,2.74,2.74A2.74,2.74,0,0,0,7.65,37.34Z"/></g></g></svg>