<svg xmlns="http://www.w3.org/2000/svg" width="32" height="32" viewBox="0 0 32 32" fill="none"><path d="M7.87185 5.53502C9.75727 4.52724 11.8621 4 14 4V17L23.1924 26.1924C21.6807 27.7041 19.8195 28.8196 17.7737 29.4402C15.7279 30.0608 13.5606 30.1673 11.4638 29.7502C10.8669 29.6315 10.281 29.4714 9.71005 29.2718M3.6761 9.09955C3.50745 9.31994 3.34561 9.54605 3.1909 9.77759C2.00317 11.5552 1.27215 13.5982 1.0626 15.7258C0.853055 17.8533 1.17144 19.9998 1.98957 21.9749C2.02542 22.0614 2.06219 22.1476 2.09986 22.2332" stroke="#E66F32" stroke-width="2"></path><path d="M11.9385 29.8355C9.62887 29.4646 7.46211 28.4773 5.66669 26.9778C3.87127 25.4783 2.51373 23.5221 1.73719 21.3155" stroke="#E66F32" stroke-width="2"></path><path d="M4.80761 7.80761C5.28071 7.33452 5.78962 6.89865 6.32981 6.5039" stroke="#E66F32" stroke-width="2"></path><mask id="path-4-inside-1" fill="white"><path d="M17 0C20.713 4.42774e-08 24.274 1.475 26.8995 4.1005L17 14V0Z"></path></mask><path d="M17 0C20.713 4.42774e-08 24.274 1.475 26.8995 4.1005L17 14V0Z" stroke="#E66F32" stroke-width="4" mask="url(#path-4-inside-1)"></path><mask id="path-5-inside-2" fill="white"><path d="M27.8995 6.1005C29.1995 7.40052 30.2307 8.94387 30.9343 10.6424C31.6379 12.341 32 14.1615 32 16C32 17.8385 31.6379 19.659 30.9343 21.3576C30.2307 23.0561 29.1995 24.5995 27.8995 25.8995L18 16L27.8995 6.1005Z"></path></mask><path d="M27.8995 6.1005C29.1995 7.40052 30.2307 8.94387 30.9343 10.6424C31.6379 12.341 32 14.1615 32 16C32 17.8385 31.6379 19.659 30.9343 21.3576C30.2307 23.0561 29.1995 24.5995 27.8995 25.8995L18 16L27.8995 6.1005Z" stroke="#E66F32" stroke-width="4" mask="url(#path-5-inside-2)"></path></svg>