<svg xmlns="http://www.w3.org/2000/svg" width="32" height="32" viewBox="0 0 32 32" fill="none"><path d="M11 28C16.5228 28 21 23.5228 21 18C21 12.4772 16.5228 8 11 8C5.47715 8 1 12.4772 1 18C1 23.5228 5.47715 28 11 28Z" stroke="#E66F32" stroke-width="2" stroke-linecap="round" stroke-linejoin="round"></path><rect x="10" y="12" width="2" height="8" fill="#E66F32"></rect><rect width="2" height="2" transform="matrix(1 0 0 -1 10 24)" fill="#E66F32"></rect><circle cx="25" cy="2" r="1" fill="#E66F32"></circle><path d="M19 8.5L20.125 7.375M31 8.5L28.75 6.25M23.5 4L21.25 6.25M26.5 4L27.625 5.125" stroke="#E66F32" stroke-width="2"></path><path d="M18 25L24 31" stroke="#E66F32" stroke-width="2"></path></svg>