<svg xmlns="http://www.w3.org/2000/svg" width="32" height="32" viewBox="0 0 32 32" fill="none"><g clip-path="url(#clip0)"><path d="M22 24V22.3333C22 21.4493 21.6839 20.6014 21.1213 19.9763C20.5587 19.3512 19.7956 19 19 19H13C12.2044 19 11.4413 19.3512 10.8787 19.9763C10.3161 20.6014 10 21.4493 10 22.3333V24" stroke="#E66F32" stroke-width="2" stroke-linejoin="round"></path><path d="M16 16C17.6569 16 19 14.6569 19 13C19 11.3431 17.6569 10 16 10C14.3431 10 13 11.3431 13 13C13 14.6569 14.3431 16 16 16Z" stroke="#E66F32" stroke-width="2" stroke-linejoin="round"></path><path d="M16 0V6M16 6L13 3M16 6L19 3" stroke="#E66F32" stroke-width="2"></path><path d="M32 16L26 16M26 16L29 19M26 16L29 13" stroke="#E66F32" stroke-width="2"></path><path d="M1.31134e-07 16L6 16M6 16L3 19M6 16L3 13" stroke="#E66F32" stroke-width="2"></path><path d="M16 32V26M16 26L13 29M16 26L19 29" stroke="#E66F32" stroke-width="2"></path><path d="M6 0H2V2H6V0Z" fill="#E66F32"></path><path d="M10 0H8V2H10V0Z" fill="#E66F32"></path><path d="M2 6L2 2L1.19209e-07 2L-5.56363e-08 6L2 6Z" fill="#E66F32"></path><path d="M2 10L2 8L0 8L-8.74228e-08 10L2 10Z" fill="#E66F32"></path><path d="M26 0H30V2H26V0Z" fill="#E66F32"></path><path d="M22 0H24V2H22V0Z" fill="#E66F32"></path><path d="M30 6L30 2L32 2L32 6L30 6Z" fill="#E66F32"></path><path d="M30 10L30 8L32 8L32 10L30 10Z" fill="#E66F32"></path><path d="M6 32H2V30H6V32Z" fill="#E66F32"></path><path d="M10 32H8V30H10V32Z" fill="#E66F32"></path><path d="M2 26L2 30L1.19209e-07 30L-5.56363e-08 26L2 26Z" fill="#E66F32"></path><path d="M2 22L2 24L0 24L-8.74228e-08 22L2 22Z" fill="#E66F32"></path><path d="M26 32H30V30H26V32Z" fill="#E66F32"></path><path d="M22 32H24V30H22V32Z" fill="#E66F32"></path><path d="M30 26L30 30L32 30L32 26L30 26Z" fill="#E66F32"></path><path d="M30 22L30 24L32 24L32 22L30 22Z" fill="#E66F32"></path></g><defs><clipPath id="clip0"><rect width="32" height="32" fill="white"></rect></clipPath></defs></svg>