<svg xmlns="http://www.w3.org/2000/svg" viewBox="0 0 65.35 65.35"><defs><style>.cls-1{fill:none;}.cls-2{fill:#6be3e4;}</style></defs><g id="Layer_2" data-name="Layer 2"><g id="Layer_1-2" data-name="Layer 1"><rect class="cls-1" width="65.35" height="65.35" rx="10.76"/><path class="cls-2" d="M32.65,59.14a25.63,25.63,0,0,1-4.71-.43A26.29,26.29,0,0,1,6.76,28.12a27.31,27.31,0,0,1,.86-3.43l.25-.75.73.28.19.05A1.46,1.46,0,0,0,9.92,24a1.5,1.5,0,0,0-.17-2.57l-.68-.35.36-.67a26.3,26.3,0,0,1,42.34-5.67l.58.61-.68.5a2.85,2.85,0,0,0-1.11,1.79A2.89,2.89,0,0,0,55,20.59l.7-.47.39.75a26,26,0,0,1,2.45,16.67h0A26.1,26.1,0,0,1,45,56.07l-.71.38-.33-.73a1.45,1.45,0,0,0-1.09-.84,1.51,1.51,0,0,0-1.75,1.21,1.55,1.55,0,0,0,.07.8l.29.75-.75.24A26.07,26.07,0,0,1,32.65,59.14ZM8.85,25.79a26.52,26.52,0,0,0-.62,2.6A24.8,24.8,0,0,0,39.56,56.65a2.9,2.9,0,0,1,0-.83,3,3,0,0,1,3.5-2.42,3,3,0,0,1,1.76,1A24.81,24.81,0,0,0,55.08,22.24a4.3,4.3,0,0,1-2.46.25,4.36,4.36,0,0,1-2.47-7.24,24.81,24.81,0,0,0-39.07,5.31A3,3,0,0,1,12,23.34a3,3,0,0,1-1.25,1.92A2.93,2.93,0,0,1,8.85,25.79Z"/><path d="M9.07,25.8a3.41,3.41,0,0,1-.55-.05,2.54,2.54,0,0,1-.45-.13A3,3,0,0,1,9.6,19.84a2.63,2.63,0,0,1,.87.3,3,3,0,0,1-1.4,5.66Zm0-4.51a1.52,1.52,0,0,0-.85.26,1.55,1.55,0,0,0-.63,1,1.49,1.49,0,0,0,1,1.68,1,1,0,0,0,.21.06A1.46,1.46,0,0,0,9.92,24a1.48,1.48,0,0,0,.62-1h0a1.48,1.48,0,0,0-.79-1.61,1.3,1.3,0,0,0-.42-.15A1.23,1.23,0,0,0,9.06,21.29Z"/><path d="M42.55,59.36a2.44,2.44,0,0,1-.53,0,3,3,0,1,1,.53,0Zm0-4.51a1.51,1.51,0,0,0-1.48,1.24,1.55,1.55,0,0,0,.07.8,1.53,1.53,0,0,0,1.15,1A1.51,1.51,0,0,0,44,56.63h0a1.5,1.5,0,0,0-1.21-1.75A1.24,1.24,0,0,0,42.55,54.85Z"/><path d="M53.42,22.57a4.26,4.26,0,0,1-.8-.08,4.38,4.38,0,0,1-3.54-5.09,4.4,4.4,0,0,1,5.1-3.52A4.38,4.38,0,0,1,57.71,19h0a4.45,4.45,0,0,1-1.88,2.87A4.32,4.32,0,0,1,53.42,22.57Zm0-7.27a2.92,2.92,0,0,0-2.84,2.37A2.89,2.89,0,0,0,55,20.59a2.86,2.86,0,0,0,1.24-1.89h0a2.88,2.88,0,0,0-2.31-3.35A3.15,3.15,0,0,0,53.4,15.3Z"/><polygon class="cls-2" points="40.43 34.26 32.68 31.07 24.92 34.26 24.35 32.88 32.68 29.45 41.01 32.88 40.43 34.26"/><path d="M32.68,46.51,23.74,33.6l8.94-14.9,8.93,14.9Zm-7.16-13,7.16,10.33,7.15-10.33L32.68,21.62Z"/><polygon points="32.68 37.7 24.35 34.26 24.92 32.88 32.68 36.07 40.43 32.88 41.01 34.26 32.68 37.7"/></g></g></svg>