<svg xmlns="http://www.w3.org/2000/svg" width="32" height="32" viewBox="0 0 32 32" fill="none"><path d="M8 10.6H15V1H1V10.6H8ZM8 10.6V14M8 14H4.5M8 14H11.5" stroke="#E66F32" stroke-width="2"></path><path d="M24 27.6H31V18H17V27.6H24ZM24 27.6V31M24 31H20.5M24 31H27.5" stroke="#E66F32" stroke-width="2"></path><path d="M21 6H24V14M24 14L21 11M24 14L27 11M19 6H17" stroke="#E66F32" stroke-width="2"></path><path d="M11 26H8V18M8 18L11 21M8 18L5 21M13 26H15" stroke="#E66F32" stroke-width="2"></path></svg>