<svg xmlns="http://www.w3.org/2000/svg" width="32" height="32" viewBox="0 0 32 32" fill="none"><path d="M14.75 3H19V14.5M6.25 3H2V23H16" stroke="white" stroke-width="2"></path><rect x="6" y="1" width="9" height="4" stroke="white" stroke-width="2"></rect><path d="M5 10H12M16 10H14" stroke="white" stroke-width="2"></path><path d="M11 14H16M5 14H9" stroke="white" stroke-width="2"></path><path d="M5 18L13 18" stroke="white" stroke-width="2"></path><path d="M21.0952 26.1904C24.4615 26.1904 27.1904 23.4615 27.1904 20.0952C27.1904 16.7289 24.4615 14 21.0952 14C17.7289 14 15 16.7289 15 20.0952C15 23.4615 17.7289 26.1904 21.0952 26.1904Z" stroke="white" stroke-width="2" stroke-linecap="round" stroke-linejoin="round"></path><path d="M24 20.0952C24 19.7077 23.9241 19.3379 23.7864 18.9999M23 17.902C22.49 17.4587 21.8239 17.1904 21.0952 17.1904C20.6254 17.1904 20.1816 17.3019 19.7889 17.4999" stroke="white" stroke-width="2" stroke-linejoin="round"></path><path d="M30.9999 29.9999L29.5 28.5M25.3999 24.3999L28.5 27.5" stroke="white" stroke-width="2" stroke-linejoin="round"></path></svg>