<svg xmlns="http://www.w3.org/2000/svg" width="32" height="32" viewBox="0 0 32 32" fill="none"><path d="M29.833 18.8178C29.6842 19.5475 29.4779 20.2644 29.216 20.9616L27.3658 20.2666C27.591 19.667 27.7684 19.0505 27.8963 18.4229L29.833 18.8178Z" fill="#E66F32"></path><path d="M28.2261 23.0564C27.8537 23.7014 27.4309 24.3159 26.9616 24.8942L25.4269 23.6486C25.8306 23.1513 26.1942 22.6229 26.5145 22.0682L28.2261 23.0564Z" fill="#E66F32"></path><path d="M3.02945 18.6448C4.25575 24.686 9.59684 29.233 15.9999 29.233C19.3023 29.233 22.3222 28.0236 24.6408 26.0234M3.02945 18.6448L6.2941 20.4095M3.02945 18.6448L1 21.2919" stroke="#E66F32" stroke-width="2"></path><path d="M2.16703 13.1776C2.31581 12.4478 2.52209 11.731 2.78396 11.0338L4.63422 11.7288C4.40901 12.3284 4.2316 12.9448 4.10366 13.5724L2.16703 13.1776Z" fill="#E66F32"></path><path d="M3.77388 8.93896C4.14626 8.29398 4.5691 7.67947 5.03843 7.1012L6.57306 8.34671C6.16944 8.84403 5.8058 9.37251 5.48555 9.92719L3.77388 8.93896Z" fill="#E66F32"></path><path d="M28.9706 13.3505C27.7443 7.30932 22.4032 2.76233 16.0001 2.76233C12.6977 2.76233 9.67779 3.97181 7.35918 5.97196M28.9706 13.3505L25.7059 11.5858M28.9706 13.3505L31 10.7035" stroke="#E66F32" stroke-width="2"></path><path d="M14.091 9V8L13.091 9H14.091ZM17.9091 9H18.9091L17.9091 8V9ZM14.091 11.3912L13.3839 12.0983L15.091 11.3912H14.091ZM12.4001 9.70043L13.1072 8.99332L11.693 8.99332L12.4001 9.70043ZM9.70028 12.4003L8.99317 11.6932L8.99317 13.1074L9.70028 12.4003ZM11.3909 14.0909V15.0909L12.098 13.3838L11.3909 14.0909ZM9 14.0909V13.0909L8 14.0909H9ZM9 17.9091H8L9 18.9091V17.9091ZM11.391 17.9091L12.0981 18.6162L11.391 16.9091V17.9091ZM9.70027 19.5999L8.99316 18.8928L8.99316 20.307L9.70027 19.5999ZM12.4001 22.2997L11.693 23.0068H13.1072L12.4001 22.2997ZM14.091 20.6089H15.091L13.3839 19.9018L14.091 20.6089ZM14.091 23H13.091L14.091 24V23ZM17.9091 23V24L18.9091 23H17.9091ZM17.9091 20.6091L18.6162 19.902L16.9091 20.6091H17.9091ZM19.5998 22.2998L18.8927 23.0069H20.3069L19.5998 22.2998ZM22.2996 19.5999L23.0067 20.307V18.8928L22.2996 19.5999ZM20.6088 17.9091V16.9091L19.9017 18.6162L20.6088 17.9091ZM23 17.9091V18.9091L24 17.9091H23ZM23 14.0909H24L23 13.0909V14.0909ZM20.6089 14.0909L19.9018 13.3838L20.6089 15.0909V14.0909ZM22.2996 12.4002L23.0067 13.1073V11.6931L22.2996 12.4002ZM19.5998 9.70036L20.3069 8.99326L18.8927 8.99326L19.5998 9.70036ZM17.9091 11.391H16.9091L18.6162 12.0981L17.9091 11.391ZM14.091 10H17.9091V8H14.091V10ZM15.091 11.3912V9H13.091V11.3912H15.091ZM11.693 10.4075L13.3839 12.0983L14.7981 10.6841L13.1072 8.99332L11.693 10.4075ZM10.4074 13.1074L13.1072 10.4075L11.693 8.99332L8.99317 11.6932L10.4074 13.1074ZM12.098 13.3838L10.4074 11.6932L8.99317 13.1074L10.6838 14.798L12.098 13.3838ZM9 15.0909H11.3909V13.0909H9V15.0909ZM10 17.9091V14.0909H8V17.9091H10ZM11.391 16.9091H9V18.9091H11.391V16.9091ZM10.4074 20.307L12.0981 18.6162L10.6839 17.202L8.99316 18.8928L10.4074 20.307ZM13.1072 21.5926L10.4074 18.8928L8.99316 20.307L11.693 23.0068L13.1072 21.5926ZM13.3839 19.9018L11.693 21.5926L13.1072 23.0068L14.7981 21.316L13.3839 19.9018ZM15.091 23V20.6089H13.091V23H15.091ZM17.9091 22H14.091V24H17.9091V22ZM16.9091 20.6091V23H18.9091V20.6091H16.9091ZM20.3069 21.5927L18.6162 19.902L17.202 21.3163L18.8927 23.0069L20.3069 21.5927ZM21.5925 18.8928L18.8927 21.5927L20.3069 23.0069L23.0067 20.307L21.5925 18.8928ZM19.9017 18.6162L21.5925 20.307L23.0067 18.8928L21.3159 17.202L19.9017 18.6162ZM23 16.9091H20.6088V18.9091H23V16.9091ZM22 14.0909V17.9091H24V14.0909H22ZM20.6089 15.0909H23V13.0909H20.6089V15.0909ZM21.5925 11.6931L19.9018 13.3838L21.3161 14.798L23.0067 13.1073L21.5925 11.6931ZM18.8927 10.4075L21.5925 13.1073L23.0067 11.6931L20.3069 8.99326L18.8927 10.4075ZM18.6162 12.0981L20.3069 10.4075L18.8927 8.99326L17.202 10.6839L18.6162 12.0981ZM16.9091 9V11.391H18.9091V9H16.9091Z" fill="#E66F32"></path><circle cx="16.0001" cy="16" r="2.18182" stroke="#E66F32" stroke-width="2"></circle></svg>