<svg xmlns="http://www.w3.org/2000/svg" width="553" height="309" viewBox="0 0 553 309" fill="none"><rect x="240.5" y="94.5" width="144" height="143" stroke="#E66F32"></rect><path d="M314.5 22.5H359C413.952 22.5 458.5 67.0477 458.5 122V164.5H314.5V22.5Z" stroke="#E66F32"></path><path d="M170.5 164.5H314.5V308.5H270C215.048 308.5 170.5 263.952 170.5 209V164.5Z" stroke="#E66F32"></path><line x1="94" y1="237.5" x2="240" y2="237.5" stroke="#E66F32"></line><line x1="384" y1="94.5" x2="530" y2="94.5" stroke="#E66F32"></line><line x1="240" y1="22.5" x2="314" y2="22.5" stroke="#E66F32"></line><line x1="24" y1="164.5" x2="170" y2="164.5" stroke="#E66F32"></line><path d="M46.5 164C46.5 176.416 36.2127 186.5 23.5 186.5C10.7873 186.5 0.5 176.416 0.5 164C0.5 151.584 10.7873 141.5 23.5 141.5C36.2127 141.5 46.5 151.584 46.5 164Z" stroke="#E66F32"></path><circle cx="530" cy="95" r="22.5" stroke="#E66F32"></circle><path d="M262.5 22.5C262.5 34.64 252.437 44.5 240 44.5C227.563 44.5 217.5 34.64 217.5 22.5C217.5 10.36 227.563 0.5 240 0.5C252.437 0.5 262.5 10.36 262.5 22.5Z" stroke="#E66F32"></path><circle cx="384.5" cy="238.5" r="23" stroke="#E66F32"></circle></svg>