<?xml version="1.0" standalone="no"?>
<!DOCTYPE svg PUBLIC "-//W3C//DTD SVG 20010904//EN"
 "http://www.w3.org/TR/2001/REC-SVG-20010904/DTD/svg10.dtd">
<svg version="1.0" xmlns="http://www.w3.org/2000/svg"
 width="634.000000pt" height="357.000000pt" viewBox="0 0 634.000000 357.000000"
 preserveAspectRatio="xMidYMid meet">

<g transform="translate(0.000000,357.000000) scale(0.100000,-0.100000)"
fill="#000000" stroke="none">
<path d="M0 1785 l0 -1785 3170 0 3170 0 0 1785 0 1785 -3170 0 -3170 0 0
-1785z m2810 964 c0 -5 -4 -8 -9 -5 -4 3 -16 -3 -26 -14 -20 -22 -35 -26 -35
-10 0 6 7 10 15 10 8 0 15 7 15 15 0 8 9 15 20 15 11 0 20 -5 20 -11z m440
-33 c15 -36 44 -65 73 -71 23 -6 27 -4 27 15 0 12 6 27 13 34 19 19 54 28 62
16 3 -5 15 -10 26 -10 10 0 19 -5 19 -11 0 -6 6 -9 14 -6 9 4 37 -18 71 -54
54 -57 56 -58 50 -28 -7 29 -5 31 14 26 14 -3 21 0 21 9 0 8 3 14 6 14 9 0 39
-33 37 -39 -2 -3 3 -6 10 -6 6 0 12 -5 12 -12 0 -6 3 -15 8 -19 13 -13 7 -24
-13 -24 l-20 0 20 -20 c22 -22 26 -40 10 -40 -5 0 -10 5 -10 10 0 6 -4 10 -10
10 -15 0 -12 -30 3 -30 8 -1 7 -5 -4 -13 -9 -7 -14 -18 -12 -24 3 -7 0 -13 -7
-13 -7 0 -4 -11 7 -30 9 -16 21 -30 25 -30 13 0 9 17 -7 30 -17 14 -20 30 -6
30 5 0 14 -13 21 -30 7 -16 19 -30 26 -30 26 0 14 -18 -17 -24 -17 -3 -28 -10
-24 -16 4 -6 11 -8 16 -5 5 4 9 -3 9 -14 0 -12 5 -21 10 -21 6 0 10 -11 10
-25 0 -14 9 -34 20 -45 11 -11 15 -22 10 -25 -6 -4 -17 1 -26 10 -12 11 -26
14 -52 9 -51 -9 -54 -18 -5 -13 4 0 11 -9 15 -21 4 -12 12 -19 17 -15 5 3 13
0 16 -6 4 -5 13 -8 21 -5 8 3 23 -4 33 -15 11 -12 24 -18 29 -15 6 3 13 -2 15
-11 3 -12 5 -8 6 9 0 15 -3 30 -9 33 -13 8 -13 35 -1 35 5 0 13 -15 16 -32 4
-18 16 -42 27 -52 18 -17 20 -28 15 -91 -3 -40 -12 -86 -20 -101 -8 -16 -17
-54 -21 -84 -4 -37 -3 -49 3 -35 7 15 10 8 10 -32 1 -29 6 -53 11 -53 6 0 10
4 10 9 0 5 9 11 20 14 11 3 18 1 15 -3 -10 -16 16 -22 32 -8 14 11 15 10 9
-12 -16 -56 -29 -80 -52 -95 -28 -18 -65 -20 -82 -3 -14 14 -14 13 -13 -77 1
-40 -7 -82 -22 -125 -20 -54 -36 -77 -97 -137 -41 -40 -87 -78 -102 -84 -15
-6 -28 -15 -28 -19 0 -4 -15 -13 -32 -20 -18 -7 -53 -21 -77 -32 -46 -21 -99
-24 -266 -16 -85 4 -94 6 -160 46 -38 23 -93 63 -122 89 -83 77 -103 92 -103
81 0 -20 165 -189 209 -213 115 -64 131 -68 255 -73 124 -5 212 8 251 37 11 9
71 67 133 129 l112 114 0 -186 c0 -179 -1 -188 -24 -224 -73 -114 -234 -199
-433 -228 -89 -14 -119 -14 -182 -4 -142 23 -296 113 -332 195 -18 40 -18 54
-9 182 15 211 13 301 -9 364 -30 89 -48 239 -28 239 4 0 7 15 7 33 -1 38 -24
130 -31 122 -11 -10 -40 104 -33 132 7 31 33 81 51 100 6 7 14 26 18 42 9 42
63 99 110 115 35 13 37 15 15 17 -14 1 -31 2 -37 2 -19 -1 -16 25 6 55 38 56
61 111 57 144 -2 18 2 41 8 50 8 13 7 21 -1 29 -10 10 -14 8 -19 -7 -9 -28
-28 -68 -35 -74 -3 -3 -12 -16 -18 -28 -23 -44 -24 -13 -1 57 13 39 28 67 33
64 5 -3 6 4 2 17 -5 15 -3 20 3 16 6 -3 18 4 27 16 16 22 16 22 11 2 -4 -14
-2 -21 9 -21 8 0 15 9 15 19 0 11 4 17 9 14 5 -3 14 7 20 22 16 37 53 80 58
66 2 -6 27 10 55 37 38 36 59 49 87 51 52 4 71 -2 81 -26z m1979 25 c21 -14
27 -104 7 -123 -9 -9 -16 -23 -16 -32 0 -42 -52 -18 -64 29 -4 14 -15 29 -26
35 -25 13 -26 48 -2 57 9 4 23 15 30 25 14 19 48 23 71 9z m-2366 -26 c-21
-29 -38 -33 -23 -6 8 16 20 25 38 30 2 1 -5 -10 -15 -24z m889 -7 c8 -7 22
-18 33 -24 10 -6 20 -15 22 -21 6 -16 -35 -23 -65 -12 -14 5 -46 11 -71 14
-25 2 -57 8 -71 14 -23 11 -22 11 10 6 130 -18 127 -18 105 0 -20 17 -20 17 4
10 20 -6 23 -4 18 9 -8 19 -3 20 15 4z m-952 -23 c-7 -9 -15 -13 -17 -11 -6 6
20 36 26 30 2 -2 -2 -10 -9 -19z m-39 -48 c-10 -9 -11 -8 -5 6 3 10 9 15 12
12 3 -3 0 -11 -7 -18z m119 -1 c0 -2 -7 -7 -16 -10 -8 -3 -12 -2 -9 4 6 10 25
14 25 6z m974 -25 c19 -21 29 -80 17 -100 -5 -7 -13 5 -21 31 -9 31 -14 38
-19 26 -5 -14 -11 -9 -28 22 l-21 40 27 0 c15 0 36 -9 45 -19z m-1219 -106
c-15 -31 -32 -58 -37 -61 -11 -7 -9 -2 32 78 14 26 26 45 29 42 2 -2 -8 -29
-24 -59z m1586 -11 c17 -15 17 -18 2 -41 l-16 -24 -23 22 c-22 21 -23 24 -7
41 20 22 22 22 44 2z m-427 -118 c-6 -16 -24 -23 -24 -8 0 10 22 33 27 28 2
-2 1 -11 -3 -20z m2250 -77 c42 -33 49 -62 31 -133 -21 -82 -54 -116 -112
-116 -53 0 -88 30 -98 82 -8 44 27 140 62 168 33 26 83 26 117 -1z m-2030
-418 c-3 -33 -9 -61 -13 -61 -9 0 -31 51 -31 72 0 10 5 18 11 18 6 0 8 -9 4
-22 -5 -18 -4 -20 4 -8 6 8 11 31 11 50 0 24 3 31 11 23 6 -6 8 -32 3 -72z
m-1409 -42 c8 -56 25 -50 25 9 0 17 2 32 5 32 14 0 55 -55 63 -83 5 -18 15
-50 22 -73 16 -53 11 -75 -22 -93 -25 -14 -29 -14 -55 5 -37 27 -61 77 -69
146 -12 100 18 154 31 57z m1386 -62 c-13 -34 -26 -26 -29 18 -3 39 -3 39 17
21 14 -13 18 -24 12 -39z"/>
<path d="M3661 2544 c0 -11 3 -14 6 -6 3 7 2 16 -1 19 -3 4 -6 -2 -5 -13z"/>
<path d="M3496 2227 c-16 -13 -25 -27 -19 -30 14 -9 153 4 153 15 0 11 -62 38
-87 38 -10 0 -31 -11 -47 -23z"/>
<path d="M2965 2225 l-40 -12 40 -7 c22 -4 60 -12 84 -17 51 -12 62 -5 35 20
-26 25 -71 31 -119 16z"/>
<path d="M3445 2140 c-26 -11 -65 -48 -65 -62 0 -7 12 0 28 14 15 14 37 29 50
33 12 3 22 11 22 16 0 11 -8 11 -35 -1z"/>
<path d="M3628 2113 c7 -3 16 -2 19 1 4 3 -2 6 -13 5 -11 0 -14 -3 -6 -6z"/>
<path d="M2945 2092 c-50 -21 -65 -31 -65 -42 0 -12 42 0 63 18 15 13 17 13
17 0 0 -20 29 -31 45 -18 9 8 14 8 17 0 4 -13 38 -2 38 12 0 6 -8 7 -17 4 -12
-4 -9 0 6 12 21 17 21 20 6 25 -27 11 -67 7 -110 -11z"/>
<path d="M3504 2084 c3 -9 6 -22 6 -29 0 -19 62 -26 82 -8 11 10 18 11 23 4 3
-6 20 -11 36 -11 40 0 29 17 -28 41 -57 24 -128 26 -119 3z"/>
<path d="M3420 2060 c0 -5 5 -10 10 -10 6 0 10 5 10 10 0 6 -4 10 -10 10 -5 0
-10 -4 -10 -10z"/>
<path d="M3151 1756 c11 -9 69 -15 64 -6 -3 6 -20 10 -37 10 -17 0 -29 -2 -27
-4z"/>
<path d="M3321 1741 c-28 -25 -12 -35 25 -16 16 8 34 15 41 15 6 0 15 5 18 10
11 18 -61 11 -84 -9z"/>
<path d="M3817 1753 c-4 -3 -7 -20 -7 -36 0 -38 9 -31 14 11 4 34 3 36 -7 25z"/>
<path d="M3123 1538 c-18 -11 -2 -13 110 -16 73 -2 152 -7 176 -12 25 -4 54
-4 65 0 12 5 19 9 16 10 -24 7 -59 10 -145 14 -55 2 -122 7 -150 10 -33 4 -57
2 -72 -6z"/>
<path d="M3760 2660 c0 -5 5 -10 11 -10 5 0 7 5 4 10 -3 6 -8 10 -11 10 -2 0
-4 -4 -4 -10z"/>
</g>
</svg>
