<svg width="20" height="20" xmlns="http://www.w3.org/2000/svg"><defs><linearGradient x1="62.758%" y1="100%" x2="50%" y2="34.165%" id="a"><stop stop-color="#F6F8FB" offset="0%"/><stop stop-color="#BCC9FA" offset="100%"/></linearGradient></defs><g fill-rule="nonzero" fill="none"><path opacity=".2" d="M0 0h20v20H0z"/><path d="M12.204 18.401a.75.75 0 11-.42-1.44 7.19 7.19 0 00.851-.308.75.75 0 11.598 1.376 8.69 8.69 0 01-1.03.372zm3.75-2.232a.75.75 0 01-1.063-1.057c.213-.215.413-.442.598-.682a.75.75 0 011.187.918 8.795 8.795 0 01-.721.821zm2.244-3.881a.75.75 0 11-1.448-.391c.078-.291.139-.587.18-.888a.75.75 0 011.486.207c-.05.363-.123.72-.218 1.072zm.088-4.22a.75.75 0 01-1.464.33 7.188 7.188 0 00-.254-.87.75.75 0 111.41-.511c.124.342.227.693.308 1.05zm-3.565-5.27a.75.75 0 11-.853 1.234A7.25 7.25 0 109.75 17.25a.75.75 0 110 1.5 8.75 8.75 0 114.97-15.952z" fill="#357CE1"/><path fill="url(#a)" transform="rotate(48 11.727 8.69)" d="M11.727 3.69l4.5 10h-9z"/></g></svg>