<svg xmlns="http://www.w3.org/2000/svg" width="32" height="32" viewBox="0 0 32 32" fill="none"><path d="M19.0419 11.8177C19.0281 11.805 19.0141 11.7924 19 11.7799V9H17V11H15V9H13V11H12V21H13V23H15V21H17V23H19V20.22C20.2249 19.1374 20.3403 17.2668 19.2577 16.0419C19.2453 16.0278 19.2327 16.0139 19.22 16C20.3257 14.7959 20.2459 12.9234 19.0419 11.8177ZM17 19H14V17H17C17.5523 17 18 17.4477 18 18C18 18.5523 17.5523 19 17 19ZM17 15H14V13H17C17.5523 13 18 13.4477 18 14C18 14.5523 17.5523 15 17 15Z" fill="#E66F32"></path><path d="M0 8H8V0H0V8ZM2 2H6V6H2V2Z" fill="#E66F32"></path><path d="M24 0V8H32V0H24ZM30 6H26V2H30V6Z" fill="#E66F32"></path><path d="M24 32H32V24H24V32ZM26 26H30V30H26V26Z" fill="#E66F32"></path><path d="M0 32H8V24H0V32ZM2 26H6V30H2V26Z" fill="#E66F32"></path><path d="M4 10H2V12H4V10Z" fill="#E66F32"></path><path d="M4 14H2V18H4V14Z" fill="#E66F32"></path><path d="M4 20H2V22H4V20Z" fill="#E66F32"></path><path d="M12 28H10V30H12V28Z" fill="#E66F32"></path><path d="M18 28H14V30H18V28Z" fill="#E66F32"></path><path d="M22 28H20V30H22V28Z" fill="#E66F32"></path><path d="M30 20H28V22H30V20Z" fill="#E66F32"></path><path d="M30 14H28V18H30V14Z" fill="#E66F32"></path><path d="M30 10H28V12H30V10Z" fill="#E66F32"></path><path d="M12 2H10V4H12V2Z" fill="#E66F32"></path><path d="M18 2H14V4H18V2Z" fill="#E66F32"></path><path d="M22 2H20V4H22V2Z" fill="#E66F32"></path></svg>