<svg xmlns="http://www.w3.org/2000/svg" width="32" height="32" viewBox="0 0 32 32" fill="none"><path d="M14 4H4V6H14V4Z" fill="#E66F32"></path><path d="M10 9H8V11H10V9Z" fill="#E66F32"></path><path d="M6 9H4V11H6V9Z" fill="#E66F32"></path><path d="M14 26H4V28H14V26Z" fill="#E66F32"></path><path d="M6 21H4V23H6V21Z" fill="#E66F32"></path><path d="M10 21H8V23H10V21Z" fill="#E66F32"></path><path d="M10 15H4V17H10V15Z" fill="#E66F32"></path><path d="M29.9998 0V5.607C24.26 2.29394 16.9211 4.26131 13.608 10.0012C10.295 15.7411 12.2623 23.0799 18.0022 26.393C21.7144 28.5357 26.2876 28.5357 29.9998 26.393V32H31.9998V0H29.9998ZM29.9998 23.993C25.5854 27.3119 19.3164 26.4237 15.9975 22.0093C12.6787 17.5949 13.5668 11.3259 17.9812 8.007C21.5406 5.331 26.4405 5.331 29.9998 8.007V23.993Z" fill="#E66F32"></path><path d="M8 9H0V11H8V9Z" fill="#E66F32"></path><path d="M4 15H0V17H4V15Z" fill="#E66F32"></path><path d="M8 21H0V23H8V21Z" fill="#E66F32"></path><path d="M2 4H0V6H2V4Z" fill="#E66F32"></path><path d="M4 26H0V28H4V26Z" fill="#E66F32"></path><path d="M23 9H21V11H20V21H21V23H23V21H25V23H27V20.22C28.2249 19.1374 28.3403 17.2668 27.2577 16.0419C27.2453 16.0278 27.2327 16.0139 27.22 16C28.3257 14.7959 28.2459 12.9234 27.0419 11.8177C27.0281 11.805 27.0141 11.7924 27 11.7799V9H25V11H23V9ZM25 19H22V17H25C25.5523 17 26 17.4477 26 18C26 18.5523 25.5523 19 25 19ZM25 13C25.5523 13 26 13.4477 26 14C26 14.5523 25.5523 15 25 15H22V13H25Z" fill="#E66F32"></path></svg>