<svg xmlns="http://www.w3.org/2000/svg" width="32" height="32" viewBox="0 0 32 32" fill="none"><path d="M16 30C11.4244 29.9971 7.13962 27.7563 4.527 24H12V18.279L9.194 17.344L9.85 14.724L17.369 11.5L14.618 6H6.218C11.7324 0.590375 20.5881 0.675313 25.9977 6.18969C28.5667 8.80844 30.004 12.3316 30 16H32C32 7.16344 24.8366 0 16 0C7.16344 0 0 7.16344 0 16C0 24.8366 7.16344 32 16 32C17.8183 32.0027 19.6234 31.6918 21.336 31.081L20.664 29.2C19.1668 29.7324 17.5891 30.0031 16 30ZM2 16C1.999 13.1368 2.88144 10.3431 4.527 8H13.382L14.631 10.5L8.15 13.276L6.806 18.656L10 19.721V22H3.37C2.4705 20.1276 2.00237 18.0772 2 16Z" fill="#E66F32"></path><path d="M25 8H23V10H25V8Z" fill="#E66F32"></path><path d="M25 8H19V10H25V8Z" fill="#E66F32"></path><path d="M16 27H22V25H18V23H22V21H16V27Z" fill="#E66F32"></path><path d="M31.0419 20.8177C31.0281 20.805 31.0141 20.7924 31 20.7799V18H29V20H27V18H25V20H24V30H25V32H27V30H29V32H31V29.22C32.2249 28.1374 32.3403 26.2668 31.2578 25.0419C31.2453 25.0278 31.2328 25.0139 31.22 25C32.3258 23.7959 32.246 21.9234 31.0419 20.8177ZM29 28H26V26H29C29.5523 26 30 26.4477 30 27C30 27.5523 29.5523 28 29 28ZM29 24H26V22H29C29.5523 22 30 22.4477 30 23C30 23.5523 29.5523 24 29 24Z" fill="#E66F32"></path></svg>