<svg xmlns="http://www.w3.org/2000/svg" width="20" height="32" viewBox="0 0 20 32" fill="none"><path d="M15 1.338C14.3575 0.966748 13.6756 0.668186 12.967 0.447998L12.375 2.358C12.9413 2.53456 13.4863 2.77331 14 3.07L15 1.338Z" fill="#E66F32"></path><path d="M16.5927 5.46503L18.2367 4.32803C17.8161 3.71865 17.3295 3.15759 16.7857 2.65503L15.4287 4.12403C15.8645 4.52721 16.2548 4.9769 16.5927 5.46503Z" fill="#E66F32"></path><path d="M19.285 6.283L17.428 7.026C19.0705 11.1276 17.0769 15.7842 12.9753 17.4267C8.87369 19.0692 4.21712 17.0756 2.57463 12.974C0.932125 8.87238 2.92569 4.21581 7.02731 2.57331C7.97269 2.19475 8.98162 2.00019 10 2C10.214 2 10.426 2.008 10.634 2.025L10.792 0.031C10.5307 0.0103125 10.2667 0 10 0C4.47969 0.0060625 0.0060625 4.47969 0 10V22C0 27.5229 4.47713 32 10 32C15.5229 32 20 27.5229 20 22V10C20.0012 8.72669 19.7586 7.46494 19.285 6.283ZM10 30C6.56425 29.9943 3.51494 27.7979 2.421 24.541C6.04981 28.7271 12.385 29.1788 16.5711 25.5499C16.9309 25.238 17.2681 24.9008 17.58 24.541C16.4862 27.7985 13.4362 29.9951 10 30ZM10 26C6.53581 25.9814 3.47013 23.7533 2.383 20.464C5.95281 24.6781 12.2629 25.2004 16.4769 21.6306C16.8778 21.2909 17.2514 20.9202 17.594 20.522C16.4904 23.7809 13.4407 25.9809 10 26ZM10 22C6.54087 21.9938 3.47631 19.7684 2.4 16.481C5.96281 20.6793 12.2544 21.1944 16.4527 17.6316C16.8719 17.2758 17.2611 16.8859 17.616 16.466C16.5288 19.7545 13.4635 21.9818 10 22Z" fill="#E66F32"></path><path d="M5.81177 9.99988L9.99977 16.5159L14.1878 9.99988L9.99977 3.48389L5.81177 9.99988ZM9.99977 12.8169L8.18777 9.99988L9.99977 7.18288L11.8118 9.99988L9.99977 12.8169Z" fill="#E66F32"></path></svg>