<svg xmlns="http://www.w3.org/2000/svg" width="32" height="32" viewBox="0 0 32 32" fill="none"><path d="M18.4737 13.0526L27 4.52632L24.4737 2L15.9474 10.5263L15 14L18.4737 13.0526Z" stroke="#E66F32" stroke-width="2" stroke-linecap="round"></path><rect x="2" y="16" width="5" height="2" fill="#E66F32"></rect><rect x="13" y="16" width="18" height="2" fill="#E66F32"></rect><rect width="2" height="2" transform="matrix(-1 0 0 1 11 16)" fill="#E66F32"></rect><path d="M32 3H26.5V5H30V22H10V24H11.72L10.22 30H7V32H25V30H21.78L20.28 24H32V3ZM12.28 30L13.78 24H18.22L19.72 30H12.28Z" fill="#E66F32"></path><path d="M10 24V22H2V5H22.5V3H0V24H10Z" fill="#E66F32"></path></svg>