<svg xmlns="http://www.w3.org/2000/svg" width="32" height="32" viewBox="0 0 32 32" fill="none"><path d="M10.277 30L5.277 27L4 27L4 21L9.734 21L14.134 23.515C14.4594 23.7001 14.6846 24.0211 14.748 24.39C14.8667 25.0734 14.4089 25.7237 13.7254 25.8424C13.4338 25.893 13.1337 25.8391 12.878 25.69L8.5 23.137L7.5 24.863L11.875 27.417C13.4213 28.3351 15.4189 27.8259 16.337 26.2796C17.2551 24.7334 16.7459 22.7357 15.1996 21.8176C15.1769 21.8041 15.154 21.7909 15.131 21.778L10.266 19L4 19L4 17L3.8147e-06 17L3.72727e-06 19L2 19L2 29L3.29016e-06 29L3.20274e-06 31L4 31L4 29L4.723 29L9.723 32L14 32L14 30L10.277 30Z" fill="#E66F32"></path><path d="M30 29C30 27.3431 28.6569 26 27 26L18 26L18 28L27 28C27.5523 28 28 28.4477 28 29C28 29.5523 27.5523 30 27 30L24 30L24 32L27 32C28.6569 32 30 30.6569 30 29Z" fill="#E66F32"></path><path d="M22 32L22 30L20 30L20 32L22 32Z" fill="#E66F32"></path><path d="M18 32L18 30L16 30L16 32L18 32Z" fill="#E66F32"></path><mask id="path-5-inside-1" fill="white"><path fill-rule="evenodd" clip-rule="evenodd" d="M24.3637 0H18.6365V3.58684L16.1001 1.05052L12.0503 5.10031L14.5865 7.63646H11V13.3637H14.5865L12.0504 15.8999L16.1002 19.9497L18.6365 17.4134V21H24.3637V17.4137L26.8996 19.9496L30.9494 15.8998L28.4134 13.3637H32V7.63646H28.4134L30.9494 5.10041L26.8996 1.05062L24.3637 3.58651V0Z"></path></mask><path d="M18.6365 0V-2L16.6365 0H18.6365ZM24.3637 0H26.3637L24.3637 -2V0ZM18.6365 3.58684L17.2222 5.00106L20.6365 3.58684H18.6365ZM16.1001 1.05052L17.5144 -0.363695L14.6859 -0.363695L16.1001 1.05052ZM12.0503 5.10031L10.6361 3.6861L10.6361 6.51453L12.0503 5.10031ZM14.5865 7.63646V9.63646L16.0007 6.22225L14.5865 7.63646ZM11 7.63646V5.63646L9 7.63646H11ZM11 13.3637H9L11 15.3637V13.3637ZM14.5865 13.3637L16.0007 14.7779L14.5865 11.3637V13.3637ZM12.0504 15.8999L10.6362 14.4857L10.6362 17.3141L12.0504 15.8999ZM16.1002 19.9497L14.686 21.3639H17.5144L16.1002 19.9497ZM18.6365 17.4134H20.6365L17.2222 15.9992L18.6365 17.4134ZM18.6365 21H16.6365L18.6365 23V21ZM24.3637 21V23L26.3637 21H24.3637ZM24.3637 17.4137L25.7779 15.9995L22.3637 17.4137H24.3637ZM26.8996 19.9496L25.4854 21.3638H28.3138L26.8996 19.9496ZM30.9494 15.8998L32.3636 17.314V14.4855L30.9494 15.8998ZM28.4134 13.3637V11.3637L26.9991 14.7779L28.4134 13.3637ZM32 13.3637V15.3637L34 13.3637H32ZM32 7.63646H34L32 5.63646V7.63646ZM28.4134 7.63646L26.9992 6.22225L28.4134 9.63646V7.63646ZM30.9494 5.10041L32.3636 6.51463V3.6862L30.9494 5.10041ZM26.8996 1.05062L28.3138 -0.363593L25.4854 -0.363593L26.8996 1.05062ZM24.3637 3.58651H22.3637L25.7779 5.00072L24.3637 3.58651ZM18.6365 2H24.3637V-2H18.6365V2ZM20.6365 3.58684V0H16.6365V3.58684H20.6365ZM14.6859 2.46473L17.2222 5.00106L20.0507 2.17263L17.5144 -0.363695L14.6859 2.46473ZM13.4646 6.51453L17.5144 2.46473L14.6859 -0.363695L10.6361 3.6861L13.4646 6.51453ZM16.0007 6.22225L13.4646 3.6861L10.6361 6.51453L13.1723 9.05067L16.0007 6.22225ZM11 9.63646H14.5865V5.63646H11V9.63646ZM13 13.3637V7.63646H9V13.3637H13ZM14.5865 11.3637H11V15.3637H14.5865V11.3637ZM13.4646 17.3141L16.0007 14.7779L13.1723 11.9495L10.6362 14.4857L13.4646 17.3141ZM17.5144 18.5354L13.4646 14.4856L10.6362 17.3141L14.686 21.3639L17.5144 18.5354ZM17.2222 15.9992L14.686 18.5354L17.5144 21.3639L20.0507 18.8276L17.2222 15.9992ZM20.6365 21V17.4134H16.6365V21H20.6365ZM24.3637 19H18.6365V23H24.3637V19ZM22.3637 17.4137V21H26.3637V17.4137H22.3637ZM28.3138 18.5353L25.7779 15.9995L22.9495 18.8279L25.4854 21.3638L28.3138 18.5353ZM29.5352 14.4855L25.4854 18.5353L28.3138 21.3638L32.3636 17.314L29.5352 14.4855ZM26.9991 14.7779L29.5352 17.314L32.3636 14.4855L29.8276 11.9495L26.9991 14.7779ZM32 11.3637H28.4134V15.3637H32V11.3637ZM30 7.63646V13.3637H34V7.63646H30ZM28.4134 9.63646H32V5.63646H28.4134V9.63646ZM29.5352 3.6862L26.9992 6.22225L29.8276 9.05068L32.3636 6.51463L29.5352 3.6862ZM25.4854 2.46483L29.5352 6.51463L32.3636 3.6862L28.3138 -0.363593L25.4854 2.46483ZM25.7779 5.00072L28.3138 2.46483L25.4854 -0.363593L22.9495 2.1723L25.7779 5.00072ZM22.3637 0V3.58651H26.3637V0H22.3637Z" fill="#E66F32" mask="url(#path-5-inside-1)"></path><circle cx="21.4999" cy="10.4999" r="3.77273" stroke="#E66F32" stroke-width="2"></circle></svg>