<svg xmlns="http://www.w3.org/2000/svg" width="32" height="32" viewBox="0 0 32 32" fill="none"><g clip-path="url(#clip0)"><path d="M16 14.5L15.1647 18.2294L12.6903 17.5664L13.9711 19.7848L10.4283 21.8302L9.14741 19.6117L8.48436 22.0863L4.53285 21.0275L5.19593 18.5528L2.97719 19.8338L0.931733 16.291L3.15015 15.0102L0.675781 14.3472L1.73459 10.3956L4.20935 11.0588L2.92827 8.83985L6.4711 6.79439L7.75208 9.01312L8.41513 6.53857L12.3666 7.59738M13.5 8L15.5 8.5" stroke="#E66F32" stroke-width="2" stroke-linejoin="bevel"></path><circle cx="8.44963" cy="14.3124" r="2.40909" transform="rotate(-30 8.44963 14.3124)" stroke="#E66F32" stroke-width="2"></circle><path d="M16 14.5L16.8352 10.7709L19.3099 11.434L18.0289 9.21509L21.5717 7.16964L22.8527 9.38837L23.5157 6.91382L27.4672 7.97262L26.8042 10.447L29.0227 9.16619L31.0682 12.709L28.8493 13.9901L31.3241 14.6532L30.2653 18.6047L27.7909 17.9417L29.0717 20.16L25.5289 22.2055L24.248 19.987L23.585 22.4615L19.6334 21.4027M18.5 21L16.5 20.5" stroke="#E66F32" stroke-width="2" stroke-linejoin="bevel"></path><circle cx="23.5502" cy="14.6875" r="2.40909" transform="rotate(-30 23.5502 14.6875)" stroke="#E66F32" stroke-width="2"></circle></g><defs><clipPath id="clip0"><rect width="32" height="32" fill="white"></rect></clipPath></defs></svg>