<svg xmlns="http://www.w3.org/2000/svg" width="32" height="32" viewBox="0 0 32 32" fill="none"><g clip-path="url(#clip0)"><path d="M13 21.734L10.222 16.873C9.32288 15.3161 7.33187 14.7829 5.775 15.682C4.21813 16.5811 3.68488 18.5721 4.584 20.129L7.137 24.5L8.863 23.5L6.312 19.121C5.95912 18.5244 6.15675 17.7547 6.75331 17.4019C7.34987 17.049 8.11956 17.2466 8.47244 17.8432C8.47669 17.8504 8.48094 17.8577 8.48506 17.865L11 22.266V28H5V26.723L2 21.723V5C2 4.44769 2.44769 4 3 4C3.55231 4 4 4.44769 4 5V14H6V5C6 3.34312 4.65688 2 3 2C1.34312 2 0 3.34312 0 5V22.277L3 27.277V28H1V32H3V30H13V32H15V28H13V21.734Z" fill="#E66F32"></path><path d="M30 21.723L27 26.723V28H21V22.266L23.515 17.866C23.7001 17.5406 24.0211 17.3154 24.39 17.252C25.0734 17.1333 25.7237 17.5911 25.8424 18.2746C25.893 18.5662 25.8391 18.8663 25.69 19.122L23.137 23.5L24.863 24.5L27.417 20.125C28.3351 18.5787 27.8259 16.5811 26.2796 15.663C24.7334 14.7449 22.7357 15.2541 21.8176 16.8004C21.8041 16.8231 21.7909 16.846 21.778 16.869L19 21.734V28H17V32H19V30H29V32H31V28H29V27.277L32 22.277V18H30V21.723Z" fill="#E66F32"></path><path d="M29 2C27.3431 2 26 3.34312 26 5V14H28V5C28 4.44769 28.4477 4 29 4C29.5523 4 30 4.44769 30 5V8H32V5C32 3.34312 30.6569 2 29 2Z" fill="#E66F32"></path><path d="M32 10H30V12H32V10Z" fill="#E66F32"></path><path d="M32 14H30V16H32V14Z" fill="#E66F32"></path><path d="M21 14V12.6667C21 11.9594 20.7366 11.2811 20.2678 10.781C19.7989 10.281 19.163 10 18.5 10H13.5C12.837 10 12.2011 10.281 11.7322 10.781C11.2634 11.2811 11 11.9594 11 12.6667V14" stroke="#E66F32" stroke-width="2" stroke-linejoin="round"></path><path d="M16 7C17.6569 7 19 5.65685 19 4C19 2.34315 17.6569 1 16 1C14.3431 1 13 2.34315 13 4C13 5.65685 14.3431 7 16 7Z" stroke="#E66F32" stroke-width="2" stroke-linejoin="round"></path></g><defs><clipPath id="clip0"><rect width="32" height="32" fill="white"></rect></clipPath></defs></svg>