<svg xmlns="http://www.w3.org/2000/svg" width="32" height="32" viewBox="0 0 32 32" fill="none"><g clip-path="url(#clip0)"><path d="M22.5 32V30C22.5 28.9391 22.0786 27.9217 21.3284 27.1716C20.5783 26.4214 19.5609 26 18.5 26H10.5C9.43913 26 8.42172 26.4214 7.67157 27.1716C6.92143 27.9217 6.5 28.9391 6.5 30V32" stroke="#E66F32" stroke-width="2" stroke-linejoin="round"></path><path d="M14.5 22C16.7091 22 18.5 20.2091 18.5 18C18.5 15.7909 16.7091 14 14.5 14C12.2909 14 10.5 15.7909 10.5 18C10.5 20.2091 12.2909 22 14.5 22Z" stroke="#E66F32" stroke-width="2" stroke-linejoin="round"></path><path d="M28.5 32V30C28.4993 29.1137 28.2044 28.2528 27.6614 27.5523C27.1184 26.8519 26.3581 26.3516 25.5 26.13" stroke="#E66F32" stroke-width="2" stroke-linejoin="round"></path><path d="M21.5 14.13C22.3604 14.3503 23.123 14.8507 23.6676 15.5523C24.2122 16.2539 24.5078 17.1168 24.5078 18.005C24.5078 18.8932 24.2122 19.7561 23.6676 20.4577C23.123 21.1593 22.3604 21.6597 21.5 21.88" stroke="#E66F32" stroke-width="2" stroke-linejoin="round"></path><path d="M28.5 32V30C28.4993 29.1137 28.2044 28.2528 27.6614 27.5523C27.1184 26.8519 26.3581 26.3516 25.5 26.13" stroke="#E66F32" stroke-width="2" stroke-linejoin="round"></path><path d="M21.5 14.13C22.3604 14.3503 23.123 14.8507 23.6676 15.5523C24.2122 16.2539 24.5078 17.1168 24.5078 18.005C24.5078 18.8932 24.2122 19.7561 23.6676 20.4577C23.123 21.1593 22.3604 21.6597 21.5 21.88" stroke="#E66F32" stroke-width="2" stroke-linejoin="round"></path><path d="M18.5 5H14.5M12.5 5H10.5M8.5 5H6.5M4 9H14.5L18.5 11.5V9H21.5V1H4V9Z" stroke="#E66F32" stroke-width="2"></path></g><defs><clipPath id="clip0"><rect width="32" height="32" fill="white"></rect></clipPath></defs></svg>