<?xml version="1.0" standalone="no"?>
<!DOCTYPE svg PUBLIC "-//W3C//DTD SVG 20010904//EN"
 "http://www.w3.org/TR/2001/REC-SVG-20010904/DTD/svg10.dtd">
<svg version="1.0" xmlns="http://www.w3.org/2000/svg"
 width="450.000000pt" height="600.000000pt" viewBox="0 0 450.000000 600.000000"
 preserveAspectRatio="xMidYMid meet">

<g transform="translate(0.000000,600.000000) scale(0.100000,-0.100000)"
fill="#000000" stroke="none">
<path d="M0 3000 l0 -3000 750 0 750 0 0 53 c0 137 -21 759 -30 895 -11 162 2
360 24 374 6 4 23 -7 39 -25 21 -23 24 -25 13 -7 -19 30 -46 89 -46 101 0 5 5
9 10 9 6 0 10 10 10 23 0 13 6 43 14 68 7 24 24 78 36 119 33 109 38 120 55
120 9 0 15 9 15 24 0 14 6 31 13 38 8 7 17 27 21 43 13 50 17 204 7 242 -6 20
-8 40 -5 44 10 17 135 -64 279 -181 39 -32 88 -66 110 -77 67 -33 181 -56 289
-57 149 -1 231 29 373 138 122 94 322 231 328 225 2 -3 8 -49 14 -104 11 -99
36 -239 65 -365 9 -36 16 -96 16 -135 0 -65 -3 -74 -41 -130 -22 -33 -45 -60
-50 -60 -5 0 -9 -4 -8 -8 2 -15 -54 -68 -99 -94 -24 -14 -40 -28 -37 -31 8 -9
94 55 164 122 39 38 61 53 57 41 -3 -11 -12 -45 -20 -75 -40 -151 -60 -218
-86 -279 -15 -36 -33 -93 -39 -126 -25 -126 -36 -164 -108 -369 -58 -163 -173
-532 -173 -553 0 -1 403 -3 895 -3 l895 0 0 3000 0 3000 -2250 0 -2250 0 0
-3000z m2523 2471 c16 -6 32 -9 36 -6 5 2 16 -2 26 -9 15 -11 16 -16 6 -32
-10 -15 -11 -15 -7 -2 3 12 1 15 -10 11 -8 -3 -25 2 -39 11 -20 13 -29 14 -43
5 -15 -9 -30 -9 -65 -1 -47 12 -135 16 -125 6 3 -3 20 -6 38 -6 25 -1 28 -3
15 -10 -11 -7 -29 -5 -53 5 l-37 15 30 7 c17 3 39 10 50 14 27 11 144 6 178
-8z m-379 -20 c2 -3 -15 -6 -37 -6 -48 1 -119 -14 -128 -27 -3 -5 -16 -10 -28
-13 -43 -8 -115 -75 -81 -75 6 0 10 4 10 9 0 5 12 17 28 27 22 14 20 10 -12
-27 -22 -24 -47 -47 -55 -51 -9 -4 -12 -7 -8 -7 12 -1 -12 -41 -25 -41 -9 0
-9 3 0 12 7 7 12 20 12 29 0 10 9 21 20 24 11 3 20 11 20 16 0 11 -17 12 -24
0 -3 -5 -16 -11 -28 -14 -18 -5 -13 4 22 36 25 23 44 45 42 50 -1 4 10 12 25
17 16 6 37 15 48 20 44 21 190 36 199 21z m98 -39 c-7 -2 -10 -7 -7 -12 5 -8
-55 -33 -62 -26 -3 2 9 12 26 22 17 10 31 22 31 27 0 4 5 5 12 1 9 -6 9 -9 0
-12z m-232 -22 c-27 -21 -45 -26 -35 -9 6 9 41 27 55 28 3 0 -6 -8 -20 -19z
m100 11 c0 -5 -9 -11 -20 -14 -23 -6 -27 -27 -5 -27 12 0 13 -3 5 -12 -6 -7
-22 -31 -36 -53 l-25 -40 26 28 c21 23 25 25 26 10 0 -16 1 -16 9 2 10 24 11
22 14 -32 1 -24 -1 -38 -5 -31 -6 9 -11 8 -23 -2 -9 -7 -14 -15 -12 -17 5 -5
-30 -43 -39 -43 -11 0 0 35 15 50 35 35 41 52 7 21 -20 -19 -34 -37 -32 -41 3
-4 -7 -20 -20 -34 -31 -34 -33 -47 -2 -19 17 17 24 19 33 9 12 -13 -1 -34 -83
-136 -38 -46 -51 -70 -39 -70 2 0 22 25 45 55 23 30 47 55 54 54 9 0 9 -2 0
-6 -7 -2 -13 -10 -13 -16 1 -7 10 -1 20 12 11 13 20 20 20 17 0 -4 21 5 47 19
60 32 78 33 61 5 -7 -11 -21 -23 -31 -26 -9 -3 -15 -9 -12 -14 3 -5 -7 -16
-22 -24 -16 -7 -37 -25 -48 -37 -11 -13 -13 -18 -5 -11 8 6 18 12 23 12 5 0
-4 -11 -20 -24 -16 -13 -41 -48 -56 -78 -15 -29 -31 -60 -36 -68 -5 -8 -37
-61 -71 -118 -34 -57 -60 -106 -56 -109 8 -8 43 35 61 74 10 23 19 31 29 27 9
-4 16 -1 16 6 0 9 10 11 30 7 17 -4 30 -3 30 2 0 5 19 7 42 4 32 -5 39 -3 33
7 -6 10 -2 12 18 8 19 -4 24 -1 19 10 -3 10 -1 13 7 8 14 -9 43 12 35 25 -6
11 37 29 50 21 5 -3 15 3 23 13 7 11 13 13 13 7 0 -7 7 -12 15 -12 8 0 15 -6
15 -14 0 -15 46 -11 68 7 8 6 12 6 12 -2 0 -6 -4 -11 -10 -11 -5 0 -10 -5 -10
-10 0 -6 12 -8 27 -5 16 2 30 -1 35 -8 5 -9 15 -8 40 6 18 10 44 16 58 15 16
-2 24 2 22 10 -1 6 5 12 13 12 8 0 24 6 35 13 14 8 23 9 28 2 4 -5 27 -11 52
-12 25 -1 46 -7 48 -13 2 -5 16 -10 30 -10 15 0 35 -7 45 -15 11 -7 25 -11 33
-8 8 3 14 -1 14 -10 0 -10 15 -17 48 -22 26 -4 52 -11 58 -16 5 -4 30 -11 54
-14 24 -3 53 -13 64 -23 61 -51 96 -88 96 -99 0 -7 19 -25 43 -40 44 -27 68
-53 61 -64 -2 -4 3 -10 12 -13 8 -3 12 -11 8 -17 -4 -7 1 -18 10 -25 16 -12
16 -13 -4 -24 -21 -11 -21 -12 14 -38 39 -30 47 -47 16 -37 -27 9 -25 -9 3
-28 19 -14 19 -16 4 -16 -17 -1 -17 -2 0 -28 12 -17 14 -28 6 -30 -13 -5 -6
-39 15 -71 8 -12 12 -25 9 -28 -3 -3 2 -22 10 -42 26 -60 33 -133 18 -186 -6
-23 -5 -28 6 -24 11 4 15 -8 17 -55 2 -34 6 -65 9 -71 3 -5 7 -33 8 -62 2 -29
10 -67 19 -85 18 -36 19 -42 9 -36 -14 9 -13 -182 1 -208 12 -23 13 -22 29 33
9 31 21 76 27 99 6 23 15 45 20 48 6 4 16 21 24 38 15 36 63 97 77 97 13 0 10
-97 -5 -163 -8 -31 -25 -76 -39 -100 -27 -46 -58 -133 -77 -217 -7 -30 -24
-78 -37 -107 -12 -30 -23 -69 -23 -88 0 -40 -29 -75 -61 -75 -11 0 -17 -5 -14
-10 9 -14 -23 -215 -45 -280 -31 -93 -70 -181 -104 -235 -41 -63 -143 -162
-256 -247 -104 -78 -116 -86 -105 -67 7 11 5 11 -11 -1 -23 -17 -147 -123
-154 -131 -16 -18 -83 -48 -130 -60 -109 -26 -301 -8 -410 39 -28 12 -74 49
-120 96 -47 48 -80 74 -89 71 -8 -3 -17 -2 -20 2 -3 5 -39 33 -79 62 -83 61
-188 182 -250 286 -37 64 -92 226 -92 272 0 11 -5 24 -11 30 -5 5 -12 27 -15
48 -2 21 -8 43 -11 48 -4 6 -8 21 -9 34 -2 13 -5 32 -9 42 -4 13 2 27 17 42
13 12 17 19 11 15 -7 -4 -13 -5 -13 -2 0 2 -3 12 -7 22 -5 13 -3 15 8 9 11 -6
12 -5 2 6 -7 7 -13 23 -13 35 0 13 -5 26 -10 29 -6 4 -8 16 -4 28 17 55 17 53
5 37 -8 -12 -11 -8 -12 20 -1 53 -9 95 -19 98 -4 2 -5 12 -2 24 3 14 1 19 -6
14 -9 -5 -9 0 -2 19 6 15 10 38 10 53 0 25 0 25 -16 6 -15 -19 -15 -12 2 30 5
13 4 17 -4 12 -6 -4 -17 -26 -24 -49 -7 -23 -22 -53 -34 -66 -32 -35 -74 -125
-74 -159 0 -32 29 -132 39 -132 3 0 17 -10 31 -21 20 -17 21 -20 5 -14 -17 5
-17 3 5 -21 19 -20 21 -26 8 -21 -25 9 -23 3 15 -39 29 -34 30 -36 7 -24 l-25
13 24 -27 c14 -14 20 -26 14 -26 -5 0 -18 9 -28 20 -10 11 -24 20 -31 20 -7 0
-23 14 -36 30 -12 17 -30 30 -40 30 -10 0 -18 6 -18 14 0 7 -10 20 -21 28 -17
11 -22 24 -22 58 0 36 -2 41 -12 27 -14 -19 -25 -12 -25 15 0 17 -3 17 -33 -6
-36 -28 -56 -34 -38 -13 6 8 7 18 3 22 -4 5 -2 5 5 1 7 -4 19 4 29 19 13 20
14 28 4 40 -17 21 -22 19 -64 -20 -45 -42 -75 -46 -72 -11 0 13 5 22 9 19 5
-3 17 3 28 13 11 10 19 12 19 5 0 -28 74 36 107 93 15 25 18 60 4 37 -6 -9
-11 -10 -15 -2 -10 15 -50 -24 -43 -41 7 -18 -13 -43 -41 -52 -25 -8 -31 13
-9 36 6 7 13 29 14 48 l2 35 -19 -37 c-29 -54 -37 -54 -49 4 -7 28 -16 58 -23
65 -7 9 -7 17 1 27 10 11 10 20 1 37 -10 17 -9 23 1 30 21 13 29 11 22 -8 -13
-34 14 -3 32 37 10 22 23 40 30 40 6 0 22 18 34 41 l23 41 -21 19 c-12 11 -21
25 -21 32 0 9 -2 9 -8 0 -4 -6 -8 40 -9 103 -2 86 1 116 11 120 7 3 13 24 13
52 1 42 1 44 -6 15 -5 -17 -19 -45 -32 -62 -13 -16 -34 -47 -47 -68 -13 -22
-33 -45 -45 -53 -19 -11 -20 -11 -11 1 6 8 12 39 13 69 1 39 -2 51 -9 40 -5
-8 -10 -12 -10 -8 0 3 -3 14 -7 24 -4 11 -2 15 4 11 13 -8 33 35 33 71 0 35
43 153 76 209 13 24 37 49 52 57 30 16 67 72 54 80 -5 3 -44 6 -86 7 -57 1
-76 5 -76 15 0 8 -4 14 -8 14 -9 0 -22 -25 -45 -85 -12 -31 -17 -36 -22 -23
-4 10 -11 15 -16 12 -13 -7 11 47 31 71 9 11 17 30 18 43 1 21 -3 19 -30 -15
-16 -21 -39 -55 -50 -76 -11 -22 -22 -37 -25 -34 -11 11 19 75 47 102 35 34
38 55 10 80 -17 15 -22 16 -37 4 -15 -13 -16 -12 -9 6 5 11 8 30 8 42 -1 12 3
25 9 28 10 7 31 51 33 71 1 13 26 39 46 47 8 3 2 4 -15 2 -16 -2 -43 -4 -58
-4 -16 -1 -26 -5 -22 -11 3 -5 0 -7 -7 -5 -8 3 -37 -20 -69 -53 -72 -77 -96
-86 -61 -25 29 53 77 109 66 77 -6 -15 0 -12 24 10 17 16 29 34 25 39 -3 6 -1
7 5 3 7 -4 12 -3 12 2 0 5 9 12 20 15 11 3 20 12 20 20 0 9 13 18 30 22 25 6
29 9 19 21 -9 11 -2 22 37 57 27 23 55 41 64 40 12 -1 11 1 -3 11 -16 12 -14
15 19 31 21 10 39 13 43 8 3 -5 17 -17 31 -27 l25 -18 -35 7 c-30 7 -33 6 -22
-8 11 -12 10 -15 -4 -13 -9 0 -19 -5 -22 -13 -3 -9 1 -11 17 -6 11 3 21 4 21
0 0 -9 -53 -28 -72 -26 -10 1 -18 -2 -18 -7 0 -6 -11 -13 -25 -16 -14 -4 -25
-14 -25 -23 0 -13 3 -14 12 -5 14 14 42 16 33 2 -4 -6 7 -10 25 -10 30 0 31
-2 25 -30 -6 -25 -4 -30 13 -30 11 0 25 7 32 15 7 8 21 15 32 15 10 0 16 5 13
10 -3 6 1 13 10 16 9 4 14 13 11 20 -5 13 6 19 28 15 19 -4 44 11 49 28 2 10
37 34 81 56 42 21 76 42 76 46 0 5 -16 -1 -35 -12 -20 -12 -44 -19 -56 -16
-20 5 -105 -24 -144 -50 -23 -15 -45 -17 -45 -3 0 6 8 10 18 10 9 0 35 12 56
26 21 15 54 29 73 31 46 6 96 28 113 48 10 13 4 12 -33 -4 -25 -11 -47 -17
-49 -13 -2 4 -42 6 -91 4 -50 -2 -85 -7 -82 -13 9 -14 -5 -11 -21 6 -9 8 -28
15 -43 15 -27 0 -76 32 -65 43 3 3 29 3 57 1 48 -4 51 -4 33 11 -18 14 -16 15
35 15 51 1 53 2 34 16 -19 16 -19 16 5 8 33 -11 79 -7 110 8 25 12 90 57 100
69 3 3 13 8 23 12 10 4 16 11 12 16 -3 5 0 13 6 17 8 4 7 9 -2 16 -11 7 -9 8
4 4 10 -3 28 1 40 10 l22 16 -25 -7 c-23 -5 -23 -5 -5 6 11 6 38 28 59 48 l39
36 -21 -32 c-45 -64 -12 -43 48 32 27 33 31 35 25 15 -6 -24 -6 -24 20 5 15
18 22 22 16 10 -5 -11 -19 -29 -30 -39 -25 -23 -29 -46 -3 -24 9 9 23 13 31
11 7 -3 27 11 45 31 27 32 44 42 79 45 4 1 7 7 7 14 1 12 88 82 95 75 3 -2
-17 -26 -43 -53 -26 -27 -46 -54 -44 -59 2 -4 -5 -17 -14 -27 -15 -17 -16 -19
0 -25 9 -3 23 -1 31 6 8 7 21 10 30 7 8 -4 17 -2 20 3 4 6 1 10 -4 10 -6 0
-11 4 -11 9 0 5 16 9 35 8 38 -2 42 -6 23 -25 -7 -7 -8 -12 -2 -12 6 0 16 11
22 25 15 32 15 38 2 30 -6 -3 -7 1 -4 10 4 9 13 14 20 11 7 -3 16 -1 20 5 3 6
12 8 20 5 14 -5 18 4 15 34 -2 13 -1 13 8 0 8 -12 13 -12 30 4 10 9 25 19 33
20 7 1 36 16 63 34 57 36 55 35 55 23z m-264 -26 c-11 -8 -22 -12 -25 -9 -6 6
19 24 34 24 6 -1 1 -7 -9 -15z m304 -20 c-7 -9 -15 -13 -17 -11 -7 7 7 26 19
26 6 0 6 -6 -2 -15z m-350 -75 c0 -5 -7 -10 -16 -10 -8 0 -12 5 -9 10 3 6 10
10 16 10 5 0 9 -4 9 -10z m360 6 c0 -2 -7 -7 -16 -10 -8 -3 -12 -2 -9 4 6 10
25 14 25 6z m-407 -31 c-3 -9 -8 -14 -10 -11 -3 3 -2 9 2 15 9 16 15 13 8 -4z
m-398 -115 c-10 -11 -24 -20 -31 -20 -7 0 -15 -6 -17 -12 -4 -9 -6 -8 -6 2 -1
9 11 23 27 32 37 23 49 22 27 -2z m-29 -55 c-23 -17 -56 -20 -56 -4 0 5 3 8 8
6 4 -3 16 -1 27 4 32 12 42 10 21 -6z m-71 -25 c-3 -5 -11 -10 -16 -10 -6 0
-7 5 -4 10 3 6 11 10 16 10 6 0 7 -4 4 -10z m35 -15 c-7 -8 -18 -15 -24 -15
-6 0 -2 7 8 15 25 19 32 19 16 0z m-44 -40 c-11 -8 -25 -15 -30 -15 -6 0 -2 7
8 15 11 8 25 15 30 15 6 0 2 -7 -8 -15z m-1 -205 c-3 -5 -11 -10 -16 -10 -6 0
-7 5 -4 10 3 6 11 10 16 10 6 0 7 -4 4 -10z m-488 -156 c-16 -9 -32 -13 -35
-9 -9 9 19 25 43 24 16 0 15 -2 -8 -15z m-93 -66 c-13 -23 -37 -48 -46 -48 -4
0 4 14 19 30 28 31 39 39 27 18z m156 -48 c0 -5 -4 -10 -10 -10 -5 0 -10 5
-10 10 0 6 5 10 10 10 6 0 10 -4 10 -10z m-54 -175 c-9 -9 -16 -13 -16 -8 0
12 22 34 28 28 2 -2 -3 -11 -12 -20z m-7 -241 c-6 -16 -13 -24 -16 -17 -5 13
16 58 23 50 3 -2 -1 -17 -7 -33z m77 -8 c-9 -15 -14 -26 -10 -26 3 0 -8 -11
-24 -25 -44 -36 -45 -31 -6 26 19 28 34 56 34 62 0 8 3 8 11 0 9 -9 8 -18 -5
-37z m-26 -118 c0 -9 -41 -48 -51 -48 -4 0 -5 9 -2 20 3 11 9 20 13 20 5 0 12
10 15 21 6 17 9 19 16 8 5 -8 9 -17 9 -21z m51 -115 c-12 -20 -14 -14 -5 12 4
9 9 14 11 11 3 -2 0 -13 -6 -23z m6 -165 c-2 -13 -4 -5 -4 17 -1 22 1 32 4 23
2 -10 2 -28 0 -40z m81 27 c-6 -14 -18 -25 -26 -25 -12 0 -10 6 8 25 13 14 25
25 27 25 1 0 -3 -11 -9 -25z m-121 -7 c-3 -8 -6 -5 -6 6 -1 11 2 17 5 13 3 -3
4 -12 1 -19z m-7 -94 c0 -8 -5 -12 -10 -9 -6 4 -8 11 -5 16 9 14 15 11 15 -7z
m180 -98 c0 -2 -8 -10 -17 -17 -16 -13 -17 -12 -4 4 13 16 21 21 21 13z m-29
-79 c-10 -9 -11 -8 -5 6 3 10 9 15 12 12 3 -3 0 -11 -7 -18z m-61 -102 c0 -5
-5 -3 -10 5 -5 8 -10 20 -10 25 0 6 5 3 10 -5 5 -8 10 -19 10 -25z m20 -171
c0 -8 -4 -12 -10 -9 -5 3 -10 13 -10 21 0 8 5 12 10 9 6 -3 10 -13 10 -21z
m27 -56 c-3 -7 -5 -2 -5 12 0 14 2 19 5 13 2 -7 2 -19 0 -25z m113 -12 c0 -2
-8 -10 -17 -17 -16 -13 -17 -12 -4 4 13 16 21 21 21 13z m282 -64 c3 -11 0
-19 -8 -19 -8 0 -14 9 -14 19 0 10 4 18 9 18 5 0 11 -8 13 -18z m-275 -54 c-3
-8 -6 -5 -6 6 -1 11 2 17 5 13 3 -3 4 -12 1 -19z m293 -9 c0 -5 -4 -9 -10 -9
-5 0 -10 7 -10 16 0 8 5 12 10 9 6 -3 10 -10 10 -16z m-7 -41 c6 -20 -8 -34
-18 -18 -4 6 -10 8 -14 6 -4 -3 -8 9 -9 25 -2 27 -1 28 17 17 11 -7 22 -20 24
-30z m-213 -30 c0 -6 -6 -5 -15 2 -8 7 -15 14 -15 16 0 2 7 1 15 -2 8 -4 15
-11 15 -16z"/>
<path d="M2029 5340 c-13 -10 -19 -19 -13 -20 7 0 22 9 35 20 13 10 19 19 13
20 -7 0 -22 -9 -35 -20z"/>
<path d="M2025 5310 c-3 -5 -2 -10 4 -10 5 0 13 5 16 10 3 6 2 10 -4 10 -5 0
-13 -4 -16 -10z"/>
<path d="M1986 5295 c-11 -8 -17 -17 -14 -20 2 -3 13 4 23 15 21 23 18 25 -9
5z"/>
<path d="M2000 5275 c-11 -13 -10 -14 4 -9 9 3 16 10 16 15 0 13 -6 11 -20 -6z"/>
<path d="M1952 5219 c-13 -17 -18 -30 -12 -34 5 -3 10 1 10 9 0 9 4 16 9 16 8
0 25 30 19 35 -2 1 -13 -10 -26 -26z"/>
<path d="M1835 5176 c-6 -6 -22 -29 -35 -51 -17 -27 -19 -36 -7 -26 19 15 61
80 56 86 -2 1 -9 -2 -14 -9z"/>
<path d="M1561 5158 c-14 -23 -14 -23 8 -4 22 20 25 26 13 26 -4 0 -13 -10
-21 -22z"/>
<path d="M1988 5115 c-7 -9 -20 -24 -28 -33 -36 -39 -45 -57 -16 -32 29 26 71
80 62 80 -3 0 -11 -7 -18 -15z"/>
<path d="M1439 4923 c-13 -16 -12 -17 4 -4 9 7 17 15 17 17 0 8 -8 3 -21 -13z"/>
<path d="M1390 4899 c0 -5 5 -7 10 -4 6 3 10 8 10 11 0 2 -4 4 -10 4 -5 0 -10
-5 -10 -11z"/>
<path d="M1235 4890 c-17 -7 -16 -9 10 -9 17 0 37 4 45 9 12 8 10 10 -10 9
-14 0 -34 -4 -45 -9z"/>
<path d="M1630 4849 c0 -5 5 -7 10 -4 6 3 10 8 10 11 0 2 -4 4 -10 4 -5 0 -10
-5 -10 -11z"/>
<path d="M1215 4749 c-11 -17 1 -21 15 -4 8 9 8 15 2 15 -6 0 -14 -5 -17 -11z"/>
<path d="M1350 4682 c-14 -9 -26 -20 -28 -24 -2 -5 -8 -8 -14 -8 -13 0 -100
-51 -95 -56 12 -12 167 82 167 101 0 7 -2 6 -30 -13z"/>
<path d="M1382 4645 c-40 -23 -124 -86 -147 -109 -5 -6 -26 -22 -46 -36 -42
-29 -109 -87 -109 -95 0 -2 16 3 35 12 19 9 35 20 35 25 0 4 7 8 16 8 10 0 14
6 11 14 -3 8 5 18 21 25 21 10 28 10 37 -2 8 -11 13 -11 30 6 20 20 20 20 -1
9 -21 -11 -34 -7 -34 9 0 4 9 10 19 14 11 3 35 18 53 33 47 37 132 112 127
112 -2 0 -23 -11 -47 -25z"/>
<path d="M1182 4574 c-4 -8 -27 -16 -52 -18 -25 -2 -56 -9 -70 -14 -24 -10
-24 -11 -2 -11 25 -1 31 -21 6 -21 -9 0 -32 -13 -51 -30 -18 -16 -29 -30 -23
-30 20 0 10 -17 -17 -30 -19 -8 -23 -14 -14 -18 7 -2 17 2 22 9 8 12 11 12 19
-1 11 -17 12 -16 14 23 2 28 19 47 43 47 7 0 10 -7 7 -15 -7 -17 21 -21 31 -5
4 6 11 7 17 4 7 -4 8 -2 4 4 -4 7 -1 12 9 12 14 0 14 2 -1 25 -19 29 -11 33
14 8 16 -16 18 -15 26 10 6 15 15 27 22 27 6 0 17 6 23 14 9 10 8 15 -3 19 -9
4 -19 0 -24 -9z"/>
<path d="M1415 4530 c-10 -11 -24 -20 -31 -20 -17 0 -83 -70 -84 -87 0 -7 -4
-13 -8 -13 -14 0 -48 -33 -55 -53 -6 -15 -3 -17 16 -12 12 4 26 11 32 16 16
15 27 10 23 -12 -2 -12 -10 -25 -18 -29 -8 -4 -25 -12 -38 -19 -13 -7 -46 -15
-73 -18 -38 -4 -54 -12 -69 -32 -11 -14 -24 -31 -28 -36 -9 -11 -42 -103 -42
-118 0 -4 11 5 25 21 14 17 25 34 25 39 0 5 10 15 23 22 12 7 36 30 52 51 34
43 55 56 65 39 6 -8 9 -8 14 0 4 6 14 11 22 11 11 0 12 -4 5 -19 -6 -10 -7
-21 -4 -25 8 -7 53 41 54 58 0 6 4 2 9 -9 6 -15 9 -16 9 -4 1 16 54 69 69 69
23 0 72 33 78 52 3 12 10 26 15 32 5 6 20 25 34 42 29 37 34 60 4 25 -23 -28
-36 -22 -19 8 18 35 3 23 -19 -14 -25 -43 -46 -47 -37 -7 4 15 9 36 12 47 2
11 -6 3 -18 -17 -13 -21 -26 -38 -30 -38 -8 0 2 41 15 58 16 21 -8 14 -28 -8z
m-45 -70 c0 -5 -8 -10 -17 -10 -15 0 -16 2 -3 10 19 12 20 12 20 0z m84 -6 c7
-18 -10 -44 -27 -44 -5 0 -2 10 9 23 10 12 12 16 4 10 -8 -7 -23 -13 -33 -13
-17 0 -17 2 4 20 29 24 35 24 43 4z"/>
<path d="M863 4501 c-13 -11 -23 -24 -23 -29 0 -6 -6 -12 -12 -15 -7 -2 -10
-8 -6 -12 10 -10 29 6 51 44 21 36 20 37 -10 12z"/>
<path d="M1005 4510 c3 -5 10 -10 16 -10 5 0 9 5 9 10 0 6 -7 10 -16 10 -8 0
-12 -4 -9 -10z"/>
<path d="M909 4493 c-13 -15 -12 -15 9 -4 23 12 28 21 13 21 -5 0 -15 -7 -22
-17z"/>
<path d="M1191 4461 c-15 -26 -14 -31 5 -31 8 0 12 5 8 11 -3 6 -1 15 6 19 8
5 9 10 2 14 -6 4 -16 -2 -21 -13z"/>
<path d="M1589 4418 c-7 -23 -16 -47 -21 -52 -4 -6 -8 -24 -8 -40 0 -22 -3
-27 -9 -17 -6 10 -11 1 -17 -30 -9 -53 -8 -47 -23 -83 -15 -37 -8 -44 13 -12
16 25 24 53 25 89 1 10 5 16 10 13 9 -6 56 162 48 171 -3 3 -11 -15 -18 -39z"/>
<path d="M859 4433 c-13 -9 -26 -18 -28 -20 -7 -5 32 -32 47 -33 7 0 11 4 8 9
-4 5 0 12 6 14 10 4 10 6 1 6 -19 1 -15 19 5 23 15 3 15 4 1 10 -9 4 -27 -1
-40 -9z"/>
<path d="M1144 4405 c-19 -15 -19 -15 1 -9 15 5 12 -1 -10 -19 -16 -14 -26
-29 -22 -33 10 -11 54 37 54 59 0 21 1 20 -23 2z"/>
<path d="M937 4376 c-4 -10 -5 -21 -2 -24 9 -9 17 6 13 25 -3 17 -4 17 -11 -1z"/>
<path d="M1063 4375 c-18 -8 -33 -19 -33 -24 0 -16 58 -43 65 -31 3 6 -3 10
-15 10 -14 0 -19 4 -14 12 5 8 2 9 -11 4 -15 -5 -16 -4 -5 9 10 12 16 13 26 4
11 -9 14 -8 14 4 0 8 6 18 13 20 6 3 8 6 2 6 -5 0 -25 -6 -42 -14z"/>
<path d="M1180 4348 c-38 -23 -29 -35 13 -19 15 6 27 17 27 26 0 19 2 19 -40
-7z"/>
<path d="M1420 4306 c0 -9 5 -16 10 -16 6 0 10 4 10 9 0 6 -4 13 -10 16 -5 3
-10 -1 -10 -9z"/>
<path d="M1481 4207 c-30 -69 -26 -93 4 -28 14 30 24 59 21 65 -2 6 -13 -11
-25 -37z"/>
<path d="M1315 4220 c-3 -5 -1 -10 4 -10 6 0 11 5 11 10 0 6 -2 10 -4 10 -3 0
-8 -4 -11 -10z"/>
<path d="M1266 4184 c-4 -14 -5 -29 -2 -31 3 -3 8 7 12 21 3 15 4 29 1 32 -2
3 -8 -7 -11 -22z"/>
<path d="M1035 4164 c-9 -14 -15 -27 -13 -30 2 -2 12 10 22 26 21 37 15 40 -9
4z"/>
<path d="M1297 4120 c-10 -37 -8 -60 4 -60 6 0 9 7 5 15 -3 9 0 15 9 15 8 0
15 5 15 10 0 6 -4 10 -9 10 -5 0 -11 8 -13 18 -3 13 -5 11 -11 -8z"/>
<path d="M1218 4084 c-5 -4 -8 -22 -8 -40 0 -18 -5 -36 -10 -39 -6 -4 -10 -3
-9 2 1 4 1 17 0 28 -2 19 -2 19 -12 2 -6 -10 -8 -25 -5 -33 3 -9 1 -12 -4 -9
-6 3 -11 -2 -12 -12 -2 -32 -4 -38 -16 -60 -22 -39 11 -28 62 22 26 25 43 45
37 45 -6 0 -11 7 -11 16 0 8 3 13 8 11 4 -3 8 6 8 19 1 13 -2 24 -6 24 -5 0
-10 7 -12 16 -2 9 -6 12 -10 8z"/>
<path d="M1017 4036 c-10 -14 -17 -30 -17 -36 0 -6 -7 -21 -15 -34 -9 -13 -18
-34 -20 -47 -15 -77 -16 -89 -9 -89 13 0 54 63 54 83 0 8 5 19 11 22 6 4 8 13
5 21 -3 8 -1 14 3 14 5 0 7 9 4 20 -3 11 -1 26 5 33 6 7 7 18 3 25 -6 10 -12
6 -24 -12z"/>
<path d="M1373 3988 c-11 -13 -27 -36 -36 -53 -8 -16 -31 -45 -51 -63 -20 -18
-36 -38 -36 -44 0 -20 50 35 101 110 51 75 56 87 22 50z"/>
<path d="M1085 3950 c3 -5 8 -10 11 -10 2 0 4 5 4 10 0 6 -5 10 -11 10 -5 0
-7 -4 -4 -10z"/>
<path d="M1050 3925 c0 -14 4 -25 9 -25 5 0 9 11 9 25 0 14 -4 25 -9 25 -5 0
-9 -11 -9 -25z"/>
<path d="M1085 3910 c3 -5 8 -10 11 -10 2 0 4 5 4 10 0 6 -5 10 -11 10 -5 0
-7 -4 -4 -10z"/>
<path d="M2901 3891 c-8 -5 -32 -8 -54 -6 -22 2 -47 0 -56 -4 -9 -5 -35 -11
-59 -15 -51 -7 -82 -22 -82 -40 0 -7 -9 -21 -20 -31 -23 -20 -21 -29 4 -19 9
3 16 12 16 19 0 7 7 15 15 19 16 6 19 -3 9 -28 -3 -9 -15 -16 -25 -16 -21 0
-26 -18 -6 -25 6 -3 81 17 166 45 136 44 159 49 209 44 75 -9 91 -18 146 -86
26 -32 51 -58 57 -58 14 0 11 34 -6 56 -8 10 -15 26 -15 35 0 9 -18 29 -40 44
-22 15 -40 30 -40 34 0 26 -188 54 -219 32z m-71 -19 c0 -12 -49 -37 -57 -29
-3 4 1 7 9 7 9 0 18 7 22 15 6 16 26 21 26 7z"/>
<path d="M1052 3878 c-18 -18 -15 -27 11 -25 29 1 54 37 26 37 -5 0 -7 -4 -4
-10 3 -5 2 -10 -4 -10 -5 0 -11 5 -13 10 -2 7 -8 6 -16 -2z"/>
<path d="M1323 3868 c-4 -7 -25 -26 -45 -41 -47 -35 -54 -70 -8 -37 32 23 75
78 67 86 -3 3 -9 0 -14 -8z"/>
<path d="M1471 3854 c-11 -14 -17 -33 -14 -42 3 -9 3 -14 -2 -10 -4 4 -21 -12
-38 -35 -17 -23 -33 -44 -37 -47 -3 -3 -21 -26 -40 -53 -20 -29 -36 -43 -41
-36 -5 8 -8 8 -13 0 -4 -6 -5 -15 -2 -20 3 -4 -6 -23 -19 -41 -29 -39 -33 -66
-6 -32 11 12 26 22 34 22 8 0 27 10 43 22 22 18 27 19 21 5 -4 -9 -10 -24 -14
-34 -4 -11 -3 -14 5 -9 7 4 15 1 18 -8 10 -27 24 -18 45 29 11 24 25 48 32 52
7 4 12 17 12 28 0 11 5 20 11 20 5 0 28 18 50 41 58 60 120 87 191 81 32 -2
65 -7 73 -10 8 -3 31 -8 50 -10 19 -3 49 -11 65 -18 17 -7 33 -11 38 -11 4 1
28 -3 55 -9 26 -6 59 -12 74 -14 l26 -4 -21 48 c-12 27 -27 47 -32 44 -6 -2
-28 5 -50 16 -23 11 -44 16 -49 11 -5 -5 -20 -3 -35 4 -29 15 -84 18 -75 5 3
-5 1 -9 -5 -9 -5 0 -12 4 -15 9 -3 4 -45 9 -93 9 -71 1 -96 -3 -130 -20 -24
-12 -43 -28 -43 -35 0 -8 -5 -11 -10 -8 -6 3 -13 -1 -16 -9 -13 -35 -26 -2
-19 50 3 30 4 54 1 54 -2 0 -14 -12 -25 -26z m9 -85 c0 -6 -4 -7 -10 -4 -5 3
-10 11 -10 16 0 6 5 7 10 4 6 -3 10 -11 10 -16z m505 -17 c-3 -3 -11 0 -18 7
-9 10 -8 11 6 5 10 -3 15 -9 12 -12z"/>
<path d="M1361 3803 c-23 -27 -41 -51 -41 -55 0 -12 48 32 76 69 39 51 11 39
-35 -14z"/>
<path d="M1027 3825 c-4 -8 -2 -17 4 -21 5 -3 7 -14 4 -25 -4 -10 -1 -27 5
-36 7 -12 10 -13 7 -3 -2 8 2 28 8 44 10 24 10 32 0 43 -17 17 -22 16 -28 -2z"/>
<path d="M1172 3780 c-37 -34 -40 -39 -20 -37 34 4 65 24 71 47 9 33 -6 30
-51 -10z m42 15 c-4 -9 -16 -21 -28 -27 -19 -10 -19 -9 3 16 28 30 33 32 25
11z"/>
<path d="M2082 3780 c13 -20 28 -27 28 -12 0 10 -22 32 -32 32 -5 0 -3 -9 4
-20z"/>
<path d="M2858 3739 c-5 -15 -48 -20 -48 -5 0 6 -4 5 -9 -3 -6 -9 -19 -12 -40
-8 -17 4 -31 3 -31 -2 0 -5 -10 -12 -22 -15 -31 -8 -84 -53 -75 -63 5 -4 12
-1 16 6 9 14 31 7 31 -10 0 -6 -4 -7 -10 -4 -5 3 -10 2 -10 -2 0 -5 -20 -31
-45 -58 -43 -47 -56 -75 -36 -75 5 0 8 6 7 13 0 6 3 13 8 14 5 1 12 5 15 10 3
4 27 23 54 41 40 28 47 31 47 15 0 -10 9 -33 21 -52 17 -29 24 -32 50 -27 16
3 29 1 29 -4 0 -6 -4 -10 -9 -10 -5 0 -7 -9 -4 -20 3 -11 9 -17 15 -14 5 3 19
-1 32 -10 30 -19 68 -17 61 4 -4 13 -4 13 7 0 7 -9 20 -15 28 -14 33 2 80 17
80 25 0 5 7 9 16 9 10 0 14 6 10 15 -3 9 1 15 11 15 8 0 26 11 39 25 l22 24
-19 41 c-11 22 -23 40 -27 40 -5 0 -17 7 -28 16 -10 8 -13 13 -6 9 6 -3 12 -2
12 3 0 12 -60 39 -104 47 -20 4 -36 11 -36 16 0 5 -7 6 -16 2 -9 -3 -20 0 -24
7 -6 10 -8 10 -12 -1z m22 -38 c0 -6 -4 -13 -10 -16 -5 -3 -10 1 -10 9 0 9 5
16 10 16 6 0 10 -4 10 -9z m-144 -29 c-3 -5 -15 -12 -26 -15 -25 -6 -27 18 -2
32 18 11 38 -1 28 -17z m54 18 c0 -5 -2 -10 -4 -10 -3 0 -8 5 -11 10 -3 6 -1
10 4 10 6 0 11 -4 11 -10z m10 -90 c8 -5 12 -11 10 -14 -3 -2 -14 2 -24 10
-22 15 -10 19 14 4z m134 -6 c17 -16 17 -17 21 -51 1 -12 -1 -20 -6 -18 -4 3
-9 1 -11 -3 -1 -5 -22 -11 -44 -14 l-42 -6 24 35 c13 20 24 44 24 54 0 23 13
24 34 3z m-160 -30 c13 -5 14 -9 5 -20 -9 -11 -15 -11 -25 -3 -27 22 -14 36
20 23z m76 -20 c0 -17 -22 -14 -28 4 -2 7 3 12 12 12 9 0 16 -7 16 -16z m-10
-44 c0 -5 -2 -10 -4 -10 -3 0 -8 5 -11 10 -3 6 -1 10 4 10 6 0 11 -4 11 -10z
m45 -40 c3 -5 1 -10 -4 -10 -6 0 -11 5 -11 10 0 6 2 10 4 10 3 0 8 -4 11 -10z"/>
<path d="M1121 3706 c-31 -23 -32 -25 -10 -24 27 2 72 32 62 42 -10 10 -17 7
-52 -18z"/>
<path d="M1208 3719 c-10 -5 -18 -15 -18 -20 0 -6 7 -3 16 6 9 9 23 14 31 11
8 -3 11 -1 8 4 -8 12 -15 12 -37 -1z"/>
<path d="M1290 3700 c-6 -12 -9 -24 -7 -27 3 -2 11 5 17 17 6 12 9 24 7 27 -3
2 -11 -5 -17 -17z"/>
<path d="M1930 3703 c0 -8 -22 -11 -70 -9 -38 1 -70 -2 -70 -6 0 -13 -28 -9
-33 5 -4 8 -6 7 -6 -3 -1 -9 -11 -17 -23 -17 -13 -1 -24 -7 -26 -13 -2 -5 -8
-8 -13 -4 -5 3 -12 -2 -15 -11 -5 -12 -9 -13 -20 -4 -10 8 -14 8 -14 1 0 -15
-45 -62 -59 -62 -6 0 -11 -9 -11 -20 0 -23 33 -60 54 -60 8 0 17 -4 20 -8 7
-12 115 -37 123 -29 3 4 12 2 20 -5 10 -8 20 -6 41 13 15 13 21 17 15 9 -17
-18 -16 -27 2 -27 8 0 12 4 9 9 -7 12 39 5 48 -7 4 -6 8 -2 8 8 0 15 -11 22
-33 18 -5 -1 -7 4 -4 11 2 7 12 12 22 10 11 -2 15 2 13 10 -3 7 -15 14 -27 14
-12 1 -23 3 -24 5 -23 42 -27 52 -23 57 3 3 25 -14 48 -37 23 -23 49 -40 58
-39 8 2 24 22 35 45 11 23 25 42 30 42 6 0 28 -13 49 -29 22 -17 45 -30 52
-30 8 0 11 -6 8 -15 -5 -11 -2 -13 11 -9 14 6 7 16 -36 60 -29 29 -50 57 -46
60 4 4 15 0 25 -9 21 -19 37 -23 27 -7 -12 19 -84 60 -105 60 -11 0 -20 5 -20
11 0 5 -5 7 -11 3 -6 -3 -15 0 -20 7 -5 9 -9 10 -9 2z m-93 -182 l27 -23 -55
7 c-51 7 -101 24 -71 25 6 0 12 9 12 20 0 10 10 29 22 40 l23 21 8 -33 c4 -18
20 -44 34 -57z m112 24 c-9 -9 -19 -11 -29 -5 -12 7 -10 11 10 18 31 12 39 6
19 -13z"/>
<path d="M1048 3694 c-9 -8 3 -44 13 -38 11 7 12 44 1 44 -5 0 -11 -3 -14 -6z"/>
<path d="M1195 3684 c-16 -8 -50 -22 -75 -33 l-45 -19 40 1 c22 0 48 7 58 15
31 27 18 0 -17 -34 -29 -28 -36 -31 -46 -19 -7 8 -19 15 -27 15 -18 0 -13 -32
6 -38 8 -3 11 0 7 7 -4 6 -2 11 3 11 6 0 11 -9 11 -20 0 -14 5 -18 16 -13 14
5 13 3 -2 -15 -22 -27 -25 -27 -17 -4 11 28 -22 -3 -47 -45 -17 -29 -18 -34
-5 -29 9 3 -2 -15 -24 -40 -23 -26 -41 -51 -41 -56 0 -5 -4 -7 -9 -3 -5 3 -13
0 -17 -6 -4 -7 -3 -9 3 -6 13 8 12 -48 -1 -60 -5 -5 -6 0 -3 10 4 11 3 16 -3
12 -6 -3 -10 1 -10 10 0 9 -4 14 -9 10 -6 -3 -4 -17 5 -33 7 -15 14 -34 14
-42 0 -8 15 12 33 45 18 33 39 59 46 57 7 -1 10 2 6 8 -6 9 75 100 89 100 10
0 7 -6 -20 -35 -40 -43 -88 -136 -90 -174 l-2 -36 16 38 c10 21 20 36 23 32 4
-3 11 7 17 22 17 43 106 168 119 166 6 -1 15 21 21 50 5 29 11 58 13 66 6 21
-16 24 -35 5 -9 -9 -19 -15 -21 -12 -2 2 17 26 43 53 26 27 39 46 30 42 -9 -3
-18 -2 -20 2 -2 5 -16 2 -33 -5z m15 -127 c0 -2 -16 -18 -35 -37 -19 -19 -35
-31 -35 -26 0 4 15 20 32 37 31 28 38 33 38 26z"/>
<path d="M1254 3595 c-10 -8 -14 -15 -8 -15 6 0 17 7 24 15 16 19 9 19 -16 0z"/>
<path d="M1984 3503 c10 -11 36 -12 36 -2 0 5 -10 9 -22 9 -12 0 -18 -3 -14
-7z"/>
<path d="M1941 3484 c0 -11 3 -14 6 -6 3 7 2 16 -1 19 -3 4 -6 -2 -5 -13z"/>
<path d="M2763 3481 c-1 -14 3 -18 13 -14 11 4 12 9 3 19 -15 18 -14 18 -16
-5z"/>
<path d="M994 3435 c-9 -14 -14 -28 -11 -31 3 -3 13 8 22 25 19 37 12 41 -11
6z"/>
<path d="M1170 3420 c-6 -11 -8 -20 -6 -20 3 0 10 9 16 20 6 11 8 20 6 20 -3
0 -10 -9 -16 -20z"/>
<path d="M1097 3320 c-9 -11 -17 -25 -17 -31 0 -7 10 0 21 15 25 31 21 45 -4
16z"/>
<path d="M3343 3275 c-6 -25 -7 -45 -3 -45 8 0 23 80 17 86 -2 2 -8 -16 -14
-41z"/>
<path d="M3325 3207 c-22 -25 -27 -39 -16 -46 6 -4 9 -15 5 -24 -3 -9 -11 -14
-18 -10 -6 4 -5 -1 3 -10 11 -13 11 -20 1 -32 -6 -8 -9 -18 -6 -24 3 -5 1 -11
-5 -13 -20 -7 -21 -64 -1 -79 14 -11 15 -11 5 1 -18 19 -16 35 1 20 8 -6 16
-21 18 -33 3 -17 5 -15 9 9 4 22 2 31 -7 27 -14 -5 -27 24 -17 40 4 7 9 3 14
-9 6 -16 8 -14 10 11 1 17 3 41 4 55 1 14 5 41 9 62 10 45 5 71 -9 55z m-5
-137 c0 -5 -2 -10 -4 -10 -3 0 -8 5 -11 10 -3 6 -1 10 4 10 6 0 11 -4 11 -10z"/>
<path d="M1192 3105 c0 -16 2 -22 5 -12 2 9 2 23 0 30 -3 6 -5 -1 -5 -18z"/>
<path d="M3343 3035 c0 -8 4 -15 9 -15 4 0 8 4 8 9 0 6 -4 12 -8 15 -5 3 -9
-1 -9 -9z"/>
<path d="M3246 3002 c-4 -13 -5 -26 -2 -29 10 -11 18 4 14 29 l-4 23 -8 -23z"/>
<path d="M2185 2940 c-3 -5 2 -10 13 -10 10 0 41 -11 68 -25 58 -30 61 -30 43
-8 -15 17 -85 52 -106 53 -6 0 -15 -4 -18 -10z"/>
<path d="M2505 2940 c-11 -5 -33 -23 -50 -41 -28 -30 -28 -32 -5 -19 14 7 28
17 31 22 4 6 21 13 39 17 26 5 30 9 19 18 -8 6 -22 7 -34 3z"/>
<path d="M2050 2610 c-14 -5 -40 -8 -57 -9 -49 -1 -40 -17 29 -50 62 -31 78
-32 78 -5 0 13 14 14 98 9 53 -4 108 -11 121 -16 13 -5 46 -7 75 -4 28 3 104
7 169 9 91 3 126 8 152 22 19 10 35 21 35 24 0 8 -258 11 -264 2 -6 -10 -86
-3 -86 8 0 4 -11 5 -25 2 -14 -2 -25 -9 -25 -14 0 -5 -5 -6 -10 -3 -6 4 -8 10
-6 14 6 9 -70 8 -79 -1 -4 -4 -17 -2 -29 4 -24 13 -140 18 -176 8z m40 -60 c0
-5 -2 -10 -4 -10 -3 0 -8 5 -11 10 -3 6 -1 10 4 10 6 0 11 -4 11 -10z"/>
<path d="M2616 2532 c-2 -4 4 -9 15 -9 11 -1 17 2 14 8 -7 11 -22 12 -29 1z"/>
<path d="M2540 2441 c-57 -29 -153 -44 -243 -38 -60 4 -74 3 -52 -4 55 -18
185 -13 255 10 36 12 74 28 84 36 28 21 0 19 -44 -4z"/>
<path d="M2150 2435 c7 -8 20 -14 29 -14 13 1 13 2 -1 6 -10 2 -18 9 -18 14 0
5 -5 9 -11 9 -8 0 -8 -5 1 -15z"/>
</g>
</svg>
