<svg viewBox="0 0 19 20" fill="currentColor" xmlns="http://www.w3.org/2000/svg"><path d="M7.29 19.9999C6.46382 19.9959 5.64668 19.8277 4.88614 19.5049C4.1256 19.1822 3.43686 18.7114 2.86 18.1199C2.28746 17.5773 1.82755 16.9271 1.50658 16.2065C1.18561 15.4859 1.00987 14.7091 0.98944 13.9205C0.969006 13.132 1.10427 12.3471 1.38749 11.6109C1.67071 10.8746 2.09633 10.2015 2.64 9.62991L10 2.19991C10.393 1.80759 10.8615 1.49899 11.3771 1.29274C11.8927 1.08649 12.4448 0.986879 13 0.999911C13.5947 1.00194 14.1831 1.12235 14.7307 1.35413C15.2784 1.58591 15.7745 1.92442 16.19 2.34991C17.017 3.14615 17.4966 4.23643 17.5247 5.38409C17.5527 6.53175 17.1271 7.64418 16.34 8.47991L8.94 15.9099C8.70298 16.1485 8.42093 16.3377 8.11022 16.4665C7.79951 16.5952 7.46632 16.661 7.13 16.6599C6.76667 16.6604 6.40693 16.5881 6.07201 16.4472C5.7371 16.3064 5.43379 16.0999 5.18 15.8399C4.67272 15.3488 4.37977 14.6773 4.36479 13.9714C4.34981 13.2654 4.61402 12.5821 5.1 12.0699L11.93 5.20991C12.1244 5.08082 12.3578 5.02376 12.5898 5.04863C12.8218 5.07349 13.0378 5.17872 13.2004 5.34607C13.3631 5.51343 13.462 5.73238 13.4802 5.96502C13.4984 6.19765 13.4346 6.42932 13.3 6.61991L6.47 13.4799C6.3561 13.6171 6.30067 13.7936 6.31563 13.9713C6.3306 14.149 6.41476 14.3137 6.55 14.4299C6.69071 14.5716 6.8804 14.6539 7.08 14.6599C7.15393 14.661 7.22734 14.6474 7.296 14.6199C7.36465 14.5925 7.42719 14.5517 7.48 14.4999L14.87 7.06991C15.2848 6.60909 15.5016 6.00354 15.4735 5.38416C15.4455 4.76478 15.1748 4.18132 14.72 3.75991C14.2976 3.32135 13.7231 3.06137 13.1149 3.03347C12.5066 3.00557 11.9108 3.21186 11.45 3.60991L4.06 10.9999C3.70064 11.3859 3.42116 11.8391 3.23762 12.3335C3.05409 12.8279 2.97013 13.3537 2.99058 13.8807C3.01102 14.4076 3.13547 14.9254 3.35676 15.404C3.57805 15.8827 3.89181 16.3129 4.28 16.6699C4.66927 17.0735 5.13506 17.3954 5.65016 17.6169C6.16525 17.8383 6.71932 17.955 7.28 17.9599C7.76341 17.9638 8.24285 17.8722 8.69075 17.6903C9.13865 17.5084 9.54621 17.2398 9.89 16.8999L17.28 9.46991C17.3726 9.37667 17.4826 9.30258 17.6038 9.25187C17.725 9.20116 17.8551 9.17482 17.9865 9.17436C18.1179 9.17389 18.2481 9.19931 18.3696 9.24916C18.4912 9.29902 18.6018 9.37233 18.695 9.46491C18.7882 9.55749 18.8623 9.66753 18.913 9.78875C18.9637 9.90996 18.9901 10.04 18.9906 10.1714C18.991 10.3028 18.9656 10.433 18.9157 10.5545C18.8659 10.6761 18.7926 10.7867 18.7 10.8799L11.31 18.3099C10.7853 18.8439 10.1597 19.2683 9.46961 19.5584C8.7795 19.8485 8.03861 19.9986 7.29 19.9999Z" fill="currentColor"></path></svg>