<svg xmlns="http://www.w3.org/2000/svg" viewBox="0 0 70 19" fill="currentColor"><path d="M28.2578 16.128C28.1812 15.9556 28.028 15.8867 27.9003 15.9902C25.9594 17.4386 23.7377 18.1627 21.4904 18.0593C21.3372 18.0593 21.235 18.1973 21.235 18.4042C21.235 18.6111 21.3372 18.7491 21.4904 18.7491C23.8143 18.887 26.1126 18.1283 28.1556 16.6109C28.2833 16.5074 28.3344 16.3005 28.2578 16.128Z" fill="currentColor"></path><path d="M29.637 13.6112C29.7294 13.495 29.7294 13.3205 29.637 13.2043C29.5447 13.0881 29.4062 13.0881 29.3139 13.2043C26.8675 16.1683 23.3826 17.3888 20.1053 16.488C19.9899 16.4589 19.8514 16.5461 19.8284 16.7205C19.8053 16.8948 19.8745 17.011 19.9899 17.0401C23.4518 17.9991 27.0753 16.7205 29.637 13.6112Z" fill="currentColor"></path><path d="M27.2716 10.5914C29.103 7.98634 28.4162 4.40977 25.6691 2.6215C23.4713 1.18646 20.4951 1.7384 18.9842 3.85783C17.519 5.95519 18.0685 8.84735 20.2662 10.3045C22.7158 11.894 25.9895 10.1719 25.9895 7.39023C25.9895 6.17596 25.3257 5.05002 24.387 4.45392C23.2423 3.70329 21.6627 3.9903 20.8843 5.11624C20.106 6.22011 20.4036 7.72136 21.5711 8.4941C22.1893 8.89146 23.0592 8.759 23.4713 8.14084C23.8834 7.54474 23.746 6.70582 23.105 6.30843C22.9905 6.24219 22.8532 6.26428 22.7845 6.37466C22.7158 6.48505 22.7387 6.61751 22.8532 6.68374C23.2653 6.94867 23.3797 7.50063 23.105 7.92011C22.8303 8.31747 22.2579 8.42787 21.823 8.1629C21.2277 7.76554 20.9073 7.14737 20.9073 6.50712C20.9073 4.91755 22.7616 3.96822 24.1123 4.85132C25.0281 5.44741 25.5316 6.41881 25.5316 7.41229C25.5316 9.11226 24.1123 10.5031 22.3266 10.5031C20.2891 10.5031 18.6179 8.58238 18.6179 6.48505C18.6179 4.18899 20.5639 2.29033 22.9677 2.29033C25.6461 2.29033 27.821 4.71886 27.821 7.41229C27.821 10.2382 25.463 12.7109 22.3495 12.7109C20.5409 12.7109 18.6637 11.8499 17.4275 10.0174C17.3588 9.90704 17.2214 9.88499 17.1069 9.95122C16.9925 10.0174 16.9696 10.1499 17.0383 10.2603C19.6481 14.0576 24.8907 13.9693 27.2716 10.5914Z" fill="currentColor"></path><path d="M21.082 8.46747C20.1896 7.81982 19.6989 6.76441 19.6989 5.68502C19.6989 3.83807 21.082 2.32693 22.8219 2.32693C25.5212 2.32693 27.5958 6.21272 25.6996 9.23499C24.3835 11.3218 21.7512 11.8735 19.8104 10.4583C18.3158 9.37889 17.4903 7.60396 17.4458 5.80495C17.4458 5.66103 17.3343 5.56508 17.2227 5.56508C17.1557 5.56508 16.9996 5.61306 16.9996 5.80495C17.0888 8.94718 19.3865 11.7056 22.1973 11.7056C24.8297 11.7056 26.882 9.42689 26.882 6.66842C26.882 4.14989 25.0527 1.82321 22.8219 1.82321C20.8142 1.82321 19.2527 3.57422 19.2527 5.66103C19.2527 7.53201 20.5912 9.30694 22.1973 9.30694C23.5804 9.30694 24.6512 8.10763 24.6512 6.66842C24.6512 5.75698 24.2273 4.94144 23.5804 4.4857C22.9781 4.05394 22.1304 4.22185 21.7288 4.86948C21.3273 5.46914 21.4388 6.40461 22.0858 6.86032C22.1973 6.93227 22.3312 6.90832 22.3981 6.78837C22.4651 6.66842 22.4427 6.52454 22.3312 6.45258C21.6173 5.92489 21.9519 4.70158 22.8219 4.70158C23.0004 4.70158 23.1566 4.74955 23.3127 4.86949C23.8927 5.27725 24.205 5.97286 24.205 6.66842C24.205 8.39552 22.3981 9.42689 21.082 8.46747Z" fill="currentColor"></path><path d="M23.0312 13.1181C26.7346 13.1181 29.7059 10.1564 29.7059 6.56005C29.7059 3.61958 27.7035 1.14448 25.2704 0.425223C25.1627 0.382916 25.0336 0.44638 25.0121 0.57331C24.969 0.679082 25.0336 0.806006 25.1627 0.827163C27.402 1.50411 29.2752 3.80997 29.2752 6.56005C29.2752 9.90254 26.5193 12.6949 23.0312 12.6949C21.5455 12.6949 20.0383 12.1872 18.768 11.066C18.6819 10.9814 18.5527 11.0025 18.4666 11.0872C18.3804 11.1718 18.402 11.2987 18.4881 11.3833C19.8446 12.568 21.4594 13.1181 23.0312 13.1181Z" fill="currentColor"></path><path d="M30.9869 10.3275C30.8648 10.2561 30.7182 10.3037 30.6693 10.4228C28.3234 14.7802 23.1431 16.5184 18.7447 14.8278C18.6225 14.7802 18.4759 14.8516 18.4271 14.9707C18.3782 15.0898 18.4515 15.2326 18.5736 15.2802C23.2164 17.0422 28.6656 15.2087 31.1091 10.6371C31.1335 10.5419 31.1091 10.399 30.9869 10.3275Z" fill="currentColor"></path><path d="M29.8782 3.41205C29.8782 3.43368 29.8782 3.43368 29.8782 3.45531C29.8782 3.45531 29.9014 3.52018 29.9014 3.54181C31.0817 5.83418 30.9429 8.62398 29.3228 10.8515C26.9852 14.0954 22.3333 15.0469 18.7691 13.0573C18.6534 12.9925 18.5146 13.0357 18.4452 13.1222C18.3758 13.2303 18.422 13.3601 18.5146 13.425C22.3102 15.5444 27.2399 14.5279 29.6931 11.1109C31.2669 8.94834 31.6372 6.13695 30.2949 3.3688C30.2254 3.17417 29.9245 3.19579 29.8782 3.41205Z" fill="currentColor"></path><path d="M14.8838 1.8289C15.0783 1.8289 15.2403 1.90149 15.3699 2.04665C15.5157 2.17568 15.5886 2.34504 15.5886 2.55471V18.0386C15.5886 18.2483 15.5157 18.4257 15.3699 18.5709C15.2241 18.6999 15.0458 18.7644 14.8352 18.7644C14.6084 18.7644 14.4221 18.6999 14.2763 18.5709C14.1305 18.4257 14.0576 18.2483 14.0576 18.0386V4.73213L8.3464 13.3451C8.18438 13.5548 7.99806 13.6515 7.78745 13.6354H7.73885C7.54446 13.6354 7.36622 13.5386 7.20421 13.3451L1.49306 4.68375V18.0386C1.49306 18.2483 1.42016 18.4257 1.27433 18.5709C1.14472 18.6999 0.974608 18.7644 0.763979 18.7644C0.553358 18.7644 0.383239 18.6999 0.253625 18.5709C0.124011 18.4257 0.0592041 18.2483 0.0592041 18.0386V2.55471C0.0592041 2.36117 0.124011 2.19181 0.253625 2.04665C0.399442 1.90149 0.577661 1.8289 0.788285 1.8289C0.901697 1.8289 1.02321 1.86116 1.15283 1.92568C1.28244 1.97406 1.37965 2.04665 1.44446 2.14342L7.81175 11.6515L14.2277 2.14342C14.4059 1.90149 14.6246 1.79665 14.8838 1.8289Z" fill="currentColor"></path><path d="M38.2706 5.70487C39.3102 5.70487 40.2553 5.98257 41.1059 6.53798C41.9565 7.09336 42.6181 7.86934 43.0907 8.86575C43.5789 9.84594 43.8231 10.9567 43.8231 12.1983C43.8231 13.4234 43.5789 14.5423 43.0907 15.5552C42.6181 16.5517 41.9565 17.3357 41.1059 17.9075C40.271 18.4793 39.3338 18.7651 38.2942 18.7651C37.3963 18.7651 36.5615 18.5364 35.7896 18.079C35.0335 17.6053 34.4192 16.9845 33.9466 16.2167V17.834C33.9466 18.0463 33.8758 18.2261 33.734 18.373C33.608 18.52 33.4426 18.5935 33.2378 18.5935C33.0331 18.5935 32.8598 18.52 32.718 18.373C32.592 18.2261 32.529 18.0463 32.529 17.834V1.14726C32.529 0.934902 32.592 0.763377 32.718 0.632694C32.8598 0.485676 33.0331 0.41217 33.2378 0.41217C33.4426 0.41217 33.608 0.485676 33.734 0.632694C33.8758 0.763377 33.9466 0.934902 33.9466 1.14726V8.37569C34.3719 7.57528 34.9705 6.93 35.7423 6.43996C36.5142 5.9499 37.3569 5.70487 38.2706 5.70487ZM38.1524 17.3929C38.9715 17.3929 39.704 17.1642 40.3498 16.7068C41.0114 16.2495 41.5233 15.6287 41.8856 14.8446C42.2637 14.0441 42.4527 13.162 42.4527 12.1983C42.4527 11.2181 42.2637 10.3441 41.8856 9.57638C41.5233 8.79225 41.0114 8.17969 40.3498 7.73863C39.704 7.29757 38.9715 7.07707 38.1524 7.07707C37.3175 7.07707 36.5693 7.29757 35.9078 7.73863C35.2462 8.16333 34.7342 8.76775 34.3719 9.55188C34.0096 10.336 33.8285 11.2181 33.8285 12.1983C33.8285 13.1784 34.0096 14.0686 34.3719 14.8691C34.75 15.6532 35.2619 16.274 35.9078 16.7313C36.5693 17.1724 37.3175 17.3929 38.1524 17.3929Z" fill="currentColor"></path><path d="M53.7055 18.0142C53.6906 18.2239 53.6158 18.4014 53.4814 18.5466C53.347 18.6918 53.1826 18.7644 52.9884 18.7644C52.7792 18.7644 52.6075 18.6999 52.473 18.5708C52.3535 18.4256 52.2937 18.2401 52.2937 18.0142V2.57346C52.2937 2.34758 52.3609 2.1701 52.4954 2.04103C52.6299 1.89581 52.8017 1.82321 53.0108 1.82321C53.205 1.82321 53.3694 1.89581 53.5038 2.04103C53.6383 2.18624 53.7055 2.36372 53.7055 2.57346V18.0142Z" fill="currentColor"></path><path d="M62.0912 1.82321C63.6572 1.82321 64.9702 2.21044 66.0305 2.98489C67.107 3.74321 67.9062 4.76776 68.4283 6.05851C68.9665 7.33312 69.2357 8.74493 69.2357 10.2938C69.2357 11.8911 68.9665 13.3271 68.4283 14.6017C67.9062 15.8764 67.107 16.8928 66.0305 17.6511C64.9702 18.3933 63.6572 18.7644 62.0912 18.7644H55.8521C55.6401 18.7644 55.4606 18.6999 55.3138 18.5708C55.1833 18.4256 55.118 18.2481 55.118 18.0384V2.54927C55.118 2.33951 55.1833 2.1701 55.3138 2.04103C55.4606 1.89581 55.6401 1.82321 55.8521 1.82321H62.0912ZM61.8466 17.3365C63.8039 17.3365 65.2638 16.6911 66.2262 15.4004C67.1886 14.0935 67.6697 12.3913 67.6697 10.2938C67.6697 8.98691 67.4659 7.80911 67.0581 6.76036C66.6503 5.69549 66.006 4.84843 65.1252 4.21918C64.2607 3.5738 63.1678 3.25111 61.8466 3.25111H56.6595V17.3365H61.8466Z" fill="currentColor"></path></svg>