<svg xmlns="http://www.w3.org/2000/svg" viewBox="0 0 32 32" fill="currentColor"><path d="M31.0491 18.6971C28.2921 16.9742 24.6816 17.5894 22.6507 20.128L21.7476 21.2569L17.0938 23.119H12.0606L15.5001 21.208C17.1889 20.2692 17.7967 18.139 16.8578 16.4504C16.829 16.3985 16.7988 16.3473 16.7673 16.2969C15.8307 14.8076 13.9359 14.2423 12.3362 14.9748L7.54515 17.1868L4.66398 20.068H0V22.102H5.50605L8.7269 18.8811L13.1885 16.8227C13.9212 16.4816 14.7917 16.799 15.1329 17.5317C15.2765 17.8401 15.3082 18.1889 15.2225 18.5181C15.1242 18.9078 14.8686 19.2393 14.5167 19.4334L11.0772 21.3443C10.0971 21.8932 9.74747 23.1327 10.2963 24.1128C10.6542 24.7519 11.3281 25.1493 12.0606 25.153H17.4843L23.0005 22.9471L24.2393 21.3992C25.3576 20.0007 27.2156 19.4253 28.9287 19.947L24.7589 25.3645L19.083 28.204H8.13602V30.238H19.5631L26.0892 26.9755L32 19.291L31.0491 18.6971Z" fill="currentColor"></path><path d="M6.10188 28.2039H4.06787V30.2379H6.10188V28.2039Z" fill="currentColor"></path><path d="M2.03401 28.2039H0V30.2379H2.03401V28.2039Z" fill="currentColor"></path><path d="M18.3061 15.9998H20.3401V13.9658H22.3741V15.9998H24.4081V13.1725C25.6585 12.0615 25.7715 10.1472 24.6604 8.89682C24.6557 8.89148 24.6509 8.88608 24.6461 8.88074C25.766 7.63828 25.6666 5.72326 24.4242 4.60335C24.4188 4.59852 24.4135 4.59375 24.4081 4.58899V1.76172H22.3741V3.79572H20.3401V1.76172H18.3061V3.79572H17.2891V13.9658H18.3061V15.9998ZM19.3231 5.82973H22.3741C22.9358 5.82973 23.3911 6.28503 23.3911 6.84673C23.3911 7.40844 22.9358 7.86374 22.3741 7.86374H19.3231V5.82973ZM19.3231 9.89774H22.3741C22.9358 9.89774 23.3911 10.353 23.3911 10.9147C23.3911 11.4764 22.9358 11.9317 22.3741 11.9317H19.3231V9.89774Z" fill="currentColor"></path></svg>