<svg xmlns="http://www.w3.org/2000/svg" viewBox="0 0 105 24" fill="currentColor"><path fill-rule="evenodd" clip-rule="evenodd" d="M14.8132 9.42313V1.91243L12.9209 0.6725C11.5643 -0.216374 9.82675 -0.224707 8.46207 0.651118L1.94491 4.83373C0.734539 5.61053 0 6.96768 0 8.42721V15.87C0 17.3789 0.784812 18.7746 2.06133 19.5354L8.5797 23.4209C9.88672 24.2 11.5052 24.1925 12.8052 23.4013L19.1477 19.5414C20.4058 18.7758 21.1765 17.3907 21.1765 15.8956V8.40124C21.1765 6.95589 20.456 5.60988 19.2645 4.82915L16.9703 3.32589V17.1554H17.2507C17.6192 17.1554 17.805 17.165 18.0866 17.3075C18.3682 17.4499 18.5243 17.7754 18.5243 18.1753C18.5243 18.5753 18.4189 18.8079 18.2762 18.9536C18.1333 19.0995 17.7507 19.2311 17.5102 19.2311L15.2909 19.2315C15.0306 19.2311 14.8524 19.0849 14.7886 19.0043C14.7246 18.9237 14.6801 18.7527 14.6801 18.5224V18.0863C14.2647 18.5224 14.02 18.6857 13.3434 19.0043C12.6666 19.3229 11.7975 19.5155 11.0081 19.5155C9.58692 19.5155 8.2727 18.9505 7.314 17.9181C6.35529 16.8857 5.79321 15.4273 5.79321 13.8921C5.79321 12.3031 6.21635 10.9809 7.23897 9.92541C8.26159 8.86994 9.83678 8.10869 11.3632 8.10869C12.1377 8.10869 12.8332 8.23622 13.4498 8.5164C14.0663 8.79658 14.5632 9.12359 14.8132 9.42313ZM9.04177 11.2367C8.38844 11.87 8.14734 12.8432 8.14734 13.7326C8.14734 14.6221 8.53344 15.5799 9.04177 16.1284C9.5501 16.677 10.4621 17.1987 11.4253 17.1987C12.3956 17.1987 13.3132 16.786 13.9391 16.1284C14.5648 15.4708 14.7907 14.4866 14.802 13.6029C14.8132 12.7192 14.3925 11.7979 13.7703 11.1511C13.148 10.5043 12.4027 10.2665 11.4253 10.2665C10.4339 10.2665 9.69511 10.6035 9.04177 11.2367Z" fill="currentColor"></path><path d="M32.684 17.8081L32.9762 17.7711L32.903 17.25L32.4884 17.5989L32.684 17.8081ZM32.7787 18.4811L32.486 18.5182L32.489 18.5336L32.7787 18.4811ZM34.4233 17.6537H34.1285V17.9335H34.4233V17.6537ZM33.3584 9.7379L33.1524 9.93798L33.3584 9.7379ZM26.8684 9.20284L26.7675 8.94001L26.8684 9.20284ZM25.7858 10.9735L25.5581 11.1513L25.7858 10.9735ZM27.8565 10.7694L27.7401 10.5124L27.8565 10.7694ZM31.9386 10.9129L31.7319 11.1124L31.9386 10.9129ZM32.5894 12.8656L32.5169 13.1368L32.8842 13.2252V12.8656H32.5894ZM25.7326 13.4835L25.5629 13.2546L25.7326 13.4835ZM25.3777 18.5694L25.5738 18.3606L25.3777 18.5694ZM32.5894 14.333H32.8842V14.129L32.6796 14.0667L32.5894 14.333ZM31.3292 14.0406L31.282 14.3168L31.3292 14.0406ZM26.8449 17.3007L26.6636 17.5214L26.8449 17.3007ZM32.4884 17.5989C31.8658 18.1228 31.1908 18.5206 30.4631 18.7949L30.6808 19.3148C31.4755 19.0153 32.2086 18.582 32.8796 18.0175L32.4884 17.5989ZM33.0709 18.4442L32.9762 17.7711L32.3917 17.8452L32.4864 18.5181L33.0709 18.4442ZM33.2632 18.8167C33.1795 18.743 33.1073 18.6232 33.0683 18.4287L32.489 18.5336C32.5446 18.8097 32.6618 19.0504 32.862 19.2268L33.2632 18.8167ZM33.6069 18.9296C33.4492 18.9296 33.343 18.8869 33.2632 18.8167L32.862 19.2268C33.0663 19.4066 33.3229 19.4891 33.6069 19.4891V18.9296ZM35.4645 18.9296H33.6069V19.4891H35.4645V18.9296ZM35.9792 18.8011C35.8966 18.8704 35.743 18.9296 35.4645 18.9296V19.4891C35.8173 19.4891 36.1369 19.4158 36.3699 19.2203L35.9792 18.8011ZM36.1164 18.415C36.1164 18.6271 36.0548 18.7377 35.9792 18.8011L36.3699 19.2203C36.6098 19.0189 36.706 18.7324 36.706 18.415H36.1164ZM35.9729 18.0576C36.0446 18.0994 36.1164 18.1861 36.1164 18.415H36.706C36.706 18.07 36.5883 17.7596 36.2815 17.5808L35.9729 18.0576ZM35.0031 17.9335C35.2744 17.9335 35.4918 17.9469 35.659 17.9715C35.8312 17.9968 35.9272 18.0309 35.9729 18.0576L36.2815 17.5808C36.1379 17.4972 35.952 17.4484 35.7493 17.4186C35.5419 17.3881 35.2919 17.374 35.0031 17.374V17.9335ZM34.4233 17.9335H35.0031V17.374H34.4233V17.9335ZM34.1285 12.656V17.6537H34.7182V12.656H34.1285ZM33.1524 9.93798C33.7872 10.5266 34.1285 11.4158 34.1285 12.656H34.7182C34.7182 11.3219 34.3495 10.2657 33.5646 9.53783L33.1524 9.93798ZM30.2111 9.03025C31.5535 9.03025 32.5164 9.34822 33.1524 9.93798L33.5646 9.53783C32.7807 8.81105 31.6454 8.47076 30.2111 8.47076V9.03025ZM26.9695 9.46565C27.7975 9.17919 28.8743 9.03025 30.2111 9.03025V8.47076C28.8343 8.47076 27.6828 8.62337 26.7675 8.94001L26.9695 9.46565ZM25.8559 10.3061C25.8559 10.1898 25.9102 10.0603 26.0838 9.91385C26.2624 9.76315 26.5504 9.61064 26.9695 9.46565L26.7675 8.94001C26.315 9.09658 25.9492 9.27874 25.692 9.49577C25.4297 9.71711 25.2662 9.98839 25.2662 10.3061H25.8559ZM26.0136 10.7958C25.9159 10.6832 25.8559 10.5279 25.8559 10.3061H25.2662C25.2662 10.6286 25.3561 10.9182 25.5581 11.1513L26.0136 10.7958ZM26.3538 10.9531C26.2163 10.9531 26.1094 10.9064 26.0136 10.7958L25.5581 11.1513C25.762 11.3864 26.0337 11.5125 26.3538 11.5125V10.9531ZM27.7401 10.5124C27.3656 10.6652 27.0602 10.7774 26.8217 10.8509C26.5748 10.9271 26.4263 10.9531 26.3538 10.9531V11.5125C26.5258 11.5125 26.75 11.4613 27.0039 11.383C27.2663 11.3021 27.5901 11.1826 27.9729 11.0264L27.7401 10.5124ZM29.9153 10.0263C29.2489 10.0263 28.5223 10.1934 27.7401 10.5124L27.9729 11.0264C28.7052 10.7277 29.3511 10.5858 29.9153 10.5858V10.0263ZM32.1453 10.7133C31.6339 10.2365 30.8692 10.0263 29.9153 10.0263V10.5858C30.7914 10.5858 31.3756 10.7801 31.7319 11.1124L32.1453 10.7133ZM32.8842 12.7884C32.8842 11.9025 32.6572 11.1907 32.1453 10.7133L31.7319 11.1124C32.0876 11.4441 32.2946 11.9827 32.2946 12.7884H32.8842ZM32.8842 12.8656V12.7884H32.2946V12.8656H32.8842ZM31.1211 12.8839C31.5735 12.9375 32.0388 13.0218 32.5169 13.1368L32.6618 12.5944C32.1618 12.4742 31.6726 12.3854 31.1943 12.3288L31.1211 12.8839ZM29.7733 12.8034C30.2183 12.8034 30.6676 12.8302 31.1211 12.8839L31.1943 12.3288C30.717 12.2722 30.2433 12.2439 29.7733 12.2439V12.8034ZM25.9022 13.7122C26.7924 13.1179 28.071 12.8034 29.7733 12.8034V12.2439C28.0048 12.2439 26.5896 12.5692 25.5629 13.2546L25.9022 13.7122ZM24.5898 16.1864C24.5898 15.1104 25.0264 14.2969 25.9022 13.7122L25.5629 13.2546C24.522 13.9496 24.0001 14.9381 24.0001 16.1864H24.5898ZM25.5738 18.3606C24.9194 17.807 24.5898 17.0908 24.5898 16.1864H24.0001C24.0001 17.2384 24.3924 18.1108 25.1814 18.7782L25.5738 18.3606ZM28.2232 19.2054C27.1039 19.2054 26.2306 18.916 25.5738 18.3606L25.1814 18.7782C25.9683 19.4437 26.9919 19.7649 28.2232 19.7649V19.2054ZM30.4631 18.7949C29.7359 19.0689 28.9899 19.2054 28.2232 19.2054V19.7649C29.0658 19.7649 29.8856 19.6145 30.6808 19.3148L30.4631 18.7949ZM32.6796 14.0667C32.2332 13.9304 31.7988 13.8294 31.3765 13.7644L31.282 14.3168C31.6722 14.3767 32.0778 14.4707 32.4991 14.5993L32.6796 14.0667ZM32.8842 15.5245V14.333H32.2946V15.5245H32.8842ZM31.4577 17.2921C32.3324 16.7922 32.8842 16.2103 32.8842 15.5245H32.2946C32.2946 15.8977 31.9904 16.3345 31.1535 16.8128L31.4577 17.2921ZM28.5191 18.0658C29.5744 18.0658 30.5558 17.8075 31.4577 17.2921L31.1535 16.8128C30.3436 17.2756 29.4674 17.5064 28.5191 17.5064V18.0658ZM26.6636 17.5214C27.1639 17.8912 27.7901 18.0658 28.5191 18.0658V17.5064C27.8914 17.5064 27.4014 17.3574 27.026 17.08L26.6636 17.5214ZM25.8933 16.065C25.8933 16.6566 26.1585 17.148 26.6636 17.5214L27.026 17.08C26.6556 16.8061 26.4829 16.4738 26.4829 16.065H25.8933ZM27.0944 14.2779C26.3211 14.6992 25.8933 15.2972 25.8933 16.065H26.4829C26.4829 15.5383 26.7572 15.1067 27.388 14.7631L27.0944 14.2779ZM30.1164 13.6671C28.874 13.6671 27.858 13.8619 27.0944 14.2779L27.388 14.7631C28.0284 14.4142 28.9293 14.2266 30.1164 14.2266V13.6671ZM31.3765 13.7644C30.955 13.6995 30.5349 13.6671 30.1164 13.6671V14.2266C30.5026 14.2266 30.8911 14.2566 31.282 14.3168L31.3765 13.7644Z" fill="currentColor"></path><path fill-rule="evenodd" clip-rule="evenodd" d="M48.2567 8.56033C48.6135 8.56033 48.8738 8.63199 49.0376 8.77533C49.2015 8.91865 49.2835 9.14628 49.2835 9.45821C49.2835 9.75329 49.207 9.9746 49.0541 10.1221C48.9011 10.2697 48.6717 10.3434 48.3659 10.3434H43.9423V14.5672C43.9423 15.9499 44.097 16.8604 44.4065 17.2988C44.7159 17.7372 45.2457 17.9564 45.9957 17.9564C46.6584 17.9564 47.4521 17.733 48.3768 17.2861C49.3016 16.8392 49.8733 16.6159 50.0917 16.6159C50.2956 16.6159 50.4686 16.7002 50.6105 16.8689C50.7526 17.0374 50.8236 17.2439 50.8236 17.4885C50.8236 17.7667 50.7343 18.0091 50.556 18.2156C50.3776 18.4221 50.0735 18.6224 49.6439 18.8163C48.9303 19.1452 48.2877 19.3854 47.716 19.5371C47.1445 19.6889 46.6074 19.7648 46.1049 19.7648C45.2529 19.7648 44.5375 19.6066 43.9586 19.2905C43.3798 18.9744 42.9482 18.5044 42.6643 17.8805C42.5186 17.5855 42.4149 17.2356 42.3529 16.8309C42.2911 16.4262 42.2602 15.8024 42.2602 14.9593V10.3434H40.4032C40.0974 10.3434 39.8753 10.2739 39.737 10.1348C39.5986 9.99567 39.5295 9.77014 39.5295 9.45821C39.5295 9.11254 39.6241 8.87649 39.8134 8.75003C40.0027 8.62357 40.4069 8.56033 41.0258 8.56033H42.2602V5.29765C42.2602 4.93512 42.3275 4.66745 42.4622 4.49463C42.5969 4.32179 42.8062 4.23538 43.0903 4.23538C43.4107 4.23538 43.6328 4.34076 43.7565 4.55152C43.8803 4.7623 43.9423 5.24285 43.9423 5.99318V8.56033H48.2567Z" fill="currentColor"></path><path fill-rule="evenodd" clip-rule="evenodd" d="M57.2759 18.0851H61.3874C61.7093 18.0851 61.9467 18.1505 62.0995 18.2817C62.2521 18.4126 62.3286 18.6212 62.3286 18.9071C62.3286 19.2327 62.2562 19.4571 62.1118 19.5801C61.9673 19.7033 61.701 19.7649 61.3131 19.7649H53.2141C52.8921 19.7649 52.6485 19.6933 52.4834 19.5504C52.3182 19.4075 52.2357 19.193 52.2357 18.9071C52.2357 18.629 52.3203 18.4225 52.4895 18.2876C52.6588 18.1525 52.9209 18.0851 53.2759 18.0851H55.4307V10.4484H54.5886C53.7878 10.4484 53.2884 10.3869 53.0902 10.2638C52.8921 10.1406 52.7929 9.91628 52.7929 9.59063C52.7929 9.31266 52.8734 9.10417 53.0345 8.96518C53.1954 8.82618 53.4411 8.75669 53.7712 8.75669H56.5948C56.8177 8.75669 56.9869 8.79838 57.1026 8.88178C57.2181 8.96518 57.2759 9.0863 57.2759 9.24515V11.2705C58.0603 10.3253 58.8776 9.62241 59.7279 9.16175C60.5783 8.70108 61.4947 8.47076 62.4772 8.47076C63.2119 8.47076 63.8064 8.61372 64.2603 8.89965C64.7144 9.18558 64.9415 9.55489 64.9415 10.0076C64.9415 10.3015 64.828 10.5616 64.601 10.788C64.3739 11.0143 64.1242 11.1275 63.8518 11.1275C63.6618 11.1275 63.3419 11.0064 62.892 10.7641C62.442 10.5219 62.0396 10.4008 61.6845 10.4008C61.0406 10.4008 60.3616 10.6212 59.6474 11.062C58.9333 11.5028 58.1428 12.1998 57.2759 13.1528V18.0851Z" fill="currentColor"></path><path fill-rule="evenodd" clip-rule="evenodd" d="M74.279 18.0414H78.144C78.4571 18.0414 78.6878 18.1086 78.8363 18.2431C78.9848 18.3776 79.0591 18.5915 79.0591 18.8848C79.0591 19.2189 78.9888 19.4491 78.8484 19.5755C78.7079 19.7018 78.449 19.7649 78.0717 19.7649H68.7283C68.4072 19.7649 68.1664 19.6916 68.0059 19.5448C67.8453 19.3982 67.765 19.1782 67.765 18.8848C67.765 18.5997 67.8494 18.3878 68.0179 18.2492C68.1865 18.1107 68.4393 18.0414 68.7764 18.0414H72.4488V10.2064H70.101C69.7718 10.2064 69.521 10.1311 69.3484 9.98031C69.1758 9.82956 69.0895 9.61158 69.0895 9.32638C69.0895 9.04117 69.1698 8.82727 69.3303 8.68467C69.4908 8.54206 69.7317 8.47076 70.0527 8.47076H73.5807C73.7974 8.47076 73.9679 8.51558 74.0924 8.60521C74.2167 8.69486 74.279 8.81708 74.279 8.97191V18.0414Z" fill="currentColor"></path><path fill-rule="evenodd" clip-rule="evenodd" d="M89.9778 9.44579V9.39936C89.9778 9.14399 90.0512 8.95634 90.1983 8.83639C90.3453 8.71645 90.5736 8.65648 90.8832 8.65648C91.2004 8.65648 91.4191 8.74935 91.5389 8.93506C91.6589 9.12078 91.7189 9.50382 91.7189 10.0842V12.2432C91.7189 12.5295 91.6453 12.7443 91.4983 12.8874C91.3513 13.0306 91.1307 13.1022 90.8367 13.1022C90.6277 13.1022 90.4478 13.0421 90.297 12.9223C90.1461 12.8023 89.9623 12.5527 89.7456 12.1735C89.3742 11.5467 88.9234 11.0728 88.3933 10.7516C87.8633 10.4305 87.2538 10.2699 86.5651 10.2699C85.358 10.2699 84.3772 10.6259 83.6226 11.3378C82.8682 12.0498 82.4909 12.9705 82.4909 14.1004C82.4909 15.2534 82.8527 16.1955 83.5762 16.9268C84.2998 17.6581 85.2303 18.0237 86.3679 18.0237C86.8863 18.0237 87.3796 17.9521 87.8478 17.8089C88.316 17.6658 88.759 17.451 89.1768 17.1647C89.3239 17.0718 89.5211 16.9287 89.7688 16.7353C90.2719 16.3251 90.6665 16.1201 90.9528 16.1201C91.1926 16.1201 91.388 16.1956 91.5389 16.3464C91.6899 16.4973 91.7653 16.6928 91.7653 16.9326C91.7653 17.5439 91.1869 18.1688 90.0299 18.8072C88.873 19.4456 87.6446 19.7649 86.3446 19.7649C84.6653 19.7649 83.2666 19.227 82.1485 18.1514C81.0303 17.0757 80.4712 15.7332 80.4712 14.1236C80.4712 12.514 81.0284 11.1695 82.1427 10.09C83.257 9.0105 84.6498 8.47076 86.3213 8.47076C86.9095 8.47076 87.4995 8.55008 88.0915 8.70872C88.6835 8.86736 89.3122 9.11304 89.9778 9.44579Z" fill="currentColor"></path><path fill-rule="evenodd" clip-rule="evenodd" d="M96.0005 18.66V16.5895C96.0005 16.2484 96.0542 16.0041 96.1613 15.8567C96.2686 15.7094 96.4424 15.6357 96.6829 15.6357C96.9493 15.6357 97.1605 15.8528 97.3165 16.2871C97.4204 16.5507 97.5147 16.7485 97.5991 16.8803C97.8721 17.299 98.275 17.6344 98.8078 17.8864C99.3407 18.1384 99.9288 18.2645 100.572 18.2645C101.261 18.2645 101.813 18.0977 102.229 17.7643C102.645 17.4309 102.853 16.9928 102.853 16.45C102.853 15.8994 102.686 15.5079 102.351 15.2752C102.016 15.0426 101.443 14.9263 100.631 14.9263H100.094C98.7688 14.9263 97.7583 14.6509 97.063 14.1003C96.3677 13.5499 96.0201 12.7511 96.0201 11.7043C96.0201 10.6807 96.3595 9.88593 97.0386 9.31986C97.7177 8.75379 98.6714 8.47076 99.8996 8.47076C100.4 8.47076 100.91 8.55412 101.43 8.72084C101.95 8.88756 102.223 8.97092 102.249 8.97092C102.32 8.97092 102.457 8.89531 102.658 8.74411C102.86 8.59289 103.058 8.51729 103.253 8.51729C103.474 8.51729 103.638 8.61422 103.745 8.80807C103.852 9.00193 103.906 9.29272 103.906 9.68044V11.0413C103.906 11.4523 103.854 11.7489 103.75 11.9311C103.646 12.1133 103.48 12.2044 103.253 12.2044C103.058 12.2044 102.817 12.0067 102.531 11.6113C102.33 11.3399 102.164 11.1344 102.034 10.9948C101.69 10.6148 101.323 10.3415 100.933 10.1748C100.543 10.0081 100.085 9.9247 99.5584 9.9247C98.9476 9.9247 98.4553 10.0856 98.0817 10.4074C97.708 10.7292 97.5212 11.1382 97.5212 11.6345C97.5212 12.123 97.7129 12.472 98.0962 12.6814C98.4797 12.8908 99.3049 13.0109 100.572 13.0419C101.924 13.0807 102.912 13.3618 103.535 13.8852C104.159 14.4086 104.471 15.2171 104.471 16.3104C104.471 17.3572 104.127 18.1947 103.438 18.8228C102.749 19.4508 101.82 19.7649 100.65 19.7649C100.28 19.7649 99.867 19.7242 99.4122 19.6428C98.9573 19.5614 98.3855 19.4237 97.6966 19.2299C97.4692 19.4083 97.2742 19.542 97.1118 19.6312C96.9493 19.7203 96.8128 19.7649 96.7024 19.7649C96.4749 19.7649 96.301 19.6699 96.1809 19.48C96.0607 19.2899 96.0005 19.0166 96.0005 18.66Z" fill="currentColor"></path><path fill-rule="evenodd" clip-rule="evenodd" d="M30.5826 19.3121C31.3809 19.0104 32.1192 18.5731 32.7974 18.0005L32.8967 18.7085C32.9463 18.9562 33.0456 19.1457 33.1945 19.2774C33.3434 19.4089 33.5336 19.4747 33.7652 19.4747H35.7133C36.0442 19.4747 36.2925 19.405 36.4578 19.2657C36.6233 19.1264 36.706 18.9175 36.706 18.6389C36.706 18.3371 36.6067 18.1282 36.4082 18.0121C36.2097 17.8961 35.8168 17.838 35.2294 17.838H34.6214V12.5798C34.6214 11.2256 34.2492 10.2022 33.5047 9.50962C32.7602 8.81705 31.66 8.47076 30.2042 8.47076C28.7813 8.47076 27.6129 8.62939 26.6989 8.94667C25.7848 9.26394 25.3278 9.65085 25.3278 10.1074C25.3278 10.3937 25.4064 10.6278 25.5636 10.8097C25.7207 10.9915 25.9192 11.0824 26.1592 11.0824C26.4155 11.0824 26.9409 10.9199 27.735 10.5949C28.5291 10.2699 29.2488 10.1074 29.894 10.1074C30.8536 10.1074 31.5608 10.3202 32.0158 10.7458C32.4707 11.1714 32.6982 11.8292 32.6982 12.7191V12.8003C32.1854 12.6766 31.6849 12.5856 31.1969 12.5275C30.7087 12.4695 30.2248 12.4405 29.7451 12.4405C27.9252 12.4405 26.5127 12.7771 25.5078 13.4504C24.5027 14.1236 24.0001 15.0715 24.0001 16.2942C24.0001 17.3234 24.3786 18.1592 25.1355 18.8014C25.8924 19.4437 26.8871 19.7649 28.1196 19.7649C28.9634 19.7649 29.7843 19.614 30.5826 19.3121ZM31.3767 14.0366C31.8027 14.1024 32.2432 14.2048 32.6982 14.3442V15.5978C32.6982 16.1549 32.2494 16.6908 31.3519 17.2053C30.4543 17.7199 29.4803 17.9773 28.4299 17.9773C27.7184 17.9773 27.1332 17.8071 26.6741 17.4666C26.2149 17.1261 25.9854 16.6928 25.9854 16.1665C25.9854 15.4856 26.3536 14.9439 27.0898 14.5415C27.826 14.1391 28.8311 13.9379 30.1049 13.9379C30.5268 13.9379 30.9508 13.9708 31.3767 14.0366Z" fill="currentColor"></path></svg>