<svg xmlns="http://www.w3.org/2000/svg" viewBox="0 0 32 32" fill="currentColor"><circle opacity="0.2" cx="16" cy="16" r="15.5" stroke="#E66F32"></circle><path d="M12.3334 14.6666C12.1848 14.6666 12.0421 14.6893 11.9001 14.71C11.9461 14.5553 11.9934 14.398 12.0694 14.2566C12.1454 14.0513 12.2641 13.8733 12.3821 13.694C12.4808 13.5 12.6548 13.3686 12.7828 13.2026C12.9168 13.0413 13.0994 12.934 13.2441 12.8C13.3861 12.66 13.5721 12.59 13.7201 12.4913C13.8748 12.4026 14.0094 12.3046 14.1534 12.258C14.2921 12.2006 14.4134 12.1513 14.5128 12.11C14.7141 12.0266 14.8288 11.9786 14.8288 11.9786L14.5054 10.6866C14.5054 10.6866 14.3601 10.7213 14.1074 10.7826C13.9801 10.8146 13.8248 10.852 13.6481 10.8966C13.4674 10.93 13.2748 11.0213 13.0601 11.1046C12.8481 11.1993 12.6028 11.2633 12.3748 11.4153C12.1454 11.5606 11.8808 11.682 11.6474 11.8766C11.4214 12.0773 11.1488 12.2513 10.9474 12.5066C10.7274 12.7453 10.5101 12.996 10.3414 13.2813C10.1461 13.5533 10.0134 13.852 9.87343 14.1473C9.74676 14.4426 9.64476 14.7446 9.56143 15.038C9.40343 15.626 9.33276 16.1846 9.30543 16.6626C9.28276 17.1413 9.2961 17.5393 9.3241 17.8273C9.3341 17.9633 9.35276 18.0953 9.3661 18.1866C9.37743 18.2593 9.38276 18.2986 9.38276 18.2986L9.4001 18.2946C9.6901 19.6493 10.8921 20.6666 12.3334 20.6666C13.9901 20.6666 15.3334 19.3233 15.3334 17.6666C15.3334 16.01 13.9901 14.6666 12.3334 14.6666ZM19.6668 14.6666C19.5181 14.6666 19.3754 14.6893 19.2334 14.71C19.2794 14.5553 19.3268 14.398 19.4028 14.2566C19.4788 14.0513 19.5974 13.8733 19.7154 13.694C19.8141 13.5 19.9881 13.3686 20.1161 13.2026C20.2501 13.0413 20.4328 12.934 20.5774 12.8C20.7194 12.66 20.9054 12.59 21.0534 12.4913C21.2081 12.4026 21.3428 12.3046 21.4868 12.258C21.6254 12.2006 21.7468 12.1513 21.8461 12.11C22.0474 12.0266 22.1621 11.9786 22.1621 11.9786L21.8388 10.6866C21.8388 10.6866 21.6934 10.7213 21.4408 10.7826C21.3134 10.8146 21.1581 10.852 20.9814 10.8966C20.8008 10.93 20.6081 11.0213 20.3934 11.1046C20.1821 11.2 19.9361 11.2633 19.7081 11.416C19.4788 11.5613 19.2141 11.6826 18.9808 11.8773C18.7548 12.078 18.4821 12.252 18.2808 12.5066C18.0608 12.7453 17.8434 12.996 17.6748 13.2813C17.4794 13.5533 17.3468 13.852 17.2068 14.1473C17.0801 14.4426 16.9781 14.7446 16.8948 15.038C16.7368 15.626 16.6661 16.1846 16.6388 16.6626C16.6161 17.1413 16.6294 17.5393 16.6574 17.8273C16.6674 17.9633 16.6861 18.0953 16.6994 18.1866C16.7108 18.2593 16.7161 18.2986 16.7161 18.2986L16.7334 18.2946C17.0234 19.6493 18.2254 20.6666 19.6668 20.6666C21.3234 20.6666 22.6668 19.3233 22.6668 17.6666C22.6668 16.01 21.3234 14.6666 19.6668 14.6666Z" fill="currentColor"></path></svg>