<svg viewBox="0 0 21 17" fill="currentColor" xmlns="http://www.w3.org/2000/svg"><path d="M18.301 4.17624C18.314 4.35124 18.314 4.52524 18.314 4.69924C18.314 10.0242 14.261 16.1602 6.85397 16.1602C4.57197 16.1602 2.45197 15.4992 0.667969 14.3512C0.991969 14.3882 1.30397 14.4012 1.64097 14.4012C3.52397 14.4012 5.25697 13.7652 6.64197 12.6802C4.87097 12.6432 3.38697 11.4832 2.87497 9.88724C3.12397 9.92424 3.37397 9.94924 3.63597 9.94924C3.99697 9.94924 4.35997 9.89924 4.69697 9.81224C2.84997 9.43824 1.46697 7.81724 1.46697 5.85924V5.80924C2.00397 6.10824 2.62697 6.29524 3.28697 6.32024C2.20197 5.59824 1.49097 4.36324 1.49097 2.96624C1.49097 2.21824 1.68997 1.53224 2.03897 0.934242C4.02197 3.37724 7.00297 4.97424 10.345 5.14924C10.283 4.84924 10.245 4.53824 10.245 4.22624C10.245 2.00624 12.041 0.198242 14.273 0.198242C15.433 0.198242 16.48 0.684242 17.216 1.47024C18.126 1.29524 18.998 0.958242 19.772 0.497242C19.473 1.43224 18.836 2.21824 18.001 2.71724C18.812 2.62924 19.598 2.40524 20.32 2.09324C19.772 2.89124 19.087 3.60224 18.301 4.17624Z" fill="currentColor"></path></svg>