<svg viewBox="0 0 19 19" fill="currentColor" xmlns="http://www.w3.org/2000/svg"><path d="M2.65089 4.376C3.85929 4.376 4.83889 3.3964 4.83889 2.188C4.83889 0.979601 3.85929 0 2.65089 0C1.44249 0 0.462891 0.979601 0.462891 2.188C0.462891 3.3964 1.44249 4.376 2.65089 4.376Z" fill="currentColor"></path><path d="M6.90494 6.03437V18.1734H10.6739V12.1704C10.6739 10.5864 10.9719 9.05237 12.9359 9.05237C14.8729 9.05237 14.8969 10.8634 14.8969 12.2704V18.1744H18.6679V11.5174C18.6679 8.24738 17.9639 5.73438 14.1419 5.73438C12.3069 5.73438 11.0769 6.74137 10.5739 7.69438H10.5229V6.03437H6.90494ZM0.762939 6.03437H4.53794V18.1734H0.762939V6.03437Z" fill="currentColor"></path></svg>