<svg viewBox="0 0 20 16" fill="currentColor" xmlns="http://www.w3.org/2000/svg"><path d="M2.95286 3.44798C2.97586 3.21598 2.88786 2.98498 2.71286 2.82898L0.942858 0.695977V0.375977H6.44086L10.6909 9.69598L14.4269 0.375977H19.6679V0.694976L18.1529 2.14598C18.0229 2.24598 17.9599 2.40998 17.9849 2.57098V13.237C17.9599 13.399 18.0229 13.562 18.1529 13.662L19.6319 15.113V15.432H12.1959V15.113L13.7249 13.626C13.8769 13.476 13.8769 13.431 13.8769 13.202V4.57998L9.61786 15.397H9.04286L4.08486 4.57998V11.829C4.04386 12.134 4.14486 12.441 4.35986 12.662L6.35186 15.079V15.398H0.703857V15.079L2.69586 12.662C2.90786 12.441 3.00386 12.132 2.95286 11.829V3.44798Z" fill="currentColor"></path></svg>