<svg viewBox="0 0 21 15" fill="currentColor" xmlns="http://www.w3.org/2000/svg"><path d="M20.2611 2.38221C20.0311 1.52421 19.3561 0.847207 18.4991 0.616207C16.9331 0.186207 10.6681 0.179207 10.6681 0.179207C10.6681 0.179207 4.40405 0.172207 2.83705 0.583207C1.99705 0.812207 1.30305 1.50421 1.07105 2.36121C0.658054 3.92721 0.654054 7.17521 0.654054 7.17521C0.654054 7.17521 0.650054 10.4392 1.06005 11.9892C1.29005 12.8462 1.96505 13.5232 2.82305 13.7542C4.40505 14.1842 10.6531 14.1912 10.6531 14.1912C10.6531 14.1912 16.9181 14.1982 18.4841 13.7882C19.3401 13.5582 20.0181 12.8822 20.2511 12.0252C20.6651 10.4602 20.6681 7.21321 20.6681 7.21321C20.6681 7.21321 20.6881 3.94821 20.2611 2.38221ZM8.66405 10.1842L8.66905 4.18421L13.8761 7.18921L8.66405 10.1842Z" fill="currentColor"></path></svg>