<svg xmlns="http://www.w3.org/2000/svg" viewBox="0 0 108 39" fill="none"><path d="M0.975774 22.5176L0.975773 3.53571L19.9575 3.5357L0.975774 22.5176Z" fill="#3291E6"></path><path d="M19.9577 3.53711L19.9577 22.519L0.975949 22.519L19.9577 3.53711Z" fill="#122861"></path><rect x="19.9575" y="3.53564" width="11.9668" height="18.9819" fill="#3291E6"></rect><rect x="0.97522" y="22.5176" width="18.9817" height="11.9668" fill="#CE5619"></rect><rect x="19.9575" y="22.5176" width="11.9668" height="11.9668" fill="#F39C12"></rect><path fill-rule="evenodd" clip-rule="evenodd" d="M59.6453 0L38 29.6968H55.3031V38.3975H59.6453V0ZM55.3162 12.4964V25.3136H46.3207L55.3162 12.4964Z" fill="white"></path><path fill-rule="evenodd" clip-rule="evenodd" d="M63.9746 29.6343H68.3037V9.94971H63.9746V29.6343Z" fill="white"></path><path fill-rule="evenodd" clip-rule="evenodd" d="M92.835 9.94971V29.6343H107.746V25.7892H97.2451V21.5457H106.448V17.9048H97.2451V13.6652H107.592V9.94971H92.835Z" fill="white"></path><path fill-rule="evenodd" clip-rule="evenodd" d="M76.9616 19.552H81.3433C82.392 19.552 83.2066 19.2893 83.787 18.7637C84.3674 18.2383 84.6577 17.536 84.6577 16.657C84.6577 15.7206 84.3582 15.0088 83.7589 14.5215C83.1597 14.0343 82.3265 13.7906 81.2591 13.7906H76.9616V19.552ZM72.6325 29.6343V9.94971H81.5372C84.0045 9.94971 85.8967 10.6152 87.2138 11.9463C88.3268 13.0711 88.8835 14.5896 88.8835 16.5019C88.8835 19.5201 87.492 21.5543 84.7094 22.6041L89.4678 29.6343H84.4589L80.2293 23.3353H76.9179V29.6343H72.6325Z" fill="white"></path></svg>