<svg xmlns="http://www.w3.org/2000/svg" viewBox="0 0 32 24" fill="currentColor"><path d="M10.0001 20.3132C9.6822 20.3135 9.37512 20.198 9.13631 19.9882L1.13631 12.9882C0.995609 12.865 0.882856 12.7132 0.805606 12.5429C0.728356 12.3726 0.688393 12.1877 0.688393 12.0007C0.688393 11.8137 0.728356 11.6288 0.805606 11.4585C0.882856 11.2882 0.995609 11.1364 1.13631 11.0132L9.13631 4.01321C9.39829 3.78396 9.74062 3.66817 10.088 3.69132C10.4353 3.71447 10.7593 3.87466 10.9885 4.13664C11.2177 4.39863 11.3335 4.74095 11.3104 5.0883C11.2872 5.43565 11.127 5.75958 10.8651 5.98883L3.99319 12.0007L10.8644 18.0126C11.0655 18.1884 11.2082 18.4214 11.2734 18.6804C11.3386 18.9395 11.3232 19.2123 11.2292 19.4623C11.1353 19.7124 10.9672 19.9278 10.7476 20.0799C10.528 20.2319 10.2672 20.3133 10.0001 20.3132Z" fill="currentColor"></path><path d="M21.9999 20.3132C21.7327 20.3134 21.4718 20.2321 21.2521 20.0801C21.0324 19.9281 20.8643 19.7127 20.7702 19.4626C20.6762 19.2125 20.6607 18.9397 20.7259 18.6806C20.7911 18.4215 20.9338 18.1884 21.1349 18.0126L28.0068 12.0007L21.1355 5.98883C20.8735 5.75958 20.7134 5.43565 20.6902 5.0883C20.6671 4.74095 20.7828 4.39863 21.0121 4.13664C21.2413 3.87466 21.5653 3.71447 21.9126 3.69132C22.26 3.66817 22.6023 3.78396 22.8643 4.0132L30.8643 11.0132C31.005 11.1364 31.1177 11.2882 31.195 11.4585C31.2722 11.6288 31.3122 11.8137 31.3122 12.0007C31.3122 12.1877 31.2722 12.3726 31.195 12.5429C31.1177 12.7132 31.005 12.865 30.8643 12.9882L22.8643 19.9882C22.6254 20.1982 22.318 20.3138 21.9999 20.3132Z" fill="currentColor"></path><path d="M13.0003 23.3122C12.7959 23.3121 12.5943 23.2643 12.4117 23.1726C12.229 23.0809 12.0703 22.9478 11.9482 22.7839C11.826 22.62 11.7439 22.4299 11.7082 22.2286C11.6726 22.0273 11.6844 21.8205 11.7428 21.6247L17.7428 1.62465C17.788 1.45493 17.8668 1.29601 17.9745 1.15731C18.0823 1.0186 18.2167 0.902923 18.37 0.817133C18.5232 0.731344 18.6922 0.677186 18.8667 0.657867C19.0413 0.638548 19.218 0.654461 19.3863 0.704663C19.5546 0.754866 19.7111 0.838336 19.8465 0.95013C19.982 1.06192 20.0936 1.19977 20.1748 1.3555C20.2561 1.51122 20.3052 1.68166 20.3193 1.85673C20.3335 2.03179 20.3123 2.20791 20.2572 2.37465L14.2572 22.3747C14.1765 22.6454 14.0106 22.8828 13.7841 23.0517C13.5577 23.2206 13.2828 23.312 13.0003 23.3122Z" fill="currentColor"></path></svg>