<svg width="28" height="28" viewBox="0 0 28 28" fill="none" xmlns="http://www.w3.org/2000/svg">
<path d="M26.5413 6.11478L14.5413 0.781443C14.1947 0.62811 13.804 0.62811 13.4573 0.781443L1.45732 6.11478C1.43066 6.12678 1.41199 6.14678 1.38532 6.16144C1.34799 6.18011 1.30799 6.19211 1.27332 6.21478C1.24399 6.23478 1.22132 6.26011 1.19332 6.28144C1.15599 6.30944 1.11999 6.34011 1.08666 6.37211C1.03199 6.42411 0.98399 6.48011 0.93999 6.54011C0.913323 6.57744 0.885323 6.61078 0.861323 6.64811C0.81999 6.71878 0.789323 6.79211 0.75999 6.86811C0.74799 6.90411 0.729323 6.93744 0.718657 6.97344C0.686657 7.08944 0.666656 7.20944 0.666656 7.33344V20.6668C0.666656 21.1948 0.97599 21.6708 1.45866 21.8854L13.4587 27.2188C13.632 27.2961 13.816 27.3334 14 27.3334C14.1853 27.3334 14.364 27.2814 14.536 27.2054L14.5413 27.2188L26.5413 21.8854C27.024 21.6708 27.3333 21.1948 27.3333 20.6668V7.33344C27.3333 6.80544 27.024 6.32944 26.5413 6.11478ZM14 3.46011L22.7173 7.33344L14 11.2068L12.256 10.4321L5.28399 7.33344L14 3.46011ZM3.33332 19.8014V9.38544L12.6667 13.5334V23.9481L3.33332 19.8014ZM15.3333 23.9481V13.5334L24.6667 9.38544V19.8014L15.3333 23.9481Z" fill="white"/>
</svg>
