<?xml version="1.0" standalone="no"?>
<!DOCTYPE svg PUBLIC "-//W3C//DTD SVG 20010904//EN"
 "http://www.w3.org/TR/2001/REC-SVG-20010904/DTD/svg10.dtd">
<svg version="1.0" xmlns="http://www.w3.org/2000/svg"
 width="432.000000pt" height="594.000000pt" viewBox="0 0 432.000000 594.000000"
 preserveAspectRatio="xMidYMid meet">

<g transform="translate(0.000000,594.000000) scale(0.100000,-0.100000)"
fill="#000000" stroke="none">
<path d="M0 2970 l0 -2970 2160 0 2160 0 0 2970 0 2970 -579 0 -580 0 4 -32
c3 -18 9 -64 14 -103 5 -38 8 -86 6 -105 -1 -19 3 -38 9 -42 8 -6 6 -11 -4
-18 -9 -6 -10 -10 -3 -10 6 0 11 -9 10 -20 -1 -12 -6 -18 -14 -16 -10 4 -12
-1 -7 -18 7 -31 -25 -40 -73 -19 -28 11 -38 12 -43 2 -5 -8 -16 5 -30 36 -12
26 -29 49 -39 52 -23 6 -47 43 -27 43 9 0 12 7 9 20 -3 11 0 20 6 20 6 0 11 5
11 11 0 6 -7 8 -16 5 -12 -4 -15 -2 -10 9 3 8 1 15 -4 15 -6 0 -10 7 -10 16 0
8 5 12 10 9 5 -3 10 1 10 9 0 9 -4 16 -9 16 -9 0 -7 24 8 83 l9 37 -284 0
-284 0 0 -32 c-1 -43 -27 -73 -79 -91 -44 -14 -91 -12 -91 5 0 5 -17 8 -38 7
-21 -2 -43 1 -50 5 -7 4 -12 3 -12 -3 0 -6 -7 -8 -15 -5 -9 4 -15 1 -15 -7 0
-7 -11 -3 -27 12 -25 22 -26 22 -9 2 l19 -23 -37 0 c-20 0 -35 4 -31 9 3 5 -5
11 -17 13 -24 3 -32 27 -13 40 6 5 3 8 -7 8 -13 0 -18 8 -18 30 l0 30 -985 0
-985 0 0 -2970z m115 2899 c7 -20 -7 -38 -27 -39 -12 0 -30 39 -23 50 11 18
44 10 50 -11z m2888 -243 c4 -10 1 -13 -8 -9 -8 3 -12 9 -9 14 7 12 11 11 17
-5z m182 -106 c-3 -5 -1 -10 6 -10 7 0 10 -2 7 -5 -8 -9 -38 6 -32 16 3 5 10
9 15 9 6 0 7 -4 4 -10z m35 -92 c0 -6 -6 -5 -15 2 -8 7 -15 14 -15 16 0 2 7 1
15 -2 8 -4 15 -11 15 -16z m-770 -343 c-7 -9 -15 -13 -17 -11 -7 7 7 26 19 26
6 0 6 -6 -2 -15z m96 -7 c-3 -20 -16 -38 -27 -38 -6 0 -7 6 -2 13 4 6 8 15 9
20 3 15 4 17 13 17 5 0 8 -6 7 -12z m-51 -27 c3 -5 -5 -17 -17 -27 -22 -16
-16 -15 29 3 11 4 14 3 9 -5 -4 -7 -3 -12 3 -12 5 0 13 5 16 10 3 6 12 10 18
10 12 -1 -17 -26 -36 -33 -6 -2 -7 -9 -3 -16 6 -9 13 -8 29 6 20 17 20 17 14
-2 -7 -20 -7 -20 8 -1 18 23 21 21 29 -21 4 -18 3 -34 -3 -38 -6 -3 -11 -13
-11 -22 0 -13 3 -13 15 -3 12 10 15 10 15 -3 0 -9 -4 -19 -10 -22 -5 -3 -10
-16 -10 -28 0 -12 -16 -38 -34 -58 -29 -30 -41 -36 -70 -33 -33 2 -35 1 -26
-17 6 -10 15 -19 21 -19 6 0 7 4 4 10 -4 7 3 7 19 0 18 -6 34 -6 51 2 32 14
45 3 19 -17 -47 -36 -106 -27 -124 19 -11 31 -30 43 -30 19 1 -22 37 -66 67
-82 49 -25 115 -5 149 46 23 34 54 112 54 136 0 9 5 17 11 17 6 0 4 6 -3 14
-9 9 -13 27 -9 52 l5 39 10 -27 c5 -16 14 -28 19 -28 4 0 6 -4 2 -9 -3 -5 -1
-12 4 -15 5 -3 11 0 14 8 3 8 -1 17 -9 20 -16 6 -19 36 -4 36 6 0 13 -7 16
-15 4 -8 11 -15 16 -15 6 0 6 6 -1 14 -7 8 -8 17 -3 20 6 3 12 -4 16 -17 5
-18 8 -19 16 -7 7 12 9 10 7 -7 0 -12 -5 -19 -9 -17 -4 3 -8 1 -8 -5 0 -5 6
-12 13 -14 6 -3 3 -6 -8 -6 -15 -1 -16 -4 -7 -13 7 -7 12 -30 12 -52 1 -23 9
-75 18 -116 15 -61 16 -80 6 -100 -7 -14 -14 -55 -16 -93 -2 -37 -7 -67 -12
-67 -5 0 -19 8 -30 18 -20 16 -20 16 -6 -2 14 -18 14 -19 -7 -7 -25 13 -30 3
-10 -19 6 -7 -1 -4 -17 8 -32 24 -51 29 -40 10 4 -8 3 -10 -2 -5 -12 11 -12
30 -1 38 5 3 1 9 -8 12 -9 4 -13 3 -10 -3 10 -16 -13 -12 -43 7 -26 17 -26 17
-13 0 11 -14 11 -17 0 -18 -8 0 1 -5 19 -10 18 -5 30 -14 27 -19 -3 -5 4 -12
16 -15 13 -4 17 -11 12 -16 -5 -5 -17 -7 -26 -3 -16 6 -18 10 -16 32 0 4 -10
9 -23 12 -13 3 -23 12 -23 20 0 8 -8 15 -18 15 -10 0 -24 7 -30 15 -15 19 -83
19 -157 0 -30 -8 -58 -13 -62 -12 -5 1 -8 -2 -8 -8 0 -5 -9 -10 -19 -10 -25 0
-38 -20 -20 -31 10 -6 11 -11 3 -16 -6 -5 -14 -16 -17 -27 -6 -16 -4 -17 20
-11 50 13 66 14 199 19 108 4 138 2 168 -12 20 -9 36 -20 36 -24 0 -4 10 -8
23 -8 12 0 29 -5 37 -11 12 -9 11 -10 -5 -5 -20 6 -20 6 -1 -9 19 -14 19 -15
1 -15 -17 0 -17 -1 -2 -18 10 -10 14 -22 10 -25 -3 -4 -1 -7 5 -7 7 0 12 5 12
10 0 25 28 7 34 -22 5 -25 9 -29 19 -19 6 6 12 17 12 24 0 7 8 11 18 9 15 -3
16 2 11 25 -7 26 -7 27 10 10 10 -9 21 -17 26 -17 5 0 16 -13 25 -30 10 -20
12 -30 4 -30 -8 0 -9 -4 0 -13 6 -8 8 -17 4 -20 -3 -4 -2 -7 4 -7 5 0 10 -6
11 -12 3 -30 2 -168 -1 -228 -6 -99 -4 -95 -23 -79 -15 13 -17 11 -12 -19 2
-17 1 -32 -4 -32 -4 0 -8 -8 -8 -18 0 -10 -5 -23 -11 -29 -6 -6 -11 -32 -11
-59 0 -27 -4 -56 -9 -66 -5 -9 -10 -29 -12 -45 -2 -15 -9 -39 -16 -51 -7 -13
-14 -33 -16 -45 -2 -12 -7 -38 -10 -57 -3 -19 -8 -47 -10 -63 -3 -15 -12 -39
-22 -53 -15 -24 -17 -25 -24 -8 -4 11 -8 27 -8 38 -1 15 2 16 14 6 13 -11 15
-8 15 19 0 18 4 30 9 27 5 -3 12 1 15 9 3 9 -1 18 -9 21 -10 4 -13 14 -9 29 5
20 2 22 -20 18 -15 -3 -26 -12 -26 -22 -1 -13 -3 -13 -15 3 -15 20 -15 20 -16
0 -1 -10 0 -27 1 -37 1 -14 -4 -16 -24 -11 -30 7 -31 4 -10 -39 l15 -32 -20
25 c-11 14 -21 19 -21 12 0 -7 -4 -10 -10 -7 -6 3 -8 -14 -6 -45 2 -29 0 -50
-6 -50 -6 0 -8 -9 -5 -21 4 -15 2 -19 -9 -15 -8 3 -14 0 -14 -7 -1 -7 -9 -2
-19 10 -12 15 -22 18 -32 12 -12 -7 -11 -9 2 -9 9 0 22 -11 29 -25 7 -13 18
-21 23 -18 6 4 8 0 4 -11 -4 -10 -7 -24 -7 -32 0 -8 -4 -14 -10 -14 -5 0 -10
10 -10 22 0 17 -3 19 -12 10 -7 -7 -20 -12 -30 -12 -10 0 -18 -4 -18 -10 0 -5
9 -10 20 -10 18 0 30 -20 13 -20 -5 -1 -18 -9 -31 -19 -19 -17 -21 -23 -12
-47 9 -23 8 -25 -3 -15 -8 6 -22 9 -31 5 -19 -7 -21 -21 -4 -26 6 -2 12 -11
14 -19 1 -11 -5 -15 -21 -11 -17 3 -25 -2 -30 -17 -4 -13 -11 -18 -18 -14 -7
4 -6 -1 2 -10 12 -15 11 -17 -3 -17 -9 0 -16 -7 -16 -15 0 -17 -16 -20 -25 -5
-10 16 -36 -16 -28 -35 5 -15 3 -16 -16 -6 -17 10 -22 9 -27 -4 -3 -8 -3 -22
0 -31 3 -8 2 -12 -4 -9 -13 8 -13 62 0 70 12 8 -6 35 -22 35 -6 0 -4 -7 3 -17
10 -11 10 -17 3 -20 -6 -2 -9 -16 -7 -31 3 -15 1 -23 -4 -17 -9 11 -43 16 -41
6 2 -18 -3 -31 -13 -31 -5 0 -7 6 -3 13 5 9 4 9 -6 0 -8 -7 -22 -8 -41 -3 -26
8 -29 6 -29 -13 0 -18 -2 -19 -10 -7 -8 13 -11 12 -24 -5 -12 -16 -15 -17 -16
-4 0 19 -40 58 -40 40 0 -9 -4 -8 -14 1 -8 7 -12 16 -10 20 4 6 -6 6 -46 -4
-17 -3 -16 38 2 60 7 8 7 12 -2 12 -8 0 -10 9 -6 28 5 23 5 24 -5 8 -11 -17
-13 -17 -36 10 -25 29 -25 29 -18 4 7 -24 26 -45 47 -52 5 -2 5 -13 0 -28 -9
-22 -11 -23 -17 -7 -6 14 -10 15 -21 6 -11 -9 -14 -7 -15 12 0 13 -3 18 -6 12
-2 -7 -13 -13 -24 -13 -16 0 -18 5 -15 27 3 14 10 31 16 37 18 18 11 28 -14
22 -28 -7 -51 15 -42 39 4 11 2 14 -6 9 -8 -5 -9 -2 -5 10 4 11 3 15 -4 11 -6
-4 -9 -21 -8 -39 2 -17 -1 -38 -6 -46 -5 -9 -4 -15 3 -18 7 -2 12 -8 12 -14 0
-6 -6 -6 -15 2 -9 8 -13 21 -9 36 4 16 2 24 -6 24 -9 0 -9 4 1 17 9 11 10 14
2 9 -9 -5 -11 -2 -7 8 4 10 1 16 -7 16 -11 0 -11 3 1 10 8 5 11 10 6 10 -6 0
-1 7 10 15 13 10 15 17 8 22 -6 5 -11 22 -12 40 0 24 5 34 20 39 15 4 17 8 8
14 -20 12 -40 1 -40 -22 0 -18 -2 -19 -17 -7 -15 12 -16 12 -8 -1 4 -8 4 -12
0 -7 -5 4 -18 0 -31 -8 -19 -12 -23 -12 -28 0 -3 8 0 15 6 15 7 0 6 5 -2 15
-6 8 -8 19 -4 26 5 9 0 10 -18 6 -31 -8 -46 17 -20 32 15 9 14 10 -5 11 -12 0
-25 5 -28 10 -3 6 -2 10 4 10 6 0 4 15 -5 36 -8 20 -13 42 -10 50 3 8 0 11 -8
8 -17 -7 -11 67 7 78 7 4 8 8 2 8 -6 0 -17 -6 -24 -12 -10 -11 -11 -10 -6 3 4
10 2 20 -3 23 -5 3 -7 17 -5 31 3 13 9 22 14 19 5 -3 6 2 3 10 -4 10 -1 16 7
16 7 0 10 2 7 5 -11 11 -36 -7 -42 -31 -4 -13 -11 -24 -16 -24 -12 0 -24 45
-15 59 3 6 -1 11 -9 11 -9 0 -16 5 -16 11 0 5 -4 7 -10 4 -5 -3 -10 1 -10 9 0
9 -4 16 -9 16 -4 0 -12 32 -15 70 -5 45 -11 68 -18 64 -6 -4 -8 1 -3 15 3 11
3 26 -2 33 -8 14 -12 29 -15 68 -1 14 -7 28 -13 32 -7 5 -6 14 3 29 8 11 9 19
4 15 -12 -7 -15 108 -4 131 22 43 52 114 52 123 0 5 11 21 25 35 14 14 25 19
24 12 -5 -28 14 -86 34 -104 22 -18 83 -43 106 -43 7 0 10 7 7 18 -9 27 8 46
30 34 14 -7 23 -6 32 4 14 16 15 16 -14 19 -43 4 -78 17 -67 23 6 4 10 18 9
31 0 13 5 26 12 28 7 3 12 -4 12 -15 0 -27 29 -49 72 -54 21 -2 35 -2 33 1 -3
2 5 9 18 15 16 8 23 22 25 49 l3 37 47 -25 c26 -14 47 -31 47 -38 0 -6 10 -13
23 -15 52 -8 11 33 -78 75 -71 34 -138 39 -190 14 -24 -12 -48 -21 -54 -21
-19 0 34 45 67 57 18 6 24 12 14 12 -10 1 -33 -5 -52 -13 -31 -13 -36 -13 -57
4 -27 22 -17 39 25 42 33 3 34 6 5 19 -21 9 -21 9 5 5 18 -2 31 2 34 10 3 8
13 14 22 14 14 0 14 -2 1 -11 -12 -8 -9 -9 10 -4 34 9 37 9 100 -5 30 -7 63
-13 73 -13 9 -1 17 -5 17 -9 0 -4 14 -8 31 -8 21 0 40 -10 61 -30 28 -29 29
-32 14 -49 -20 -22 -20 -23 4 -51 24 -28 26 -53 4 -71 -27 -22 -43 -63 -33
-82 6 -9 6 -17 2 -17 -4 0 -8 -14 -9 -31 -1 -18 3 -28 10 -26 6 3 11 -6 11
-19 0 -13 -5 -24 -11 -24 -7 0 -14 -15 -16 -32 -3 -18 -15 -69 -27 -112 -26
-94 -21 -130 20 -155 25 -15 27 -20 16 -35 -7 -9 -19 -18 -27 -19 -27 -4 -40
-18 -40 -43 0 -22 -2 -24 -21 -13 -23 12 -39 -1 -38 -31 0 -8 5 -4 10 9 7 18
13 21 20 14 7 -7 8 -17 3 -25 -14 -22 -13 -37 2 -31 8 3 11 9 8 14 -3 5 -1 9
5 9 5 0 17 7 25 16 9 8 16 11 16 5 0 -19 28 -12 52 12 13 13 23 34 23 47 0 27
30 36 40 12 5 -13 8 -14 15 -3 6 11 14 10 39 -8 17 -12 31 -26 31 -31 0 -5 6
-7 13 -4 8 3 14 11 14 19 0 8 -4 12 -8 10 -4 -3 -9 2 -13 10 -3 8 -2 14 2 14
19 -3 23 2 13 15 -9 11 -6 17 15 31 15 9 23 12 20 6 -10 -15 7 -14 23 2 8 6 6
0 -4 -16 -17 -26 -17 -27 0 -20 12 4 16 3 11 -5 -3 -6 9 -26 28 -45 31 -32 34
-32 34 -11 0 13 -5 21 -13 18 -6 -3 -17 1 -23 9 -14 16 -4 57 13 57 20 0 62
38 68 61 5 19 2 18 -27 -10 -32 -31 -60 -39 -71 -21 -6 9 8 14 29 11 4 -1 14
4 22 10 10 8 11 15 4 25 -15 17 -76 7 -121 -22 -61 -38 -120 -9 -126 62 -1 20
5 68 13 107 9 42 17 142 19 239 4 152 2 170 -17 210 -11 24 -27 51 -35 60 -8
9 -12 21 -9 27 8 12 -21 41 -40 41 -8 0 -13 4 -10 8 6 11 -55 33 -94 34 -17 1
-33 4 -35 9 -3 4 -14 5 -24 2 -11 -3 -33 1 -48 9 -23 11 -31 12 -40 2 -7 -6
-10 -14 -7 -16 2 -3 -3 -5 -11 -5 -17 0 -20 13 -5 22 18 11 0 26 -19 16 -13
-7 -17 -5 -18 8 -1 10 4 18 10 19 7 1 33 3 58 6 62 6 103 28 162 89 50 51 72
90 63 114 -3 7 -1 13 3 13 5 0 12 7 15 16 3 8 2 13 -2 10 -4 -2 -8 4 -8 14 0
15 3 17 15 7 10 -8 13 -8 8 -1 -4 7 0 17 8 24 8 7 15 10 15 6 0 -3 12 4 26 17
14 12 29 22 32 23 4 0 15 4 25 9 10 4 45 5 78 2 44 -4 63 -1 74 9 7 8 28 14
45 14 18 0 29 4 25 10 -3 6 2 10 12 10 10 0 29 3 42 7 17 4 22 3 17 -5 -4 -7
-19 -13 -34 -13 -18 -1 -21 -3 -9 -6 22 -6 76 19 100 44 18 20 72 29 82 14z
m-415 -51 c-19 -13 -30 -13 -30 0 0 6 10 10 23 10 18 0 19 -2 7 -10z m122 -22
c-9 -9 -15 -9 -24 0 -9 9 -7 12 12 12 19 0 21 -3 12 -12z m-322 -182 c-52
-109 -118 -159 -205 -155 -42 3 -43 3 -33 31 6 15 14 28 20 28 5 0 6 -6 2 -12
-5 -9 -2 -9 9 1 9 7 17 19 17 27 0 7 27 23 61 35 47 17 71 34 107 75 26 29 48
49 50 45 2 -5 -11 -39 -28 -75z m754 -11 c-4 -8 -8 -15 -10 -15 -2 0 -4 7 -4
15 0 8 4 15 10 15 5 0 7 -7 4 -15z m-14 -69 l-32 -31 28 41 c16 23 31 37 33
32 2 -6 -11 -24 -29 -42z m-977 -172 c-3 -8 -13 -14 -22 -14 -13 0 -13 2 -2 9
7 5 11 14 7 20 -4 7 -1 9 8 5 8 -3 12 -12 9 -20z m-46 -18 c0 -8 -6 -12 -14
-9 -7 3 -10 9 -7 14 8 14 21 11 21 -5z m1120 -112 c-9 -9 -28 6 -21 18 4 6 10
6 17 -1 6 -6 8 -13 4 -17z m441 -612 c6 6 15 9 18 5 8 -8 -35 -97 -47 -97 -5
0 -9 -9 -9 -20 0 -42 -93 -75 -122 -43 -18 20 -25 67 -15 98 13 39 116 76 118
43 0 -7 5 -2 12 10 9 21 12 22 22 8 9 -11 15 -12 23 -4z m-1844 -45 c-14 -45
-19 -49 -40 -26 -10 12 -13 19 -6 15 11 -6 18 18 13 47 -1 4 8 3 19 -3 16 -8
19 -17 14 -33z m39 -43 c-2 -7 -13 -10 -24 -7 -22 6 -23 9 -7 27 14 15 39 -1
31 -20z m1474 -226 c-3 -8 -6 -5 -6 6 -1 11 2 17 5 13 3 -3 4 -12 1 -19z m-73
-61 c-8 -21 -20 -22 -28 -1 -4 9 -2 13 5 8 8 -4 9 1 4 17 -7 22 -6 23 9 8 10
-9 14 -22 10 -32z m-74 3 c0 -5 -2 -10 -4 -10 -3 0 -8 5 -11 10 -3 6 -1 10 4
10 6 0 11 -4 11 -10z m-20 -80 c-12 -23 -16 -24 -26 -8 -4 7 -3 8 4 4 7 -4 12
-1 12 8 0 9 5 16 10 16 7 0 7 -6 0 -20z m79 -23 c0 -9 -2 -8 -6 1 -2 6 -10 9
-15 6 -7 -4 -8 -2 -4 5 9 13 26 5 25 -12z m331 -22 c-7 -8 -10 -25 -7 -37 9
-34 -18 -218 -37 -253 -12 -22 -12 -31 -3 -37 8 -5 5 -8 -9 -8 -19 0 -22 8
-29 63 -4 34 -7 76 -7 92 0 39 24 125 35 125 5 0 5 10 2 23 -5 16 -4 18 4 8 8
-12 11 -10 16 11 4 15 14 29 23 31 24 5 27 0 12 -18z m-103 -127 c-3 -8 -6 -5
-6 6 -1 11 2 17 5 13 3 -3 4 -12 1 -19z m-1214 -44 c-7 -19 -34 -26 -49 -13
-22 18 -16 26 20 26 23 0 33 -4 29 -13z m777 -8 c0 -2 -7 -7 -16 -10 -8 -3
-12 -2 -9 4 6 10 25 14 25 6z m40 -6 c0 -5 -2 -10 -4 -10 -3 0 -8 5 -11 10 -3
6 -1 10 4 10 6 0 11 -4 11 -10z m-26 -18 c3 -5 -1 -9 -9 -9 -8 0 -15 4 -15 9
0 4 4 8 9 8 6 0 12 -4 15 -8z m-699 -100 c-3 -3 -11 0 -18 6 -8 7 -17 9 -21 5
-4 -4 -4 0 -1 9 6 15 8 15 25 0 11 -9 17 -18 15 -20z m945 -39 c5 -178 7 -204
18 -215 17 -17 15 -50 -7 -108 -11 -27 -17 -50 -15 -50 12 0 55 108 56 141 0
21 4 39 9 39 5 0 4 12 -1 26 -6 14 -8 29 -6 33 3 4 1 24 -4 44 -9 40 -1 46 25
21 24 -25 51 -82 75 -164 13 -41 32 -91 44 -110 40 -66 45 -75 56 -100 15 -32
7 -101 -18 -171 -11 -30 -26 -70 -33 -89 -28 -76 -209 -435 -267 -530 -12 -19
-26 -44 -31 -55 -5 -12 -16 -27 -25 -34 -9 -7 -16 -20 -16 -28 0 -7 -7 -16
-15 -19 -8 -4 -15 -14 -15 -24 0 -11 -5 -22 -10 -25 -6 -4 -21 -24 -35 -44
-13 -21 -29 -44 -37 -52 -7 -8 -26 -34 -43 -59 -16 -25 -34 -50 -40 -56 -5 -6
-17 -22 -25 -34 -35 -53 -135 -160 -150 -160 -4 0 -12 -11 -18 -25 -6 -14 -16
-25 -21 -25 -8 0 -48 -95 -66 -157 -7 -26 -25 -31 -25 -7 0 39 -36 162 -57
196 -13 21 -52 68 -88 105 -36 37 -65 69 -65 72 0 4 -16 23 -57 65 -13 13 -23
28 -23 33 0 5 -9 18 -20 28 -11 10 -20 24 -20 30 0 7 -7 15 -15 19 -8 3 -15
12 -15 19 0 8 -9 22 -20 32 -11 10 -20 24 -20 31 0 7 -6 17 -13 21 -13 8 -57
68 -57 78 0 3 -16 28 -35 55 -19 27 -35 52 -35 54 0 2 -16 28 -35 58 -20 29
-43 70 -52 91 -9 20 -20 37 -24 37 -4 0 -12 12 -18 28 -6 15 -15 34 -21 42
-97 147 -241 464 -240 529 2 88 187 391 239 391 4 0 4 -30 0 -67 -5 -38 -8
-74 -8 -80 -1 -7 -8 -13 -17 -13 -13 0 -15 7 -10 30 3 17 1 30 -4 30 -11 0
-14 -59 -4 -84 3 -9 10 -13 15 -10 9 5 13 -8 10 -38 -1 -9 3 -19 9 -23 6 -4
10 6 10 25 0 17 4 29 9 26 5 -3 8 16 8 44 -1 28 1 50 6 50 4 0 7 12 7 26 0 14
4 23 9 20 5 -4 7 3 4 14 -5 21 -5 21 31 -1 25 -15 34 -25 27 -32 -6 -6 -2 -22
15 -46 13 -19 24 -41 24 -47 0 -6 10 -19 23 -30 l22 -19 -18 22 c-18 21 -18
21 0 26 16 4 16 6 -3 12 -16 5 -20 12 -16 27 3 14 1 19 -6 14 -7 -4 -12 -5
-12 -2 0 2 -3 11 -6 20 -3 9 -1 16 6 16 6 0 8 -5 4 -11 -4 -8 0 -9 15 -4 15 5
21 2 21 -10 0 -9 13 -21 29 -26 16 -6 32 -17 35 -25 3 -8 15 -14 26 -14 12 0
18 -4 15 -10 -3 -5 0 -10 7 -10 7 0 -2 -10 -20 -21 -28 -18 -35 -19 -50 -8
-15 13 -16 12 -3 -4 8 -11 21 -15 30 -12 22 9 71 12 66 4 -3 -3 7 -11 20 -17
14 -7 24 -17 23 -24 -2 -7 3 -12 10 -11 15 4 15 -2 1 -29 -7 -13 -7 -18 -1
-14 11 7 27 -30 24 -54 -3 -13 -2 -13 7 0 8 12 14 11 35 -10 15 -13 26 -18 26
-12 0 7 3 11 8 11 32 -5 34 4 7 26 l-30 25 30 -15 c38 -19 56 -19 31 0 -23 18
-17 19 21 4 18 -7 23 -13 15 -18 -9 -5 -6 -13 10 -27 22 -19 22 -19 8 0 -14
18 -13 19 3 13 9 -3 17 -3 17 2 0 12 38 7 52 -7 8 -8 9 -12 1 -12 -6 0 -14 6
-16 13 -4 8 -6 8 -6 0 -1 -14 58 -45 70 -37 5 3 18 0 30 -7 12 -6 19 -7 15 -1
-3 6 0 13 6 16 7 3 3 3 -8 1 -14 -4 -24 0 -28 10 -3 8 -12 15 -21 15 -8 0 -15
4 -15 9 0 5 -8 12 -17 15 -12 3 -9 5 7 4 45 -1 52 2 47 16 -3 8 1 20 9 26 23
20 16 33 -8 16 -28 -20 -44 -21 -28 -1 10 12 10 15 -1 15 -8 0 -1 7 15 15 36
19 46 19 46 0 0 -17 2 -18 24 -9 9 3 13 11 9 17 -3 6 -1 7 5 3 15 -9 -2 -44
-24 -53 -18 -7 -8 -23 14 -23 14 0 15 2 2 10 -11 7 -9 11 13 19 15 6 27 13 27
16 0 4 -5 3 -12 -1 -7 -4 -8 -3 -4 4 4 6 14 8 23 5 12 -5 14 -3 8 7 -5 9 -4
11 4 6 6 -4 17 -3 24 2 7 5 22 12 34 14 16 4 20 2 16 -8 -3 -8 -8 -14 -12 -15
-29 -3 -45 -10 -52 -21 -14 -22 -2 -20 48 8 26 16 42 21 36 13 -7 -9 -10 -19
-6 -22 3 -4 -3 -7 -14 -7 -11 0 -26 -7 -33 -15 -7 -9 -20 -13 -29 -10 -8 3
-12 3 -8 -1 4 -4 1 -14 -6 -22 -11 -14 -9 -14 13 -2 14 8 33 15 43 17 10 2 25
10 33 18 20 19 25 19 18 0 -5 -13 -2 -14 20 -5 16 6 25 6 21 1 -3 -5 -1 -12 5
-16 6 -4 8 -11 5 -16 -3 -5 1 -6 9 -3 28 11 43 89 16 89 -8 0 -15 5 -15 10 0
6 5 8 10 6 10 -4 30 -4 58 0 6 1 13 13 13 25 1 17 -2 21 -14 17 -11 -5 -13 -3
-7 7 6 10 4 12 -10 6 -18 -7 -18 -6 -1 13 10 11 24 18 30 14 6 -3 8 -2 3 2
-11 13 22 43 43 38 12 -3 20 2 25 17 4 12 12 19 18 17 13 -5 39 18 30 26 -3 3
-11 3 -19 0 -8 -3 -14 0 -14 5 0 20 19 23 43 7 25 -16 59 -11 55 9 -4 20 13
56 26 56 8 0 16 17 19 42 4 33 26 68 43 68 1 0 3 -35 4 -77z m-320 35 c0 -11
-28 -10 -35 1 -3 6 4 9 15 8 11 -1 20 -5 20 -9z m-640 -68 c-8 -5 -19 -10 -25
-10 -5 0 -3 5 5 10 8 5 20 10 25 10 6 0 3 -5 -5 -10z m814 -32 c-5 -7 -1 -9
13 -6 12 3 20 0 20 -8 0 -8 -9 -14 -19 -14 -10 0 -18 2 -18 4 0 2 -3 11 -6 20
-3 9 -1 16 6 16 6 0 8 -5 4 -12z m-64 -48 c0 -5 -5 -10 -11 -10 -5 0 -7 5 -4
10 3 6 8 10 11 10 2 0 4 -4 4 -10z m-906 -20 c30 -11 35 -30 9 -30 -16 0 -16
2 -3 11 12 8 8 9 -15 5 -16 -3 -24 -3 -16 1 11 5 11 7 0 14 -19 12 -6 11 25
-1z m775 -111 c-7 -4 -17 -5 -22 -2 -5 3 -3 9 4 14 7 4 17 5 22 2 5 -3 3 -9
-4 -14z m-73 -14 c-17 -17 -54 -19 -76 -4 -11 8 -6 9 22 4 21 -3 39 -1 43 5 3
5 11 10 16 10 6 0 4 -7 -5 -15z m-341 -63 c-3 -3 -11 0 -18 7 -9 10 -8 11 6 5
10 -3 15 -9 12 -12z m-159 -63 c19 -22 19 -22 -3 -8 -13 8 -23 17 -23 21 0 12
6 9 26 -13z m184 1 c-8 -5 -22 -9 -30 -9 -10 0 -8 3 5 9 27 12 43 12 25 0z
m1235 -2268 c64 -42 79 -48 119 -47 45 2 47 1 66 -38 25 -52 25 -72 0 -90 -12
-8 -18 -20 -15 -30 10 -24 -13 -30 -43 -11 -15 9 -46 36 -69 59 -41 41 -46 43
-112 47 -77 4 -76 3 -85 36 -6 19 -3 23 23 28 l31 6 -45 29 c-47 30 -57 54
-27 63 38 11 87 -5 157 -52z"/>
<path d="M2424 5008 l-19 -23 23 19 c21 18 27 26 19 26 -2 0 -12 -10 -23 -22z"/>
<path d="M1820 4393 c8 -3 35 -17 59 -31 47 -27 78 -34 87 -20 3 4 -8 8 -25 8
-20 0 -29 4 -26 13 3 7 -10 17 -35 25 -40 12 -91 17 -60 5z"/>
<path d="M2412 4380 c-19 -4 -39 -13 -45 -20 -10 -10 -6 -11 18 -5 17 3 53 10
80 14 28 5 40 9 28 10 -12 0 -27 3 -35 5 -7 2 -28 0 -46 -4z"/>
<path d="M2450 4330 c-38 -12 -140 -60 -140 -66 0 -3 9 -3 19 1 11 3 22 1 26
-5 3 -5 12 -10 18 -10 7 0 6 4 -3 10 -17 10 -17 10 33 33 43 19 61 22 52 7 -4
-6 -4 -23 0 -38 5 -24 13 -30 57 -39 45 -9 53 -8 69 8 11 11 19 26 19 35 0 14
3 14 16 4 8 -7 14 -23 13 -34 0 -12 -1 -26 0 -33 1 -10 52 -33 89 -39 16 -3
24 32 20 82 -2 30 -7 39 -20 38 -10 -1 -15 2 -12 7 3 5 -1 9 -8 9 -7 0 -24 9
-38 20 -38 30 -44 24 -8 -10 22 -21 26 -30 15 -30 -9 0 -38 14 -64 30 -48 31
-99 38 -153 20z"/>
<path d="M2715 4310 c3 -5 8 -10 11 -10 2 0 4 5 4 10 0 6 -5 10 -11 10 -5 0
-7 -4 -4 -10z"/>
<path d="M2505 4190 c4 -6 11 -8 16 -5 14 9 11 15 -7 15 -8 0 -12 -5 -9 -10z"/>
<path d="M2548 4193 c7 -3 16 -2 19 1 4 3 -2 6 -13 5 -11 0 -14 -3 -6 -6z"/>
<path d="M2915 3920 c-3 -5 -1 -10 4 -10 6 0 11 5 11 10 0 6 -2 10 -4 10 -3 0
-8 -4 -11 -10z"/>
<path d="M2173 3651 c0 -11 5 -18 9 -15 4 3 5 11 1 19 -7 21 -12 19 -10 -4z"/>
<path d="M1704 3595 c-7 -30 -12 -31 -30 -7 -12 16 -14 16 -28 -3 -9 -11 -14
-28 -12 -38 2 -9 1 -15 -4 -12 -8 5 -22 -36 -15 -44 3 -2 5 1 5 7 0 7 16 12
40 12 28 0 40 4 40 14 0 9 7 12 19 9 15 -4 18 0 14 21 -3 14 -9 26 -13 26 -5
0 -6 9 -3 20 3 11 3 20 -1 20 -3 0 -8 -11 -12 -25z"/>
<path d="M1763 3608 c-18 -9 -21 -18 -20 -59 1 -30 7 -51 15 -54 11 -4 10 -8
-2 -21 -9 -8 -21 -12 -27 -8 -8 5 -9 3 -5 -5 8 -12 55 -35 67 -33 4 1 10 -9
13 -22 7 -28 35 -42 50 -25 8 9 8 10 -1 5 -7 -4 -13 -2 -13 5 0 7 8 9 23 4 34
-10 107 -5 136 10 18 9 32 10 43 4 9 -5 19 -5 22 0 3 4 46 7 95 5 63 -2 101 1
125 11 21 9 37 11 41 5 3 -5 21 -3 44 5 22 7 48 11 59 8 24 -6 38 12 16 21
-72 27 -215 38 -291 21 -22 -5 -33 -4 -33 4 0 6 -9 11 -20 11 -11 0 -20 5 -20
10 0 6 -8 10 -17 9 -11 0 -13 -3 -5 -6 6 -2 12 -9 12 -14 0 -6 -4 -7 -10 -4
-5 3 -10 1 -10 -6 0 -8 -3 -9 -14 0 -22 18 -201 21 -226 4 -36 -25 -64 17 -32
49 17 17 15 33 -2 19 -10 -8 -16 -9 -21 -1 -3 5 -1 10 5 10 6 0 15 10 20 23 7
17 9 18 9 5 1 -25 16 -23 18 2 2 22 -10 24 -44 8z"/>
<path d="M2545 3551 c-6 -11 13 -26 22 -17 4 3 1 6 -6 6 -7 0 -9 5 -6 10 3 6
4 10 1 10 -3 0 -7 -4 -11 -9z"/>
<path d="M1634 3488 c-3 -4 2 -5 10 -2 10 4 16 1 16 -9 0 -10 7 -13 18 -10 30
7 22 30 -10 30 -16 0 -31 -4 -34 -9z"/>
<path d="M1635 3451 c-3 -12 -11 -21 -16 -21 -5 0 -9 -4 -9 -10 0 -5 5 -10 10
-10 11 0 34 50 26 57 -2 3 -7 -5 -11 -16z"/>
<path d="M2536 3247 c3 -10 9 -15 12 -12 3 3 0 11 -7 18 -10 9 -11 8 -5 -6z"/>
<path d="M1700 3229 c0 -5 5 -7 10 -4 6 3 10 8 10 11 0 2 -4 4 -10 4 -5 0 -10
-5 -10 -11z"/>
<path d="M1829 3183 c-13 -16 -12 -17 4 -4 16 13 21 21 13 21 -2 0 -10 -8 -17
-17z"/>
<path d="M2060 3190 c0 -5 5 -10 11 -10 5 0 7 5 4 10 -3 6 -8 10 -11 10 -2 0
-4 -4 -4 -10z"/>
<path d="M2420 3180 c0 -5 7 -10 15 -10 8 0 15 5 15 10 0 6 -7 10 -15 10 -8 0
-15 -4 -15 -10z"/>
<path d="M1890 3091 c0 -5 5 -13 10 -16 6 -3 10 -2 10 4 0 5 -4 13 -10 16 -5
3 -10 2 -10 -4z"/>
<path d="M2290 3081 c0 -6 4 -13 10 -16 6 -3 7 1 4 9 -7 18 -14 21 -14 7z"/>
<path d="M1870 2979 c0 -18 2 -19 15 -5 8 8 15 17 15 20 0 3 -7 6 -15 6 -9 0
-15 -9 -15 -21z"/>
<path d="M2293 2993 c4 -3 7 -13 7 -24 0 -22 8 -24 33 -5 17 13 17 14 0 19
-10 2 -25 7 -33 9 -8 3 -12 3 -7 1z"/>
<path d="M2365 2990 c-3 -5 1 -10 10 -10 9 0 13 5 10 10 -3 6 -8 10 -10 10 -2
0 -7 -4 -10 -10z"/>
<path d="M2080 2879 c0 -5 5 -7 10 -4 6 3 10 8 10 11 0 2 -4 4 -10 4 -5 0 -10
-5 -10 -11z"/>
<path d="M2710 2895 c0 -9 5 -15 11 -13 6 2 11 8 11 13 0 5 -5 11 -11 13 -6 2
-11 -4 -11 -13z"/>
<path d="M1546 2797 c3 -10 9 -15 12 -12 3 3 0 11 -7 18 -10 9 -11 8 -5 -6z"/>
<path d="M1655 2770 c3 -5 10 -10 16 -10 5 0 9 5 9 10 0 6 -7 10 -16 10 -8 0
-12 -4 -9 -10z"/>
<path d="M2530 2739 c0 -5 5 -7 10 -4 6 3 10 8 10 11 0 2 -4 4 -10 4 -5 0 -10
-5 -10 -11z"/>
<path d="M1785 2620 c3 -5 8 -10 11 -10 2 0 4 5 4 10 0 6 -5 10 -11 10 -5 0
-7 -4 -4 -10z"/>
<path d="M2393 2583 c-15 -5 -17 -23 -4 -23 5 0 11 7 15 15 3 8 4 15 3 14 -1
0 -8 -3 -14 -6z"/>
<path d="M2410 2540 c0 -5 7 -7 15 -4 8 4 15 8 15 10 0 2 -7 4 -15 4 -8 0 -15
-4 -15 -10z"/>
<path d="M1947 2519 c7 -7 15 -10 18 -7 3 3 -2 9 -12 12 -14 6 -15 5 -6 -5z"/>
<path d="M3185 337 c10 -8 15 -19 11 -26 -5 -7 4 -14 26 -18 18 -4 36 -6 41
-5 4 1 7 -2 7 -7 0 -13 -61 -40 -77 -34 -7 3 -13 1 -13 -5 0 -15 26 -22 85
-22 46 0 57 -4 74 -26 25 -32 111 -98 118 -91 2 3 -5 15 -17 27 -12 12 -23 27
-24 34 -10 43 -20 66 -30 66 -7 0 -23 11 -36 25 -13 14 -28 25 -33 25 -5 0
-20 9 -34 20 -14 11 -32 20 -40 20 -8 0 -21 7 -29 15 -9 8 -23 15 -32 15 -13
0 -13 -2 3 -13z"/>
<path d="M3410 256 c0 -18 22 -46 31 -40 6 3 17 -2 24 -12 13 -17 13 -15 2 14
-6 18 -17 30 -23 28 -6 -2 -17 1 -23 7 -6 6 -11 8 -11 3z"/>
<path d="M3460 165 c0 -9 6 -12 15 -9 8 4 15 10 15 15 0 5 -7 9 -15 9 -8 0
-15 -7 -15 -15z"/>
</g>
</svg>
