<svg xmlns="http://www.w3.org/2000/svg" width="32" height="32" viewBox="0 0 32 32" fill="none"><path d="M31.22 25C31.7194 24.4533 31.9974 23.7404 32 23C31.9973 22.1515 31.6337 21.3443 31 20.78V18H29V20H27V18H25V20H24V30H25V32H27V30H29V32H31V29.22C32.2249 28.1374 32.3403 26.2668 31.2577 25.0419C31.2452 25.0278 31.2327 25.0138 31.22 25ZM29 28H26V26H29C29.5523 26 30 26.4477 30 27C30 27.5523 29.5523 28 29 28ZM29 24H26V22H29C29.5523 22 30 22.4477 30 23C30 23.5523 29.5523 24 29 24Z" fill="#E66F32"></path><path d="M14 8V14H17V12H16V8H14Z" fill="#E66F32"></path><path d="M19 17.667V22H21V18.333L24 14.333V8C24 3.58175 20.4183 0 16 0C11.5817 0 8 3.58175 8 8V14.333L11 18.333V20.3L0 24.3V32H14V30H2V25.7L13 21.7V17.667L10 13.667V8C10 4.68631 12.6863 2 16 2C19.3137 2 22 4.68631 22 8V13.667L19 17.667Z" fill="#E66F32"></path><path d="M18 30H16V32H18V30Z" fill="#E66F32"></path><path d="M22 30H20V32H22V30Z" fill="#E66F32"></path></svg>