<svg xmlns="http://www.w3.org/2000/svg" width="32" height="32" viewBox="0 0 32 32" fill="none"><g clip-path="url(#clip0)"><path d="M29.1368 11.1791L31.0182 10.4884C30.772 9.81925 30.4814 9.16728 30.1482 8.53687L28.375 9.47306C28.6664 10.0242 28.9209 10.5941 29.1368 11.1791Z" fill="#E66F32"></path><path d="M29.0266 6.71974C28.6123 6.14001 28.1602 5.58815 27.6734 5.06787L26.21 6.43708C26.6363 6.8929 27.0321 7.37647 27.3947 7.88447L29.0266 6.71974Z" fill="#E66F32"></path><path d="M31.6196 12.5343V12.5393L29.662 12.9733C31.3466 20.5416 26.5769 28.0425 19.0087 29.7271C11.4405 31.4117 3.93952 26.6421 2.25494 19.0738C0.570307 11.5055 5.33999 4.00464 12.9082 2.32C17.1113 1.38443 21.5112 2.42945 24.8447 5.15496L26.1147 3.60332C19.2682 -1.98283 9.18951 -0.961188 3.60335 5.8853C-1.9828 12.7318 -0.961221 22.8104 5.8852 28.3966C12.7316 33.9828 22.8104 32.9612 28.3965 26.1147C31.4929 22.3199 32.6805 17.3158 31.6196 12.5343Z" fill="#E66F32"></path><path d="M8.9707 16.7073L15.9621 26.8059L22.9535 16.7073L15.9621 5.05396L8.9707 16.7073ZM15.9621 23.2837L13.0202 19.0307L15.9621 20.3428L18.904 19.0307L15.9621 23.2837ZM15.9621 18.1486L11.6049 16.2121L15.9621 8.95109L20.3193 16.2121L15.9621 18.1486Z" fill="#E66F32"></path></g><defs><clipPath id="clip0"><rect width="32" height="32" fill="white"></rect></clipPath></defs></svg>