<svg xmlns="http://www.w3.org/2000/svg" width="32" height="32" viewBox="0 0 32 32" fill="none"><path d="M16 10C13.7909 10 12 11.7909 12 14V15H11V25H21V15H20V14C20 11.7909 18.2091 10 16 10ZM14 14C14 12.8954 14.8954 12 16 12C17.1046 12 18 12.8954 18 14V15H14V14ZM19 23H13V17H19V23Z" fill="#E66F32"></path><path d="M17 19H15V21H17V19Z" fill="#E66F32"></path><path d="M6 20H4V22H6V20Z" fill="#E66F32"></path><path d="M6 24H4V26H6V24Z" fill="#E66F32"></path><path d="M21.414 0H4V18H6V2H19V9H26V30H6V28H4V32H28V6.586L21.414 0ZM21 7V2.414L25.586 7H21Z" fill="#E66F32"></path></svg>