<svg xmlns="http://www.w3.org/2000/svg" width="32" height="32" viewBox="0 0 32 32" fill="none"><path d="M4 5H16V3H2V10H4V5Z" fill="#E66F32"></path><path d="M26 27H16V29H28V24H26V27Z" fill="#E66F32"></path><path d="M28 20H26V22H28V20Z" fill="#E66F32"></path><path d="M4 12H2V14H4V12Z" fill="#E66F32"></path><path d="M8.947 24C10.3256 22.6569 10.3544 20.4505 9.01125 19.0719C8.72006 18.773 8.3775 18.5288 8 18.351V16H6V18H4V16H2V18H0V30H2V32H4V30H6V32H8V29.649C9.74125 28.8289 10.488 26.7525 9.66788 25.0112C9.49006 24.6337 9.24587 24.2912 8.947 24ZM6.5 28H2V25H6.5C7.32844 25 8 25.6716 8 26.5C8 27.3284 7.32844 28 6.5 28ZM6.5 23H2V20H6.5C7.32844 20 8 20.6716 8 21.5C8 22.3284 7.32844 23 6.5 23Z" fill="#E66F32"></path><path d="M31 5V4C31 1.79087 29.2091 0 27 0C24.7909 0 23 1.79087 23 4V5H22V15H32V5H31ZM25 4C25 2.89544 25.8954 2 27 2C28.1046 2 29 2.89544 29 4V5H25V4ZM30 13H24V7H30V13Z" fill="#E66F32"></path><path d="M28 9H26V11H28V9Z" fill="#E66F32"></path><path d="M14 27H12V29H14V27Z" fill="#E66F32"></path><path d="M20 3H18V5H20V3Z" fill="#E66F32"></path></svg>