<svg xmlns="http://www.w3.org/2000/svg" width="32" height="32" viewBox="0 0 32 32" fill="none"><path d="M12.4904 9.90859L6.24518 0.192627L0 9.90859L6.24518 19.6245L12.4904 9.90859ZM6.24518 3.92581L9.72404 9.33635L6.24518 10.7281L2.76633 9.33635L6.24518 3.92581ZM6.24518 12.902L8.83288 11.8675L6.24518 15.8924L3.65749 11.8675L6.24518 12.902Z" fill="#E66F32"></path><path d="M25.421 17.8706H31.4764V15.8521H27.4395V13.8336H25.421V15.8521C23.1915 15.8521 21.384 17.6595 21.384 19.8891C21.384 22.1186 23.1915 23.926 25.421 23.926H27.4395C28.5542 23.926 29.458 24.8297 29.458 25.9445C29.458 27.0593 28.5542 27.963 27.4395 27.963H21.384V29.9815H25.421V32H27.4395V29.9815C29.669 29.9815 31.4764 28.174 31.4764 25.9445C31.4764 23.715 29.669 21.9075 27.4395 21.9075H25.421C24.3062 21.9075 23.4025 21.0038 23.4025 19.8891C23.4025 18.7743 24.3062 17.8706 25.421 17.8706Z" fill="#E66F32"></path><path d="M13.6058 25.6488L14.9108 26.9537H3.2177V23.926H1.19922V28.9722H14.9108L13.6058 30.2772L15.0329 31.7042L18.7741 27.963L15.0329 24.2217L13.6058 25.6488Z" fill="#E66F32"></path><path d="M17.0514 6.05545L15.7464 4.7505H27.4395V7.77822H29.458V2.73202H15.7464L17.0514 1.42707L15.6243 0L11.8831 3.74126L15.6243 7.48251L17.0514 6.05545Z" fill="#E66F32"></path><path d="M29.4579 9.79663H27.4395V11.8151H29.4579V9.79663Z" fill="#E66F32"></path><path d="M3.2177 19.8892H1.19922V21.9076H3.2177V19.8892Z" fill="#E66F32"></path></svg>