<svg xmlns="http://www.w3.org/2000/svg" width="32" height="32" viewBox="0 0 32 32" fill="none"><path d="M2 0H0V2H2V0Z" fill="#E66F32"></path><path d="M17 0H15V2H17V0Z" fill="#E66F32"></path><path d="M32 0H30V2H32V0Z" fill="#E66F32"></path><path d="M2 30H0V32H2V30Z" fill="#E66F32"></path><path d="M17 30H15V32H17V30Z" fill="#E66F32"></path><path d="M32 30H30V32H32V30Z" fill="#E66F32"></path><path d="M2 15H0V17H2V15Z" fill="#E66F32"></path><path d="M32 15H30V17H32V15Z" fill="#E66F32"></path><path d="M8 15H4V17H8V15Z" fill="#E66F32"></path><path d="M28 15H24V17H28V15Z" fill="#E66F32"></path><path d="M17 4H15V9H17V4Z" fill="#E66F32"></path><path d="M17 23H15V28H17V23Z" fill="#E66F32"></path><path d="M10 21H22V11H10V21ZM18 13H20V19H18V13ZM12 13H16V19H12V13Z" fill="#E66F32"></path></svg>