<svg xmlns="http://www.w3.org/2000/svg" width="32" height="32" viewBox="0 0 32 32" fill="none"><path d="M10.8115 20.4832L16.0005 27.9792L21.1895 20.4792L16.0005 11.8342L10.8115 20.4832ZM16.0005 24.4652L13.1895 20.4062L16.0005 15.7222L18.8115 20.4062L16.0005 24.4652Z" fill="#E66F32"></path><path d="M28.0007 26.171V21.22C28.0042 15.3851 25.5819 9.81144 21.3137 5.833L21.7237 5.219C22.5574 3.97 23.0019 2.50169 23.0007 1V0H9.00073V1C8.99961 2.50169 9.44404 3.97 10.2777 5.219L10.6877 5.833C6.41954 9.81144 3.99729 15.3851 4.00073 21.22V26.171C2.43829 26.7224 1.61873 28.4359 2.17011 29.9984C2.59361 31.1984 3.72817 32.0007 5.00073 32H27.0007C28.6576 32.0009 30.0015 30.6585 30.0024 29.0016C30.003 27.7291 29.2007 26.5945 28.0007 26.171ZM20.9117 2C20.7748 2.75381 20.4849 3.47156 20.0597 4.109L19.4657 5H12.5357L11.9417 4.109C11.5166 3.47156 11.2266 2.75381 11.0897 2H20.9117ZM27.0007 30H5.00073C4.44842 30 4.00073 29.5523 4.00073 29C4.00073 28.4477 4.44842 28 5.00073 28H6.00073V21.22C5.99861 15.966 8.17036 10.9452 12.0007 7.349V12H14.0007V7H16.0007V10H18.0007V7H19.6157C23.6779 10.6101 26.0018 15.7854 26.0007 21.22V28H27.0007C27.553 28 28.0007 28.4477 28.0007 29C28.0007 29.5523 27.553 30 27.0007 30Z" fill="#E66F32"></path></svg>