<svg xmlns="http://www.w3.org/2000/svg" width="32" height="32" viewBox="0 0 32 32" fill="none"><path d="M21.0952 26.1904C24.4615 26.1904 27.1904 23.4615 27.1904 20.0952C27.1904 16.7289 24.4615 14 21.0952 14C17.7289 14 15 16.7289 15 20.0952C15 23.4615 17.7289 26.1904 21.0952 26.1904Z" stroke="#E66F32" stroke-width="2" stroke-linecap="round" stroke-linejoin="round"></path><path d="M24 20.0952C24 19.7078 23.9241 19.338 23.7864 19M23 17.9021C22.49 17.4588 21.8239 17.1904 21.0952 17.1904C20.6254 17.1904 20.1816 17.302 19.7889 17.5" stroke="#E66F32" stroke-width="2" stroke-linejoin="round"></path><path d="M30.9999 29.9999L29.5 28.5M25.3999 24.3999L28.5 27.5" stroke="#E66F32" stroke-width="2" stroke-linejoin="round"></path><mask id="mask0" maskUnits="userSpaceOnUse" x="0" y="0" width="22" height="24"><path d="M16 24H0V0H22V14H19C18 14 15.5 16.5 15 18C14.6 19.2 15.5 22.5 16 24Z" fill="#C4C4C4"></path></mask><g mask="url(#mask0)"><mask id="path-5-inside-1" fill="white"><path fill-rule="evenodd" clip-rule="evenodd" d="M14 2H8V5.75757L5.34307 3.10063L1.10042 7.34327L3.75715 10H0V16H3.75733L1.10039 18.6569L5.34303 22.8996L8 20.2426V24H14V20.2429L16.6568 22.8996L20.8994 18.657L18.2424 16H22V10H18.2426L20.8994 7.34323L16.6567 3.10059L14 5.75732V2Z"></path></mask><path d="M8 2V0L6 2H8ZM14 2H16L14 0V2ZM8 5.75757L6.58579 7.17178L10 5.75757H8ZM5.34307 3.10063L6.75728 1.68642L3.92885 1.68642L5.34307 3.10063ZM1.10042 7.34327L-0.313789 5.92906L-0.313789 8.75749L1.10042 7.34327ZM3.75715 10V12L5.17136 8.58579L3.75715 10ZM0 10V8L-2 10H0ZM0 16H-2L0 18V16ZM3.75733 16L5.17154 17.4142L3.75733 14V16ZM1.10039 18.6569L-0.313824 17.2427L-0.313824 20.0711L1.10039 18.6569ZM5.34303 22.8996L3.92882 24.3138H6.75724L5.34303 22.8996ZM8 20.2426H10L6.58579 18.8284L8 20.2426ZM8 24H6L8 26V24ZM14 24V26L16 24H14ZM14 20.2429L15.4142 18.8286L12 20.2429H14ZM16.6568 22.8996L15.2426 24.3138H18.071L16.6568 22.8996ZM20.8994 18.657L22.3136 20.0712V17.2428L20.8994 18.657ZM18.2424 16V14L16.8282 17.4142L18.2424 16ZM22 16V18L24 16H22ZM22 10H24L22 8V10ZM18.2426 10L16.8284 8.58579L18.2426 12V10ZM20.8994 7.34323L22.3136 8.75744V5.92901L20.8994 7.34323ZM16.6567 3.10059L18.071 1.68637L15.2425 1.68637L16.6567 3.10059ZM14 5.75732H12L15.4142 7.17154L14 5.75732ZM8 4H14V0H8V4ZM10 5.75757V2H6V5.75757H10ZM3.92885 4.51485L6.58579 7.17178L9.41421 4.34335L6.75728 1.68642L3.92885 4.51485ZM2.51464 8.75749L6.75728 4.51485L3.92885 1.68642L-0.313789 5.92906L2.51464 8.75749ZM5.17136 8.58579L2.51464 5.92906L-0.313789 8.75749L2.34294 11.4142L5.17136 8.58579ZM0 12H3.75715V8H0V12ZM2 16V10H-2V16H2ZM3.75733 14H0V18H3.75733V14ZM2.5146 20.0711L5.17154 17.4142L2.34311 14.5858L-0.313824 17.2427L2.5146 20.0711ZM6.75724 21.4854L2.5146 17.2427L-0.313824 20.0711L3.92882 24.3138L6.75724 21.4854ZM6.58579 18.8284L3.92882 21.4854L6.75724 24.3138L9.41421 21.6568L6.58579 18.8284ZM10 24V20.2426H6V24H10ZM14 22H8V26H14V22ZM12 20.2429V24H16V20.2429H12ZM18.071 21.4854L15.4142 18.8286L12.5858 21.6571L15.2426 24.3138L18.071 21.4854ZM19.4852 17.2428L15.2426 21.4854L18.071 24.3138L22.3136 20.0712L19.4852 17.2428ZM16.8282 17.4142L19.4852 20.0712L22.3136 17.2428L19.6566 14.5858L16.8282 17.4142ZM22 14H18.2424V18H22V14ZM20 10V16H24V10H20ZM18.2426 12H22V8H18.2426V12ZM19.4852 5.92901L16.8284 8.58579L19.6568 11.4142L22.3136 8.75744L19.4852 5.92901ZM15.2425 4.5148L19.4852 8.75744L22.3136 5.92901L18.071 1.68637L15.2425 4.5148ZM15.4142 7.17154L18.071 4.5148L15.2425 1.68637L12.5858 4.34311L15.4142 7.17154ZM12 2V5.75732H16V2H12Z" fill="#E66F32" mask="url(#path-5-inside-1)"></path><circle cx="11" cy="13" r="4" stroke="#E66F32" stroke-width="2"></circle></g></svg>