<svg xmlns="http://www.w3.org/2000/svg" width="32" height="32" viewBox="0 0 32 32" fill="none"><path d="M13 32V30.3333C13 29.4493 12.6839 28.6014 12.1213 27.9763C11.5587 27.3512 10.7956 27 10 27H4C3.20435 27 2.44129 27.3512 1.87868 27.9763C1.31607 28.6014 1 29.4493 1 30.3333V32" stroke="#E66F32" stroke-width="2" stroke-linejoin="round"></path><path d="M31 32V30.3333C31 29.4493 30.6839 28.6014 30.1213 27.9763C29.5587 27.3512 28.7956 27 28 27H22C21.2044 27 20.4413 27.3512 19.8787 27.9763C19.3161 28.6014 19 29.4493 19 30.3333V32" stroke="#E66F32" stroke-width="2" stroke-linejoin="round"></path><path d="M7 24C8.65685 24 10 22.6569 10 21C10 19.3431 8.65685 18 7 18C5.34315 18 4 19.3431 4 21C4 22.6569 5.34315 24 7 24Z" stroke="#E66F32" stroke-width="2" stroke-linejoin="round"></path><path d="M25 24C26.6569 24 28 22.6569 28 21C28 19.3431 26.6569 18 25 18C23.3431 18 22 19.3431 22 21C22 22.6569 23.3431 24 25 24Z" stroke="#E66F32" stroke-width="2" stroke-linejoin="round"></path><path d="M20 9H11L7 11.5V9H4V1H20V9Z" stroke="#E66F32" stroke-width="2"></path><path d="M12 12H14M22.5 4H27V12H24V14.5L20 12H18H16" stroke="#E66F32" stroke-width="2"></path><path d="M7 5H9M11 5H13M15 5H17" stroke="#E66F32" stroke-width="2"></path></svg>