<svg xmlns="http://www.w3.org/2000/svg" width="32" height="44" viewBox="0 0 32 44" fill="none"><path d="M4 8C5.65685 8 7 6.65685 7 5C7 3.34315 5.65685 2 4 2C2.34315 2 1 3.34315 1 5C1 6.65685 2.34315 8 4 8Z" stroke="#E66F32" stroke-width="2" stroke-linejoin="round"></path><path d="M29.833 24.9378C29.6842 25.6675 29.4779 26.3844 29.216 27.0816L27.3658 26.3866C27.591 25.787 27.7684 25.1705 27.8963 24.5429L29.833 24.9378Z" fill="#E66F32"></path><path d="M28.2261 29.1764C27.8537 29.8214 27.4309 30.4359 26.9616 31.0142L25.4269 29.7686C25.8306 29.2713 26.1942 28.7429 26.5145 28.1882L28.2261 29.1764Z" fill="#E66F32"></path><path d="M3.02945 24.7648C4.25575 30.806 9.59684 35.353 15.9999 35.353C19.3023 35.353 22.3222 34.1435 24.6408 32.1434M3.02945 24.7648L6.2941 26.5295M3.02945 24.7648L1 27.4119" stroke="#E66F32" stroke-width="2"></path><path d="M2.16703 19.2976C2.31581 18.5678 2.52209 17.851 2.78396 17.1538L4.63422 17.8487C4.40901 18.4483 4.2316 19.0648 4.10366 19.6924L2.16703 19.2976Z" fill="#E66F32"></path><path d="M3.77388 15.059C4.14626 14.414 4.5691 13.7995 5.03843 13.2212L6.57306 14.4667C6.16944 14.964 5.8058 15.4925 5.48555 16.0472L3.77388 15.059Z" fill="#E66F32"></path><path d="M28.9706 19.4705C27.7443 13.4293 22.4032 8.88232 16.0001 8.88232C12.6977 8.88232 9.67779 10.0918 7.35918 12.092M28.9706 19.4705L25.7059 17.7058M28.9706 19.4705L31 16.8235" stroke="#E66F32" stroke-width="2"></path><path d="M13 41.2354V39.5687C13 38.6846 12.6839 37.8368 12.1213 37.2117C11.5587 36.5865 10.7956 36.2354 10 36.2354H4C3.20435 36.2354 2.44129 36.5865 1.87868 37.2117C1.31607 37.8368 1 38.6846 1 39.5687V41.2354" stroke="#E66F32" stroke-width="2" stroke-linejoin="round"></path></svg>