<svg xmlns="http://www.w3.org/2000/svg" width="32" height="32" viewBox="0 0 32 32" fill="none"><path d="M31 30.3333H29M31 7.83333H26.5M5.16667 7.83333V23H5C2.79086 23 1 24.7909 1 27V27M5.16667 7.83333V2L3.67961 2.29741C2.12153 2.60903 1 3.97708 1 5.56601V24V27M5.16667 7.83333H20.5M1 27V27C1 28.8409 2.49239 30.3333 4.33334 30.3333H5.16667H17M27 30.3333H23M21 30.3333H19" stroke="#E66F32" stroke-width="2"></path><path d="M18 21H27" stroke="#E66F32" stroke-width="2"></path><path d="M29 21L31 21" stroke="#E66F32" stroke-width="2"></path><path d="M28.1213 6L25 3.12134L11 17.1213L10 21.1213L14 20.1213L28.1213 6Z" stroke="#E66F32" stroke-width="2"></path></svg>