<svg width="58" height="35" viewBox="0 0 58 35" fill="none" xmlns="http://www.w3.org/2000/svg">
<g clip-path="url(#clip0)">
<path d="M16.3359 12.6752C16.3159 13.2632 16.3899 13.8492 16.5559 14.4122C16.7199 14.8942 16.9299 15.3592 17.1829 15.8002C17.2589 15.9352 17.3029 16.0872 17.3109 16.2432C17.3014 16.3617 17.2624 16.4759 17.1974 16.5755C17.1324 16.6751 17.0436 16.7568 16.9389 16.8132L15.7789 17.6302C15.6282 17.7343 15.4518 17.7949 15.2689 17.8052C15.1582 17.8008 15.0496 17.7736 14.9498 17.7255C14.85 17.6773 14.7612 17.6091 14.6889 17.5252C14.4218 17.2575 14.1914 16.9556 14.0039 16.6272C13.7839 16.2512 13.5859 15.8612 13.4119 15.4622C12.7323 16.3121 11.8677 16.9958 10.8839 17.4612C9.90135 17.9256 8.82554 18.1588 7.7389 18.1432C7.03572 18.1805 6.33224 18.0757 5.67043 17.8352C5.00863 17.5946 4.40205 17.2233 3.8869 16.7432C3.4065 16.2526 3.03272 15.6681 2.78904 15.0262C2.54536 14.3843 2.43705 13.6989 2.4709 13.0132C2.44716 12.2697 2.58775 11.5301 2.88264 10.8471C3.17752 10.1642 3.61945 9.55473 4.1769 9.06218C5.51914 8.00189 7.20182 7.46719 8.9099 7.55818C9.5929 7.55818 10.2749 7.60818 10.9519 7.70918C11.6589 7.81418 12.3899 7.95418 13.1559 8.12918V6.70718C13.2706 5.59531 12.9458 4.48269 12.2509 3.60718C11.3549 2.91955 10.231 2.59818 9.1069 2.70818C8.4069 2.71018 7.7089 2.79618 7.0299 2.96518C6.3229 3.13118 5.6289 3.34918 4.9529 3.61818C4.73556 3.72086 4.51054 3.80645 4.2799 3.87418C4.1819 3.90518 4.0809 3.92418 3.9789 3.93218C3.7119 3.93218 3.5719 3.72218 3.5719 3.31518V2.35918C3.54952 2.12489 3.59831 1.8893 3.7119 1.68318C3.84831 1.50039 4.03284 1.35913 4.2449 1.27518C5.0259 0.89818 5.8419 0.60518 6.6829 0.40018C7.66464 0.148607 8.67445 0.0232625 9.6879 0.0271797C11.512 -0.134693 13.3262 0.431085 14.7349 1.60118C15.3088 2.24733 15.7463 3.00268 16.0212 3.82198C16.2962 4.64128 16.4028 5.50766 16.3349 6.36918V12.6752H16.3359ZM8.5039 15.6252C9.18364 15.6157 9.85748 15.4975 10.4999 15.2752C11.2057 15.0197 11.8334 14.586 12.3219 14.0162C12.6229 13.6822 12.8449 13.2832 12.9719 12.8502C13.1079 12.3022 13.1699 11.7372 13.1569 11.1722V10.3092C12.5756 10.1672 11.9866 10.0583 11.3929 9.98318C10.7929 9.90518 10.1889 9.86618 9.5829 9.86618C8.56611 9.78513 7.5529 10.0613 6.7179 10.6472C6.404 10.9181 6.15693 11.2579 5.99596 11.64C5.83499 12.0222 5.76447 12.4363 5.7899 12.8502C5.7652 13.2221 5.81501 13.5951 5.93641 13.9475C6.05782 14.2999 6.24838 14.6244 6.4969 14.9022C6.76705 15.1494 7.08352 15.3405 7.42801 15.4646C7.7725 15.5887 8.13818 15.6433 8.5039 15.6252ZM23.9939 17.7352C23.7328 17.7515 23.4732 17.6861 23.2509 17.5482C23.0489 17.3326 22.9087 17.0666 22.8449 16.7782L18.3299 1.78918C18.2409 1.53674 18.1825 1.27453 18.1559 1.00818C18.1445 0.911715 18.1667 0.814269 18.2188 0.732289C18.2709 0.650309 18.3497 0.588813 18.4419 0.55818C18.5031 0.537873 18.5681 0.532053 18.6319 0.54118H20.5229C20.7889 0.51518 21.0549 0.58118 21.2779 0.72818C21.4779 0.93818 21.6139 1.20118 21.6719 1.48518L24.9089 14.3082L27.9139 1.48518C27.9509 1.19918 28.0809 0.93218 28.2849 0.72818C28.5159 0.58018 28.7899 0.51518 29.0629 0.54118H30.6169C30.8899 0.51618 31.1629 0.58218 31.3949 0.72818C31.5949 0.93518 31.7249 1.20018 31.7649 1.48518L34.7949 14.4722L38.1349 1.48518C38.1929 1.20118 38.3299 0.93818 38.5299 0.72818C38.7529 0.58018 39.0189 0.51518 39.2839 0.54118H41.0829C41.1785 0.525879 41.2764 0.54543 41.3589 0.596271C41.4413 0.647113 41.5027 0.725863 41.5319 0.81818C41.5519 0.87918 41.5569 0.94418 41.5469 1.00818C41.5569 1.11218 41.5569 1.21818 41.5469 1.32218C41.5199 1.48218 41.4769 1.63818 41.4189 1.78918L36.7789 16.7792C36.7241 17.0711 36.5822 17.3395 36.3719 17.5492C36.1499 17.6892 35.8899 17.7542 35.6299 17.7362H33.9239C33.6481 17.7615 33.3724 17.687 33.1469 17.5262C32.9459 17.3102 32.8169 17.0372 32.7749 16.7452L29.7709 4.27018L26.8009 16.7432C26.7553 17.0336 26.6264 17.3045 26.4299 17.5232C26.2039 17.6852 25.9279 17.7592 25.6529 17.7332H23.9929L23.9939 17.7352ZM48.7759 18.2352C47.7759 18.2412 46.7789 18.1282 45.8059 17.8982C45.0296 17.7461 44.2793 17.483 43.5779 17.1172C43.3314 17.0018 43.1251 16.8151 42.9859 16.5812C42.9089 16.4088 42.8694 16.222 42.8699 16.0332V15.0532C42.8699 14.6452 43.0099 14.4472 43.3109 14.4472C43.4289 14.4512 43.5459 14.4702 43.6589 14.5062L44.1469 14.7162C44.8329 15.0142 45.5489 15.2402 46.2809 15.3922C47.0449 15.5522 47.8219 15.6302 48.6009 15.6252C49.5792 15.6835 50.5537 15.4611 51.4099 14.9842C51.7255 14.7973 51.9848 14.5285 52.1603 14.2064C52.3358 13.8843 52.421 13.5207 52.4069 13.1542C52.4148 12.9052 52.3727 12.6572 52.283 12.4248C52.1934 12.1924 52.058 11.9803 51.8849 11.8012C51.3006 11.314 50.6149 10.9635 49.8779 10.7752L47.0699 9.90118C45.8938 9.56694 44.849 8.8792 44.0769 7.93118C43.4569 7.12118 43.1189 6.13118 43.1139 5.11018C43.0991 4.36203 43.279 3.62287 43.6359 2.96518C43.9827 2.34107 44.457 1.79695 45.0279 1.36818C45.6159 0.918025 46.2807 0.578197 46.9899 0.36518C47.7783 0.138894 48.5947 0.0251035 49.4149 0.0271797C49.8496 0.0257993 50.2839 0.0531925 50.7149 0.10918C51.1549 0.10918 51.5729 0.23718 51.9679 0.33018C52.3619 0.42418 52.7219 0.52918 53.1279 0.63418C53.4029 0.72618 53.6699 0.83918 53.9279 0.97218C54.1499 1.09218 54.3469 1.25518 54.5079 1.45018C54.6229 1.64318 54.6789 1.86618 54.6709 2.09018V3.01218C54.6709 3.42018 54.5309 3.61818 54.2409 3.61818C53.9801 3.59296 53.7273 3.51361 53.4989 3.38518C52.3254 2.87242 51.0554 2.61801 49.7749 2.63918C48.8867 2.59244 48.0018 2.78114 47.2099 3.18618C46.9136 3.3613 46.672 3.61561 46.5123 3.92053C46.3526 4.22544 46.2811 4.56887 46.3059 4.91218C46.2995 5.16831 46.3467 5.42295 46.4445 5.65975C46.5423 5.89655 46.6886 6.11027 46.8739 6.28718C47.5039 6.78818 48.2309 7.15018 49.0089 7.34818L51.6769 8.18818C52.8402 8.49345 53.884 9.14361 54.6709 10.0532C55.2769 10.8552 55.5929 11.8432 55.5639 12.8502C55.5731 13.6139 55.405 14.3694 55.0729 15.0572C54.7408 15.745 54.2537 16.3464 53.6499 16.8142C53.0159 17.3116 52.2906 17.6799 51.5149 17.8982C50.6241 18.146 49.7013 18.26 48.7769 18.2362L48.7759 18.2352Z" fill="#252F3E"/>
<path fill-rule="evenodd" clip-rule="evenodd" d="M52.4188 27.7829C46.0728 32.4929 36.8598 34.9999 28.9938 34.9999C18.3718 35.0652 8.11204 31.1418 0.243779 24.0059C-0.348221 23.4579 0.243779 22.7239 0.893779 23.1439C9.62909 28.1686 19.5314 30.8098 29.6088 30.8029C37.1334 30.7647 44.5753 29.231 51.5018 26.2909C52.5698 25.8369 53.4748 27.0019 52.4188 27.7829Z" fill="#FF9900"/>
<path fill-rule="evenodd" clip-rule="evenodd" d="M55.0655 24.7517C54.2535 23.7147 49.6935 24.2616 47.6515 24.5076C47.0365 24.5776 46.9315 24.0296 47.4895 23.6446C51.1325 21.0796 57.0845 21.8146 57.7805 22.6766C58.4765 23.5396 57.5945 29.5436 54.1835 32.4106C53.6615 32.8426 53.1635 32.6086 53.3945 32.0266C54.1605 30.1026 55.8775 25.8017 55.0655 24.7517Z" fill="#FF9900"/>
</g>
<defs>
<clipPath id="clip0">
<rect width="58" height="35" fill="white"/>
</clipPath>
</defs>
</svg>