<svg width="107" height="30" viewBox="0 0 107 30" fill="none" xmlns="http://www.w3.org/2000/svg">
<g clip-path="url(#clip0)">
<path d="M18.317 28.3981C23.404 27.5181 27.606 26.7911 27.654 26.7811L27.742 26.7631L22.939 21.1751C20.298 18.1021 18.137 15.5751 18.137 15.5611C18.137 15.5331 23.096 2.17411 23.123 2.12711C23.133 2.11111 26.508 7.81011 31.304 15.9431L39.532 29.8931L39.594 30.0001L24.331 29.9981L9.068 29.9961L18.318 28.3981H18.317ZM76.849 27.0461C74.526 26.9011 73.174 25.6061 72.816 23.1841C72.721 22.5401 72.721 22.5241 72.711 18.3401L72.701 14.2911H74.758L74.766 18.2071C74.773 21.7371 74.778 22.1511 74.812 22.3991C74.952 23.4071 75.232 24.0841 75.706 24.5711C76.086 24.9601 76.53 25.1881 77.146 25.3091C77.436 25.3661 78.262 25.3661 78.526 25.3091C79.1179 25.1918 79.6622 24.9028 80.091 24.4781C80.594 23.9861 80.966 23.2881 81.146 22.5001L81.206 22.2341L81.213 18.2841L81.22 14.3351H83.32V26.7521H81.242V25.7671C81.242 25.0971 81.234 24.7851 81.219 24.7901C81.1713 24.8435 81.131 24.903 81.099 24.9671C80.7175 25.6292 80.1617 26.174 79.492 26.5421C78.708 26.9641 77.922 27.1141 76.849 27.0471V27.0461ZM100.431 27.0361C99.5864 26.9682 98.7687 26.7072 98.041 26.2731C96.554 25.3731 95.673 23.8891 95.416 21.8471C95.326 21.1411 95.316 20.1921 95.39 19.5911C95.556 18.2501 96.095 16.9331 96.863 15.9921C97.1348 15.6778 97.4326 15.3867 97.753 15.1221C98.4195 14.6019 99.1953 14.2395 100.022 14.0621C100.629 13.9519 101.247 13.9166 101.863 13.9571C103.148 14.0741 104.325 14.6661 105.126 15.5971C105.939 16.5441 106.386 17.8661 106.443 19.4941C106.452 19.7491 106.454 20.1971 106.448 20.4881L106.437 21.0181L101.936 21.0241L97.436 21.0301V21.2261C97.436 21.8241 97.585 22.5061 97.842 23.0861C98.063 23.5851 98.445 24.1311 98.757 24.3951C99.4017 24.9382 100.199 25.2677 101.039 25.3381C101.356 25.3681 102.167 25.3371 102.529 25.2821C103.543 25.1347 104.507 24.7458 105.34 24.1481C105.405 24.0995 105.471 24.0522 105.538 24.0061C105.561 23.9921 105.567 24.1711 105.566 24.9231V25.8571L105.353 25.9861C104.432 26.5374 103.404 26.8861 102.337 27.0091C102.012 27.0481 100.82 27.0651 100.431 27.0361ZM104.347 19.1541C104.347 18.1521 103.916 17.0401 103.305 16.4661C102.866 16.0562 102.311 15.793 101.716 15.7131C101.305 15.6713 100.891 15.6828 100.483 15.7471C99.823 15.8771 99.276 16.1621 98.8 16.6221C98.2974 17.1084 97.9159 17.7057 97.686 18.3661C97.5914 18.6459 97.5195 18.9328 97.471 19.2241L97.456 19.3291H104.347V19.1541ZM43.302 26.7241L46.698 17.9971L50.084 9.29811H52.261L52.351 9.52411C52.627 10.2161 59.131 26.7341 59.131 26.7421C59.131 26.7471 58.609 26.7521 57.973 26.7521H56.815L55.878 24.3111L54.94 21.8691H47.392L47.359 21.9521C47.0609 22.7652 46.7642 23.5789 46.469 24.3931L45.612 26.7511H44.452C43.534 26.7521 43.295 26.7461 43.302 26.7241ZM54.252 20.0061C54.252 20.0031 53.621 18.3301 52.85 16.2891C51.407 12.4711 51.327 12.2421 51.213 11.6291C51.16 11.3411 51.133 11.3331 51.101 11.5961C51.0556 11.8805 50.9898 12.1612 50.904 12.4361C50.866 12.5511 50.217 14.2941 49.461 16.3101C48.9986 17.5369 48.5403 18.7653 48.086 19.9951C48.086 20.0051 49.473 20.0131 51.169 20.0131C52.864 20.0131 54.252 20.0101 54.252 20.0061ZM59.83 26.4341V26.1161L63.59 21.0601L67.35 16.0031L63.946 15.9931L60.542 15.9811L60.536 15.1361L60.53 14.2911H70.378V14.8621L66.618 19.9461C64.549 22.7421 62.857 25.0351 62.857 25.0411C62.857 25.0461 64.529 25.0511 66.572 25.0511H70.288V26.7521H59.83V26.4341ZM87.423 26.7371C87.415 26.7291 87.408 23.9261 87.408 20.5071V14.2901H89.463V15.5721C89.463 16.2761 89.472 16.8531 89.483 16.8531C89.493 16.8531 89.543 16.7381 89.593 16.5971C89.8332 15.9374 90.2271 15.3444 90.742 14.8671C91.1891 14.4434 91.7557 14.1676 92.365 14.0771C92.542 14.0491 92.691 14.0441 93.043 14.0531C93.486 14.0641 93.717 14.0961 93.986 14.1831L94.071 14.2091V16.2971L93.828 16.1781C93.4065 15.9697 92.937 15.8775 92.468 15.9111C92.1899 15.9177 91.9148 15.9704 91.654 16.0671C91.109 16.2671 90.668 16.6191 90.359 17.1011C89.8991 17.8346 89.6056 18.66 89.499 19.5191C89.483 19.6671 89.473 20.8711 89.469 23.2451L89.463 26.7521H88.45C87.894 26.7521 87.431 26.7461 87.423 26.7371ZM0 26.6941C0 26.6861 2.263 22.8441 5.029 18.1541L10.057 9.62911L15.918 4.81911C19.141 2.17111 21.788 0.00311162 21.798 0.000111624C21.808 -0.00388838 21.766 0.100112 21.703 0.232112L15.34 13.5841L9.09 26.6971L4.545 26.7031C2.045 26.7061 0 26.7021 0 26.6931V26.6941Z" fill="#0089D6"/>
</g>
<defs>
<clipPath id="clip0">
<rect width="107" height="30" fill="white"/>
</clipPath>
</defs>
</svg>