<svg width="118" height="29" viewBox="0 0 118 29" fill="none" xmlns="http://www.w3.org/2000/svg">
<g clip-path="url(#clip0)">
<path fill-rule="evenodd" clip-rule="evenodd" d="M55.654 18.336C55.654 17.838 55.555 17.37 55.359 16.931C55.1668 16.4978 54.894 16.1052 54.555 15.774C54.2102 15.4384 53.8051 15.1711 53.361 14.986C52.8963 14.791 52.3969 14.6923 51.893 14.696C50.8974 14.6903 49.9394 15.0756 49.225 15.769C48.8876 16.0999 48.6168 16.4923 48.427 16.925C48.2305 17.369 48.1303 17.8495 48.133 18.335C48.133 18.833 48.231 19.303 48.427 19.745C48.8127 20.6252 49.5256 21.321 50.415 21.685C50.872 21.879 51.365 21.975 51.893 21.975C52.414 21.975 52.903 21.878 53.361 21.685C53.8051 21.4999 54.2102 21.2325 54.555 20.897C54.895 20.565 55.162 20.18 55.359 19.741C55.555 19.301 55.653 18.833 55.653 18.336H55.654ZM51.894 12.529C53.314 12.529 54.568 12.954 55.654 13.804V8.63C55.654 8.319 55.759 8.061 55.969 7.857C56.18 7.653 56.446 7.552 56.768 7.552C57.082 7.552 57.348 7.653 57.566 7.857C57.784 8.061 57.892 8.319 57.892 8.63V18.336C57.892 19.953 57.307 21.322 56.136 22.442C54.95 23.576 53.536 24.142 51.893 24.142C50.236 24.142 48.822 23.576 47.651 22.442C46.479 21.308 45.894 19.939 45.894 18.336C45.894 16.732 46.479 15.363 47.651 14.229C48.821 13.096 50.236 12.529 51.893 12.529H51.894ZM71.167 18.336C71.167 19.953 70.581 21.322 69.41 22.442C68.224 23.576 66.81 24.142 65.167 24.142C63.51 24.142 62.097 23.576 60.925 22.442C59.754 21.308 59.168 19.939 59.168 18.336C59.168 16.732 59.754 15.363 60.925 14.229C62.096 13.096 63.51 12.529 65.167 12.529C66.81 12.529 68.224 13.096 69.41 14.229C69.97 14.7593 70.4164 15.3979 70.722 16.106C71.012 16.791 71.16 17.534 71.167 18.336ZM65.167 14.696C64.1715 14.6904 63.2134 15.0756 62.499 15.769C62.162 16.1 61.8915 16.4924 61.702 16.925C61.5052 17.3689 61.4046 17.8494 61.407 18.335C61.407 18.833 61.505 19.303 61.702 19.745C62.0876 20.6249 62.8001 21.3206 63.689 21.685C64.146 21.879 64.639 21.975 65.167 21.975C65.689 21.975 66.177 21.878 66.635 21.685C67.0794 21.5 67.4849 21.2326 67.83 20.897C68.169 20.565 68.437 20.18 68.633 19.741C68.83 19.301 68.928 18.833 68.928 18.336C68.928 17.838 68.829 17.37 68.633 16.931C68.4411 16.4979 68.1686 16.1053 67.83 15.774C67.4849 15.4384 67.0794 15.171 66.635 14.986C66.1703 14.791 65.6709 14.6923 65.167 14.696ZM81.57 20.856C81.891 20.856 82.157 20.957 82.368 21.161C82.578 21.365 82.684 21.623 82.684 21.934C82.684 22.238 82.566 22.504 82.331 22.732C81.223 23.672 79.92 24.142 78.421 24.142C76.763 24.142 75.349 23.576 74.178 22.442C73.006 21.308 72.421 19.939 72.421 18.336C72.421 16.732 73.006 15.363 74.178 14.229C75.349 13.096 76.763 12.529 78.42 12.529C79.927 12.529 81.23 12.999 82.33 13.939C82.588 14.16 82.716 14.433 82.716 14.759C82.716 15.069 82.611 15.329 82.4 15.536C82.2949 15.639 82.17 15.7197 82.0328 15.7732C81.8957 15.8266 81.7491 15.8517 81.602 15.847C81.331 15.847 81.088 15.764 80.874 15.598C80.5305 15.313 80.1432 15.0854 79.727 14.924C79.3089 14.7688 78.8659 14.6915 78.42 14.696C77.899 14.696 77.41 14.791 76.952 14.981C76.495 15.171 76.095 15.431 75.752 15.759C75.4094 16.0876 75.1349 16.4804 74.944 16.915C74.7465 17.3622 74.646 17.8461 74.649 18.335C74.649 18.84 74.747 19.314 74.944 19.756C75.14 20.199 75.41 20.584 75.752 20.912C76.4713 21.5966 77.427 21.9773 78.42 21.975C78.891 21.975 79.327 21.901 79.727 21.752C80.127 21.604 80.506 21.381 80.863 21.084C81.063 20.938 81.298 20.862 81.57 20.855V20.856ZM83.98 23.054V8.64C83.98 8.336 84.09 8.079 84.308 7.868C84.525 7.657 84.791 7.552 85.106 7.552C85.413 7.552 85.676 7.657 85.893 7.868C86.111 8.078 86.22 8.336 86.22 8.64V16.728L92.626 12.695C92.805 12.585 93.005 12.529 93.226 12.529C93.383 12.529 93.53 12.556 93.666 12.612C93.801 12.667 93.919 12.745 94.019 12.845C94.119 12.945 94.199 13.061 94.26 13.193C94.32 13.323 94.351 13.463 94.351 13.607C94.351 13.994 94.208 14.281 93.923 14.467L89.433 17.288L94.041 22.308C94.248 22.528 94.351 22.781 94.351 23.064C94.351 23.209 94.321 23.348 94.261 23.479C94.2015 23.6081 94.1196 23.7256 94.019 23.826C93.919 23.926 93.801 24.004 93.666 24.059C93.5262 24.1152 93.3767 24.1434 93.226 24.142C92.926 24.142 92.676 24.049 92.476 23.862L87.526 18.481L86.22 19.311V23.054C86.22 23.351 86.11 23.607 85.893 23.821C85.675 24.035 85.413 24.142 85.106 24.142C84.791 24.142 84.526 24.035 84.308 23.822C84.2034 23.7235 84.1204 23.6044 84.0641 23.4722C84.0078 23.3401 83.9795 23.1977 83.981 23.054H83.98ZM105.172 17.257C105.053 16.8812 104.87 16.5287 104.631 16.215C104.396 15.904 104.114 15.6311 103.795 15.406C103.304 15.0599 102.739 14.8325 102.146 14.7417C101.552 14.651 100.945 14.6993 100.373 14.883C99.987 15.007 99.633 15.182 99.312 15.406C98.991 15.631 98.712 15.901 98.476 16.216C98.241 16.53 98.066 16.877 97.951 17.257H105.172ZM104.69 20.877C105.011 20.877 105.277 20.978 105.488 21.182C105.699 21.386 105.804 21.644 105.804 21.955C105.804 22.259 105.697 22.518 105.483 22.732C104.376 23.672 103.069 24.142 101.562 24.142C99.905 24.142 98.491 23.576 97.319 22.442C96.148 21.308 95.562 19.939 95.562 18.336C95.562 16.732 96.148 15.363 97.319 14.229C98.491 13.096 99.905 12.529 101.562 12.529C103.204 12.529 104.619 13.096 105.804 14.229C106.367 14.7562 106.815 15.3934 107.122 16.101C107.415 16.789 107.561 17.534 107.561 18.336C107.561 18.646 107.452 18.904 107.234 19.108C107.019 19.3113 106.732 19.4213 106.436 19.414H97.951C98.073 19.794 98.251 20.142 98.487 20.456C98.723 20.771 99 21.04 99.317 21.265C99.9743 21.7273 100.758 21.9753 101.562 21.975C102.033 21.975 102.465 21.906 102.858 21.768C103.256 21.6268 103.626 21.4162 103.951 21.146C104.16 20.9748 104.42 20.8796 104.69 20.876V20.877ZM111.033 13.607V13.815C111.56 13.405 112.149 13.0828 112.779 12.861C113.427 12.6366 114.108 12.5243 114.793 12.529C115.107 12.529 115.445 12.549 115.806 12.591C116.166 12.633 116.498 12.707 116.802 12.814C117.105 12.921 117.357 13.068 117.557 13.254C117.757 13.441 117.857 13.684 117.857 13.98C117.857 14.133 117.827 14.274 117.766 14.406C117.707 14.5349 117.625 14.6524 117.525 14.753C117.425 14.853 117.307 14.931 117.171 14.986C117.032 15.0421 116.882 15.0703 116.732 15.069C116.597 15.069 116.439 15.031 116.261 14.955C115.792 14.7788 115.294 14.691 114.793 14.696C114.29 14.6926 113.791 14.7894 113.325 14.981C112.868 15.171 112.47 15.431 112.131 15.759C111.791 16.0888 111.518 16.4814 111.327 16.915C111.13 17.3623 111.03 17.8462 111.033 18.335V23.065C111.033 23.361 110.924 23.615 110.706 23.826C110.603 23.9286 110.48 24.0094 110.344 24.0637C110.209 24.118 110.065 24.1446 109.919 24.142C109.604 24.142 109.338 24.037 109.12 23.826C109.016 23.7287 108.933 23.6106 108.877 23.4794C108.82 23.3482 108.792 23.2067 108.794 23.064V13.607C108.794 13.31 108.903 13.056 109.12 12.845C109.338 12.635 109.604 12.529 109.919 12.529C110.226 12.529 110.488 12.634 110.706 12.845C110.924 13.055 111.033 13.31 111.033 13.607ZM40.662 11.066C39.727 10.438 37.584 10.203 35.909 10.516C35.714 8.947 34.819 7.574 33.26 6.357L32.364 5.729L31.741 6.632C30.961 7.809 30.572 9.457 30.689 11.027C30.729 11.577 30.923 12.557 31.507 13.421C30.962 13.735 29.832 14.127 28.352 14.127H0.187009L0.109009 14.441C-0.162991 16.011 -0.162991 20.916 3.03101 24.683C5.44601 27.548 9.03101 29 13.744 29C23.95 29 31.507 24.252 35.052 15.658C36.455 15.697 39.454 15.658 40.973 12.714C41.013 12.636 41.09 12.479 41.363 11.89L41.519 11.576L40.662 11.066ZM22.703 0H18.418V3.924H22.703V0ZM22.703 4.71H18.418V8.633H22.703V4.71ZM17.639 4.71H13.354V8.633H17.639V4.71ZM12.575 4.71H8.29001V8.633H12.575V4.71ZM7.51101 9.417H3.22601V13.341H7.51001V9.418L7.51101 9.417ZM12.575 9.417H8.29001V13.341H12.575V9.418V9.417ZM17.639 9.417H13.354V13.341H17.639V9.418V9.417ZM22.703 9.417H18.418V13.341H22.703V9.418V9.417ZM27.767 9.417H23.482V13.341H27.767V9.418V9.417Z" fill="#2496ED"/>
</g>
<defs>
<clipPath id="clip0">
<rect width="118" height="29" fill="white"/>
</clipPath>
</defs>
</svg>