<svg width="175" height="34" viewBox="0 0 175 34" fill="none" xmlns="http://www.w3.org/2000/svg">
<path d="M104.405 13.7577C104.405 7.2807 109.02 2.3857 115.065 2.3857C116.497 2.35656 117.916 2.66056 119.21 3.2737C120.527 3.89869 121.686 4.81071 122.603 5.9427L120.769 7.8187C119.347 5.9337 117.414 5.0487 115.065 5.0487C110.738 5.0487 107.104 8.3927 107.104 13.7487C107.104 19.1037 110.746 22.4467 115.065 22.4467C116.275 22.4345 117.467 22.145 118.547 21.6007C119.647 21.0455 120.611 20.2544 121.369 19.2837L123.203 21.2327C122.213 22.4592 120.962 23.4498 119.541 24.1327C118.144 24.8031 116.612 25.1419 115.062 25.1227C109.017 25.1227 104.402 20.2277 104.402 13.7517L104.405 13.7577ZM125.276 24.6577H127.912V2.8717H125.276V24.6557V24.6577ZM141.697 17.2057C141.697 13.7997 139.462 11.8237 137.11 11.8237C134.759 11.8237 132.524 13.7997 132.524 17.2057C132.524 20.6127 134.759 22.5887 137.11 22.5887C139.462 22.5887 141.697 20.6127 141.697 17.2057ZM144.333 17.2057C144.333 21.7377 141.324 25.1437 137.11 25.1437C132.896 25.1437 129.888 21.7377 129.888 17.2057C129.888 12.6757 132.896 9.2677 137.11 9.2677C141.324 9.2677 144.327 12.6657 144.327 17.1937L144.333 17.2057ZM156.247 24.6567V22.5767H156.133C155.657 23.3468 154.998 23.9874 154.215 24.4417C153.448 24.8855 152.578 25.1232 151.691 25.1317C148.077 25.1317 146.317 22.5517 146.317 18.8687V9.7467H148.956V18.4117C148.956 21.5117 150.418 22.5767 152.422 22.5767C154.714 22.5767 156.119 20.2337 156.119 17.9547V9.7467H158.755V24.6567H156.232H156.247ZM172.454 17.2067C172.454 13.7997 170.333 11.8237 167.981 11.8237C165.63 11.8237 163.512 13.8597 163.512 17.2057C163.512 20.5527 165.633 22.5887 167.981 22.5887C170.33 22.5887 172.477 20.6007 172.477 17.1937L172.454 17.2057V17.2067ZM160.899 17.1937C160.899 12.6337 164.026 9.2557 167.575 9.2557C169.81 9.2557 171.556 10.4437 172.363 11.8117H172.477L172.363 9.7437V2.8727H174.999V24.6567H172.477V22.5767H172.363C171.561 23.9447 169.804 25.1317 167.575 25.1317C164.023 25.1317 160.899 21.7557 160.899 17.1937Z" fill="#757575"/>
<path d="M42.1303 17.2615C42.1303 21.9336 38.4942 25.3765 34.0319 25.3765C29.5697 25.3765 25.9336 21.9336 25.9336 17.2615C25.9336 12.5564 29.5697 9.14648 34.0319 9.14648C38.4942 9.14648 42.1303 12.5564 42.1303 17.2615ZM38.5852 17.2615C38.5852 14.3418 36.4778 12.3442 34.0319 12.3442C31.5861 12.3442 29.4787 14.3418 29.4787 17.2615C29.4787 20.1518 31.5861 22.1788 34.0319 22.1788C36.4778 22.1788 38.5852 20.1482 38.5852 17.2615Z" fill="#EA4335"/>
<path d="M59.599 17.2615C59.599 21.9336 55.963 25.3765 51.5007 25.3765C47.0384 25.3765 43.4023 21.9336 43.4023 17.2615C43.4023 12.56 47.0384 9.14648 51.5007 9.14648C55.963 9.14648 59.599 12.5564 59.599 17.2615ZM56.054 17.2615C56.054 14.3418 53.9466 12.3442 51.5007 12.3442C49.0548 12.3442 46.9474 14.3418 46.9474 17.2615C46.9474 20.1518 49.0548 22.1788 51.5007 22.1788C53.9466 22.1788 56.054 20.1482 56.054 17.2615Z" fill="#FBBC05"/>
<path d="M76.3432 9.63675V24.2057C76.3432 30.1986 72.8273 32.6463 68.6707 32.6463C64.758 32.6463 62.4031 30.0157 61.5151 27.8644L64.6015 26.5729C65.1511 27.8936 66.4978 29.4522 68.6671 29.4522C71.3277 29.4522 72.9765 27.8022 72.9765 24.6959V23.5288H72.8527C72.0593 24.513 70.5306 25.3728 68.6016 25.3728C64.5651 25.3728 60.8672 21.8385 60.8672 17.2907C60.8672 12.7101 64.5651 9.14648 68.6016 9.14648C70.527 9.14648 72.0557 10.0063 72.8527 10.9612H72.9765V9.64041H76.3432V9.63675ZM73.2276 17.2907C73.2276 14.4333 71.3314 12.3442 68.9182 12.3442C66.4723 12.3442 64.4232 14.4333 64.4232 17.2907C64.4232 20.1189 66.4723 22.1788 68.9182 22.1788C71.3314 22.1788 73.2276 20.1189 73.2276 17.2907Z" fill="#4285F4"/>
<path d="M81.8952 1.09766V24.8792H78.4375V1.09766H81.8952Z" fill="#34A853"/>
<path d="M95.3684 19.9311L98.12 21.7751C97.2319 23.0959 95.0918 25.3716 91.3938 25.3716C86.8078 25.3716 83.3828 21.808 83.3828 17.2566C83.3828 12.4308 86.8369 9.1416 90.9971 9.1416C95.1864 9.1416 97.2355 12.493 97.9052 14.304L98.2729 15.226L87.4811 19.7189C88.3073 21.347 89.5922 22.1775 91.3938 22.1775C93.1991 22.1775 94.4512 21.2848 95.3684 19.9311ZM86.8988 17.0115L94.1127 14.0003C93.7159 12.9869 92.5221 12.2808 91.1172 12.2808C89.3155 12.2808 86.8078 13.8796 86.8988 17.0115Z" fill="#EA4335"/>
<path d="M12.8463 15.1506V11.7077H24.3878C24.5006 12.3078 24.5589 13.0176 24.5589 13.7859C24.5589 16.3689 23.8564 19.563 21.5925 21.8387C19.3905 24.1436 16.577 25.373 12.8499 25.373C5.94178 25.373 0.132812 19.7166 0.132812 12.7724C0.132812 5.82822 5.94178 0.171875 12.8499 0.171875C16.6716 0.171875 19.3941 1.67926 21.4396 3.64398L19.0229 6.07335C17.5561 4.69036 15.5688 3.61471 12.8463 3.61471C7.80167 3.61471 3.85623 7.70147 3.85623 12.7724C3.85623 17.8434 7.80167 21.9301 12.8463 21.9301C16.1184 21.9301 17.9819 20.6093 19.1758 19.4093C20.1439 18.4361 20.7809 17.0458 21.032 15.1469L12.8463 15.1506Z" fill="#4285F4"/>
</svg>