<svg width="170" height="29" viewBox="0 0 170 29" fill="none" xmlns="http://www.w3.org/2000/svg">
<path fill-rule="evenodd" clip-rule="evenodd" d="M26.011 5.18C26.521 5.455 26.928 5.9 27.098 6.45L29.678 17.668C29.7511 18.2485 29.606 18.8354 29.271 19.315L22.106 28.269C21.732 28.784 21.156 29.059 20.544 28.989H9.13398C8.54369 28.9446 7.98916 28.689 7.57199 28.269L0.406985 19.315C0.238329 19.0791 0.118387 18.8119 0.0541713 18.5292C-0.0100448 18.2464 -0.0172472 17.9536 0.0329851 17.668L2.57998 6.381C2.64101 6.10532 2.76466 5.84738 2.94136 5.62715C3.11806 5.40692 3.34308 5.23031 3.59898 5.111L13.956 0.07C14.228 0 14.533 0 14.805 0C15.077 0 15.382 0.034 15.654 0.172L26.01 5.18H26.011ZM25.434 17.188C25.434 17.222 25.468 17.222 25.502 17.222C25.6666 17.2625 25.8143 17.3539 25.924 17.4832C26.0337 17.6124 26.0998 17.773 26.113 17.942C26.061 18.0812 25.9684 18.2015 25.8471 18.2873C25.7258 18.373 25.5815 18.4203 25.433 18.423C25.366 18.423 25.332 18.423 25.264 18.389C25.23 18.354 25.23 18.354 25.196 18.354C25.1645 18.3536 25.1335 18.3464 25.105 18.333C25.088 18.326 25.075 18.32 25.06 18.32C24.96 18.295 24.878 18.25 24.786 18.201L24.686 18.148C24.6141 18.1409 24.5447 18.1177 24.483 18.08H24.449C24.0979 17.941 23.7337 17.8375 23.362 17.771H23.328C23.2276 17.7685 23.1303 17.8055 23.057 17.874C23.057 17.874 23.057 17.908 23.023 17.908L22.751 17.874C22.14 19.83 20.816 21.476 19.084 22.54L19.186 22.814C19.186 22.814 19.152 22.814 19.152 22.849C19.1218 22.9003 19.1031 22.9575 19.0972 23.0168C19.0913 23.076 19.0984 23.1358 19.118 23.192C19.254 23.535 19.423 23.878 19.661 24.187V24.255C19.729 24.324 19.763 24.358 19.797 24.427C19.899 24.53 19.967 24.633 20.035 24.77C20.069 24.804 20.102 24.838 20.102 24.873C20.102 24.873 20.136 24.873 20.136 24.907C20.1978 25.0716 20.2096 25.2507 20.17 25.422C20.1498 25.5033 20.112 25.5792 20.0593 25.6444C20.0066 25.7095 19.9403 25.7623 19.865 25.799C19.8449 25.8058 19.8249 25.8128 19.805 25.82C19.738 25.8492 19.666 25.8655 19.593 25.868C19.321 25.868 19.083 25.696 18.948 25.456C18.914 25.456 18.914 25.422 18.914 25.422C18.897 25.404 18.888 25.387 18.88 25.37C18.871 25.353 18.863 25.336 18.846 25.319C18.778 25.216 18.744 25.079 18.71 24.941L18.642 24.735V24.701C18.54 24.324 18.371 23.981 18.201 23.638C18.1356 23.5411 18.04 23.4687 17.929 23.432C17.929 23.415 17.929 23.406 17.925 23.402C17.921 23.397 17.912 23.397 17.895 23.397L17.759 23.157L17.494 23.241C17.2254 23.3334 16.9512 23.4085 16.673 23.466C16.0756 23.63 15.4584 23.7108 14.839 23.706C13.828 23.7132 12.8249 23.5268 11.884 23.157L11.749 23.432C11.749 23.449 11.749 23.458 11.744 23.462C11.74 23.466 11.732 23.466 11.714 23.466C11.6038 23.5031 11.5089 23.5755 11.444 23.672C11.274 24.015 11.104 24.358 11.002 24.735L10.934 24.941C10.9165 25.0058 10.8938 25.069 10.866 25.13C10.84 25.19 10.815 25.25 10.798 25.319C10.764 25.353 10.73 25.387 10.73 25.422C10.696 25.422 10.696 25.456 10.696 25.456C10.56 25.696 10.323 25.868 10.051 25.868C9.96784 25.8611 9.88692 25.8377 9.81298 25.799C9.6593 25.7073 9.54589 25.561 9.49546 25.3893C9.44502 25.2176 9.46128 25.0332 9.54099 24.873C9.57499 24.873 9.57498 24.838 9.57498 24.838C9.59198 24.821 9.60098 24.804 9.60898 24.787C9.61722 24.7678 9.62872 24.7502 9.64298 24.735C9.68798 24.675 9.72598 24.615 9.76098 24.561C9.80498 24.491 9.84298 24.431 9.88098 24.392C9.94898 24.324 9.98298 24.29 10.017 24.221V24.187C10.221 23.877 10.424 23.535 10.56 23.192C10.5796 23.1358 10.5867 23.076 10.5808 23.0168C10.5749 22.9575 10.5562 22.9003 10.526 22.849C10.526 22.849 10.492 22.849 10.492 22.814L10.662 22.574C10.322 22.403 10.051 22.197 9.74498 21.957C8.43443 20.9294 7.4642 19.5305 6.96099 17.943L6.65499 17.977C6.65499 17.977 6.65498 17.943 6.62099 17.943C6.54733 17.8743 6.44965 17.8373 6.34899 17.84H6.31499C5.93259 17.9063 5.55751 18.0094 5.19499 18.148H5.15999C5.09199 18.148 5.02398 18.183 4.95599 18.218C4.91798 18.23 4.87599 18.248 4.82999 18.266C4.74948 18.3011 4.66661 18.3305 4.58198 18.354C4.57198 18.354 4.55599 18.351 4.53799 18.348C4.49599 18.34 4.44699 18.33 4.44699 18.354C4.44699 18.389 4.44699 18.389 4.41299 18.389C4.34499 18.423 4.31099 18.423 4.24299 18.423C4.09069 18.4391 3.93773 18.3993 3.81262 18.311C3.68751 18.2227 3.59878 18.0919 3.56298 17.943C3.54555 17.8553 3.54587 17.765 3.56393 17.6774C3.58199 17.5898 3.61743 17.5068 3.66814 17.4331C3.71886 17.3595 3.78382 17.2967 3.8592 17.2486C3.93457 17.2005 4.01883 17.168 4.10699 17.153C4.14099 17.119 4.14099 17.119 4.17499 17.119C4.21499 17.119 4.24299 17.108 4.26599 17.098C4.28299 17.091 4.29599 17.085 4.31099 17.085C4.37898 17.085 4.44699 17.076 4.51499 17.068C4.58198 17.059 4.64999 17.051 4.71799 17.051C4.78598 17.016 4.85399 17.016 4.92199 17.016C5.31257 16.9841 5.69927 16.9154 6.07699 16.811C6.17899 16.741 6.27999 16.673 6.31399 16.571C6.31399 16.571 6.34799 16.571 6.34799 16.536L6.61999 16.467C6.31398 14.512 6.75599 12.522 7.80899 10.841C7.82375 10.8113 7.84045 10.7825 7.85899 10.755C7.87787 10.7275 7.89491 10.6988 7.90999 10.669L7.71299 10.47C7.72898 10.372 7.66699 10.252 7.60499 10.19C7.33299 9.915 6.99399 9.709 6.65399 9.503L6.45099 9.4C6.32279 9.33857 6.19825 9.26979 6.07799 9.194C6.04399 9.194 5.97599 9.126 5.97599 9.126C5.97599 9.126 5.97599 9.091 5.94199 9.091C5.80812 8.97378 5.72077 8.81241 5.69581 8.63624C5.67086 8.46007 5.70995 8.28079 5.80599 8.131C5.90799 7.959 6.07799 7.891 6.28099 7.891C6.45099 7.891 6.62099 7.959 6.75699 8.062L6.79099 8.096C6.80799 8.114 6.82499 8.122 6.84099 8.131C6.86018 8.1392 6.87778 8.15071 6.89299 8.165C6.94299 8.217 6.98598 8.268 7.02899 8.319C7.07098 8.371 7.11299 8.422 7.16399 8.474C7.17399 8.484 7.18799 8.494 7.20299 8.506C7.23599 8.532 7.27599 8.563 7.29999 8.611C7.53799 8.886 7.84298 9.16 8.14998 9.401C8.21167 9.43866 8.28106 9.4619 8.35298 9.469C8.38455 9.46828 8.41558 9.46078 8.44398 9.447C8.45799 9.43975 8.47328 9.43534 8.48899 9.434H8.52298L8.72598 9.572C9.84698 8.371 11.307 7.513 12.903 7.17L13.078 7.14C13.418 7.082 13.738 7.028 14.058 6.999L14.092 6.724V6.656C14.194 6.587 14.228 6.484 14.262 6.381C14.262 5.969 14.262 5.592 14.194 5.215V5.18C14.194 5.112 14.194 5.043 14.16 4.975C14.126 4.837 14.092 4.7 14.092 4.563V4.39C14.0927 4.3005 14.1111 4.21203 14.1461 4.12966C14.1811 4.0473 14.2321 3.97265 14.296 3.91C14.466 3.738 14.669 3.636 14.873 3.67C15.213 3.704 15.484 4.047 15.45 4.39V4.596C15.433 4.665 15.425 4.733 15.416 4.802C15.4088 4.87129 15.3975 4.94008 15.382 5.008C15.382 5.042 15.374 5.076 15.365 5.111C15.3552 5.14452 15.3495 5.17911 15.348 5.214V5.248C15.28 5.66 15.28 6.038 15.28 6.414C15.314 6.517 15.348 6.62 15.45 6.689V6.655L15.484 6.929C17.08 7.101 18.642 7.719 19.899 8.713C20.035 8.85 20.179 8.987 20.323 9.125C20.468 9.262 20.612 9.399 20.748 9.536L21.019 9.365H21.053C21.087 9.399 21.155 9.399 21.189 9.399C21.257 9.399 21.325 9.365 21.393 9.331C21.7069 9.11638 21.9922 8.86268 22.242 8.576C22.252 8.566 22.265 8.555 22.28 8.544C22.3204 8.5171 22.3539 8.48114 22.378 8.439C22.446 8.336 22.548 8.233 22.649 8.129C22.683 8.129 22.717 8.095 22.751 8.061L22.785 8.027C22.9211 7.92011 23.088 7.85981 23.261 7.855C23.431 7.855 23.634 7.958 23.736 8.095C23.974 8.405 23.906 8.816 23.6 9.056C23.6 9.069 23.605 9.077 23.61 9.084C23.616 9.095 23.621 9.104 23.6 9.124C23.583 9.142 23.566 9.15 23.55 9.159C23.532 9.168 23.515 9.176 23.498 9.193C23.43 9.228 23.371 9.262 23.311 9.296C23.252 9.331 23.193 9.365 23.125 9.399L22.921 9.502C22.581 9.708 22.276 9.914 21.971 10.188C21.902 10.257 21.868 10.394 21.868 10.497V10.531L21.665 10.737C22.208 11.595 22.615 12.555 22.853 13.55C23.057 14.545 23.125 15.574 22.989 16.57L23.261 16.638C23.2813 16.6925 23.313 16.742 23.3538 16.7834C23.3946 16.8247 23.4438 16.857 23.498 16.878C23.8763 16.9799 24.2628 17.0488 24.653 17.084H24.687C24.7512 17.1119 24.8212 17.1236 24.891 17.118C25.026 17.118 25.162 17.118 25.298 17.153C25.366 17.153 25.434 17.153 25.434 17.187V17.188ZM15.688 16.158L14.771 16.605L13.854 16.159L13.616 15.164L14.262 14.34H15.28L15.926 15.164L15.688 16.159V16.158ZM21.223 13.928C21.393 14.649 21.427 15.37 21.359 16.09L18.133 15.164C17.827 15.095 17.657 14.786 17.725 14.478C17.7494 14.3878 17.7961 14.3053 17.861 14.238L20.408 11.905C20.782 12.522 21.053 13.208 21.223 13.929V13.928ZM19.389 10.635L16.605 12.625C16.367 12.762 16.027 12.728 15.858 12.488C15.8247 12.4577 15.7984 12.4205 15.7808 12.3791C15.7632 12.3377 15.7547 12.293 15.756 12.248L15.552 8.783C17.0058 8.94123 18.3607 9.59522 19.389 10.635ZM13.243 8.885L13.922 8.748L13.752 12.179C13.752 12.488 13.481 12.728 13.175 12.728C13.095 12.728 13.035 12.707 12.963 12.681L12.903 12.659L10.085 10.635C10.968 9.778 12.055 9.16 13.243 8.885ZM9.09999 11.906L11.613 14.17C11.6698 14.217 11.7167 14.2748 11.751 14.34C11.7852 14.4053 11.8061 14.4768 11.8125 14.5502C11.8188 14.6237 11.8104 14.6977 11.7879 14.7678C11.7653 14.838 11.729 14.903 11.681 14.959C11.613 15.062 11.545 15.096 11.409 15.13L8.11498 16.091C8.01458 14.6287 8.35788 13.17 9.09999 11.906ZM8.52298 17.704L11.884 17.12C12.156 17.12 12.428 17.292 12.462 17.566C12.4816 17.6222 12.4887 17.682 12.4828 17.7412C12.4769 17.8005 12.4582 17.8577 12.428 17.909L11.138 21.066C9.92556 20.2573 9.00802 19.0773 8.52298 17.703V17.704ZM16.231 21.958C15.756 22.06 15.281 22.129 14.771 22.129C14.058 22.129 13.311 21.992 12.631 21.786L14.296 18.733C14.466 18.527 14.737 18.458 14.975 18.596C15.077 18.664 15.145 18.733 15.246 18.836L16.876 21.82C16.6584 21.853 16.443 21.8991 16.231 21.958ZM20.374 18.973C19.8579 19.8031 19.1617 20.5064 18.337 21.031L17.012 17.806C16.9784 17.6788 16.9907 17.5439 17.0466 17.4249C17.1026 17.3058 17.1987 17.2103 17.318 17.155C17.4153 17.1159 17.5183 17.0926 17.623 17.086L21.019 17.669C20.849 18.149 20.646 18.596 20.374 18.973Z" fill="#336EE5"/>
<path d="M164.525 21.4417C165 21.4757 165.51 21.4077 165.951 21.2357C166.087 21.1651 166.199 21.0554 166.271 20.9208C166.344 20.7863 166.375 20.633 166.359 20.4807C166.325 20.1377 166.121 19.8297 165.815 19.7267C165.295 19.4062 164.736 19.1525 164.151 18.9717C163.617 18.7764 163.095 18.5472 162.589 18.2857C162.148 18.0797 161.774 17.8057 161.401 17.4617C161.072 17.1311 160.817 16.7335 160.654 16.2957C160.45 15.7807 160.382 15.2317 160.382 14.6837C160.365 14.1252 160.479 13.5705 160.715 13.0639C160.951 12.5574 161.302 12.1131 161.74 11.7667C162.657 11.0467 163.88 10.7037 165.442 10.7037C166.189 10.7037 166.97 10.7727 167.717 10.9437C168.294 11.0467 168.872 11.1837 169.449 11.3897L168.804 14.3057C168.328 14.1347 167.887 14.0317 167.411 13.8937C166.868 13.7567 166.291 13.7227 165.748 13.7227C164.593 13.7227 164.016 14.0317 164.016 14.6827C164.016 14.8207 164.05 14.9577 164.084 15.0947C164.151 15.2317 164.253 15.3347 164.389 15.4377C164.525 15.5407 164.729 15.6437 164.966 15.7807C165.204 15.9187 165.544 16.0557 165.951 16.1927C166.63 16.4327 167.31 16.7417 167.921 17.0847C168.396 17.3247 168.804 17.6337 169.143 18.0447C169.449 18.3547 169.653 18.7317 169.789 19.1777C169.924 19.6577 169.992 20.1377 169.992 20.6177C170.029 21.1944 169.913 21.7703 169.657 22.2882C169.4 22.806 169.013 23.2476 168.532 23.5687C167.581 24.2207 166.223 24.5637 164.457 24.5637C163.486 24.5988 162.514 24.4948 161.571 24.2547C161.027 24.1177 160.518 23.9457 160.009 23.7747L160.62 20.7547C161.231 20.9957 161.876 21.2017 162.521 21.3387C163.201 21.3727 163.846 21.4417 164.525 21.4417ZM145.814 17.6677C145.78 16.6387 145.984 15.6097 146.323 14.6487C146.629 13.8257 147.104 13.1047 147.716 12.4537C148.293 11.8697 148.938 11.4237 149.685 11.1497C150.418 10.8505 151.203 10.699 151.994 10.7037C153.828 10.7037 155.288 11.2867 156.341 12.4187C157.394 13.5507 157.937 15.2317 157.937 17.4287C157.937 17.6337 157.937 17.8737 157.903 18.1487C157.903 18.4227 157.869 18.6287 157.869 18.8347H149.583C149.651 19.5547 150.025 20.2407 150.636 20.6527C151.383 21.1327 152.266 21.3727 153.149 21.3387C153.794 21.3387 154.473 21.2697 155.119 21.1677C155.671 21.0637 156.207 20.8907 156.715 20.6527L157.224 23.6717C156.986 23.8087 156.715 23.8777 156.443 23.9807C156.069 24.0837 155.696 24.1867 155.322 24.2207C154.893 24.2947 154.463 24.3634 154.032 24.4267C153.59 24.4607 153.115 24.4947 152.64 24.4947C151.597 24.5309 150.558 24.3561 149.583 23.9807C148.777 23.6719 148.047 23.1919 147.444 22.5737C146.867 21.9567 146.459 21.2017 146.188 20.4127C145.95 19.4857 145.814 18.5597 145.814 17.6677ZM154.405 16.2617C154.405 15.9517 154.338 15.6437 154.236 15.3347C154.168 15.0267 153.998 14.7857 153.828 14.5457C153.632 14.3059 153.39 14.1076 153.115 13.9627C152.789 13.7987 152.428 13.7164 152.062 13.7227C151.689 13.7227 151.349 13.7907 151.01 13.9627C150.738 14.0997 150.466 14.2717 150.263 14.5117C150.059 14.7517 149.889 15.0267 149.787 15.3347C149.685 15.6447 149.617 15.9527 149.583 16.2617H154.405ZM135.864 7.75273L139.532 7.16973V11.0127H143.946V14.0997H139.532V18.6967C139.493 19.3403 139.634 19.982 139.939 20.5497C140.211 20.9957 140.754 21.2357 141.603 21.2357C142.011 21.2357 142.418 21.2017 142.792 21.1327C143.186 21.0665 143.572 20.9634 143.946 20.8247L144.456 23.7057C143.98 23.9117 143.471 24.0487 142.962 24.1857C142.303 24.3238 141.632 24.3928 140.958 24.3917C140.113 24.4286 139.268 24.2887 138.479 23.9807C137.874 23.7362 137.338 23.3476 136.917 22.8487C136.509 22.3337 136.238 21.7157 136.068 21.0647C135.9 20.3107 135.831 19.5377 135.864 18.7657V7.75273ZM121.024 17.6677C120.991 16.6387 121.194 15.6097 121.534 14.6487C121.839 13.8257 122.315 13.1047 122.926 12.4537C123.503 11.8697 124.149 11.4237 124.896 11.1497C125.629 10.8505 126.414 10.699 127.205 10.7037C129.039 10.7037 130.499 11.2867 131.552 12.4187C132.604 13.5507 133.148 15.2317 133.148 17.4287C133.148 17.6337 133.148 17.8737 133.114 18.1487C133.08 18.4227 133.08 18.6287 133.08 18.8347H124.76C124.828 19.5547 125.201 20.2407 125.813 20.6527C126.56 21.1327 127.443 21.3727 128.325 21.3387C128.971 21.3387 129.65 21.2697 130.295 21.1677C130.857 21.059 131.404 20.8862 131.925 20.6527L132.434 23.6717C132.197 23.8087 131.925 23.8777 131.653 23.9807C131.28 24.0837 130.906 24.1867 130.533 24.2207C130.125 24.2897 129.718 24.3577 129.242 24.4267C128.78 24.4674 128.315 24.4901 127.85 24.4947C126.808 24.5309 125.768 24.3561 124.794 23.9807C123.988 23.6717 123.258 23.1917 122.654 22.5737C122.077 21.9567 121.67 21.2017 121.398 20.4127C121.126 19.4857 120.991 18.5597 121.024 17.6677ZM129.616 16.2617C129.616 15.9517 129.548 15.6437 129.446 15.3347C129.378 15.0267 129.208 14.7857 129.039 14.5457C128.843 14.3058 128.6 14.1076 128.325 13.9627C127.999 13.7987 127.638 13.7164 127.273 13.7227C126.899 13.7227 126.56 13.7907 126.22 13.9627C125.948 14.0951 125.705 14.2819 125.507 14.5117C125.303 14.7517 125.133 15.0267 125.032 15.3347C124.93 15.6447 124.862 15.9527 124.828 16.2617H129.616ZM107.102 11.4587C107.898 11.2509 108.702 11.079 109.513 10.9437C110.535 10.7786 111.569 10.6983 112.603 10.7037C113.52 10.6687 114.437 10.8407 115.319 11.1497C115.997 11.3818 116.596 11.7972 117.051 12.3497C117.493 12.8997 117.798 13.5507 117.968 14.2377C118.172 15.0267 118.24 15.8497 118.24 16.6727V24.0487H114.606V17.1537C114.606 15.9527 114.437 15.1297 114.131 14.6137C113.825 14.1337 113.248 13.8597 112.399 13.8597C112.127 13.8597 111.856 13.8597 111.55 13.8937C111.244 13.8937 111.007 13.9287 110.769 13.9627V24.0487H107.102V11.4597V11.4587ZM104.521 14.3057C104.181 14.2377 103.808 14.1347 103.366 14.0657C102.897 13.9692 102.419 13.9232 101.94 13.9287C101.668 13.9287 101.397 13.9627 101.091 13.9967C100.851 14.0262 100.613 14.0723 100.378 14.1347V24.1177H96.7105V11.6977C97.4649 11.4289 98.2367 11.2114 99.0205 11.0467C100.004 10.8067 101.023 10.7037 102.008 10.7377C102.246 10.7377 102.483 10.7727 102.721 10.7727C102.993 10.7727 103.264 10.8067 103.57 10.8747C103.842 10.9097 104.113 10.9437 104.419 11.0127C104.657 11.0467 104.894 11.1157 105.132 11.2187L104.521 14.3057ZM81.7355 17.6677C81.7015 16.6387 81.9055 15.6097 82.2455 14.6487C82.5505 13.8257 83.0255 13.1047 83.6365 12.4537C84.2145 11.8697 84.8595 11.4237 85.6065 11.1497C86.3396 10.8504 87.1246 10.6989 87.9165 10.7037C89.7495 10.7037 91.2095 11.2867 92.2625 12.4187C93.3155 13.5507 93.8585 15.2317 93.8585 17.3937C93.8585 17.5997 93.8585 17.8397 93.8245 18.1137C93.7905 18.3887 93.7905 18.5937 93.7905 18.7997H85.4705C85.5385 19.5197 85.9125 20.2067 86.5235 20.6187C87.2705 21.0987 88.1535 21.3387 89.0365 21.3047C89.6815 21.3047 90.3605 21.2357 91.0065 21.1327C91.5525 21.025 92.0867 20.8642 92.6015 20.6527L93.1115 23.6717C92.8735 23.8087 92.6015 23.8777 92.3305 23.9807C91.9565 24.0837 91.5835 24.1867 91.2105 24.2207C90.8025 24.2897 90.3945 24.3577 89.9195 24.4267C89.4562 24.4674 88.9915 24.4901 88.5265 24.4947C87.4836 24.5308 86.4442 24.356 85.4705 23.9807C84.6638 23.6719 83.9337 23.1919 83.3305 22.5737C82.7545 21.9567 82.3465 21.2017 82.0745 20.4127C81.8715 19.4857 81.7345 18.5937 81.7345 17.6677H81.7355ZM90.3605 16.2617C90.3605 15.9517 90.2925 15.6437 90.1905 15.3347C90.1225 15.0267 89.9535 14.7857 89.7835 14.5457C89.587 14.3059 89.3446 14.1076 89.0705 13.9627C88.7305 13.7917 88.3905 13.7227 88.0175 13.7227C87.6435 13.7227 87.3045 13.7907 86.9645 13.9627C86.6935 14.0997 86.4215 14.2717 86.2175 14.5117C86.0145 14.7517 85.8445 15.0267 85.7425 15.3347C85.6405 15.6447 85.5725 15.9527 85.5385 16.2617H90.3605ZM75.7925 17.4617C75.7925 15.0607 74.9095 13.8937 73.1775 13.8937C72.8045 13.8937 72.4305 13.9287 72.0575 14.0317C71.744 14.1069 71.4455 14.2343 71.1745 14.4087V21.1327C71.3445 21.1677 71.5815 21.2017 71.8535 21.2357C72.1245 21.2697 72.4305 21.2697 72.7705 21.2697C73.2058 21.3047 73.6428 21.2286 74.0407 21.0486C74.4386 20.8687 74.7843 20.5907 75.0455 20.2407C75.5555 19.4177 75.8265 18.4567 75.7925 17.4617ZM79.5275 17.5997C79.5275 18.5597 79.3925 19.5197 79.0525 20.4467C78.7857 21.253 78.3453 21.991 77.7625 22.6087C77.1655 23.2183 76.4483 23.6971 75.6565 24.0147C74.7395 24.3577 73.7885 24.4947 72.8045 24.4947C72.3625 24.4947 71.8875 24.4607 71.4115 24.4267C70.9365 24.3917 70.4615 24.3237 69.9855 24.2897C69.5413 24.2264 69.0996 24.1463 68.6615 24.0497C68.2761 23.9963 67.8995 23.8921 67.5415 23.7397V5.38673L71.2085 4.80373V11.3217C71.6262 11.1489 72.0577 11.0114 72.4985 10.9107C72.9675 10.8142 73.4456 10.7683 73.9245 10.7737C74.7745 10.7737 75.5885 10.9107 76.3695 11.2877C77.0553 11.6041 77.6594 12.0734 78.1355 12.6597C78.6435 13.2974 79.0137 14.0336 79.2225 14.8217C79.4265 15.6787 79.5275 16.6397 79.5275 17.6007V17.5997ZM64.0435 23.6377C63.2615 23.8427 62.4465 24.0147 61.6315 24.1177C60.6099 24.2828 59.5763 24.3631 58.5415 24.3577C57.5915 24.3917 56.6745 24.2207 55.7915 23.9117C55.1233 23.6452 54.5292 23.2216 54.0595 22.6767C53.6196 22.0969 53.3071 21.4307 53.1425 20.7217C52.9385 19.9317 52.8705 19.0747 52.8705 18.2517V11.0117H56.5385V17.8397C56.5385 19.0397 56.7085 19.8977 57.0135 20.4127C57.3195 20.9267 57.8965 21.2017 58.7455 21.2017C59.0175 21.2017 59.2885 21.2017 59.5945 21.1677C59.9005 21.1327 60.1375 21.1327 60.3755 21.0647V11.0127H64.0425V23.6377H64.0435ZM42.6485 15.7467C43.0215 15.3347 43.3615 14.9237 43.7685 14.5117C44.1425 14.0657 44.5155 13.6537 44.8895 13.2417C45.2625 12.7967 45.6025 12.4187 45.9085 12.0417C46.2135 11.6647 46.5195 11.3217 46.7575 11.0467H51.1035C50.2205 12.0417 49.3715 13.0367 48.5565 13.9627C47.7085 14.8887 46.8255 15.8497 45.8405 16.8107C46.3835 17.3247 46.8925 17.8397 47.3685 18.4227C47.8785 19.0407 48.3875 19.6577 48.8965 20.3437C49.3715 20.9957 49.8465 21.6817 50.2545 22.3337C50.6625 22.9857 51.0025 23.6037 51.2745 24.1517H47.0625C46.7915 23.7057 46.4855 23.2597 46.1455 22.7457C45.8055 22.2307 45.4325 21.7157 45.0935 21.1677C44.7151 20.6414 44.3068 20.1372 43.8705 19.6577C43.5067 19.2157 43.097 18.8135 42.6485 18.4577V24.1867H38.9805V5.38673L42.6485 4.80273V15.7467Z" fill="#373535"/>
</svg>