<svg width="235" height="99" viewBox="0 0 235 99" fill="none" xmlns="http://www.w3.org/2000/svg">
<path d="M226.402 99.4454C226.793 99.8359 227.426 99.8359 227.816 99.4454L234.18 93.0814C234.571 92.6909 234.571 92.0577 234.18 91.6672C233.79 91.2767 233.157 91.2767 232.766 91.6672L227.109 97.3241L221.453 91.6672C221.062 91.2767 220.429 91.2767 220.038 91.6672C219.648 92.0577 219.648 92.6909 220.038 93.0814L226.402 99.4454ZM0.109375 0.238281V26.987H2.10938V0.238281H0.109375ZM3.10938 29.987H225.109V27.987H3.10938V29.987ZM226.109 30.987V98.7383H228.109V30.987H226.109ZM225.109 29.987C225.662 29.987 226.109 30.4347 226.109 30.987H228.109C228.109 29.3301 226.766 27.987 225.109 27.987V29.987ZM0.109375 26.987C0.109375 28.6438 1.45252 29.987 3.10938 29.987V27.987C2.55709 27.987 2.10938 27.5393 2.10938 26.987H0.109375Z" fill="#9DAFBD" fill-opacity="0.5"/>
</svg>